<svg xmlns="http://www.w3.org/2000/svg" width="360" height="72"><polygon fill="#007CC0" points="329.489,39.739 329.489,63.659 332.34,61.178 338.45,55.883 343.635,69.546 344.264,71.17 345.892,70.544 352.185,68.099 353.781,67.472 353.185,65.878 347.966,52.104 356.444,51.735 360,51.587 357.668,48.883 349.891,39.738 345.336,39.738 352.702,48.399 345.41,48.734 343.002,48.845 343.857,51.066 349.335,65.508 346.26,66.654 340.819,52.323 339.93,49.992 338.043,51.621 332.972,56.03 332.972,39.736 329.487,39.738"/><path fill="#3EB75B" d="M4.532 37.566h-3.473v-34.682h3.473v34.682zm15.347 0l-14.643-17.787 14.174-16.895h4.365l-14.174 16.895 14.643 17.787h-4.365zm8.306-25.671h3.473v4.412c2.44-3.222 5.803-4.896 10.09-5.022 4.036 0 7.369 1.424 9.997 4.271 2.347 2.534 3.52 5.617 3.52 9.246 0 3.912-1.393 7.166-4.177 9.762-2.597 2.41-5.742 3.614-9.433 3.614-4.381 0-7.713-1.674-9.997-5.022v13.422h-3.473v-34.683zm13.423 2.581c-3.129 0-5.71 1.158-7.744 3.473-1.627 1.909-2.441 4.13-2.441 6.665 0 3.348 1.204 6.039 3.614 8.072 1.846 1.533 4.052 2.3 6.618 2.3 3.222 0 5.819-1.189 7.791-3.567 1.533-1.877 2.3-4.083 2.3-6.618 0-3.348-1.205-6.022-3.614-8.025-1.189-1.001-2.566-1.673-4.13-2.018-.783-.188-1.581-.282-2.394-.282zm44.726-2.581v25.672h-3.473v-4.505c-2.065 2.753-4.458 4.38-7.181 4.88-.845.157-1.752.235-2.722.235-4.224 0-7.65-1.439-10.278-4.318-2.316-2.471-3.473-5.491-3.473-9.058 0-4.067 1.423-7.415 4.271-10.043 2.534-2.315 5.616-3.473 9.246-3.473 4.098 0 7.352 1.549 9.762 4.646l.375.516v-4.552h3.473zm-13.517 2.581c-3.067 0-5.601 1.158-7.603 3.473-1.283 1.439-2.065 3.114-2.347 5.022-.094.532-.141 1.064-.141 1.596 0 3.285 1.188 5.945 3.567 7.978 1.908 1.627 4.145 2.441 6.711 2.441 3.066 0 5.569-1.189 7.509-3.567 1.564-1.908 2.347-4.177 2.347-6.805 0-3.191-1.173-5.788-3.52-7.791-1.846-1.565-4.02-2.347-6.523-2.347zm41.066 15.534h3.942c-1.189 2.253-2.44 3.942-3.754 5.069l-.282.188c-2.472 1.94-5.319 2.91-8.542 2.91-4.13 0-7.541-1.392-10.231-4.177-2.503-2.565-3.754-5.679-3.754-9.339 0-3.817 1.392-7.04 4.177-9.668 2.628-2.471 5.82-3.708 9.574-3.708 4.067 0 7.431 1.408 10.09 4.224 1.095 1.126 1.955 2.425 2.582 3.896l.094.281h-3.896c-2.002-3.41-4.975-5.146-8.917-5.209-3.191 0-5.789 1.189-7.791 3.567-.97 1.158-1.643 2.457-2.018 3.896-.251.908-.375 1.847-.375 2.816 0 3.129 1.173 5.71 3.52 7.744 1.94 1.659 4.208 2.488 6.805 2.488 2.816 0 5.225-1.048 7.228-3.145.499-.534 1.016-1.144 1.548-1.833zm8.728 7.556v-25.671h3.426v11.264h12.766v-11.264h3.426v25.672h-3.426v-11.264h-12.766v11.264l-3.426-.001zm38.015-26.282c4.13 0 7.478 1.44 10.044 4.318 2.189 2.503 3.285 5.57 3.285 9.199 0 4.162-1.408 7.525-4.224 10.09l-1.502 1.173c-2.159 1.408-4.599 2.112-7.321 2.112-4.287 0-7.744-1.455-10.372-4.365-2.252-2.503-3.379-5.585-3.379-9.246 0-3.942 1.408-7.196 4.224-9.762 2.534-2.345 5.615-3.519 9.245-3.519zm0 3.192c-3.223 0-5.804 1.205-7.744 3.614-1.126 1.44-1.83 3.098-2.112 4.975-.063.532-.094 1.064-.094 1.596 0 3.504 1.251 6.242 3.754 8.213 1.783 1.408 3.911 2.112 6.383 2.112 3.222 0 5.756-1.236 7.603-3.708 1.345-1.814 2.018-3.958 2.018-6.43 0-3.441-1.189-6.164-3.567-8.166-1.377-1.157-2.988-1.861-4.834-2.112-.468-.063-.937-.094-1.407-.094zm21.495 32.101l4.178-9.855-9.95-24.827h3.802l8.119 20.462 8.682-20.462h3.709l-14.832 34.683-3.708-.001zm38.062-3.942h-3.474v-4.458c-4.349-.031-7.822-1.533-10.419-4.506-2.158-2.471-3.238-5.506-3.238-9.104 0-3.879 1.424-7.118 4.271-9.715 2.597-2.377 5.726-3.567 9.386-3.567v-3.333h3.474v3.332c3.973.188 7.211 1.69 9.715 4.506 2.253 2.503 3.379 5.507 3.379 9.011 0 4.162-1.424 7.525-4.271 10.09l-1.455 1.126c-2.159 1.439-4.615 2.159-7.368 2.159v4.459zm-3.474-28.159c-3.19 0-5.772 1.173-7.743 3.52-1.596 1.877-2.394 4.099-2.394 6.665 0 3.473 1.235 6.195 3.707 8.166 1.784 1.439 3.927 2.159 6.43 2.159v-20.51zm3.474 20.509c3.222-.031 5.756-1.283 7.603-3.755 1.314-1.783 1.972-3.911 1.972-6.383 0-3.285-1.205-5.944-3.614-7.979l-1.408-.985c-1.407-.845-2.926-1.314-4.552-1.408l-.001 20.51zm18.022 2.581v-25.671l3.426-.047v20.932l15.77-20.885h3.426v25.672h-3.427v-20.885l-15.77 20.885-3.425-.001zm51.53-21.447l-8.4 21.448h-3.191l-7.932-21.448v21.448h-3.473v-25.672h5.209l7.932 21.589 8.119-21.589 5.21-.094v25.766h-3.474v-21.448zm31.022 13.891h3.942c-1.189 2.253-2.44 3.942-3.755 5.069l-.281.188c-2.473 1.94-5.32 2.91-8.542 2.91-4.13 0-7.541-1.392-10.231-4.177-2.503-2.565-3.755-5.679-3.755-9.339 0-3.817 1.393-7.04 4.178-9.668 2.628-2.471 5.819-3.708 9.574-3.708 4.066 0 7.431 1.408 10.09 4.224 1.095 1.126 1.955 2.425 2.581 3.896l.095.281h-3.896c-2.003-3.41-4.976-5.146-8.917-5.209-3.191 0-5.789 1.189-7.791 3.567-.971 1.158-1.643 2.457-2.019 3.896-.251.908-.375 1.847-.375 2.816 0 3.129 1.173 5.71 3.52 7.744 1.939 1.659 4.208 2.488 6.806 2.488 2.815 0 5.225-1.048 7.228-3.145.499-.534 1.015-1.144 1.548-1.833zm12.202-18.162v25.719h-3.473v-25.672l3.473-.047zm10.56-.047l4.271.094-9.996 12.906 10.653 12.766h-4.317l-10.606-12.766 9.995-13z"/><g enable-background="new" fill="#007CC0"><path d="M232.623 42.75c2.819 0 5.262.949 7.326 2.848l.912.912c1.695 1.991 2.544 4.268 2.544 6.829 0 2.71-.95 5.078-2.848 7.105-1.862 2.01-4.147 3.143-6.856 3.4-.369.037-.729.056-1.078.056-2.876 0-5.355-.968-7.438-2.903-2.028-1.897-3.143-4.229-3.346-6.994-.019-.259-.027-.525-.027-.802 0-2.636.949-4.959 2.848-6.968 1.843-1.99 4.101-3.133 6.773-3.429.387-.035.784-.054 1.19-.054zm0 1.88c-2.342 0-4.369.829-6.083 2.488-1.714 1.807-2.599 3.853-2.654 6.138 0 2.415.848 4.479 2.544 6.193 1.714 1.714 3.777 2.571 6.193 2.571 2.358 0 4.387-.839 6.082-2.516 1.715-1.77 2.59-3.815 2.627-6.139 0-2.377-.849-4.423-2.544-6.138l-.913-.802c-1.566-1.196-3.316-1.795-5.252-1.795zM246.363 63.541v-15.123h2.019v6.635h7.521v-6.635h2.018v15.123h-2.018v-6.636h-7.521v6.636h-2.019zM268.398 48.418l6.359 15.123h-2.074l-5.419-12.718-5.308 12.718h-2.074l6.359-15.123h2.157zM292.119 48.418v15.123h-2.045v-2.654c-1.217 1.622-2.627 2.581-4.23 2.875-.498.093-1.033.139-1.604.139-2.488 0-4.507-.848-6.055-2.544-1.365-1.455-2.047-3.234-2.047-5.336 0-2.396.839-4.368 2.517-5.916 1.493-1.364 3.308-2.046 5.446-2.046 2.414 0 4.332.912 5.751 2.736l.222.305v-2.682h2.045zm-7.962 1.52c-1.807 0-3.3.682-4.479 2.046-.756.848-1.217 1.834-1.382 2.958-.056.313-.083.627-.083.94 0 1.936.7 3.502 2.102 4.7 1.123.958 2.441 1.438 3.953 1.438 1.807 0 3.281-.7 4.424-2.102.922-1.124 1.383-2.461 1.383-4.009 0-1.88-.691-3.41-2.074-4.59-1.089-.92-2.37-1.381-3.844-1.381zM295.604 63.541v-15.123l2.019-.028v12.331l9.29-12.303h2.018v15.123h-2.018v-12.304l-9.29 12.304h-2.019zm2.488-20.266h1.77c.092.59.332 1.014.719 1.271.535.295 1.105.442 1.715.442.607 0 1.179-.147 1.714-.442.387-.258.626-.682.719-1.271h1.77c-.203 1.105-.571 1.88-1.106 2.322l-.248.193c-.738.535-1.688.802-2.848.802-2.23 0-3.595-.949-4.092-2.848l-.113-.469zM312.412 63.541v-15.123h2.02v6.635h7.52v-6.635h2.019v15.123h-2.019v-6.636h-7.52v6.636h-2.02z"/></g></svg>