<svg xmlns="http://www.w3.org/2000/svg" viewBox="0 0 50 18" enable-background="new 0 0 50 18"><g fill="#fff"><path d="M5.1 17.7l-2.7-14.9h-.1c.1 1.1.2 2.2.2 3.2v11.7h-2.5v-17.5h4.1l2.5 13.7h.1l2.4-13.7h4.2v17.5h-2.5v-11.9c0-1 0-2 .1-3h-.1l-2.8 14.9h-2.9zM22.2 17.7h-6.5v-17.5h6.5v2.8h-3.8v4.2h3.5v2.8h-3.5v4.8h3.8v2.9zM33.1 17.7h-2.7v-7.7h-3.4v7.7h-2.7v-17.5h2.7v6.9h3.5v-6.9h2.7v17.5zM50 8.9c0 2.9-.4 5.1-1.2 6.7-.8 1.6-2 2.3-3.6 2.3-1.5 0-2.6-.7-3.4-2-.8-1.3-1.3-3.3-1.4-5.9h-2.1v7.7h-2.7v-17.5h2.7v6.9h2.1c.2-2.3.7-4.1 1.5-5.4.8-1.2 1.9-1.9 3.3-1.9 1.5 0 2.7.8 3.6 2.3.8 1.7 1.2 3.9 1.2 6.8zm-6.9 0c0 4.1.7 6.1 2.1 6.1 1.4 0 2.1-2 2.1-6.1s-.7-6.1-2.1-6.1c-1.4 0-2.1 2-2.1 6.1z"/></g></svg>