<svg xmlns="http://www.w3.org/2000/svg" viewBox="0 0 100 100" enable-background="new 0 0 100 100"><path fill="#25B86D" d="M56.2.4v51.5c0 2.2-1.8 4-4.1 4h-6.1c-.3 0-.6.3-.6.6v43.2c1.5.1 3.1.2 4.6.2 27.6 0 50-22.4 50-50 0-25.4-19.1-46.5-43.8-49.5zm-1 76.9c-3.5 0-6.2-2.8-6.2-6.2 0-3.5 2.8-6.2 6.2-6.2 3.5 0 6.2 2.8 6.2 6.2 0 3.4-2.8 6.2-6.2 6.2zm14.6 0c-3.5 0-6.2-2.8-6.2-6.2 0-3.5 2.8-6.2 6.2-6.2 3.5 0 6.2 2.8 6.2 6.2.1 3.4-2.7 6.2-6.2 6.2zm14.7 0c-3.5 0-6.2-2.8-6.2-6.2 0-3.5 2.8-6.2 6.2-6.2 3.5 0 6.2 2.8 6.2 6.2 0 3.4-2.8 6.2-6.2 6.2zm-34.9-27.3c.3 0 .5-.2.6-.5v-49.5h.7-.9c-27.6 0-50 22.4-50 50 0 24 16.9 44 39.4 48.9v-44.9c0-2.2 1.8-3.9 3.9-4h6.3zm-9.2-8.8c-3.5 0-6.2-2.8-6.2-6.2s2.8-6.2 6.2-6.2c3.5 0 6.2 2.8 6.2 6.2s-2.7 6.2-6.2 6.2z"/></svg>