<svg xmlns="http://www.w3.org/2000/svg" viewBox="0 0 100 100" enable-background="new 0 0 100 100"><path fill="#EC741F" d="M61.9 77.9c-3.1 5.3-5.9 10.2-8.9 15.3-4-2.3-7.7-4.6-11.5-6.6-1.4-.8-1.8-1.5-1.2-3 4.1-10.5 9.6-20.2 17.3-28.5.7-.8 2-1.3 3-1.5 11.3-2 22.5-2.1 34 0v15.5h-17.5c4.4 7.7 8.5 14.9 12.7 22.3-5.1 2.9-10 5.8-15.2 8.7-4.1-7.5-8.3-14.6-12.7-22.2zm-8.9-71.1c-3.9 2.2-7.4 4.5-11.1 6.4-2 1-2.2 2.1-1.4 3.9 4 9.7 9 18.8 16 26.6 1.1 1.2 2.9 2.2 4.6 2.6 3.4.7 6.9 1.4 10.4 1.4 7 0 14-.5 21-.9.8 0 2.1-1.1 2.2-1.7.2-4.7.1-9.3.1-14.2h-17.6c4.4-7.6 8.5-14.8 12.8-22.2-5.1-3-10-5.8-15.2-8.8-4.3 7.4-8.4 14.5-12.8 22.1-3.2-5.2-6-10.1-9-15.2zm-49.7 34.5c0 5 .1 9.7-.1 14.3-.1 2.4.6 3.2 3.1 3.2 6.5-.2 12.9-.1 19.4 0 .9 0 1.8.1 3.1.2-3 5.3-5.8 10.1-8.7 15.1 3.8 2.2 7.6 4.1 11 6.4 1.9 1.3 3.1 1.1 4.3-.8 4.4-7.2 8.9-14.3 12.9-21.8 1.5-2.9 3.1-6.9 2.2-9.6-3.3-11.2-9.3-21.1-17-30.1-4.5 2.6-8.8 5.1-13.4 7.7 2.9 5.1 5.7 10 8.8 15.4h-25.6z"/></svg>