<svg xmlns="http://www.w3.org/2000/svg" viewBox="0 0 526.7 32.3" enable-background="new 0 0 526.7 32.3"><path fill="#FFD401" d="M344.2 27.3c-6.8 0-14.4 0-21.1-12.1l-.1-.2c-5.4-11.1-14.7-15-21.7-15h-76c-7 0-16.3 3.9-21.6 14.9l-.1.2c-6.7 12.2-14.4 12.2-21.1 12.2h-182.5v5h526.6999999999999v-5h-182.5z"/><g fill-rule="evenodd" clip-rule="evenodd"><path d="M287.7 16.1h9.8v9h-9.8v-9zM278 7.1h9.7v9h-9.7v-9zM268.2 16.1h9.8v9h-9.8v-9zM258.5 7.1h9.8v9h-9.8v-9zM248.6 16.1h9.8v9h-9.8v-9zM238.9 7.1h9.7v9h-9.7v-9zM229.2 16.1h9.8v9h-9.8v-9z"/></g></svg>