<svg xmlns="http://www.w3.org/2000/svg" viewBox="0 0 337.6 145.2" enable-background="new 0 0 337.6 145.2"><path fill="#FFD401" d="M279.2 145.2h-10.1v-5h10.1v5zm-20.1 0h-10.1v-5h10.1v5zm-20.1 0h-10.1v-5h10.1v5zm-20.1 0h-10.1v-5h10.1v5zm-20.1 0h-10.1v-5h10.1v5zm-20.2 0h-10.1v-5h10.1v5zm-20.1 0h-10.1v-5h10.1v5zm-20.1 0h-10.1v-5h10.1v5zm-20.1 0h-10.1v-5h10.1v5zm-20.1 0h-10.1v-5h10.1v5zm-20.1 0h-10.1v-5h10.1v5zm-20.1 0h-10.1v-5h10.1v5zM65.4 95.2c-5.6 0-9.9 1.6-13 4.8-3 3.2-4.5 7.9-4.5 14s1.5 10.8 4.5 14c3 3.3 7.3 4.9 12.9 4.9s9.9-1.6 12.9-4.9c3-3.3 4.5-7.9 4.5-14s-1.5-10.7-4.5-14c-2.9-3.1-7.2-4.8-12.8-4.8zm-.1 31.2c-3.1 0-5.4-1-7-3.1-1.6-2.1-2.3-5.1-2.3-9.2s.8-7.2 2.4-9.3c1.6-2.1 3.9-3.1 7-3.1 6.2 0 9.2 4.1 9.2 12.4 0 8.2-3.1 12.3-9.3 12.3zm47.6-16.2h-14.5v-14.4h-7.8v36.6h7.8v-15.8h14.5v15.8h7.7v-36.6h-7.7v14.4zm21.9-.2c-.8 5-1.4 8.6-1.8 10.8-.5 2.2-.9 3.7-1.5 4.5-.5.8-1.2 1.2-2.1 1.2-.9 0-1.8-.2-2.7-.5v6.4c1.1.4 2.3.6 3.7.6 2.6 0 4.6-.7 6.2-2.1 1.5-1.4 2.7-3.8 3.5-7.3.8-3.4 1.7-9.4 2.7-18l.4-3.4h9v30.1h7.7v-36.5h-23.1c-.6 4.5-1.3 9.2-2 14.2zm43.7-14.3l-12.9 36.8h8.4l2.7-8.7h13.3l2.7 8.7h8.4l-13-36.8h-9.6zm.1 21.5c2.6-8.4 4.2-13.7 4.7-15.8.1.6.4 1.4.7 2.5.3 1 1.7 5.5 4.1 13.4h-9.5zm44.5-24.3c3.8 0 6.8-.7 8.8-2.1 2-1.4 3.2-3.7 3.5-6.8h-6.9c-.2 1.6-.7 2.8-1.5 3.5-.8.8-2.1 1.1-3.8 1.1-1.9 0-3.3-.3-4-1-.7-.7-1.2-1.9-1.3-3.6h-6.8c.2 3.2 1.3 5.5 3.2 6.9 1.9 1.3 4.8 2 8.8 2zm-9.5 30.7h-.2l.3-5.4.1-4.7v-17.7h-7v36.6h9.3l17-28h.2c-.3 4.6-.5 8.1-.5 10.5v17.6h6.9v-36.7h-9.3l-16.8 27.8zm57.9-13.4h-14.5v-14.4h-7.8v36.6h7.8v-15.8h14.5v15.8h7.7v-36.6h-7.7v14.4zm-215.6-109.2h-53.2l-2.7 15.5h17.1l-9.6 54.7h19l9.7-54.7h17.1l2.6-15.5zm16.8 57h22.8l1.1 13.2h20.7l-10.7-70.5h-25.3l-35.3 70.5h20.8l5.9-13.2zm16.2-37.6c1.5-3.7 2.6-6.4 3.1-8.1 0 1.8.2 4.7.4 8.7.3 4.1.6 7.4.8 9.9l1 11.5h-14.8c4.8-10.9 8-18.3 9.5-22zm62.4 15.2l14.5 35.6h21.5l-16.6-36.7 27.6-33.5h-20.8l-26.1 34 6-34h-19.1l-12.4 70.2h19.1l6.3-35.6zm77 21c-10.3 0-14.2-6.8-11.8-20.3 1.1-6.5 3.3-11.6 6.5-15.3 3.2-3.7 7-5.5 11.5-5.5 3 0 5.7.4 8.1 1.2 2.4.8 4.9 1.9 7.2 3.1l8.4-14.9c-6.2-3.3-13.1-4.9-20.7-4.9-6.9 0-13.2 1.5-18.9 4.4-5.7 3-10.3 7.2-14.1 12.7-3.7 5.5-6.2 11.9-7.5 19.2-2.1 11.6-.8 20.5 3.8 26.6 4.6 6.1 12.1 9.2 22.7 9.2 7.4 0 14.2-1.3 20.6-3.9l2.8-16c-3.2 1.2-6.3 2.3-9.3 3.1-3.1.9-6.2 1.3-9.3 1.3zm85.8-55.6l-36.7 49.3h-.4c2.2-9.6 3.6-16 4.2-19.2l5.3-30.1h-16.9l-12.4 70.2h23.4l37-49.3h.4c-2.1 8.9-3.6 15.5-4.4 20l-5.2 29.4h16.8l12.4-70.3h-23.5z"/></svg>