<svg xmlns="http://www.w3.org/2000/svg" viewBox="0 0 180 70" enable-background="new 0 0 180 70"><g fill="#474443"><path d="M43.4 65.7h-9.8v-22.3h-4.6l-.4 5.3c-1.1 11.7-2 15.9-10.9 17.8l-2.4-7.1c3.3-1.5 3.7-2.3 4.3-11.2l.8-11.9h23v29.4zM75.4 60.2l-2 6.4c-3.6-.3-6-1.3-7.5-4.1-2.1 3.2-5.4 4.3-8.9 4.3-5.9 0-9.6-3.8-9.6-9.2 0-6.5 4.9-10.1 14-10.1h2.5v-1c0-3.2-1.2-4.1-4.6-4.1-1.8 0-4.8.6-7.7 1.5l-2.2-6.4c3.6-1.5 8-2.3 11.3-2.3 9 0 12.7 3.6 12.7 10.7v10.7c.1 2.2.7 3.1 2 3.6zm-11.5-2.8v-4.8h-1.7c-3.5 0-5.2 1.3-5.2 3.9 0 2 1 3.3 2.9 3.3 1.8 0 3.1-1 4-2.4zM105.9 56.8c0 6.1-5.5 8.8-13.4 8.8h-13v-29c4.5-.8 8.3-1.3 12.2-1.3 8 0 12.9 2.6 12.9 8 0 3.2-2 5.5-6.3 6.3 5.3.5 7.6 3.1 7.6 7.2zm-16.5-15.3v6.2h2.3c2 0 3.3-1 3.3-3.2 0-2-1.2-3.2-3.4-3.2-.8 0-1.5.1-2.2.2zm6.5 14.5c0-2.4-1.3-3.5-3.7-3.5h-2.8v7h2.6c2.3-.1 3.9-1.1 3.9-3.5zM138.4 65.7h-10.2l-5.9-12.4h-2.3v12.4h-9.8v-29.5h9.8v11.4h2.6l6-11.4h9.2l-7.5 13.7 8.1 15.8zM166.9 60.2l-2 6.4c-3.6-.3-6-1.3-7.5-4.1-2.1 3.2-5.4 4.3-8.9 4.3-5.9 0-9.6-3.8-9.6-9.2 0-6.5 4.9-10.1 14-10.1h2.5v-1c0-3.2-1.2-4.1-4.6-4.1-1.8 0-4.8.6-7.7 1.5l-2.2-6.4c3.6-1.5 8-2.3 11.3-2.3 9 0 12.7 3.6 12.7 10.7v10.7c.2 2.2.7 3.1 2 3.6zm-11.5-2.8v-4.8h-1.7c-3.5 0-5.2 1.3-5.2 3.9 0 2 1.1 3.3 2.9 3.3 1.8 0 3.2-1 4-2.4z"/></g><g fill="#FF3334"><path d="M25.2 33.2l-.2-8.3c-.2-4-.1-7.2.4-11.3l-3.5 16.8h-8.4l-3.5-16.8c.5 4 .5 7.2.4 11.3l-.2 8.2h-9.9l2.3-28.5h12.1l2.9 17.2 2.8-17.2h12.2l2.4 28.5h-9.8zM39.6 45.3l-1.1-7.2c5.5-.5 7.8-1.8 9.2-5h-3.6l-8.2-28.5h11.2l3.6 22.1 4.4-22.1h10.9l-8.8 28.5c-2.3 7.9-8.1 12-17.6 12.2zM93.3 33.2h-10.6v-21h-3.4l-.4 4.1c-1.1 11.5-2 15.9-11.1 17.6l-2.6-7.5c3.2-1.6 3.6-2.1 4.1-10.5l.7-11.2h23.3v28.5zM124.4 23.3c0 6.4-5 9.8-12.6 9.8h-13v-28.5h10.6v8.7h1c9.7 0 14 3.3 14 10zm-10.6-.2c0-2.2-1-3.4-3.6-3.4h-.8v6.8h1.2c2.2.1 3.2-1.3 3.2-3.4zM141.9 12.3v20.9h-10.6v-20.9h-7.7v-7.7h26.5l-1.3 7.6h-6.9zM169.7 33.2v-8.6c0-4 .7-7.3 1.5-10.3l-8.1 18.8h-10.3v-28.5h10v8.8c0 3.9-.6 7.3-1.5 10.3l8-19h10.3v28.5h-9.9z"/></g></svg>