<svg xmlns="http://www.w3.org/2000/svg" viewBox="0 0 400 160" enable-background="new 0 0 400 160"><path fill="#088EFF" d="M397.8 28.4c-1.4-2-3.7-3.3-6.9-4v-.4c2.4-.4 4.2-1.6 5.7-3.5 1.4-1.9 2.1-4.4 2.1-7.5 0-4.5-1.6-7.7-4.9-9.8-3.2-2-8.5-3.1-15.6-3.1h-11.9c-2.1 0-3.9 1.7-3.9 3.9v43c0 2.1 1.7 3.9 3.9 3.9h15.1c5.7 0 10.3-1.3 13.6-3.9 3.3-2.6 5-6.2 5-10.8 0-3.2-.7-5.9-2.2-7.8zm-24.6-19.4h5.6c3.1 0 5.3.4 6.7 1.3 1.4.8 2.1 2.2 2.1 4.2 0 2.1-.7 3.6-2 4.5-1.3.9-3.4 1.4-6.3 1.4h-6.2v-11.4zm13.5 31.3c-1.4 1.1-3.6 1.7-6.5 1.7h-7v-13.2h6.7c6 0 9 2.1 9 6.3-.1 2.4-.8 4.1-2.2 5.2zm-31.5-36.2v4.7c0 .2-.2.4-.4.4h-13.4v41.3c0 .2-.2.4-.4.4h-10c-.2 0-.3-.2-.4-.3v-41.4h-13.4c-.2 0-.4-.2-.4-.4v-4.7c0-2.1 1.7-3.9 3.9-3.9h30.5c2.3 0 4 1.8 4 3.9zm-47.2 11.2v129.5c0 8.3-6.7 15-15 15h-278c-8.3 0-15-6.7-15-15v-129.5c0-8.3 6.7-15 15-15h277.3v.1l.6-.1c8.4-.1 15.1 6.7 15.1 15z"/><path fill="#fff" d="M182.7 109.3v14.4c0 .6-.4 1.1-.9 1.4-7.8 3.1-16.5 4.7-26 4.7-14.3 0-25.2-4.3-32.8-13-7.6-8.7-11.3-21.1-11.3-37.3 0-10.2 1.9-19.1 5.6-26.8s9-13.6 16-17.7 15.1-6.1 24.5-6.1c9.1 0 18.3 2.1 27.5 6.4.4.3.8.7.8 1.3 0 .2 0 .4-.1.6l-1.4 3.5-4.2 10.3c-.2.6-.7 1.1-1.4 1.1-.3 0-.5-.1-.7-.2-3.2-1.5-6.4-2.8-9.6-3.9-3.7-1.3-7.4-1.9-10.9-1.9-7.8 0-13.9 2.9-18.2 8.8-4.3 5.9-6.4 14.1-6.4 24.6 0 21.9 8.2 32.8 24.6 32.8 6.4 0 14.2-1.6 23.1-4.6.1 0 .2-.1.4-.1.8.2 1.4.9 1.4 1.7zm-74.8 16l-1.3-1.7-34.1-46.2 33.9-44.7c.5-.6.4-1.4-.1-2-.3-.3-.7-.4-1.1-.4h-15.3c-2.5 0-4.6 1.2-6 3l-33 44.5v-46.9c-.1-.4-.3-.7-.7-.7h-12.6c-4 0-7.2 3.1-7.5 7v84.1c.3 3.9 3.5 7 7.5 7h12.6c.4 0 .7-.3.7-.7v-49l33 46.1c1.3 2.2 3.7 3.6 6.4 3.6h16.2c.5 0 .9-.2 1.3-.5.8-.7.8-1.8.1-2.5zm171.2 0l-1.3-1.7-34.1-46.2 33.9-44.7c.5-.6.4-1.4-.1-2-.3-.3-.7-.4-1.1-.4h-15.4c-2.5 0-4.6 1.2-6 3l-32.9 44.5v-46.9c-.1-.4-.3-.7-.7-.7h-12.6c-4 0-7.2 3.1-7.5 7v84.1c.3 3.9 3.5 7 7.5 7h12.6c.4 0 .7-.3.7-.7v-49l33 46.1c1.3 2.2 3.7 3.6 6.4 3.6h16.2c.5 0 .9-.2 1.3-.5.8-.7.8-1.8.1-2.5z"/></svg>