<svg baseProfile="basic" xmlns="http://www.w3.org/2000/svg" width="595.28" height="879.152"><path fill="#E9EAEA" d="M595.28 52.722h-595.28v818.9889999999999c0 4.109 3.331 7.44 7.44 7.44h580.348c4.11 0 7.44-3.331 7.44-7.44v-14.634h.051v-804.355z"/><rect x="24" y="54.189" fill="#fff" width="548" height="824.963"/><linearGradient id="a" gradientUnits="userSpaceOnUse" x1="24" y1="142.771" x2="572" y2="142.771"><stop offset=".268" stop-color="#fff"/><stop offset=".826" stop-color="#50C787"/></linearGradient><rect x="24" y="103.271" fill="url(#a)" width="548" height="79"/><polygon fill="#007CC0" points="210.345,145.571 210.345,157.167 211.727,155.964 214.689,153.397 217.202,160.02 217.507,160.808 218.296,160.504 221.347,159.319 222.12,159.015 221.832,158.242 219.302,151.565 223.411,151.387 225.135,151.314 224.004,150.004 220.235,145.571 218.027,145.571 221.598,149.77 218.063,149.932 216.896,149.985 217.31,151.062 219.966,158.063 218.475,158.619 215.837,151.672 215.406,150.542 214.492,151.331 212.033,153.468 212.033,145.57 210.344,145.571"/><path fill="#0081C8" d="M162.956 146.91c1.386 0 2.586.467 3.601 1.399l.449.449c.833.979 1.25 2.097 1.25 3.356 0 1.332-.467 2.496-1.4 3.492-.915.987-2.037 1.544-3.369 1.671-.181.018-.357.027-.53.027-1.413 0-2.632-.476-3.655-1.427-.996-.933-1.544-2.079-1.644-3.438l-.014-.394c0-1.295.467-2.437 1.399-3.424.906-.978 2.016-1.54 3.329-1.685.189-.017.384-.026.584-.026zm0 .924c-1.15 0-2.147.408-2.989 1.223-.842.888-1.277 1.893-1.305 3.016 0 1.187.417 2.201 1.25 3.044.842.842 1.857 1.263 3.043 1.263 1.16 0 2.156-.412 2.989-1.236.842-.87 1.273-1.875 1.291-3.017 0-1.168-.417-2.174-1.25-3.016l-.449-.394c-.769-.589-1.629-.883-2.58-.883zm6.744 9.293v-7.432h.992v3.261h3.696v-3.261h.992v7.432h-.992v-3.261h-3.696v3.261h-.992zm10.861-7.432l3.125 7.432h-1.019l-2.663-6.25-2.608 6.25h-1.019l3.125-7.432h1.059zm11.277 0v7.432h-1.006v-1.305c-.598.797-1.29 1.269-2.078 1.413-.244.045-.507.068-.788.068-1.223 0-2.214-.417-2.975-1.25-.671-.715-1.006-1.59-1.006-2.622 0-1.178.412-2.147 1.237-2.908.733-.67 1.626-1.005 2.676-1.005 1.187 0 2.129.448 2.826 1.345l.108.149v-1.318l1.006.001zm-3.913.748c-.888 0-1.621.335-2.201 1.006-.372.417-.598.901-.679 1.454-.027.154-.041.308-.041.462 0 .951.344 1.721 1.033 2.309.552.471 1.2.707 1.943.707.888 0 1.612-.344 2.174-1.033.453-.552.679-1.21.679-1.97 0-.924-.339-1.676-1.019-2.256-.535-.453-1.164-.679-1.889-.679zm5.704 6.684v-7.432l.992-.014v6.059l4.565-6.046h.992v7.432h-.992v-6.046l-4.565 6.046-.992.001zm1.223-9.959h.87c.045.29.163.498.354.625.262.145.544.217.842.217.299 0 .579-.072.842-.217.19-.127.308-.335.354-.625h.869c-.099.544-.281.924-.544 1.141l-.122.095c-.362.263-.828.394-1.399.394-1.097 0-1.767-.466-2.011-1.399l-.055-.231zm7.116 9.959v-7.432h.992v3.261h3.696v-3.261h.992v7.432h-.992v-3.261h-3.696v3.261h-.992z"/><path fill="#3EB75B" d="M52.823 144.518h-1.683v-16.812h1.683v16.812zm7.439 0l-7.098-8.622 6.871-8.19h2.116l-6.871 8.19 7.098 8.622h-2.116zm4.027-12.445h1.683v2.139c1.183-1.562 2.813-2.374 4.892-2.434 1.956 0 3.572.69 4.845 2.07 1.138 1.228 1.706 2.723 1.706 4.482 0 1.896-.675 3.473-2.025 4.732-1.259 1.168-2.783 1.752-4.573 1.752-2.124 0-3.739-.811-4.846-2.434v6.507h-1.683l.001-16.814zm6.506 1.252c-1.517 0-2.768.561-3.754 1.683-.789.925-1.183 2.002-1.183 3.23 0 1.623.583 2.927 1.752 3.913.895.743 1.964 1.115 3.208 1.115 1.562 0 2.821-.576 3.777-1.729.743-.91 1.114-1.979 1.114-3.208 0-1.623-.584-2.919-1.752-3.89-.577-.485-1.244-.811-2.002-.979-.379-.09-.766-.135-1.16-.135zm21.681-1.252v12.444h-1.683v-2.184c-1.001 1.335-2.162 2.124-3.481 2.366-.409.076-.85.114-1.32.114-2.048 0-3.708-.698-4.982-2.093-1.122-1.198-1.683-2.662-1.683-4.391 0-1.971.69-3.595 2.07-4.869 1.228-1.122 2.722-1.683 4.482-1.683 1.987 0 3.564.751 4.732 2.252l.182.251v-2.207h1.683zm-6.552 1.252c-1.486 0-2.715.561-3.685 1.683-.622.698-1.001 1.509-1.137 2.434-.046.258-.068.516-.068.774 0 1.593.576 2.882 1.729 3.868.925.789 2.01 1.183 3.253 1.183 1.486 0 2.699-.576 3.64-1.729.758-.925 1.137-2.025 1.137-3.299 0-1.547-.569-2.806-1.706-3.777-.896-.758-1.95-1.137-3.163-1.137zm19.906 7.53h1.911c-.577 1.092-1.183 1.911-1.82 2.457l-.137.091c-1.198.941-2.579 1.411-4.14 1.411-2.002 0-3.655-.675-4.959-2.025-1.213-1.243-1.82-2.753-1.82-4.527 0-1.85.675-3.412 2.025-4.686 1.274-1.198 2.821-1.797 4.641-1.797 1.971 0 3.602.682 4.891 2.048.531.546.948 1.176 1.251 1.889l.046.136h-1.888c-.971-1.653-2.411-2.495-4.323-2.525-1.547 0-2.806.576-3.777 1.729-.47.562-.796 1.191-.978 1.888-.122.44-.182.895-.182 1.365 0 1.517.569 2.768 1.706 3.754.94.804 2.04 1.206 3.299 1.206 1.365 0 2.533-.508 3.504-1.524.242-.26.492-.556.75-.89zm4.231 3.663v-12.444h1.661v5.46h6.188v-5.46h1.661v12.444h-1.661v-5.46h-6.188v5.46h-1.661zm18.428-12.74c2.002 0 3.625.698 4.869 2.093 1.062 1.214 1.593 2.7 1.593 4.459 0 2.017-.682 3.648-2.048 4.892l-.728.569c-1.047.682-2.229 1.024-3.549 1.024-2.078 0-3.754-.705-5.028-2.116-1.092-1.213-1.638-2.707-1.638-4.482 0-1.911.682-3.488 2.048-4.732 1.228-1.138 2.721-1.707 4.481-1.707zm0 1.547c-1.562 0-2.813.584-3.754 1.752-.546.698-.887 1.501-1.024 2.411-.031.258-.046.516-.046.774 0 1.699.606 3.026 1.82 3.981.864.682 1.896 1.024 3.094 1.024 1.562 0 2.791-.599 3.685-1.797.652-.879.978-1.919.978-3.117 0-1.668-.577-2.988-1.729-3.959-.668-.561-1.449-.902-2.343-1.023-.226-.031-.454-.046-.681-.046zm10.42 15.561l2.025-4.778-4.823-12.035h1.842l3.936 9.919 4.209-9.919h1.797l-7.189 16.812h-1.797v.001zm18.45-1.911h-1.683v-2.161c-2.108-.016-3.792-.743-5.05-2.184-1.047-1.198-1.57-2.669-1.57-4.414 0-1.88.69-3.45 2.07-4.709 1.259-1.152 2.776-1.729 4.55-1.729v-1.615h1.683v1.615c1.926.091 3.496.819 4.709 2.184 1.092 1.213 1.638 2.669 1.638 4.368 0 2.017-.691 3.648-2.07 4.892l-.705.546c-1.047.698-2.237 1.047-3.572 1.047v2.16zm-1.684-13.65c-1.547 0-2.798.569-3.754 1.706-.774.91-1.16 1.987-1.16 3.23 0 1.684.599 3.004 1.797 3.959.865.698 1.904 1.047 3.117 1.047v-9.942zm1.684 9.942c1.562-.015 2.791-.622 3.686-1.82.637-.864.955-1.896.955-3.094 0-1.593-.584-2.881-1.752-3.868l-.682-.478c-.682-.41-1.419-.637-2.207-.682v9.942zm8.736 1.251v-12.444l1.661-.022v10.146l7.644-10.124h1.661v12.444h-1.661v-10.124l-7.644 10.124h-1.661zm24.98-10.396l-4.072 10.397h-1.547l-3.845-10.397v10.397h-1.683v-12.445h2.525l3.845 10.465 3.936-10.465 2.525-.046v12.49h-1.683l-.001-10.396zm15.037 6.733h1.911c-.577 1.092-1.183 1.911-1.82 2.457l-.136.091c-1.198.941-2.579 1.411-4.141 1.411-2.002 0-3.655-.675-4.959-2.025-1.214-1.243-1.82-2.753-1.82-4.527 0-1.85.675-3.412 2.025-4.686 1.274-1.198 2.821-1.797 4.641-1.797 1.972 0 3.602.682 4.892 2.048.531.546.948 1.176 1.251 1.889l.046.136h-1.888c-.971-1.653-2.411-2.495-4.322-2.525-1.547 0-2.806.576-3.777 1.729-.47.562-.796 1.191-.978 1.888-.122.44-.182.895-.182 1.365 0 1.517.568 2.768 1.706 3.754.94.804 2.04 1.206 3.298 1.206 1.365 0 2.533-.508 3.504-1.524.241-.26.49-.556.749-.89zm5.915-8.804v12.467h-1.683v-12.445l1.683-.022zm5.118-.023l2.07.046-4.845 6.256 5.164 6.188h-2.093l-5.142-6.188 4.846-6.302z"/><rect x="24" y="182.271" fill="#42BAEA" width="548" height="23.419"/><rect x="355.583" y="392.814" fill="#3DB65A" width="62.667" height="16.125"/><rect x="434.99" y="670.297" fill="#FF4B3D" width="132.396" height="20.25"/><rect x="434.99" y="690.547" fill="#FCFCFC" width="132.396" height="188.605"/><rect x="434.99" y="690.547" fill="#EDEDED" width="132.396" height="18.637"/><rect x="444.096" y="718.58" opacity=".8" fill="#EDEDED" width="114.183" height="8.536"/><rect x="444.096" y="731.455" opacity=".8" fill="#EDEDED" width="114.183" height="8.536"/><rect x="444.096" y="744.33" opacity=".8" fill="#EDEDED" width="114.183" height="8.536"/><rect x="434.99" y="763.055" opacity=".8" fill="#EDEDED" width="132.396" height="1.121"/><rect x="444.096" y="773.583" opacity=".8" fill="#EDEDED" width="114.183" height="8.536"/><rect x="444.096" y="786.458" opacity=".8" fill="#EDEDED" width="114.183" height="8.536"/><rect x="444.096" y="799.333" opacity=".8" fill="#EDEDED" width="114.183" height="8.536"/><rect x="434.99" y="818.059" opacity=".8" fill="#EDEDED" width="132.396" height="1.121"/><rect x="444.096" y="828.587" opacity=".8" fill="#EDEDED" width="114.183" height="8.536"/><rect x="444.096" y="841.462" opacity=".8" fill="#EDEDED" width="114.183" height="8.536"/><rect x="444.096" y="854.337" opacity=".8" fill="#EDEDED" width="114.183" height="8.536"/><rect x="434.99" y="873.062" opacity=".8" fill="#EDEDED" width="132.396" height="1.121"/><rect x="434.99" y="873.062" opacity=".8" fill="#EDEDED" width="132.396" height="1.121"/><g fill="#F2EB3F"><rect x="26.5" y="55.222" width="543" height="45.548"/><path d="M567 57.722v40.548h-538v-40.548h538m5-5h-548v50.548h548v-50.548z"/><rect x="318.5" y="114.804" width="103" height="55.884"/><path d="M419 117.304v50.884h-98v-50.884h98m5-5h-108v60.884h108v-60.884z"/><rect x="437.49" y="212.804" width="127.396" height="36.385"/><path d="M562.385 215.304v31.385h-122.395v-31.385h122.395m5-5h-132.395v41.385h132.396v-41.385h-.001z"/><rect x="437.49" y="258.803" width="127.396" height="36.385"/><path d="M562.385 261.303v31.385h-122.395v-31.385h122.395m5-5h-132.395v41.385h132.396v-41.385h-.001z"/><rect x="437.49" y="304.803" width="127.396" height="36.385"/><path d="M562.385 307.302v31.385h-122.395v-31.385h122.395m5-5h-132.395v41.385h132.396v-41.385h-.001z"/><rect x="437.49" y="350.802" width="127.396" height="36.385"/><path d="M562.385 353.302v31.385h-122.395v-31.385h122.395m5-5h-132.395v41.385h132.396v-41.385h-.001z"/><rect x="437.49" y="396.801" width="127.396" height="36.385"/><path d="M562.385 399.301v31.385h-122.395v-31.385h122.395m5-5h-132.395v41.385h132.396v-41.385h-.001z"/><rect x="437.49" y="442.801" width="127.396" height="36.384"/><path d="M562.385 445.3v31.385h-122.395v-31.385h122.395m5-5h-132.395v41.385h132.396v-41.385h-.001z"/><rect x="437.49" y="488.8" width="127.396" height="36.385"/><path d="M562.385 491.3v31.385h-122.395v-31.385h122.395m5-5h-132.395v41.385h132.396v-41.385h-.001z"/><rect x="437.49" y="534.799" width="127.396" height="36.385"/><path d="M562.385 537.299v31.385h-122.395v-31.385h122.395m5-5h-132.395v41.385h132.396v-41.385h-.001z"/><rect x="437.49" y="580.798" width="127.396" height="36.385"/><path d="M562.385 583.298v31.385h-122.395v-31.385h122.395m5-5h-132.395v41.385h132.396v-41.385h-.001z"/><rect x="437.49" y="626.797" width="127.396" height="36.385"/><path d="M562.385 629.297v31.385h-122.395v-31.385h122.395m5-5h-132.395v41.385h132.396v-41.385h-.001z"/><rect x="168.124" y="212.804" width="259.751" height="28.193"/><path d="M425.375 215.304v23.193h-254.751v-23.193h254.751m5-5h-264.751v33.193h264.751v-33.193z"/><rect x="31.115" y="212.804" width="127.396" height="99.025"/><path d="M156.01 215.304v94.025h-122.396v-94.025h122.396m5-5h-132.396v104.025h132.396v-104.025z"/><rect x="31.115" y="321.651" width="127.396" height="99.025"/><path d="M156.01 324.151v94.025h-122.396v-94.025h122.396m5-5h-132.396v104.025h132.396v-104.025z"/><rect x="31.115" y="430.498" width="127.396" height="99.025"/><path d="M156.01 432.999v94.025h-122.396v-94.025h122.396m5-5h-132.396v104.025h132.396v-104.025z"/><rect x="31.115" y="539.346" width="127.396" height="99.025"/><path d="M156.01 541.846v94.025h-122.396v-94.025h122.396m5-5h-132.396v104.025h132.396v-104.025z"/><rect x="31.115" y="648.193" width="127.396" height="99.025"/><path d="M156.01 650.693v94.025h-122.396v-94.025h122.396m5-5h-132.396v104.025h132.396v-104.025z"/><rect x="31.115" y="757.04" width="127.396" height="99.025"/><path d="M156.01 759.54v94.025h-122.396v-94.025h122.396m5-5h-132.396v104.025h132.396v-104.025z"/></g><path d="M261.003 82.855h-1.641v-8.593h-4.409v8.593h-1.634v-9.994h7.684v9.994zM269.288 82.855h-5.653v-9.994h5.653v1.381h-4.02v2.721h3.767v1.367h-3.767v3.138h4.02v1.387zM278.066 75.883c0 1.043-.342 1.843-1.025 2.399s-1.656.834-2.919.834h-1.039v3.739h-1.634v-9.994h2.878c1.249 0 2.185.255 2.807.766s.932 1.262.932 2.256zm-4.984 1.859h.868c.839 0 1.454-.146 1.846-.438.393-.292.588-.748.588-1.367 0-.574-.175-1.002-.526-1.285-.351-.283-.897-.424-1.641-.424h-1.135v3.514zM285.715 82.855h-5.653v-9.994h5.653v1.381h-4.02v2.721h3.767v1.367h-3.767v3.138h4.02v1.387zM291.327 82.855h-1.634v-8.593h-2.939v-1.401h7.513v1.401h-2.939v8.593zM298.956 78.85l-2.475 4.006h-1.866l2.816-4.382c-1.275-.442-1.914-1.372-1.914-2.789 0-.916.317-1.616.95-2.099.634-.483 1.565-.725 2.796-.725h3.001v9.994h-1.641v-4.005h-1.667zm1.668-4.621h-1.299c-.688 0-1.216.122-1.582.366-.367.244-.551.642-.551 1.193 0 .538.178.957.533 1.258s.907.451 1.654.451h1.244v-3.268zM307.399 77.688l-3.65-4.826h1.75l3.555 4.84v-4.84h1.552v4.84l3.555-4.84h1.75l-3.65 4.826 3.808 5.168h-1.805l-3.657-5.065v5.065h-1.552v-5.066l-3.657 5.065h-1.818l3.819-5.167zM325.07 82.855h-1.921l-4.115-5.065v5.065h-1.634v-9.994h1.634v4.84l4.047-4.84h1.791l-4.033 4.826 4.231 5.168zM332.589 82.855l-.998-2.775h-3.821l-.978 2.775h-1.723l3.739-10.035h1.777l3.739 10.035h-1.735zm-1.429-4.183l-.937-2.721c-.068-.182-.163-.469-.283-.861-.121-.392-.204-.679-.25-.861-.123.561-.303 1.173-.54 1.839l-.902 2.604h2.912zM332.834 139.475c-.745 0-1.33.264-1.757.792-.426.527-.64 1.255-.64 2.184 0 .972.205 1.708.615 2.206.41.499 1.004.748 1.781.748.336 0 .661-.033.976-.1s.642-.153.98-.257v1.111c-.621.235-1.326.353-2.113.353-1.16 0-2.051-.352-2.673-1.054-.621-.703-.932-1.708-.932-3.017 0-.824.15-1.545.452-2.163.302-.618.738-1.091 1.31-1.42.57-.329 1.241-.493 2.011-.493.81 0 1.558.17 2.244.51l-.467 1.079c-.268-.126-.55-.238-.848-.333-.297-.099-.611-.146-.939-.146zM342.591 146.402h-1.301v-6.813h-3.496v6.813h-1.296v-7.925h6.093v7.925zM349.16 146.402h-4.483v-7.925h4.483v1.095h-3.188v2.157h2.986v1.084h-2.986v2.488h3.188v1.101zM356.966 145.323h1.052v3.263h-1.252v-2.185h-5.893v-7.925h1.296v6.813h3.496v-6.813h1.301v6.847zM359.296 138.477h1.188v4.12c0 .43-.011.865-.032 1.304l-.049.892h.049l4.049-6.315h1.512v7.925h-1.192v-4.087c0-.625.034-1.384.104-2.277h-.044l-4.065 6.364h-1.518v-7.926zM373.005 146.402l-.792-2.201h-3.03l-.774 2.201h-1.366l2.965-7.957h1.409l2.965 7.957h-1.377zm-1.133-3.318l-.743-2.157c-.054-.145-.129-.372-.225-.683-.096-.311-.162-.538-.198-.683-.098.445-.24.931-.428 1.458l-.716 2.065h2.31zM381.374 146.402h-1.295v-6.813h-2.255c-.286 2.313-.515 3.886-.687 4.721-.171.835-.412 1.416-.724 1.743-.311.327-.723.485-1.235.474-.264 0-.515-.045-.754-.135v-1.079c.206.09.407.135.603.135.26 0 .463-.156.609-.469s.307-1.003.482-2.073.384-2.546.626-4.429h4.629v7.925zM388.99 144.017c0 .777-.261 1.369-.783 1.775-.522.407-1.278.61-2.269.61h-2.472v-7.925h1.296v3.22h1.122c1.004 0 1.773.2 2.307.599.532.399.799.973.799 1.721zm-4.228 1.296h1.089c.582 0 1.029-.102 1.342-.307.313-.204.469-.534.469-.989 0-.427-.149-.739-.449-.938-.301-.199-.803-.298-1.507-.298h-.943v2.532zM396.823 146.402h-1.301v-3.572h-3.653v3.572h-1.296v-7.925h1.296v3.242h3.653v-3.242h1.301v7.925zM403.825 146.402l-.792-2.201h-3.03l-.774 2.201h-1.366l2.965-7.957h1.409l2.965 7.957h-1.377zm-1.132-3.318l-.743-2.157c-.054-.145-.129-.372-.225-.683-.096-.311-.162-.538-.198-.683-.098.445-.24.931-.428 1.458l-.716 2.065h2.31zM408.753 143.226l-1.963 3.176h-1.479l2.233-3.475c-1.012-.351-1.518-1.087-1.518-2.211 0-.727.251-1.281.753-1.664s1.241-.575 2.217-.575h2.38v7.925h-1.301v-3.176h-1.322zm1.322-3.665h-1.03c-.545 0-.964.097-1.255.29-.291.193-.436.509-.436.946 0 .427.141.759.423.998.281.239.719.358 1.312.358h.986v-2.592z"/><rect x="165.624" y="274.813" fill="#F7F8F9" width="264.751" height="30.126"/><rect x="165.624" y="332.689" fill="#FCFCFC" width="264.751" height="114.146"/><rect x="165.624" y="304.939" fill="#F2EB3F" width="264.751" height="27.75"/><rect x="174.505" y="283.313" opacity=".4" fill="#0A79DB" width="155.588" height="13.126"/><rect x="174.505" y="339.963" opacity=".2" fill="#B0B3B5" width="200.651" height="8.47"/><rect x="165.624" y="355.313" opacity=".1" fill="#B0B3B5" width="264.751" height=".5"/><rect x="165.624" y="378.043" opacity=".1" fill="#B0B3B5" width="264.751" height=".5"/><rect x="404.905" y="338.522" opacity=".5" fill="#909293" width="18.25" height="11.353"/><rect x="174.505" y="362.693" opacity=".2" fill="#B0B3B5" width="200.651" height="8.47"/><rect x="404.682" y="361.252" opacity=".5" fill="#909293" width="18.25" height="11.353"/><rect x="165.624" y="400.824" opacity=".1" fill="#B0B3B5" width="264.751" height=".5"/><rect x="174.505" y="385.474" opacity=".2" fill="#B0B3B5" width="200.651" height="8.47"/><rect x="404.682" y="384.033" opacity=".5" fill="#909293" width="18.25" height="11.353"/><rect x="165.624" y="423.554" opacity=".1" fill="#B0B3B5" width="264.751" height=".5"/><rect x="174.505" y="408.204" opacity=".2" fill="#B0B3B5" width="200.651" height="8.47"/><rect x="404.682" y="406.763" opacity=".5" fill="#909293" width="18.25" height="11.353"/><rect x="165.624" y="446.335" opacity=".1" fill="#B0B3B5" width="264.751" height=".5"/><rect x="174.505" y="430.985" opacity=".2" fill="#B0B3B5" width="200.651" height="8.47"/><rect x="404.682" y="429.543" opacity=".5" fill="#909293" width="18.25" height="11.353"/><rect x="165.624" y="451.449" fill="#F7F8F9" width="264.751" height="30.126"/><rect x="165.624" y="509.325" fill="#FCFCFC" width="264.751" height="114.146"/><rect x="165.624" y="481.575" fill="#F2EB3F" width="264.751" height="27.75"/><rect x="174.505" y="459.949" opacity=".4" fill="#0A79DB" width="155.588" height="13.126"/><rect x="174.505" y="516.6" opacity=".2" fill="#B0B3B5" width="200.651" height="8.47"/><rect x="165.624" y="531.95" opacity=".1" fill="#B0B3B5" width="264.751" height=".5"/><rect x="165.624" y="554.68" opacity=".1" fill="#B0B3B5" width="264.751" height=".5"/><rect x="404.905" y="515.158" opacity=".5" fill="#909293" width="18.25" height="11.353"/><rect x="174.505" y="539.33" opacity=".2" fill="#B0B3B5" width="200.651" height="8.47"/><rect x="404.682" y="537.888" opacity=".5" fill="#909293" width="18.25" height="11.353"/><rect x="165.624" y="577.46" opacity=".1" fill="#B0B3B5" width="264.751" height=".5"/><rect x="174.505" y="562.11" opacity=".2" fill="#B0B3B5" width="200.651" height="8.47"/><rect x="404.682" y="560.669" opacity=".5" fill="#909293" width="18.25" height="11.353"/><rect x="165.624" y="600.19" opacity=".1" fill="#B0B3B5" width="264.751" height=".5"/><rect x="174.505" y="584.84" opacity=".2" fill="#B0B3B5" width="200.651" height="8.47"/><rect x="404.682" y="583.399" opacity=".5" fill="#909293" width="18.25" height="11.353"/><rect x="165.624" y="622.971" opacity=".1" fill="#B0B3B5" width="264.751" height=".5"/><rect x="174.505" y="607.621" opacity=".2" fill="#B0B3B5" width="200.651" height="8.47"/><rect x="404.682" y="606.18" opacity=".5" fill="#909293" width="18.25" height="11.353"/><rect x="165.624" y="628.086" fill="#F7F8F9" width="264.751" height="30.126"/><rect x="165.624" y="685.961" fill="#FCFCFC" width="264.751" height="193.19"/><rect x="165.624" y="658.211" fill="#F2EB3F" width="264.751" height="27.75"/><rect x="174.505" y="636.586" opacity=".4" fill="#0A79DB" width="155.588" height="13.126"/><rect x="174.505" y="693.236" opacity=".2" fill="#B0B3B5" width="200.651" height="8.47"/><rect x="165.624" y="708.586" opacity=".1" fill="#B0B3B5" width="264.751" height=".5"/><rect x="165.624" y="731.316" opacity=".1" fill="#B0B3B5" width="264.751" height=".5"/><rect x="404.905" y="691.795" opacity=".5" fill="#909293" width="18.25" height="11.353"/><rect x="174.505" y="715.966" opacity=".2" fill="#B0B3B5" width="200.651" height="8.47"/><rect x="404.682" y="714.525" opacity=".5" fill="#909293" width="18.25" height="11.353"/><rect x="165.624" y="754.097" opacity=".1" fill="#B0B3B5" width="264.751" height=".5"/><rect x="174.505" y="738.747" opacity=".2" fill="#B0B3B5" width="200.651" height="8.47"/><rect x="404.682" y="737.305" opacity=".5" fill="#909293" width="18.25" height="11.353"/><rect x="165.624" y="776.827" opacity=".1" fill="#B0B3B5" width="264.751" height=".5"/><rect x="174.505" y="761.477" opacity=".2" fill="#B0B3B5" width="200.651" height="8.47"/><rect x="404.682" y="760.035" opacity=".5" fill="#909293" width="18.25" height="11.353"/><rect x="165.624" y="799.607" opacity=".1" fill="#B0B3B5" width="264.751" height=".5"/><rect x="174.505" y="784.257" opacity=".2" fill="#B0B3B5" width="200.651" height="8.47"/><rect x="165.624" y="822.682" opacity=".1" fill="#B0B3B5" width="264.751" height=".5"/><rect x="174.505" y="807.332" opacity=".2" fill="#B0B3B5" width="200.651" height="8.47"/><rect x="165.624" y="845.462" opacity=".1" fill="#B0B3B5" width="264.751" height=".5"/><rect x="174.505" y="830.112" opacity=".2" fill="#B0B3B5" width="200.651" height="8.47"/><rect x="165.624" y="868.192" opacity=".1" fill="#B0B3B5" width="264.751" height=".5"/><rect x="174.505" y="852.842" opacity=".2" fill="#B0B3B5" width="200.651" height="8.47"/><rect x="174.505" y="875.623" opacity=".2" fill="#B0B3B5" width="200.651" height="3.529"/><rect x="404.682" y="782.816" opacity=".5" fill="#909293" width="18.25" height="11.353"/><rect x="404.682" y="805.89" opacity=".5" fill="#909293" width="18.25" height="11.353"/><rect x="404.682" y="828.671" opacity=".5" fill="#909293" width="18.25" height="11.353"/><rect x="404.682" y="851.401" opacity=".5" fill="#909293" width="18.25" height="11.353"/><rect x="404.682" y="874.182" opacity=".5" fill="#909293" width="18.25" height="4.97"/><rect x="165.624" y="248.522" fill="#0A79DB" width="129.557" height="21"/><rect x="301.182" y="248.522" fill="#0A79DB" width="129.194" height="21"/><rect x="28.614" y="863.18" fill="#909293" width="132.396" height="15.972" opacity=".5"/><path d="M67.063 266.043h-1.921l-4.115-5.065v5.065h-1.634v-9.994h1.634v4.84l4.047-4.84h1.791l-4.033 4.826 4.231 5.168zM68.382 256.049h2.967c1.377 0 2.371.201 2.984.602.612.401.919 1.035.919 1.9 0 .583-.15 1.069-.451 1.456s-.733.631-1.299.731v.068c.702.132 1.218.393 1.549.783.33.39.495.917.495 1.583 0 .898-.313 1.601-.939 2.109-.627.508-1.498.762-2.615.762h-3.609v-9.994zm1.634 4.129h1.572c.684 0 1.183-.108 1.497-.325s.472-.584.472-1.104c0-.469-.17-.809-.509-1.019-.34-.209-.879-.314-1.617-.314h-1.415v2.762zm0 1.326v3.165h1.736c.684 0 1.2-.131 1.549-.393s.522-.676.522-1.241c0-.52-.178-.905-.533-1.155s-.896-.376-1.62-.376h-1.654zM83.824 266.043l-.998-2.775h-3.821l-.978 2.775h-1.723l3.739-10.035h1.777l3.739 10.035h-1.735zm-1.428-4.184l-.937-2.721c-.068-.182-.163-.469-.283-.861-.121-.392-.204-.679-.25-.861-.123.561-.303 1.173-.54 1.839l-.902 2.604h2.912zM85.643 264.642h.772c.661-1.208 1.215-2.563 1.661-4.067.447-1.504.734-3.012.861-4.525h5.161v8.593h1.292v4.156h-1.572v-2.755h-6.604v2.755h-1.572v-4.157zm4.662-7.178c-.1 1.035-.355 2.234-.766 3.599s-.877 2.558-1.401 3.579h4.327v-7.178h-2.16zM103.621 259.07c0 1.043-.342 1.843-1.025 2.399s-1.656.834-2.919.834h-1.039v3.739h-1.634v-9.994h2.878c1.249 0 2.185.255 2.807.766s.932 1.263.932 2.256zm-4.983 1.86h.868c.839 0 1.454-.146 1.846-.438.393-.292.588-.748.588-1.367 0-.574-.175-1.002-.526-1.285-.351-.283-.897-.424-1.641-.424h-1.135v3.514zM111.818 266.043l-.998-2.775h-3.821l-.978 2.775h-1.723l3.739-10.035h1.777l3.739 10.035h-1.735zm-1.429-4.184l-.937-2.721c-.068-.182-.163-.469-.283-.861-.121-.392-.204-.679-.25-.861-.123.561-.303 1.173-.54 1.839l-.902 2.604h2.912zM118.325 266.043h-1.634v-8.593h-2.939v-1.401h7.513v1.401h-2.939v8.593zM130.446 266.043h-1.606v-6.453c0-.77.019-1.381.055-1.832-.104.109-.233.23-.386.362-.153.132-.664.551-1.535 1.258l-.807-1.019 2.939-2.311h1.34v9.995zM67.063 374.851h-1.921l-4.115-5.065v5.065h-1.634v-9.994h1.634v4.84l4.047-4.84h1.791l-4.033 4.826 4.231 5.168zM68.382 364.856h2.967c1.377 0 2.371.201 2.984.602.612.401.919 1.035.919 1.9 0 .583-.15 1.069-.451 1.456s-.733.631-1.299.731v.068c.702.132 1.218.393 1.549.783.33.39.495.917.495 1.583 0 .898-.313 1.601-.939 2.109-.627.508-1.498.762-2.615.762h-3.609v-9.994zm1.634 4.129h1.572c.684 0 1.183-.108 1.497-.325s.472-.584.472-1.104c0-.469-.17-.809-.509-1.019-.34-.209-.879-.314-1.617-.314h-1.415v2.762zm0 1.327v3.165h1.736c.684 0 1.2-.131 1.549-.393s.522-.676.522-1.241c0-.52-.178-.905-.533-1.155s-.896-.376-1.62-.376h-1.654zM83.824 374.851l-.998-2.775h-3.821l-.978 2.775h-1.723l3.739-10.035h1.777l3.739 10.035h-1.735zm-1.428-4.184l-.937-2.721c-.068-.182-.163-.469-.283-.861-.121-.392-.204-.679-.25-.861-.123.561-.303 1.173-.54 1.839l-.902 2.604h2.912zM85.643 373.449h.772c.661-1.208 1.215-2.563 1.661-4.067.447-1.504.734-3.012.861-4.525h5.161v8.593h1.292v4.156h-1.572v-2.755h-6.604v2.755h-1.572v-4.157zm4.662-7.178c-.1 1.035-.355 2.234-.766 3.599s-.877 2.558-1.401 3.579h4.327v-7.178h-2.16zM103.621 367.878c0 1.043-.342 1.843-1.025 2.399s-1.656.834-2.919.834h-1.039v3.739h-1.634v-9.994h2.878c1.249 0 2.185.255 2.807.766s.932 1.262.932 2.256zm-4.983 1.859h.868c.839 0 1.454-.146 1.846-.438.393-.292.588-.748.588-1.367 0-.574-.175-1.002-.526-1.285-.351-.283-.897-.424-1.641-.424h-1.135v3.514zM111.818 374.851l-.998-2.775h-3.821l-.978 2.775h-1.723l3.739-10.035h1.777l3.739 10.035h-1.735zm-1.429-4.184l-.937-2.721c-.068-.182-.163-.469-.283-.861-.121-.392-.204-.679-.25-.861-.123.561-.303 1.173-.54 1.839l-.902 2.604h2.912zM118.325 374.851h-1.634v-8.593h-2.939v-1.401h7.513v1.401h-2.939v8.593zM132.503 374.851h-6.774v-1.217l2.577-2.591c.762-.779 1.266-1.332 1.515-1.658.248-.326.43-.632.543-.919.114-.287.171-.595.171-.923 0-.451-.136-.807-.406-1.066-.271-.26-.646-.39-1.125-.39-.383 0-.753.071-1.11.212-.358.141-.771.396-1.241.766l-.868-1.06c.557-.469 1.097-.802 1.62-.998.524-.196 1.083-.294 1.675-.294.93 0 1.675.243 2.235.728s.841 1.138.841 1.958c0 .451-.081.879-.242 1.285-.162.406-.41.824-.745 1.254s-.893 1.013-1.672 1.747l-1.736 1.682v.068h4.744v1.416zM67.063 486.09h-1.921l-4.115-5.065v5.065h-1.634v-9.994h1.634v4.84l4.047-4.84h1.791l-4.033 4.826 4.231 5.168zM68.382 476.096h2.967c1.377 0 2.371.201 2.984.602.612.401.919 1.035.919 1.9 0 .584-.15 1.069-.451 1.456-.301.388-.733.632-1.299.731v.068c.702.133 1.218.394 1.549.783.33.39.495.917.495 1.582 0 .898-.313 1.601-.939 2.109-.627.508-1.498.762-2.615.762h-3.609v-9.993zm1.634 4.129h1.572c.684 0 1.183-.108 1.497-.324.314-.217.472-.585.472-1.104 0-.469-.17-.809-.509-1.019-.34-.209-.879-.314-1.617-.314h-1.415v2.761zm0 1.326v3.165h1.736c.684 0 1.2-.131 1.549-.393.349-.263.522-.676.522-1.241 0-.52-.178-.904-.533-1.155-.355-.25-.896-.376-1.62-.376h-1.654zM83.824 486.09l-.998-2.775h-3.821l-.978 2.775h-1.723l3.739-10.035h1.777l3.739 10.035h-1.735zm-1.428-4.184l-.937-2.721c-.068-.182-.163-.469-.283-.861-.121-.392-.204-.679-.25-.861-.123.561-.303 1.174-.54 1.839l-.902 2.604h2.912zM85.643 484.688h.772c.661-1.207 1.215-2.563 1.661-4.067.447-1.504.734-3.012.861-4.525h5.161v8.593h1.292v4.156h-1.572v-2.755h-6.604v2.755h-1.572v-4.157zm4.662-7.177c-.1 1.035-.355 2.234-.766 3.6-.41 1.364-.877 2.558-1.401 3.578h4.327v-7.178h-2.16zM103.621 479.117c0 1.044-.342 1.844-1.025 2.399-.684.557-1.656.834-2.919.834h-1.039v3.739h-1.634v-9.994h2.878c1.249 0 2.185.256 2.807.766.622.511.932 1.263.932 2.256zm-4.983 1.86h.868c.839 0 1.454-.146 1.846-.438.393-.291.588-.747.588-1.367 0-.574-.175-1.002-.526-1.285-.351-.282-.897-.424-1.641-.424h-1.135v3.514zM111.818 486.09l-.998-2.775h-3.821l-.978 2.775h-1.723l3.739-10.035h1.777l3.739 10.035h-1.735zm-1.429-4.184l-.937-2.721c-.068-.182-.163-.469-.283-.861-.121-.392-.204-.679-.25-.861-.123.561-.303 1.174-.54 1.839l-.902 2.604h2.912zM118.325 486.09h-1.634v-8.593h-2.939v-1.401h7.513v1.401h-2.939v8.593zM132.127 478.393c0 .634-.185 1.161-.554 1.583-.369.421-.889.705-1.559.851v.055c.803.101 1.404.35 1.805.749.401.398.602.929.602 1.589 0 .962-.339 1.703-1.019 2.226-.679.521-1.645.782-2.898.782-1.107 0-2.041-.18-2.803-.54v-1.429c.424.21.873.372 1.347.485.475.114.93.171 1.367.171.775 0 1.354-.144 1.736-.431s.574-.731.574-1.333c0-.533-.212-.925-.636-1.176-.424-.25-1.089-.376-1.996-.376h-.868v-1.306h.882c1.596 0 2.393-.551 2.393-1.654 0-.428-.139-.759-.417-.991-.277-.232-.688-.349-1.23-.349-.378 0-.742.054-1.094.161-.351.106-.766.315-1.244.625l-.786-1.121c.916-.674 1.98-1.012 3.192-1.012 1.008 0 1.794.217 2.358.649.566.434.848 1.031.848 1.792zM67.063 596.09h-1.921l-4.115-5.065v5.065h-1.634v-9.994h1.634v4.84l4.047-4.84h1.791l-4.033 4.826 4.231 5.168zM68.382 586.096h2.967c1.377 0 2.371.201 2.984.602.612.401.919 1.035.919 1.9 0 .584-.15 1.069-.451 1.456-.301.388-.733.632-1.299.731v.068c.702.133 1.218.394 1.549.783.33.39.495.917.495 1.582 0 .898-.313 1.601-.939 2.109-.627.508-1.498.762-2.615.762h-3.609v-9.993zm1.634 4.129h1.572c.684 0 1.183-.108 1.497-.324.314-.217.472-.585.472-1.104 0-.469-.17-.809-.509-1.019-.34-.209-.879-.314-1.617-.314h-1.415v2.761zm0 1.326v3.165h1.736c.684 0 1.2-.131 1.549-.393.349-.263.522-.676.522-1.241 0-.52-.178-.904-.533-1.155-.355-.25-.896-.376-1.62-.376h-1.654zM83.824 596.09l-.998-2.775h-3.821l-.978 2.775h-1.723l3.739-10.035h1.777l3.739 10.035h-1.735zm-1.428-4.184l-.937-2.721c-.068-.182-.163-.469-.283-.861-.121-.392-.204-.679-.25-.861-.123.561-.303 1.174-.54 1.839l-.902 2.604h2.912zM85.643 594.688h.772c.661-1.207 1.215-2.563 1.661-4.067.447-1.504.734-3.012.861-4.525h5.161v8.593h1.292v4.156h-1.572v-2.755h-6.604v2.755h-1.572v-4.157zm4.662-7.177c-.1 1.035-.355 2.234-.766 3.6-.41 1.364-.877 2.558-1.401 3.578h4.327v-7.178h-2.16zM103.621 589.117c0 1.044-.342 1.844-1.025 2.399-.684.557-1.656.834-2.919.834h-1.039v3.739h-1.634v-9.994h2.878c1.249 0 2.185.256 2.807.766.622.511.932 1.263.932 2.256zm-4.983 1.86h.868c.839 0 1.454-.146 1.846-.438.393-.291.588-.747.588-1.367 0-.574-.175-1.002-.526-1.285-.351-.282-.897-.424-1.641-.424h-1.135v3.514zM111.818 596.09l-.998-2.775h-3.821l-.978 2.775h-1.723l3.739-10.035h1.777l3.739 10.035h-1.735zm-1.429-4.184l-.937-2.721c-.068-.182-.163-.469-.283-.861-.121-.392-.204-.679-.25-.861-.123.561-.303 1.174-.54 1.839l-.902 2.604h2.912zM118.325 596.09h-1.634v-8.593h-2.939v-1.401h7.513v1.401h-2.939v8.593zM132.859 593.909h-1.347v2.181h-1.565v-2.181h-4.566v-1.237l4.566-6.604h1.565v6.508h1.347v1.333zm-2.912-1.333v-2.509c0-.893.023-1.624.068-2.194h-.055c-.127.301-.328.666-.602 1.094l-2.481 3.609h3.07zM67.063 703.882h-1.921l-4.115-5.065v5.065h-1.634v-9.994h1.634v4.84l4.047-4.84h1.791l-4.033 4.826 4.231 5.168zM68.382 693.888h2.967c1.377 0 2.371.2 2.984.602.612.4.919 1.034.919 1.9 0 .583-.15 1.068-.451 1.456-.301.387-.733.631-1.299.731v.068c.702.132 1.218.393 1.549.782.33.39.495.917.495 1.583 0 .897-.313 1.601-.939 2.108-.627.509-1.498.763-2.615.763h-3.609v-9.993zm1.634 4.129h1.572c.684 0 1.183-.108 1.497-.325.314-.216.472-.584.472-1.104 0-.47-.17-.81-.509-1.019-.34-.21-.879-.314-1.617-.314h-1.415v2.762zm0 1.326v3.165h1.736c.684 0 1.2-.131 1.549-.394.349-.262.522-.676.522-1.24 0-.52-.178-.905-.533-1.155-.355-.251-.896-.376-1.62-.376h-1.654zM83.824 703.882l-.998-2.775h-3.821l-.978 2.775h-1.723l3.739-10.035h1.777l3.739 10.035h-1.735zm-1.428-4.184l-.937-2.721c-.068-.183-.163-.47-.283-.861-.121-.393-.204-.68-.25-.861-.123.561-.303 1.173-.54 1.839l-.902 2.604h2.912zM85.643 702.48h.772c.661-1.208 1.215-2.563 1.661-4.067.447-1.504.734-3.013.861-4.525h5.161v8.593h1.292v4.156h-1.572v-2.755h-6.604v2.755h-1.572v-4.157zm4.662-7.177c-.1 1.034-.355 2.234-.766 3.599-.41 1.365-.877 2.558-1.401 3.579h4.327v-7.178h-2.16zM103.621 696.909c0 1.043-.342 1.843-1.025 2.399-.684.556-1.656.834-2.919.834h-1.039v3.739h-1.634v-9.994h2.878c1.249 0 2.185.255 2.807.766.622.51.932 1.262.932 2.256zm-4.983 1.86h.868c.839 0 1.454-.146 1.846-.438.393-.292.588-.748.588-1.367 0-.574-.175-1.003-.526-1.285-.351-.283-.897-.424-1.641-.424h-1.135v3.514zM111.818 703.882l-.998-2.775h-3.821l-.978 2.775h-1.723l3.739-10.035h1.777l3.739 10.035h-1.735zm-1.429-4.184l-.937-2.721c-.068-.183-.163-.47-.283-.861-.121-.393-.204-.68-.25-.861-.123.561-.303 1.173-.54 1.839l-.902 2.604h2.912zM118.325 703.882h-1.634v-8.593h-2.939v-1.401h7.513v1.401h-2.939v8.593zM129.119 697.641c1.008 0 1.805.267 2.393.8s.882 1.26.882 2.181c0 1.066-.334 1.899-1.001 2.498-.668.6-1.617.899-2.848.899-1.116 0-1.993-.181-2.632-.54v-1.456c.369.209.793.371 1.271.485.479.113.923.171 1.333.171.725 0 1.276-.162 1.654-.485.379-.324.567-.798.567-1.422 0-1.194-.761-1.791-2.283-1.791-.214 0-.479.021-.793.064-.314.044-.59.093-.827.147l-.718-.424.383-4.881h5.195v1.429h-3.78l-.226 2.475.585-.096c.231-.037.513-.054.845-.054zM67.063 812.632h-1.921l-4.115-5.065v5.065h-1.634v-9.994h1.634v4.84l4.047-4.84h1.791l-4.033 4.826 4.231 5.168zM68.382 802.638h2.967c1.377 0 2.371.2 2.984.602.612.4.919 1.034.919 1.9 0 .583-.15 1.068-.451 1.456-.301.387-.733.631-1.299.731v.068c.702.132 1.218.393 1.549.782.33.39.495.917.495 1.583 0 .897-.313 1.601-.939 2.108-.627.509-1.498.763-2.615.763h-3.609v-9.993zm1.634 4.129h1.572c.684 0 1.183-.108 1.497-.325.314-.216.472-.584.472-1.104 0-.47-.17-.81-.509-1.019-.34-.21-.879-.314-1.617-.314h-1.415v2.762zm0 1.326v3.165h1.736c.684 0 1.2-.131 1.549-.394.349-.262.522-.676.522-1.24 0-.52-.178-.905-.533-1.155-.355-.251-.896-.376-1.62-.376h-1.654zM83.824 812.632l-.998-2.775h-3.821l-.978 2.775h-1.723l3.739-10.035h1.777l3.739 10.035h-1.735zm-1.428-4.184l-.937-2.721c-.068-.183-.163-.47-.283-.861-.121-.393-.204-.68-.25-.861-.123.561-.303 1.173-.54 1.839l-.902 2.604h2.912zM85.643 811.23h.772c.661-1.208 1.215-2.563 1.661-4.067.447-1.504.734-3.013.861-4.525h5.161v8.593h1.292v4.156h-1.572v-2.755h-6.604v2.755h-1.572v-4.157zm4.662-7.177c-.1 1.034-.355 2.234-.766 3.599-.41 1.365-.877 2.558-1.401 3.579h4.327v-7.178h-2.16zM103.621 805.659c0 1.043-.342 1.843-1.025 2.399-.684.556-1.656.834-2.919.834h-1.039v3.739h-1.634v-9.994h2.878c1.249 0 2.185.255 2.807.766.622.51.932 1.262.932 2.256zm-4.983 1.86h.868c.839 0 1.454-.146 1.846-.438.393-.292.588-.748.588-1.367 0-.574-.175-1.003-.526-1.285-.351-.283-.897-.424-1.641-.424h-1.135v3.514zM111.818 812.632l-.998-2.775h-3.821l-.978 2.775h-1.723l3.739-10.035h1.777l3.739 10.035h-1.735zm-1.429-4.184l-.937-2.721c-.068-.183-.163-.47-.283-.861-.121-.393-.204-.68-.25-.861-.123.561-.303 1.173-.54 1.839l-.902 2.604h2.912zM118.325 812.632h-1.634v-8.593h-2.939v-1.401h7.513v1.401h-2.939v8.593zM125.756 808.373c0-3.91 1.593-5.865 4.778-5.865.502 0 .926.038 1.271.116v1.34c-.346-.101-.747-.15-1.203-.15-1.07 0-1.875.287-2.413.861-.537.574-.829 1.494-.875 2.762h.082c.215-.369.516-.655.902-.858.388-.202.844-.304 1.367-.304.907 0 1.613.277 2.119.834.506.556.759 1.31.759 2.263 0 1.048-.293 1.876-.878 2.484-.586.608-1.385.913-2.396.913-.715 0-1.337-.172-1.866-.517-.528-.344-.936-.845-1.22-1.504-.284-.658-.427-1.45-.427-2.375zm3.486 3.069c.552 0 .977-.178 1.275-.533.298-.355.447-.864.447-1.524 0-.574-.14-1.025-.42-1.354s-.701-.492-1.262-.492c-.346 0-.665.074-.957.222-.291.148-.521.352-.69.608-.168.258-.253.521-.253.79 0 .643.175 1.184.523 1.623.35.441.795.66 1.337.66zM259.905 222.26c-.938 0-1.677.333-2.215.998-.537.666-.807 1.583-.807 2.755 0 1.226.26 2.153.776 2.782s1.266.943 2.245.943c.424 0 .834-.042 1.23-.126s.81-.192 1.238-.325v1.401c-.784.296-1.673.444-2.666.444-1.463 0-2.587-.443-3.371-1.33-.783-.886-1.176-2.154-1.176-3.804 0-1.039.191-1.948.571-2.728.38-.779.931-1.376 1.651-1.791.72-.415 1.564-.622 2.535-.622 1.021 0 1.965.214 2.83.643l-.588 1.36c-.337-.16-.693-.3-1.069-.42s-.769-.18-1.184-.18zM267.979 230.997h-1.635v-8.593h-2.939v-1.401h7.514v1.401h-2.939v8.593zM278.649 230.997l-.998-2.775h-3.82l-.979 2.775h-1.723l3.74-10.035h1.777l3.738 10.035h-1.735zm-1.428-4.184l-.938-2.721c-.068-.182-.162-.469-.283-.861s-.204-.679-.25-.861c-.123.561-.303 1.173-.539 1.839l-.902 2.604h2.912zM289.586 230.997h-1.641v-4.505h-4.607v4.505h-1.633v-9.994h1.633v4.088h4.607v-4.088h1.641v9.994zM290.981 229.595h.773c.66-1.208 1.214-2.563 1.66-4.067.447-1.504.734-3.012.861-4.525h5.162v8.593h1.291v4.156h-1.572v-2.755h-6.604v2.755h-1.572v-4.157zm4.662-7.178c-.1 1.035-.355 2.234-.766 3.599s-.877 2.558-1.4 3.579h4.326v-7.178h-2.16zM308.543 230.997l-.998-2.775h-3.822l-.977 2.775h-1.723l3.738-10.035h1.777l3.74 10.035h-1.735zm-1.429-4.184l-.936-2.721c-.068-.182-.164-.469-.284-.861s-.204-.679-.249-.861c-.123.561-.304 1.173-.541 1.839l-.902 2.604h2.912zM318.215 224.024c0 1.043-.342 1.843-1.025 2.399s-1.656.834-2.918.834h-1.039v3.739h-1.635v-9.994h2.879c1.248 0 2.184.255 2.806.766s.932 1.262.932 2.256zm-4.982 1.859h.867c.839 0 1.454-.146 1.846-.438.393-.292.588-.748.588-1.367 0-.574-.175-1.002-.525-1.285-.352-.283-.898-.424-1.641-.424h-1.135v3.514zM323.664 230.997h-1.635v-8.593h-2.939v-1.401h7.514v1.401h-2.939v8.593zM327.307 227.927v-1.367h3.514v1.367h-3.514zM336.653 230.997h-1.607v-6.453c0-.77.019-1.381.055-1.832-.104.109-.232.23-.386.362s-.664.551-1.534 1.258l-.807-1.019 2.939-2.311h1.34v9.995zM449.668 234.997l-2.484-7.154h-.047c.066 1.063.1 2.059.1 2.988v4.166h-1.271v-8.566h1.975l2.379 6.814h.035l2.449-6.814h1.98v8.566h-1.348v-4.236c0-.426.01-.98.031-1.664s.041-1.098.057-1.242h-.047l-2.572 7.143h-1.237zM462.354 234.997l-.855-2.379h-3.275l-.838 2.379h-1.477l3.205-8.602h1.523l3.205 8.602h-1.488zm-1.225-3.586l-.803-2.332c-.059-.156-.141-.402-.244-.738l-.213-.738c-.105.48-.26 1.006-.463 1.576l-.773 2.232h2.496zM471.401 234.997h-1.401v-7.365h-2.438c-.309 2.5-.557 4.201-.742 5.104s-.445 1.53-.781 1.884-.781.524-1.336.513c-.285 0-.557-.049-.814-.146v-1.166c.223.098.439.146.65.146.281 0 .5-.169.658-.507s.332-1.085.521-2.241.416-2.752.678-4.787h5.004v8.565zM479.346 232.418c0 .848-.275 1.489-.824 1.925s-1.354.653-2.416.653h-2.443v-8.566h1.4v3.48h.996c1.07 0 1.885.215 2.445.645s.842 1.051.842 1.863zm-4.283 1.413h.961c.625 0 1.098-.112 1.418-.337s.48-.583.48-1.075c0-.465-.154-.802-.461-1.011s-.826-.313-1.561-.313h-.838v2.736zm6.89 1.166h-1.406v-8.566h1.406v8.566zM484.209 226.43h1.283v4.453c0 .465-.012.935-.035 1.409l-.053.964h.053l4.377-6.826h1.635v8.566h-1.289v-4.418c0-.676.037-1.496.111-2.461h-.047l-4.395 6.879h-1.641v-8.566zm3.674-.685c-.828 0-1.436-.149-1.82-.448s-.598-.798-.641-1.497h1.248c.023.281.076.5.16.656s.205.269.363.337.4.103.725.103c.383 0 .674-.085.873-.255s.32-.45.363-.841h1.271c-.059.672-.295 1.164-.709 1.477s-1.024.468-1.833.468zM502.625 232.418c0 1.719-1.102 2.578-3.305 2.578h-2.49v-8.566h5.227v1.201h-3.826v2.279h1.02c2.249.001 3.374.837 3.374 2.508zm-4.394 1.401h1.008c.672 0 1.164-.11 1.477-.331s.469-.577.469-1.069c0-.473-.158-.813-.473-1.022s-.861-.313-1.643-.313h-.838v2.735zM511.936 230.702c0 1.395-.35 2.479-1.047 3.252s-1.684 1.16-2.961 1.16c-1.293 0-2.287-.384-2.98-1.151s-1.039-1.858-1.039-3.272.348-2.5 1.045-3.258 1.693-1.137 2.986-1.137c1.273 0 2.258.385 2.953 1.154s1.043 1.853 1.043 3.252zm-6.539 0c0 1.055.213 1.854.639 2.399s1.057.817 1.893.817c.832 0 1.459-.27 1.883-.809s.637-1.342.637-2.408c0-1.051-.211-1.848-.631-2.391s-1.045-.814-1.877-.814c-.84 0-1.475.271-1.902.814s-.642 1.341-.642 2.392zM520.35 234.997h-1.646l-3.527-4.342v4.342h-1.4v-8.566h1.4v4.148l3.469-4.148h1.535l-3.457 4.137 3.626 4.429zM529.086 230.702c0 1.395-.35 2.479-1.047 3.252s-1.684 1.16-2.961 1.16c-1.293 0-2.287-.384-2.98-1.151s-1.039-1.858-1.039-3.272.348-2.5 1.045-3.258 1.693-1.137 2.986-1.137c1.273 0 2.258.385 2.953 1.154s1.043 1.853 1.043 3.252zm-6.539 0c0 1.055.213 1.854.639 2.399s1.057.817 1.893.817c.832 0 1.459-.27 1.883-.809s.637-1.342.637-2.408c0-1.051-.211-1.848-.631-2.391s-1.045-.814-1.877-.814c-.84 0-1.475.271-1.902.814s-.642 1.341-.642 2.392zM530.926 226.43h2.543c1.18 0 2.031.172 2.557.516s.789.887.789 1.629c0 .5-.129.916-.387 1.248s-.629.541-1.113.627v.059c.602.113 1.043.337 1.326.671s.426.786.426 1.356c0 .77-.27 1.372-.807 1.808s-1.283.653-2.24.653h-3.094v-8.567zm1.4 3.539h1.348c.586 0 1.014-.093 1.283-.278s.404-.501.404-.946c0-.402-.146-.693-.438-.873s-.752-.27-1.385-.27h-1.213v2.367zm0 1.137v2.713h1.488c.586 0 1.027-.112 1.326-.337s.449-.579.449-1.063c0-.445-.152-.775-.457-.99s-.768-.322-1.389-.322h-1.417zM546.453 230.702c0 1.395-.35 2.479-1.047 3.252s-1.684 1.16-2.961 1.16c-1.293 0-2.287-.384-2.98-1.151s-1.039-1.858-1.039-3.272.348-2.5 1.045-3.258 1.693-1.137 2.986-1.137c1.273 0 2.258.385 2.953 1.154s1.043 1.853 1.043 3.252zm-6.539 0c0 1.055.213 1.854.639 2.399s1.057.817 1.893.817c.832 0 1.459-.27 1.883-.809s.637-1.342.637-2.408c0-1.051-.211-1.848-.631-2.391s-1.045-.814-1.877-.814c-.84 0-1.475.271-1.902.814s-.642 1.341-.642 2.392zM548.293 226.43h1.283v4.453c0 .465-.012.935-.035 1.409l-.053.964h.053l4.377-6.826h1.635v8.566h-1.289v-4.418c0-.676.037-1.496.111-2.461h-.047l-4.395 6.879h-1.641v-8.566zm3.674-.685c-.828 0-1.436-.149-1.82-.448s-.598-.798-.641-1.497h1.248c.023.281.076.5.16.656s.205.269.363.337.4.103.725.103c.383 0 .674-.085.873-.255s.32-.45.363-.841h1.271c-.059.672-.295 1.164-.709 1.477s-1.024.468-1.833.468zM449.668 282.313l-2.484-7.154h-.047c.066 1.063.1 2.059.1 2.988v4.166h-1.271v-8.566h1.975l2.379 6.814h.035l2.449-6.814h1.98v8.566h-1.348v-4.236c0-.426.01-.98.031-1.664s.041-1.098.057-1.242h-.047l-2.572 7.143h-1.237zM462.354 282.313l-.855-2.379h-3.275l-.838 2.379h-1.477l3.205-8.602h1.523l3.205 8.602h-1.488zm-1.225-3.586l-.803-2.332c-.059-.156-.141-.402-.244-.738l-.213-.738c-.105.48-.26 1.006-.463 1.576l-.773 2.232h2.496zM471.401 282.313h-1.401v-7.365h-2.438c-.309 2.5-.557 4.201-.742 5.104s-.445 1.53-.781 1.884-.781.524-1.336.513c-.285 0-.557-.049-.814-.146v-1.166c.223.098.439.146.65.146.281 0 .5-.169.658-.507s.332-1.085.521-2.241.416-2.752.678-4.787h5.004v8.565zM479.346 279.735c0 .848-.275 1.489-.824 1.925s-1.354.653-2.416.653h-2.443v-8.566h1.4v3.48h.996c1.07 0 1.885.215 2.445.645s.842 1.05.842 1.863zm-4.283 1.412h.961c.625 0 1.098-.112 1.418-.337s.48-.583.48-1.075c0-.465-.154-.802-.461-1.011s-.826-.313-1.561-.313h-.838v2.736zm6.89 1.166h-1.406v-8.566h1.406v8.566zM484.209 273.747h1.283v4.453c0 .465-.012.935-.035 1.409l-.053.964h.053l4.377-6.826h1.635v8.566h-1.289v-4.418c0-.676.037-1.496.111-2.461h-.047l-4.395 6.879h-1.641v-8.566zm3.674-.686c-.828 0-1.436-.149-1.82-.448s-.598-.798-.641-1.497h1.248c.023.281.076.5.16.656s.205.269.363.337.4.103.725.103c.383 0 .674-.085.873-.255s.32-.45.363-.841h1.271c-.059.672-.295 1.164-.709 1.477s-1.024.468-1.833.468zM502.625 279.735c0 1.719-1.102 2.578-3.305 2.578h-2.49v-8.566h5.227v1.201h-3.826v2.279h1.02c2.249 0 3.374.836 3.374 2.508zm-4.394 1.4h1.008c.672 0 1.164-.11 1.477-.331s.469-.577.469-1.069c0-.473-.158-.813-.473-1.022s-.861-.313-1.643-.313h-.838v2.735zM511.936 278.018c0 1.395-.35 2.479-1.047 3.252s-1.684 1.16-2.961 1.16c-1.293 0-2.287-.384-2.98-1.151s-1.039-1.858-1.039-3.272.348-2.5 1.045-3.258 1.693-1.137 2.986-1.137c1.273 0 2.258.385 2.953 1.154s1.043 1.854 1.043 3.252zm-6.539 0c0 1.055.213 1.854.639 2.399s1.057.817 1.893.817c.832 0 1.459-.27 1.883-.809s.637-1.342.637-2.408c0-1.051-.211-1.848-.631-2.391s-1.045-.814-1.877-.814c-.84 0-1.475.271-1.902.814s-.642 1.341-.642 2.392zM520.35 282.313h-1.646l-3.527-4.342v4.342h-1.4v-8.566h1.4v4.148l3.469-4.148h1.535l-3.457 4.137 3.626 4.429zM529.086 278.018c0 1.395-.35 2.479-1.047 3.252s-1.684 1.16-2.961 1.16c-1.293 0-2.287-.384-2.98-1.151s-1.039-1.858-1.039-3.272.348-2.5 1.045-3.258 1.693-1.137 2.986-1.137c1.273 0 2.258.385 2.953 1.154s1.043 1.854 1.043 3.252zm-6.539 0c0 1.055.213 1.854.639 2.399s1.057.817 1.893.817c.832 0 1.459-.27 1.883-.809s.637-1.342.637-2.408c0-1.051-.211-1.848-.631-2.391s-1.045-.814-1.877-.814c-.84 0-1.475.271-1.902.814s-.642 1.341-.642 2.392zM530.926 273.747h2.543c1.18 0 2.031.172 2.557.516s.789.887.789 1.629c0 .5-.129.916-.387 1.248s-.629.541-1.113.627v.059c.602.113 1.043.337 1.326.671s.426.786.426 1.356c0 .77-.27 1.372-.807 1.808s-1.283.653-2.24.653h-3.094v-8.567zm1.4 3.539h1.348c.586 0 1.014-.093 1.283-.278s.404-.501.404-.946c0-.402-.146-.693-.438-.873s-.752-.27-1.385-.27h-1.213v2.367zm0 1.136v2.713h1.488c.586 0 1.027-.112 1.326-.337s.449-.579.449-1.063c0-.445-.152-.775-.457-.99s-.768-.322-1.389-.322h-1.417zM546.453 278.018c0 1.395-.35 2.479-1.047 3.252s-1.684 1.16-2.961 1.16c-1.293 0-2.287-.384-2.98-1.151s-1.039-1.858-1.039-3.272.348-2.5 1.045-3.258 1.693-1.137 2.986-1.137c1.273 0 2.258.385 2.953 1.154s1.043 1.854 1.043 3.252zm-6.539 0c0 1.055.213 1.854.639 2.399s1.057.817 1.893.817c.832 0 1.459-.27 1.883-.809s.637-1.342.637-2.408c0-1.051-.211-1.848-.631-2.391s-1.045-.814-1.877-.814c-.84 0-1.475.271-1.902.814s-.642 1.341-.642 2.392zM548.293 273.747h1.283v4.453c0 .465-.012.935-.035 1.409l-.053.964h.053l4.377-6.826h1.635v8.566h-1.289v-4.418c0-.676.037-1.496.111-2.461h-.047l-4.395 6.879h-1.641v-8.566zm3.674-.686c-.828 0-1.436-.149-1.82-.448s-.598-.798-.641-1.497h1.248c.023.281.076.5.16.656s.205.269.363.337.4.103.725.103c.383 0 .674-.085.873-.255s.32-.45.363-.841h1.271c-.059.672-.295 1.164-.709 1.477s-1.024.468-1.833.468zM449.668 326.813l-2.484-7.154h-.047c.066 1.063.1 2.059.1 2.988v4.166h-1.271v-8.566h1.975l2.379 6.814h.035l2.449-6.814h1.98v8.566h-1.348v-4.236c0-.426.01-.98.031-1.664s.041-1.098.057-1.242h-.047l-2.572 7.143h-1.237zM462.354 326.813l-.855-2.379h-3.275l-.838 2.379h-1.477l3.205-8.602h1.523l3.205 8.602h-1.488zm-1.225-3.586l-.803-2.332c-.059-.156-.141-.402-.244-.738l-.213-.738c-.105.48-.26 1.006-.463 1.576l-.773 2.232h2.496zM471.401 326.813h-1.401v-7.365h-2.438c-.309 2.5-.557 4.201-.742 5.104s-.445 1.53-.781 1.884-.781.524-1.336.513c-.285 0-.557-.049-.814-.146v-1.166c.223.098.439.146.65.146.281 0 .5-.169.658-.507s.332-1.085.521-2.241.416-2.752.678-4.787h5.004v8.565zM479.346 324.235c0 .848-.275 1.489-.824 1.925s-1.354.653-2.416.653h-2.443v-8.566h1.4v3.48h.996c1.07 0 1.885.215 2.445.645s.842 1.05.842 1.863zm-4.283 1.412h.961c.625 0 1.098-.112 1.418-.337s.48-.583.48-1.075c0-.465-.154-.802-.461-1.011s-.826-.313-1.561-.313h-.838v2.736zm6.89 1.166h-1.406v-8.566h1.406v8.566zM484.209 318.247h1.283v4.453c0 .465-.012.935-.035 1.409l-.053.964h.053l4.377-6.826h1.635v8.566h-1.289v-4.418c0-.676.037-1.496.111-2.461h-.047l-4.395 6.879h-1.641v-8.566zm3.674-.686c-.828 0-1.436-.149-1.82-.448s-.598-.798-.641-1.497h1.248c.023.281.076.5.16.656s.205.269.363.337.4.103.725.103c.383 0 .674-.085.873-.255s.32-.45.363-.841h1.271c-.059.672-.295 1.164-.709 1.477s-1.024.468-1.833.468zM502.625 324.235c0 1.719-1.102 2.578-3.305 2.578h-2.49v-8.566h5.227v1.201h-3.826v2.279h1.02c2.249 0 3.374.836 3.374 2.508zm-4.394 1.4h1.008c.672 0 1.164-.11 1.477-.331s.469-.577.469-1.069c0-.473-.158-.813-.473-1.022s-.861-.313-1.643-.313h-.838v2.735zM511.936 322.518c0 1.395-.35 2.479-1.047 3.252s-1.684 1.16-2.961 1.16c-1.293 0-2.287-.384-2.98-1.151s-1.039-1.858-1.039-3.272.348-2.5 1.045-3.258 1.693-1.137 2.986-1.137c1.273 0 2.258.385 2.953 1.154s1.043 1.854 1.043 3.252zm-6.539 0c0 1.055.213 1.854.639 2.399s1.057.817 1.893.817c.832 0 1.459-.27 1.883-.809s.637-1.342.637-2.408c0-1.051-.211-1.848-.631-2.391s-1.045-.814-1.877-.814c-.84 0-1.475.271-1.902.814s-.642 1.341-.642 2.392zM520.35 326.813h-1.646l-3.527-4.342v4.342h-1.4v-8.566h1.4v4.148l3.469-4.148h1.535l-3.457 4.137 3.626 4.429zM529.086 322.518c0 1.395-.35 2.479-1.047 3.252s-1.684 1.16-2.961 1.16c-1.293 0-2.287-.384-2.98-1.151s-1.039-1.858-1.039-3.272.348-2.5 1.045-3.258 1.693-1.137 2.986-1.137c1.273 0 2.258.385 2.953 1.154s1.043 1.854 1.043 3.252zm-6.539 0c0 1.055.213 1.854.639 2.399s1.057.817 1.893.817c.832 0 1.459-.27 1.883-.809s.637-1.342.637-2.408c0-1.051-.211-1.848-.631-2.391s-1.045-.814-1.877-.814c-.84 0-1.475.271-1.902.814s-.642 1.341-.642 2.392zM530.926 318.247h2.543c1.18 0 2.031.172 2.557.516s.789.887.789 1.629c0 .5-.129.916-.387 1.248s-.629.541-1.113.627v.059c.602.113 1.043.337 1.326.671s.426.786.426 1.356c0 .77-.27 1.372-.807 1.808s-1.283.653-2.24.653h-3.094v-8.567zm1.4 3.539h1.348c.586 0 1.014-.093 1.283-.278s.404-.501.404-.946c0-.402-.146-.693-.438-.873s-.752-.27-1.385-.27h-1.213v2.367zm0 1.136v2.713h1.488c.586 0 1.027-.112 1.326-.337s.449-.579.449-1.063c0-.445-.152-.775-.457-.99s-.768-.322-1.389-.322h-1.417zM546.453 322.518c0 1.395-.35 2.479-1.047 3.252s-1.684 1.16-2.961 1.16c-1.293 0-2.287-.384-2.98-1.151s-1.039-1.858-1.039-3.272.348-2.5 1.045-3.258 1.693-1.137 2.986-1.137c1.273 0 2.258.385 2.953 1.154s1.043 1.854 1.043 3.252zm-6.539 0c0 1.055.213 1.854.639 2.399s1.057.817 1.893.817c.832 0 1.459-.27 1.883-.809s.637-1.342.637-2.408c0-1.051-.211-1.848-.631-2.391s-1.045-.814-1.877-.814c-.84 0-1.475.271-1.902.814s-.642 1.341-.642 2.392zM548.293 318.247h1.283v4.453c0 .465-.012.935-.035 1.409l-.053.964h.053l4.377-6.826h1.635v8.566h-1.289v-4.418c0-.676.037-1.496.111-2.461h-.047l-4.395 6.879h-1.641v-8.566zm3.674-.686c-.828 0-1.436-.149-1.82-.448s-.598-.798-.641-1.497h1.248c.023.281.076.5.16.656s.205.269.363.337.4.103.725.103c.383 0 .674-.085.873-.255s.32-.45.363-.841h1.271c-.059.672-.295 1.164-.709 1.477s-1.024.468-1.833.468zM449.668 372.605l-2.484-7.154h-.047c.066 1.063.1 2.059.1 2.988v4.166h-1.271v-8.566h1.975l2.379 6.814h.035l2.449-6.814h1.98v8.566h-1.348v-4.236c0-.426.01-.98.031-1.664s.041-1.098.057-1.242h-.047l-2.572 7.143h-1.237zM462.354 372.605l-.855-2.379h-3.275l-.838 2.379h-1.477l3.205-8.602h1.523l3.205 8.602h-1.488zm-1.225-3.586l-.803-2.332c-.059-.156-.141-.402-.244-.738l-.213-.738c-.105.48-.26 1.006-.463 1.576l-.773 2.232h2.496zM471.401 372.605h-1.401v-7.365h-2.438c-.309 2.5-.557 4.201-.742 5.104s-.445 1.53-.781 1.884-.781.524-1.336.513c-.285 0-.557-.049-.814-.146v-1.166c.223.098.439.146.65.146.281 0 .5-.169.658-.507s.332-1.085.521-2.241.416-2.752.678-4.787h5.004v8.565zM479.346 370.027c0 .848-.275 1.489-.824 1.925s-1.354.653-2.416.653h-2.443v-8.566h1.4v3.48h.996c1.07 0 1.885.215 2.445.645s.842 1.05.842 1.863zm-4.283 1.412h.961c.625 0 1.098-.112 1.418-.337s.48-.583.48-1.075c0-.465-.154-.802-.461-1.011s-.826-.313-1.561-.313h-.838v2.736zm6.89 1.166h-1.406v-8.566h1.406v8.566zM484.209 364.039h1.283v4.453c0 .465-.012.935-.035 1.409l-.053.964h.053l4.377-6.826h1.635v8.566h-1.289v-4.418c0-.676.037-1.496.111-2.461h-.047l-4.395 6.879h-1.641v-8.566zm3.674-.686c-.828 0-1.436-.149-1.82-.448s-.598-.798-.641-1.497h1.248c.023.281.076.5.16.656s.205.269.363.337.4.103.725.103c.383 0 .674-.085.873-.255s.32-.45.363-.841h1.271c-.059.672-.295 1.164-.709 1.477s-1.024.468-1.833.468zM502.625 370.027c0 1.719-1.102 2.578-3.305 2.578h-2.49v-8.566h5.227v1.201h-3.826v2.279h1.02c2.249 0 3.374.836 3.374 2.508zm-4.394 1.4h1.008c.672 0 1.164-.11 1.477-.331s.469-.577.469-1.069c0-.473-.158-.813-.473-1.022s-.861-.313-1.643-.313h-.838v2.735zM511.936 368.31c0 1.395-.35 2.479-1.047 3.252s-1.684 1.16-2.961 1.16c-1.293 0-2.287-.384-2.98-1.151s-1.039-1.858-1.039-3.272.348-2.5 1.045-3.258 1.693-1.137 2.986-1.137c1.273 0 2.258.385 2.953 1.154s1.043 1.854 1.043 3.252zm-6.539 0c0 1.055.213 1.854.639 2.399s1.057.817 1.893.817c.832 0 1.459-.27 1.883-.809s.637-1.342.637-2.408c0-1.051-.211-1.848-.631-2.391s-1.045-.814-1.877-.814c-.84 0-1.475.271-1.902.814s-.642 1.341-.642 2.392zM520.35 372.605h-1.646l-3.527-4.342v4.342h-1.4v-8.566h1.4v4.148l3.469-4.148h1.535l-3.457 4.137 3.626 4.429zM529.086 368.31c0 1.395-.35 2.479-1.047 3.252s-1.684 1.16-2.961 1.16c-1.293 0-2.287-.384-2.98-1.151s-1.039-1.858-1.039-3.272.348-2.5 1.045-3.258 1.693-1.137 2.986-1.137c1.273 0 2.258.385 2.953 1.154s1.043 1.854 1.043 3.252zm-6.539 0c0 1.055.213 1.854.639 2.399s1.057.817 1.893.817c.832 0 1.459-.27 1.883-.809s.637-1.342.637-2.408c0-1.051-.211-1.848-.631-2.391s-1.045-.814-1.877-.814c-.84 0-1.475.271-1.902.814s-.642 1.341-.642 2.392zM530.926 364.039h2.543c1.18 0 2.031.172 2.557.516s.789.887.789 1.629c0 .5-.129.916-.387 1.248s-.629.541-1.113.627v.059c.602.113 1.043.337 1.326.671s.426.786.426 1.356c0 .77-.27 1.372-.807 1.808s-1.283.653-2.24.653h-3.094v-8.567zm1.4 3.539h1.348c.586 0 1.014-.093 1.283-.278s.404-.501.404-.946c0-.402-.146-.693-.438-.873s-.752-.27-1.385-.27h-1.213v2.367zm0 1.136v2.713h1.488c.586 0 1.027-.112 1.326-.337s.449-.579.449-1.063c0-.445-.152-.775-.457-.99s-.768-.322-1.389-.322h-1.417zM546.453 368.31c0 1.395-.35 2.479-1.047 3.252s-1.684 1.16-2.961 1.16c-1.293 0-2.287-.384-2.98-1.151s-1.039-1.858-1.039-3.272.348-2.5 1.045-3.258 1.693-1.137 2.986-1.137c1.273 0 2.258.385 2.953 1.154s1.043 1.854 1.043 3.252zm-6.539 0c0 1.055.213 1.854.639 2.399s1.057.817 1.893.817c.832 0 1.459-.27 1.883-.809s.637-1.342.637-2.408c0-1.051-.211-1.848-.631-2.391s-1.045-.814-1.877-.814c-.84 0-1.475.271-1.902.814s-.642 1.341-.642 2.392zM548.293 364.039h1.283v4.453c0 .465-.012.935-.035 1.409l-.053.964h.053l4.377-6.826h1.635v8.566h-1.289v-4.418c0-.676.037-1.496.111-2.461h-.047l-4.395 6.879h-1.641v-8.566zm3.674-.686c-.828 0-1.436-.149-1.82-.448s-.598-.798-.641-1.497h1.248c.023.281.076.5.16.656s.205.269.363.337.4.103.725.103c.383 0 .674-.085.873-.255s.32-.45.363-.841h1.271c-.059.672-.295 1.164-.709 1.477s-1.024.468-1.833.468zM449.668 418.116l-2.484-7.154h-.047c.066 1.063.1 2.059.1 2.988v4.166h-1.271v-8.566h1.975l2.379 6.814h.035l2.449-6.814h1.98v8.566h-1.348v-4.236c0-.426.01-.98.031-1.664s.041-1.098.057-1.242h-.047l-2.572 7.143h-1.237zM462.354 418.116l-.855-2.379h-3.275l-.838 2.379h-1.477l3.205-8.602h1.523l3.205 8.602h-1.488zm-1.225-3.586l-.803-2.332c-.059-.156-.141-.402-.244-.738l-.213-.738c-.105.48-.26 1.006-.463 1.576l-.773 2.232h2.496zM471.401 418.116h-1.401v-7.365h-2.438c-.309 2.5-.557 4.201-.742 5.104s-.445 1.53-.781 1.884-.781.524-1.336.513c-.285 0-.557-.049-.814-.146v-1.166c.223.098.439.146.65.146.281 0 .5-.169.658-.507s.332-1.085.521-2.241.416-2.752.678-4.787h5.004v8.565zM479.346 415.538c0 .848-.275 1.489-.824 1.925s-1.354.653-2.416.653h-2.443v-8.566h1.4v3.48h.996c1.07 0 1.885.215 2.445.645s.842 1.05.842 1.863zm-4.283 1.412h.961c.625 0 1.098-.112 1.418-.337s.48-.583.48-1.075c0-.465-.154-.802-.461-1.011s-.826-.313-1.561-.313h-.838v2.736zm6.89 1.166h-1.406v-8.566h1.406v8.566zM484.209 409.549h1.283v4.453c0 .465-.012.935-.035 1.409l-.053.964h.053l4.377-6.826h1.635v8.566h-1.289v-4.418c0-.676.037-1.496.111-2.461h-.047l-4.395 6.879h-1.641v-8.566zm3.674-.685c-.828 0-1.436-.149-1.82-.448s-.598-.798-.641-1.497h1.248c.023.281.076.5.16.656s.205.269.363.337.4.103.725.103c.383 0 .674-.085.873-.255s.32-.45.363-.841h1.271c-.059.672-.295 1.164-.709 1.477s-1.024.468-1.833.468zM502.625 415.538c0 1.719-1.102 2.578-3.305 2.578h-2.49v-8.566h5.227v1.201h-3.826v2.279h1.02c2.249 0 3.374.836 3.374 2.508zm-4.394 1.4h1.008c.672 0 1.164-.11 1.477-.331s.469-.577.469-1.069c0-.473-.158-.813-.473-1.022s-.861-.313-1.643-.313h-.838v2.735zM511.936 413.821c0 1.395-.35 2.479-1.047 3.252s-1.684 1.16-2.961 1.16c-1.293 0-2.287-.384-2.98-1.151s-1.039-1.858-1.039-3.272.348-2.5 1.045-3.258 1.693-1.137 2.986-1.137c1.273 0 2.258.385 2.953 1.154s1.043 1.853 1.043 3.252zm-6.539 0c0 1.055.213 1.854.639 2.399s1.057.817 1.893.817c.832 0 1.459-.27 1.883-.809s.637-1.342.637-2.408c0-1.051-.211-1.848-.631-2.391s-1.045-.814-1.877-.814c-.84 0-1.475.271-1.902.814s-.642 1.341-.642 2.392zM520.35 418.116h-1.646l-3.527-4.342v4.342h-1.4v-8.566h1.4v4.148l3.469-4.148h1.535l-3.457 4.137 3.626 4.429zM529.086 413.821c0 1.395-.35 2.479-1.047 3.252s-1.684 1.16-2.961 1.16c-1.293 0-2.287-.384-2.98-1.151s-1.039-1.858-1.039-3.272.348-2.5 1.045-3.258 1.693-1.137 2.986-1.137c1.273 0 2.258.385 2.953 1.154s1.043 1.853 1.043 3.252zm-6.539 0c0 1.055.213 1.854.639 2.399s1.057.817 1.893.817c.832 0 1.459-.27 1.883-.809s.637-1.342.637-2.408c0-1.051-.211-1.848-.631-2.391s-1.045-.814-1.877-.814c-.84 0-1.475.271-1.902.814s-.642 1.341-.642 2.392zM530.926 409.549h2.543c1.18 0 2.031.172 2.557.516s.789.887.789 1.629c0 .5-.129.916-.387 1.248s-.629.541-1.113.627v.059c.602.113 1.043.337 1.326.671s.426.786.426 1.356c0 .77-.27 1.372-.807 1.808s-1.283.653-2.24.653h-3.094v-8.567zm1.4 3.539h1.348c.586 0 1.014-.093 1.283-.278s.404-.501.404-.946c0-.402-.146-.693-.438-.873s-.752-.27-1.385-.27h-1.213v2.367zm0 1.137v2.713h1.488c.586 0 1.027-.112 1.326-.337s.449-.579.449-1.063c0-.445-.152-.775-.457-.99s-.768-.322-1.389-.322h-1.417zM546.453 413.821c0 1.395-.35 2.479-1.047 3.252s-1.684 1.16-2.961 1.16c-1.293 0-2.287-.384-2.98-1.151s-1.039-1.858-1.039-3.272.348-2.5 1.045-3.258 1.693-1.137 2.986-1.137c1.273 0 2.258.385 2.953 1.154s1.043 1.853 1.043 3.252zm-6.539 0c0 1.055.213 1.854.639 2.399s1.057.817 1.893.817c.832 0 1.459-.27 1.883-.809s.637-1.342.637-2.408c0-1.051-.211-1.848-.631-2.391s-1.045-.814-1.877-.814c-.84 0-1.475.271-1.902.814s-.642 1.341-.642 2.392zM548.293 409.549h1.283v4.453c0 .465-.012.935-.035 1.409l-.053.964h.053l4.377-6.826h1.635v8.566h-1.289v-4.418c0-.676.037-1.496.111-2.461h-.047l-4.395 6.879h-1.641v-8.566zm3.674-.685c-.828 0-1.436-.149-1.82-.448s-.598-.798-.641-1.497h1.248c.023.281.076.5.16.656s.205.269.363.337.4.103.725.103c.383 0 .674-.085.873-.255s.32-.45.363-.841h1.271c-.059.672-.295 1.164-.709 1.477s-1.024.468-1.833.468zM449.668 463.116l-2.484-7.154h-.047c.066 1.063.1 2.059.1 2.988v4.166h-1.271v-8.566h1.975l2.379 6.814h.035l2.449-6.814h1.98v8.566h-1.348v-4.236c0-.426.01-.98.031-1.664s.041-1.098.057-1.242h-.047l-2.572 7.143h-1.237zM462.354 463.116l-.855-2.379h-3.275l-.838 2.379h-1.477l3.205-8.602h1.523l3.205 8.602h-1.488zm-1.225-3.586l-.803-2.332c-.059-.156-.141-.402-.244-.738l-.213-.738c-.105.48-.26 1.006-.463 1.576l-.773 2.232h2.496zM471.401 463.116h-1.401v-7.365h-2.438c-.309 2.5-.557 4.201-.742 5.104s-.445 1.53-.781 1.884-.781.524-1.336.513c-.285 0-.557-.049-.814-.146v-1.166c.223.098.439.146.65.146.281 0 .5-.169.658-.507s.332-1.085.521-2.241.416-2.752.678-4.787h5.004v8.565zM479.346 460.538c0 .848-.275 1.489-.824 1.925s-1.354.653-2.416.653h-2.443v-8.566h1.4v3.48h.996c1.07 0 1.885.215 2.445.645s.842 1.051.842 1.863zm-4.283 1.412h.961c.625 0 1.098-.112 1.418-.337s.48-.583.48-1.075c0-.465-.154-.802-.461-1.011s-.826-.313-1.561-.313h-.838v2.736zm6.89 1.166h-1.406v-8.566h1.406v8.566zM484.209 454.55h1.283v4.453c0 .465-.012.935-.035 1.409l-.053.964h.053l4.377-6.826h1.635v8.566h-1.289v-4.418c0-.676.037-1.496.111-2.461h-.047l-4.395 6.879h-1.641v-8.566zm3.674-.686c-.828 0-1.436-.149-1.82-.448s-.598-.798-.641-1.497h1.248c.023.281.076.5.16.656s.205.269.363.337.4.103.725.103c.383 0 .674-.085.873-.255s.32-.45.363-.841h1.271c-.059.672-.295 1.164-.709 1.477s-1.024.468-1.833.468zM502.625 460.538c0 1.719-1.102 2.578-3.305 2.578h-2.49v-8.566h5.227v1.201h-3.826v2.279h1.02c2.249 0 3.374.836 3.374 2.508zm-4.394 1.4h1.008c.672 0 1.164-.11 1.477-.331s.469-.577.469-1.069c0-.473-.158-.813-.473-1.022s-.861-.313-1.643-.313h-.838v2.735zM511.936 458.821c0 1.395-.35 2.479-1.047 3.252s-1.684 1.16-2.961 1.16c-1.293 0-2.287-.384-2.98-1.151s-1.039-1.858-1.039-3.272.348-2.5 1.045-3.258 1.693-1.137 2.986-1.137c1.273 0 2.258.385 2.953 1.154s1.043 1.854 1.043 3.252zm-6.539 0c0 1.055.213 1.854.639 2.399s1.057.817 1.893.817c.832 0 1.459-.27 1.883-.809s.637-1.342.637-2.408c0-1.051-.211-1.848-.631-2.391s-1.045-.814-1.877-.814c-.84 0-1.475.271-1.902.814s-.642 1.342-.642 2.392zM520.35 463.116h-1.646l-3.527-4.342v4.342h-1.4v-8.566h1.4v4.148l3.469-4.148h1.535l-3.457 4.137 3.626 4.429zM529.086 458.821c0 1.395-.35 2.479-1.047 3.252s-1.684 1.16-2.961 1.16c-1.293 0-2.287-.384-2.98-1.151s-1.039-1.858-1.039-3.272.348-2.5 1.045-3.258 1.693-1.137 2.986-1.137c1.273 0 2.258.385 2.953 1.154s1.043 1.854 1.043 3.252zm-6.539 0c0 1.055.213 1.854.639 2.399s1.057.817 1.893.817c.832 0 1.459-.27 1.883-.809s.637-1.342.637-2.408c0-1.051-.211-1.848-.631-2.391s-1.045-.814-1.877-.814c-.84 0-1.475.271-1.902.814s-.642 1.342-.642 2.392zM530.926 454.55h2.543c1.18 0 2.031.172 2.557.516s.789.887.789 1.629c0 .5-.129.916-.387 1.248s-.629.541-1.113.627v.059c.602.113 1.043.337 1.326.671s.426.786.426 1.356c0 .77-.27 1.372-.807 1.808s-1.283.653-2.24.653h-3.094v-8.567zm1.4 3.539h1.348c.586 0 1.014-.093 1.283-.278s.404-.501.404-.946c0-.402-.146-.693-.438-.873s-.752-.27-1.385-.27h-1.213v2.367zm0 1.137v2.713h1.488c.586 0 1.027-.112 1.326-.337s.449-.579.449-1.063c0-.445-.152-.775-.457-.99s-.768-.322-1.389-.322h-1.417zM546.453 458.821c0 1.395-.35 2.479-1.047 3.252s-1.684 1.16-2.961 1.16c-1.293 0-2.287-.384-2.98-1.151s-1.039-1.858-1.039-3.272.348-2.5 1.045-3.258 1.693-1.137 2.986-1.137c1.273 0 2.258.385 2.953 1.154s1.043 1.854 1.043 3.252zm-6.539 0c0 1.055.213 1.854.639 2.399s1.057.817 1.893.817c.832 0 1.459-.27 1.883-.809s.637-1.342.637-2.408c0-1.051-.211-1.848-.631-2.391s-1.045-.814-1.877-.814c-.84 0-1.475.271-1.902.814s-.642 1.342-.642 2.392zM548.293 454.55h1.283v4.453c0 .465-.012.935-.035 1.409l-.053.964h.053l4.377-6.826h1.635v8.566h-1.289v-4.418c0-.676.037-1.496.111-2.461h-.047l-4.395 6.879h-1.641v-8.566zm3.674-.686c-.828 0-1.436-.149-1.82-.448s-.598-.798-.641-1.497h1.248c.023.281.076.5.16.656s.205.269.363.337.4.103.725.103c.383 0 .674-.085.873-.255s.32-.45.363-.841h1.271c-.059.672-.295 1.164-.709 1.477s-1.024.468-1.833.468zM449.668 512.116l-2.484-7.154h-.047c.066 1.063.1 2.059.1 2.988v4.166h-1.271v-8.566h1.975l2.379 6.814h.035l2.449-6.814h1.98v8.566h-1.348v-4.236c0-.426.01-.98.031-1.664s.041-1.098.057-1.242h-.047l-2.572 7.143h-1.237zM462.354 512.116l-.855-2.379h-3.275l-.838 2.379h-1.477l3.205-8.602h1.523l3.205 8.602h-1.488zm-1.225-3.586l-.803-2.332c-.059-.156-.141-.402-.244-.738l-.213-.738c-.105.48-.26 1.006-.463 1.576l-.773 2.232h2.496zM471.401 512.116h-1.401v-7.365h-2.438c-.309 2.5-.557 4.201-.742 5.104s-.445 1.53-.781 1.884-.781.524-1.336.513c-.285 0-.557-.049-.814-.146v-1.166c.223.098.439.146.65.146.281 0 .5-.169.658-.507s.332-1.085.521-2.241.416-2.752.678-4.787h5.004v8.565zM479.346 509.538c0 .848-.275 1.489-.824 1.925s-1.354.653-2.416.653h-2.443v-8.566h1.4v3.48h.996c1.07 0 1.885.215 2.445.645s.842 1.051.842 1.863zm-4.283 1.412h.961c.625 0 1.098-.112 1.418-.337s.48-.583.48-1.075c0-.465-.154-.802-.461-1.011s-.826-.313-1.561-.313h-.838v2.736zm6.89 1.166h-1.406v-8.566h1.406v8.566zM484.209 503.55h1.283v4.453c0 .465-.012.935-.035 1.409l-.053.964h.053l4.377-6.826h1.635v8.566h-1.289v-4.418c0-.676.037-1.496.111-2.461h-.047l-4.395 6.879h-1.641v-8.566zm3.674-.686c-.828 0-1.436-.149-1.82-.448s-.598-.798-.641-1.497h1.248c.023.281.076.5.16.656s.205.269.363.337.4.103.725.103c.383 0 .674-.085.873-.255s.32-.45.363-.841h1.271c-.059.672-.295 1.164-.709 1.477s-1.024.468-1.833.468zM502.625 509.538c0 1.719-1.102 2.578-3.305 2.578h-2.49v-8.566h5.227v1.201h-3.826v2.279h1.02c2.249 0 3.374.836 3.374 2.508zm-4.394 1.4h1.008c.672 0 1.164-.11 1.477-.331s.469-.577.469-1.069c0-.473-.158-.813-.473-1.022s-.861-.313-1.643-.313h-.838v2.735zM511.936 507.821c0 1.395-.35 2.479-1.047 3.252s-1.684 1.16-2.961 1.16c-1.293 0-2.287-.384-2.98-1.151s-1.039-1.858-1.039-3.272.348-2.5 1.045-3.258 1.693-1.137 2.986-1.137c1.273 0 2.258.385 2.953 1.154s1.043 1.854 1.043 3.252zm-6.539 0c0 1.055.213 1.854.639 2.399s1.057.817 1.893.817c.832 0 1.459-.27 1.883-.809s.637-1.342.637-2.408c0-1.051-.211-1.848-.631-2.391s-1.045-.814-1.877-.814c-.84 0-1.475.271-1.902.814s-.642 1.342-.642 2.392zM520.35 512.116h-1.646l-3.527-4.342v4.342h-1.4v-8.566h1.4v4.148l3.469-4.148h1.535l-3.457 4.137 3.626 4.429zM529.086 507.821c0 1.395-.35 2.479-1.047 3.252s-1.684 1.16-2.961 1.16c-1.293 0-2.287-.384-2.98-1.151s-1.039-1.858-1.039-3.272.348-2.5 1.045-3.258 1.693-1.137 2.986-1.137c1.273 0 2.258.385 2.953 1.154s1.043 1.854 1.043 3.252zm-6.539 0c0 1.055.213 1.854.639 2.399s1.057.817 1.893.817c.832 0 1.459-.27 1.883-.809s.637-1.342.637-2.408c0-1.051-.211-1.848-.631-2.391s-1.045-.814-1.877-.814c-.84 0-1.475.271-1.902.814s-.642 1.342-.642 2.392zM530.926 503.55h2.543c1.18 0 2.031.172 2.557.516s.789.887.789 1.629c0 .5-.129.916-.387 1.248s-.629.541-1.113.627v.059c.602.113 1.043.337 1.326.671s.426.786.426 1.356c0 .77-.27 1.372-.807 1.808s-1.283.653-2.24.653h-3.094v-8.567zm1.4 3.539h1.348c.586 0 1.014-.093 1.283-.278s.404-.501.404-.946c0-.402-.146-.693-.438-.873s-.752-.27-1.385-.27h-1.213v2.367zm0 1.137v2.713h1.488c.586 0 1.027-.112 1.326-.337s.449-.579.449-1.063c0-.445-.152-.775-.457-.99s-.768-.322-1.389-.322h-1.417zM546.453 507.821c0 1.395-.35 2.479-1.047 3.252s-1.684 1.16-2.961 1.16c-1.293 0-2.287-.384-2.98-1.151s-1.039-1.858-1.039-3.272.348-2.5 1.045-3.258 1.693-1.137 2.986-1.137c1.273 0 2.258.385 2.953 1.154s1.043 1.854 1.043 3.252zm-6.539 0c0 1.055.213 1.854.639 2.399s1.057.817 1.893.817c.832 0 1.459-.27 1.883-.809s.637-1.342.637-2.408c0-1.051-.211-1.848-.631-2.391s-1.045-.814-1.877-.814c-.84 0-1.475.271-1.902.814s-.642 1.342-.642 2.392zM548.293 503.55h1.283v4.453c0 .465-.012.935-.035 1.409l-.053.964h.053l4.377-6.826h1.635v8.566h-1.289v-4.418c0-.676.037-1.496.111-2.461h-.047l-4.395 6.879h-1.641v-8.566zm3.674-.686c-.828 0-1.436-.149-1.82-.448s-.598-.798-.641-1.497h1.248c.023.281.076.5.16.656s.205.269.363.337.4.103.725.103c.383 0 .674-.085.873-.255s.32-.45.363-.841h1.271c-.059.672-.295 1.164-.709 1.477s-1.024.468-1.833.468zM449.418 558.919l-2.484-7.154h-.047c.066 1.063.1 2.059.1 2.988v4.166h-1.271v-8.566h1.975l2.379 6.814h.035l2.449-6.814h1.98v8.566h-1.348v-4.236c0-.426.011-.98.032-1.664s.04-1.098.056-1.242h-.047l-2.572 7.143h-1.237zM462.104 558.919l-.855-2.379h-3.275l-.838 2.379h-1.477l3.205-8.602h1.523l3.205 8.602h-1.488zm-1.225-3.586l-.803-2.332c-.059-.156-.14-.402-.243-.738l-.214-.738c-.105.48-.26 1.006-.463 1.576l-.773 2.232h2.496zM471.151 558.919h-1.4v-7.365h-2.438c-.309 2.5-.556 4.201-.741 5.104s-.446 1.53-.782 1.884-.781.524-1.336.513c-.285 0-.557-.049-.814-.146v-1.166c.223.098.439.146.65.146.281 0 .501-.169.659-.507s.332-1.085.521-2.241.415-2.752.677-4.787h5.004v8.565zM479.096 556.341c0 .848-.274 1.489-.823 1.925s-1.354.653-2.417.653h-2.443v-8.566h1.4v3.48h.996c1.07 0 1.886.215 2.446.645s.841 1.05.841 1.863zm-4.283 1.412h.961c.625 0 1.098-.112 1.418-.337s.48-.583.48-1.075c0-.465-.153-.802-.46-1.011s-.827-.313-1.562-.313h-.838v2.736zm6.89 1.166h-1.406v-8.566h1.406v8.566zM483.959 550.353h1.283v4.453c0 .465-.012.935-.035 1.409l-.053.964h.053l4.377-6.826h1.635v8.566h-1.289v-4.418c0-.676.037-1.496.111-2.461h-.047l-4.395 6.879h-1.641v-8.566zm3.674-.686c-.828 0-1.435-.149-1.819-.448s-.599-.798-.642-1.497h1.248c.023.281.077.5.161.656s.205.269.363.337.399.103.724.103c.383 0 .674-.085.873-.255s.32-.45.363-.841h1.271c-.059.672-.295 1.164-.709 1.477s-1.024.468-1.833.468zM502.375 556.341c0 1.719-1.102 2.578-3.305 2.578h-2.49v-8.566h5.227v1.201h-3.826v2.279h1.019c2.25 0 3.375.836 3.375 2.508zm-4.394 1.4h1.008c.672 0 1.164-.11 1.477-.331s.469-.577.469-1.069c0-.473-.157-.813-.472-1.022s-.862-.313-1.644-.313h-.838v2.735zM511.686 554.624c0 1.395-.349 2.479-1.046 3.252s-1.685 1.16-2.962 1.16c-1.293 0-2.286-.384-2.979-1.151s-1.04-1.858-1.04-3.272.349-2.5 1.046-3.258 1.692-1.137 2.985-1.137c1.273 0 2.258.385 2.953 1.154s1.043 1.854 1.043 3.252zm-6.539 0c0 1.055.213 1.854.639 2.399s1.057.817 1.893.817c.832 0 1.46-.27 1.884-.809s.636-1.342.636-2.408c0-1.051-.21-1.848-.63-2.391s-1.046-.814-1.878-.814c-.84 0-1.474.271-1.901.814s-.643 1.341-.643 2.392zM520.1 558.919h-1.646l-3.527-4.342v4.342h-1.4v-8.566h1.4v4.148l3.469-4.148h1.535l-3.457 4.137 3.626 4.429zM528.836 554.624c0 1.395-.349 2.479-1.046 3.252s-1.685 1.16-2.962 1.16c-1.293 0-2.286-.384-2.979-1.151s-1.04-1.858-1.04-3.272.349-2.5 1.046-3.258 1.692-1.137 2.985-1.137c1.273 0 2.258.385 2.953 1.154s1.043 1.854 1.043 3.252zm-6.539 0c0 1.055.213 1.854.639 2.399s1.057.817 1.893.817c.832 0 1.46-.27 1.884-.809s.636-1.342.636-2.408c0-1.051-.21-1.848-.63-2.391s-1.046-.814-1.878-.814c-.84 0-1.474.271-1.901.814s-.643 1.341-.643 2.392zM530.676 550.353h2.543c1.18 0 2.032.172 2.558.516s.788.887.788 1.629c0 .5-.129.916-.387 1.248s-.629.541-1.113.627v.059c.602.113 1.044.337 1.327.671s.425.786.425 1.356c0 .77-.269 1.372-.806 1.808s-1.284.653-2.241.653h-3.094v-8.567zm1.4 3.539h1.348c.586 0 1.014-.093 1.283-.278s.404-.501.404-.946c0-.402-.146-.693-.437-.873s-.753-.27-1.386-.27h-1.213v2.367zm0 1.136v2.713h1.488c.586 0 1.028-.112 1.327-.337s.448-.579.448-1.063c0-.445-.152-.775-.457-.99s-.768-.322-1.389-.322h-1.417zM546.203 554.624c0 1.395-.349 2.479-1.046 3.252s-1.685 1.16-2.962 1.16c-1.293 0-2.286-.384-2.979-1.151s-1.04-1.858-1.04-3.272.349-2.5 1.046-3.258 1.692-1.137 2.985-1.137c1.273 0 2.258.385 2.953 1.154s1.043 1.854 1.043 3.252zm-6.539 0c0 1.055.213 1.854.639 2.399s1.057.817 1.893.817c.832 0 1.46-.27 1.884-.809s.636-1.342.636-2.408c0-1.051-.21-1.848-.63-2.391s-1.046-.814-1.878-.814c-.84 0-1.474.271-1.901.814s-.643 1.341-.643 2.392zM548.043 550.353h1.283v4.453c0 .465-.012.935-.035 1.409l-.053.964h.053l4.377-6.826h1.635v8.566h-1.289v-4.418c0-.676.037-1.496.111-2.461h-.047l-4.395 6.879h-1.641v-8.566zm3.674-.686c-.828 0-1.435-.149-1.819-.448s-.599-.798-.642-1.497h1.248c.023.281.077.5.161.656s.205.269.363.337.399.103.724.103c.383 0 .674-.085.873-.255s.32-.45.363-.841h1.271c-.059.672-.295 1.164-.709 1.477s-1.024.468-1.833.468zM449.418 605.18l-2.484-7.154h-.047c.066 1.063.1 2.059.1 2.988v4.166h-1.271v-8.566h1.975l2.379 6.814h.035l2.449-6.814h1.98v8.566h-1.348v-4.236c0-.426.011-.98.032-1.664s.04-1.098.056-1.242h-.047l-2.572 7.143h-1.237zM462.104 605.18l-.855-2.379h-3.275l-.838 2.379h-1.477l3.205-8.602h1.523l3.205 8.602h-1.488zm-1.225-3.586l-.803-2.332c-.059-.156-.14-.402-.243-.738l-.214-.738c-.105.48-.26 1.006-.463 1.576l-.773 2.232h2.496zM471.151 605.18h-1.4v-7.365h-2.438c-.309 2.5-.556 4.201-.741 5.104s-.446 1.53-.782 1.884-.781.524-1.336.513c-.285 0-.557-.049-.814-.146v-1.166c.223.098.439.146.65.146.281 0 .501-.169.659-.507s.332-1.085.521-2.241.415-2.752.677-4.787h5.004v8.565zM479.096 602.602c0 .848-.274 1.489-.823 1.925s-1.354.653-2.417.653h-2.443v-8.566h1.4v3.48h.996c1.07 0 1.886.215 2.446.645s.841 1.05.841 1.863zm-4.283 1.412h.961c.625 0 1.098-.112 1.418-.337s.48-.583.48-1.075c0-.465-.153-.802-.46-1.011s-.827-.313-1.562-.313h-.838v2.736zm6.89 1.166h-1.406v-8.566h1.406v8.566zM483.959 596.613h1.283v4.453c0 .465-.012.935-.035 1.409l-.053.964h.053l4.377-6.826h1.635v8.566h-1.289v-4.418c0-.676.037-1.496.111-2.461h-.047l-4.395 6.879h-1.641v-8.566zm3.674-.685c-.828 0-1.435-.149-1.819-.448s-.599-.798-.642-1.497h1.248c.023.281.077.5.161.656s.205.269.363.337.399.103.724.103c.383 0 .674-.085.873-.255s.32-.45.363-.841h1.271c-.059.672-.295 1.164-.709 1.477s-1.024.468-1.833.468zM502.375 602.602c0 1.719-1.102 2.578-3.305 2.578h-2.49v-8.566h5.227v1.201h-3.826v2.279h1.019c2.25 0 3.375.836 3.375 2.508zm-4.394 1.4h1.008c.672 0 1.164-.11 1.477-.331s.469-.577.469-1.069c0-.473-.157-.813-.472-1.022s-.862-.313-1.644-.313h-.838v2.735zM511.686 600.885c0 1.395-.349 2.479-1.046 3.252s-1.685 1.16-2.962 1.16c-1.293 0-2.286-.384-2.979-1.151s-1.04-1.858-1.04-3.272.349-2.5 1.046-3.258 1.692-1.137 2.985-1.137c1.273 0 2.258.385 2.953 1.154s1.043 1.853 1.043 3.252zm-6.539 0c0 1.055.213 1.854.639 2.399s1.057.817 1.893.817c.832 0 1.46-.27 1.884-.809s.636-1.342.636-2.408c0-1.051-.21-1.848-.63-2.391s-1.046-.814-1.878-.814c-.84 0-1.474.271-1.901.814s-.643 1.341-.643 2.392zM520.1 605.18h-1.646l-3.527-4.342v4.342h-1.4v-8.566h1.4v4.148l3.469-4.148h1.535l-3.457 4.137 3.626 4.429zM528.836 600.885c0 1.395-.349 2.479-1.046 3.252s-1.685 1.16-2.962 1.16c-1.293 0-2.286-.384-2.979-1.151s-1.04-1.858-1.04-3.272.349-2.5 1.046-3.258 1.692-1.137 2.985-1.137c1.273 0 2.258.385 2.953 1.154s1.043 1.853 1.043 3.252zm-6.539 0c0 1.055.213 1.854.639 2.399s1.057.817 1.893.817c.832 0 1.46-.27 1.884-.809s.636-1.342.636-2.408c0-1.051-.21-1.848-.63-2.391s-1.046-.814-1.878-.814c-.84 0-1.474.271-1.901.814s-.643 1.341-.643 2.392zM530.676 596.613h2.543c1.18 0 2.032.172 2.558.516s.788.887.788 1.629c0 .5-.129.916-.387 1.248s-.629.541-1.113.627v.059c.602.113 1.044.337 1.327.671s.425.786.425 1.356c0 .77-.269 1.372-.806 1.808s-1.284.653-2.241.653h-3.094v-8.567zm1.4 3.539h1.348c.586 0 1.014-.093 1.283-.278s.404-.501.404-.946c0-.402-.146-.693-.437-.873s-.753-.27-1.386-.27h-1.213v2.367zm0 1.137v2.713h1.488c.586 0 1.028-.112 1.327-.337s.448-.579.448-1.063c0-.445-.152-.775-.457-.99s-.768-.322-1.389-.322h-1.417zM546.203 600.885c0 1.395-.349 2.479-1.046 3.252s-1.685 1.16-2.962 1.16c-1.293 0-2.286-.384-2.979-1.151s-1.04-1.858-1.04-3.272.349-2.5 1.046-3.258 1.692-1.137 2.985-1.137c1.273 0 2.258.385 2.953 1.154s1.043 1.853 1.043 3.252zm-6.539 0c0 1.055.213 1.854.639 2.399s1.057.817 1.893.817c.832 0 1.46-.27 1.884-.809s.636-1.342.636-2.408c0-1.051-.21-1.848-.63-2.391s-1.046-.814-1.878-.814c-.84 0-1.474.271-1.901.814s-.643 1.341-.643 2.392zM548.043 596.613h1.283v4.453c0 .465-.012.935-.035 1.409l-.053.964h.053l4.377-6.826h1.635v8.566h-1.289v-4.418c0-.676.037-1.496.111-2.461h-.047l-4.395 6.879h-1.641v-8.566zm3.674-.685c-.828 0-1.435-.149-1.819-.448s-.599-.798-.642-1.497h1.248c.023.281.077.5.161.656s.205.269.363.337.399.103.724.103c.383 0 .674-.085.873-.255s.32-.45.363-.841h1.271c-.059.672-.295 1.164-.709 1.477s-1.024.468-1.833.468zM449.418 649.711l-2.484-7.154h-.047c.066 1.063.1 2.059.1 2.988v4.166h-1.271v-8.566h1.975l2.379 6.814h.035l2.449-6.814h1.98v8.566h-1.348v-4.236c0-.426.011-.98.032-1.664s.04-1.098.056-1.242h-.047l-2.572 7.143h-1.237zM462.104 649.711l-.855-2.379h-3.275l-.838 2.379h-1.477l3.205-8.602h1.523l3.205 8.602h-1.488zm-1.225-3.586l-.803-2.332c-.059-.156-.14-.402-.243-.738l-.214-.738c-.105.48-.26 1.006-.463 1.576l-.773 2.232h2.496zM471.151 649.711h-1.4v-7.365h-2.438c-.309 2.5-.556 4.201-.741 5.104s-.446 1.53-.782 1.884-.781.524-1.336.513c-.285 0-.557-.049-.814-.146v-1.166c.223.098.439.146.65.146.281 0 .501-.169.659-.507s.332-1.085.521-2.241.415-2.752.677-4.787h5.004v8.565zM479.096 647.133c0 .848-.274 1.489-.823 1.925s-1.354.653-2.417.653h-2.443v-8.566h1.4v3.48h.996c1.07 0 1.886.215 2.446.645s.841 1.05.841 1.863zm-4.283 1.412h.961c.625 0 1.098-.112 1.418-.337s.48-.583.48-1.075c0-.465-.153-.802-.46-1.011s-.827-.313-1.562-.313h-.838v2.736zm6.89 1.166h-1.406v-8.566h1.406v8.566zM483.959 641.145h1.283v4.453c0 .465-.012.935-.035 1.409l-.053.964h.053l4.377-6.826h1.635v8.566h-1.289v-4.418c0-.676.037-1.496.111-2.461h-.047l-4.395 6.879h-1.641v-8.566zm3.674-.686c-.828 0-1.435-.149-1.819-.448s-.599-.798-.642-1.497h1.248c.023.281.077.5.161.656s.205.269.363.337.399.103.724.103c.383 0 .674-.085.873-.255s.32-.45.363-.841h1.271c-.059.672-.295 1.164-.709 1.477s-1.024.468-1.833.468zM502.375 647.133c0 1.719-1.102 2.578-3.305 2.578h-2.49v-8.566h5.227v1.201h-3.826v2.279h1.019c2.25 0 3.375.836 3.375 2.508zm-4.394 1.4h1.008c.672 0 1.164-.11 1.477-.331s.469-.577.469-1.069c0-.473-.157-.813-.472-1.022s-.862-.313-1.644-.313h-.838v2.735zM511.686 645.416c0 1.395-.349 2.479-1.046 3.252s-1.685 1.16-2.962 1.16c-1.293 0-2.286-.384-2.979-1.151s-1.04-1.858-1.04-3.272.349-2.5 1.046-3.258 1.692-1.137 2.985-1.137c1.273 0 2.258.385 2.953 1.154s1.043 1.854 1.043 3.252zm-6.539 0c0 1.055.213 1.854.639 2.399s1.057.817 1.893.817c.832 0 1.46-.27 1.884-.809s.636-1.342.636-2.408c0-1.051-.21-1.848-.63-2.391s-1.046-.814-1.878-.814c-.84 0-1.474.271-1.901.814s-.643 1.341-.643 2.392zM520.1 649.711h-1.646l-3.527-4.342v4.342h-1.4v-8.566h1.4v4.148l3.469-4.148h1.535l-3.457 4.137 3.626 4.429zM528.836 645.416c0 1.395-.349 2.479-1.046 3.252s-1.685 1.16-2.962 1.16c-1.293 0-2.286-.384-2.979-1.151s-1.04-1.858-1.04-3.272.349-2.5 1.046-3.258 1.692-1.137 2.985-1.137c1.273 0 2.258.385 2.953 1.154s1.043 1.854 1.043 3.252zm-6.539 0c0 1.055.213 1.854.639 2.399s1.057.817 1.893.817c.832 0 1.46-.27 1.884-.809s.636-1.342.636-2.408c0-1.051-.21-1.848-.63-2.391s-1.046-.814-1.878-.814c-.84 0-1.474.271-1.901.814s-.643 1.341-.643 2.392zM530.676 641.145h2.543c1.18 0 2.032.172 2.558.516s.788.887.788 1.629c0 .5-.129.916-.387 1.248s-.629.541-1.113.627v.059c.602.113 1.044.337 1.327.671s.425.786.425 1.356c0 .77-.269 1.372-.806 1.808s-1.284.653-2.241.653h-3.094v-8.567zm1.4 3.539h1.348c.586 0 1.014-.093 1.283-.278s.404-.501.404-.946c0-.402-.146-.693-.437-.873s-.753-.27-1.386-.27h-1.213v2.367zm0 1.136v2.713h1.488c.586 0 1.028-.112 1.327-.337s.448-.579.448-1.063c0-.445-.152-.775-.457-.99s-.768-.322-1.389-.322h-1.417zM546.203 645.416c0 1.395-.349 2.479-1.046 3.252s-1.685 1.16-2.962 1.16c-1.293 0-2.286-.384-2.979-1.151s-1.04-1.858-1.04-3.272.349-2.5 1.046-3.258 1.692-1.137 2.985-1.137c1.273 0 2.258.385 2.953 1.154s1.043 1.854 1.043 3.252zm-6.539 0c0 1.055.213 1.854.639 2.399s1.057.817 1.893.817c.832 0 1.46-.27 1.884-.809s.636-1.342.636-2.408c0-1.051-.21-1.848-.63-2.391s-1.046-.814-1.878-.814c-.84 0-1.474.271-1.901.814s-.643 1.341-.643 2.392zM548.043 641.145h1.283v4.453c0 .465-.012.935-.035 1.409l-.053.964h.053l4.377-6.826h1.635v8.566h-1.289v-4.418c0-.676.037-1.496.111-2.461h-.047l-4.395 6.879h-1.641v-8.566zm3.674-.686c-.828 0-1.435-.149-1.819-.448s-.599-.798-.642-1.497h1.248c.023.281.077.5.161.656s.205.269.363.337.399.103.724.103c.383 0 .674-.085.873-.255s.32-.45.363-.841h1.271c-.059.672-.295 1.164-.709 1.477s-1.024.468-1.833.468zM233.905 314.259c-.938 0-1.677.333-2.215.998-.537.666-.807 1.583-.807 2.755 0 1.226.26 2.153.776 2.782s1.266.943 2.245.943c.424 0 .834-.042 1.23-.126s.81-.192 1.238-.325v1.401c-.784.296-1.673.444-2.666.444-1.463 0-2.587-.443-3.371-1.33-.783-.886-1.176-2.154-1.176-3.804 0-1.039.191-1.948.571-2.728s.931-1.376 1.651-1.791c.72-.415 1.564-.622 2.535-.622 1.021 0 1.965.214 2.83.643l-.588 1.36c-.337-.16-.693-.3-1.069-.42s-.769-.18-1.184-.18zM246.209 322.995h-1.641v-8.593h-4.408v8.593h-1.635v-9.994h7.684v9.994zM257.715 317.984c0 1.627-.407 2.892-1.221 3.794-.813.902-1.965 1.354-3.455 1.354-1.509 0-2.668-.448-3.477-1.343s-1.213-2.168-1.213-3.818.406-2.917 1.22-3.801 1.975-1.326 3.483-1.326c1.485 0 2.634.449 3.445 1.347.812.897 1.218 2.162 1.218 3.793zm-7.629 0c0 1.23.248 2.164.744 2.799.497.636 1.233.954 2.209.954.971 0 1.703-.314 2.197-.943s.742-1.565.742-2.81c0-1.226-.246-2.156-.735-2.789s-1.22-.95-2.19-.95c-.98 0-1.72.317-2.219.95s-.748 1.563-.748 2.789zM267.742 322.995h-1.641v-4.505h-4.607v4.505h-1.633v-9.994h1.633v4.088h4.607v-4.088h1.641v9.994zM274.627 314.259c-.939 0-1.678.333-2.215.998-.538.666-.807 1.583-.807 2.755 0 1.226.258 2.153.775 2.782s1.266.943 2.246.943c.424 0 .834-.042 1.23-.126s.809-.192 1.236-.325v1.401c-.783.296-1.672.444-2.666.444-1.463 0-2.586-.443-3.369-1.33-.784-.886-1.176-2.154-1.176-3.804 0-1.039.189-1.948.57-2.728s.931-1.376 1.65-1.791c.721-.415 1.566-.622 2.537-.622 1.021 0 1.964.214 2.83.643l-.588 1.36c-.338-.16-.694-.3-1.07-.42s-.769-.18-1.183-.18zM288.121 317.984c0 1.627-.407 2.892-1.221 3.794s-1.965 1.354-3.455 1.354c-1.509 0-2.668-.448-3.477-1.343s-1.213-2.168-1.213-3.818.406-2.917 1.22-3.801 1.975-1.326 3.483-1.326c1.485 0 2.634.449 3.445 1.347.812.897 1.218 2.162 1.218 3.793zm-7.629 0c0 1.23.248 2.164.744 2.799.497.636 1.233.954 2.209.954.971 0 1.703-.314 2.197-.943s.742-1.565.742-2.81c0-1.226-.246-2.156-.735-2.789s-1.22-.95-2.19-.95c-.98 0-1.72.317-2.219.95s-.748 1.563-.748 2.789zM296.885 316.022c0 1.043-.342 1.843-1.025 2.399s-1.657.834-2.92.834h-1.039v3.739h-1.633v-9.994h2.877c1.249 0 2.185.255 2.807.766s.933 1.263.933 2.256zm-4.984 1.86h.869c.838 0 1.453-.146 1.846-.438.392-.292.588-.748.588-1.367 0-.574-.176-1.002-.527-1.285-.351-.283-.897-.424-1.641-.424h-1.135v3.514zM309.135 316.022c0 1.043-.342 1.843-1.025 2.399s-1.657.834-2.92.834h-1.039v3.739h-1.633v-9.994h2.877c1.249 0 2.185.255 2.807.766s.933 1.263.933 2.256zm-4.984 1.86h.869c.838 0 1.453-.146 1.846-.438.392-.292.588-.748.588-1.367 0-.574-.176-1.002-.527-1.285-.351-.283-.897-.424-1.641-.424h-1.135v3.514zM318.733 313.001l-3.152 7.109c-.387.871-.742 1.5-1.066 1.89-.323.39-.697.676-1.124.858s-.942.273-1.548.273c-.529 0-1.02-.068-1.471-.205v-1.47c.447.178.914.267 1.402.267.414 0 .762-.102 1.042-.304s.534-.568.763-1.097l-3.686-7.321h1.764l2.441 5.011c.219.474.353.791.402.95h.068c.027-.119.096-.308.205-.567l2.25-5.394h1.71zM326.813 319.987c0 2.005-1.285 3.008-3.855 3.008h-2.906v-9.994h6.098v1.401h-4.463v2.659h1.189c2.624.001 3.937.976 3.937 2.926zm-5.127 1.634h1.176c.783 0 1.357-.129 1.723-.386.364-.257.547-.673.547-1.248 0-.551-.184-.949-.551-1.193s-1.006-.366-1.918-.366h-.977v3.193zM335.418 316.022c0 1.043-.342 1.843-1.025 2.399s-1.656.834-2.918.834h-1.039v3.739h-1.635v-9.994h2.879c1.248 0 2.184.255 2.806.766s.932 1.263.932 2.256zm-4.982 1.86h.867c.839 0 1.454-.146 1.846-.438.393-.292.588-.748.588-1.367 0-.574-.175-1.002-.525-1.285-.352-.283-.898-.424-1.641-.424h-1.135v3.514zM337.414 313.001h1.498v5.195c0 .542-.014 1.09-.041 1.644l-.063 1.125h.063l5.105-7.964h1.908v9.994h-1.504v-5.154c0-.789.043-1.746.129-2.871h-.055l-5.127 8.025h-1.914v-9.994zM356.172 322.995h-1.92l-4.115-5.065v5.065h-1.635v-9.994h1.635v4.84l4.047-4.84h1.791l-4.033 4.826 4.23 5.168zM357.492 313.001h1.496v5.195c0 .542-.014 1.09-.041 1.644l-.061 1.125h.061l5.107-7.964h1.906v9.994h-1.504v-5.154c0-.789.044-1.746.131-2.871h-.055l-5.127 8.025h-1.914v-9.994zM233.905 491.759c-.938 0-1.677.332-2.215.998-.537.665-.807 1.583-.807 2.755 0 1.226.26 2.153.776 2.782s1.266.943 2.245.943c.424 0 .834-.042 1.23-.127.396-.084.81-.192 1.238-.324v1.401c-.784.296-1.673.444-2.666.444-1.463 0-2.587-.443-3.371-1.33-.783-.886-1.176-2.154-1.176-3.804 0-1.039.191-1.948.571-2.728s.931-1.377 1.651-1.791c.72-.415 1.564-.622 2.535-.622 1.021 0 1.965.214 2.83.643l-.588 1.36c-.337-.16-.693-.3-1.069-.421-.374-.119-.769-.179-1.184-.179zM246.209 500.495h-1.641v-8.593h-4.408v8.593h-1.635v-9.994h7.684v9.994zM257.715 495.484c0 1.627-.407 2.892-1.221 3.794-.813.902-1.965 1.354-3.455 1.354-1.509 0-2.668-.448-3.477-1.344s-1.213-2.168-1.213-3.817c0-1.65.406-2.917 1.22-3.801.813-.885 1.975-1.326 3.483-1.326 1.485 0 2.634.448 3.445 1.347.812.897 1.218 2.162 1.218 3.793zm-7.629 0c0 1.23.248 2.163.744 2.799.497.636 1.233.954 2.209.954.971 0 1.703-.314 2.197-.943s.742-1.565.742-2.81c0-1.227-.246-2.156-.735-2.789-.489-.634-1.22-.95-2.19-.95-.98 0-1.72.316-2.219.95-.499.633-.748 1.563-.748 2.789zM267.742 500.495h-1.641v-4.505h-4.607v4.505h-1.633v-9.994h1.633v4.088h4.607v-4.088h1.641v9.994zM274.627 491.759c-.939 0-1.678.332-2.215.998-.538.665-.807 1.583-.807 2.755 0 1.226.258 2.153.775 2.782s1.266.943 2.246.943c.424 0 .834-.042 1.23-.127.396-.084.809-.192 1.236-.324v1.401c-.783.296-1.672.444-2.666.444-1.463 0-2.586-.443-3.369-1.33-.784-.886-1.176-2.154-1.176-3.804 0-1.039.189-1.948.57-2.728s.931-1.377 1.65-1.791c.721-.415 1.566-.622 2.537-.622 1.021 0 1.964.214 2.83.643l-.588 1.36c-.338-.16-.694-.3-1.07-.421-.373-.119-.769-.179-1.183-.179zM288.121 495.484c0 1.627-.407 2.892-1.221 3.794s-1.965 1.354-3.455 1.354c-1.509 0-2.668-.448-3.477-1.344s-1.213-2.168-1.213-3.817c0-1.65.406-2.917 1.22-3.801.813-.885 1.975-1.326 3.483-1.326 1.485 0 2.634.448 3.445 1.347.812.897 1.218 2.162 1.218 3.793zm-7.629 0c0 1.23.248 2.163.744 2.799.497.636 1.233.954 2.209.954.971 0 1.703-.314 2.197-.943s.742-1.565.742-2.81c0-1.227-.246-2.156-.735-2.789-.489-.634-1.22-.95-2.19-.95-.98 0-1.72.316-2.219.95-.499.633-.748 1.563-.748 2.789zM296.885 493.522c0 1.043-.342 1.843-1.025 2.399-.684.556-1.657.834-2.92.834h-1.039v3.739h-1.633v-9.994h2.877c1.249 0 2.185.255 2.807.766.621.51.933 1.262.933 2.256zm-4.984 1.86h.869c.838 0 1.453-.146 1.846-.438.392-.292.588-.748.588-1.367 0-.574-.176-1.003-.527-1.285-.351-.283-.897-.424-1.641-.424h-1.135v3.514zM309.135 493.522c0 1.043-.342 1.843-1.025 2.399-.684.556-1.657.834-2.92.834h-1.039v3.739h-1.633v-9.994h2.877c1.249 0 2.185.255 2.807.766.621.51.933 1.262.933 2.256zm-4.984 1.86h.869c.838 0 1.453-.146 1.846-.438.392-.292.588-.748.588-1.367 0-.574-.176-1.003-.527-1.285-.351-.283-.897-.424-1.641-.424h-1.135v3.514zM318.733 490.501l-3.152 7.109c-.387.87-.742 1.5-1.066 1.89-.323.39-.697.676-1.124.858-.427.182-.942.273-1.548.273-.529 0-1.02-.068-1.471-.205v-1.47c.447.178.914.267 1.402.267.414 0 .762-.102 1.042-.305.28-.202.534-.568.763-1.097l-3.686-7.321h1.764l2.441 5.011c.219.474.353.79.402.95h.068c.027-.119.096-.308.205-.567l2.25-5.394h1.71zM326.813 497.487c0 2.005-1.285 3.008-3.855 3.008h-2.906v-9.994h6.098v1.401h-4.463v2.659h1.189c2.624.001 3.937.975 3.937 2.926zm-5.127 1.634h1.176c.783 0 1.357-.129 1.723-.387.364-.257.547-.673.547-1.247 0-.552-.184-.949-.551-1.193-.367-.243-1.006-.365-1.918-.365h-.977v3.192zM335.418 493.522c0 1.043-.342 1.843-1.025 2.399-.684.556-1.656.834-2.918.834h-1.039v3.739h-1.635v-9.994h2.879c1.248 0 2.184.255 2.806.766.622.51.932 1.262.932 2.256zm-4.982 1.86h.867c.839 0 1.454-.146 1.846-.438.393-.292.588-.748.588-1.367 0-.574-.175-1.003-.525-1.285-.352-.283-.898-.424-1.641-.424h-1.135v3.514zM337.414 490.501h1.498v5.195c0 .542-.014 1.09-.041 1.644l-.063 1.125h.063l5.105-7.964h1.908v9.994h-1.504v-5.154c0-.789.043-1.746.129-2.871h-.055l-5.127 8.025h-1.914v-9.994zM356.172 500.495h-1.92l-4.115-5.065v5.065h-1.635v-9.994h1.635v4.84l4.047-4.84h1.791l-4.033 4.826 4.23 5.168zM357.492 490.501h1.496v5.195c0 .542-.014 1.09-.041 1.644l-.061 1.125h.061l5.107-7.964h1.906v9.994h-1.504v-5.154c0-.789.044-1.746.131-2.871h-.055l-5.127 8.025h-1.914v-9.994zM233.905 668.759c-.938 0-1.677.332-2.215.998-.537.665-.807 1.583-.807 2.755 0 1.226.26 2.153.776 2.782s1.266.943 2.245.943c.424 0 .834-.042 1.23-.127.396-.084.81-.192 1.238-.324v1.401c-.784.296-1.673.444-2.666.444-1.463 0-2.587-.443-3.371-1.33-.783-.886-1.176-2.154-1.176-3.804 0-1.039.191-1.948.571-2.728s.931-1.377 1.651-1.791c.72-.415 1.564-.622 2.535-.622 1.021 0 1.965.214 2.83.643l-.588 1.36c-.337-.16-.693-.3-1.069-.421-.374-.119-.769-.179-1.184-.179zM246.209 677.495h-1.641v-8.593h-4.408v8.593h-1.635v-9.994h7.684v9.994zM257.715 672.484c0 1.627-.407 2.892-1.221 3.794-.813.902-1.965 1.354-3.455 1.354-1.509 0-2.668-.448-3.477-1.344s-1.213-2.168-1.213-3.817c0-1.65.406-2.917 1.22-3.801.813-.885 1.975-1.326 3.483-1.326 1.485 0 2.634.448 3.445 1.347.812.897 1.218 2.162 1.218 3.793zm-7.629 0c0 1.23.248 2.163.744 2.799.497.636 1.233.954 2.209.954.971 0 1.703-.314 2.197-.943s.742-1.565.742-2.81c0-1.227-.246-2.156-.735-2.789-.489-.634-1.22-.95-2.19-.95-.98 0-1.72.316-2.219.95-.499.633-.748 1.563-.748 2.789zM267.742 677.495h-1.641v-4.505h-4.607v4.505h-1.633v-9.994h1.633v4.088h4.607v-4.088h1.641v9.994zM274.627 668.759c-.939 0-1.678.332-2.215.998-.538.665-.807 1.583-.807 2.755 0 1.226.258 2.153.775 2.782s1.266.943 2.246.943c.424 0 .834-.042 1.23-.127.396-.084.809-.192 1.236-.324v1.401c-.783.296-1.672.444-2.666.444-1.463 0-2.586-.443-3.369-1.33-.784-.886-1.176-2.154-1.176-3.804 0-1.039.189-1.948.57-2.728s.931-1.377 1.65-1.791c.721-.415 1.566-.622 2.537-.622 1.021 0 1.964.214 2.83.643l-.588 1.36c-.338-.16-.694-.3-1.07-.421-.373-.119-.769-.179-1.183-.179zM288.121 672.484c0 1.627-.407 2.892-1.221 3.794s-1.965 1.354-3.455 1.354c-1.509 0-2.668-.448-3.477-1.344s-1.213-2.168-1.213-3.817c0-1.65.406-2.917 1.22-3.801.813-.885 1.975-1.326 3.483-1.326 1.485 0 2.634.448 3.445 1.347.812.897 1.218 2.162 1.218 3.793zm-7.629 0c0 1.23.248 2.163.744 2.799.497.636 1.233.954 2.209.954.971 0 1.703-.314 2.197-.943s.742-1.565.742-2.81c0-1.227-.246-2.156-.735-2.789-.489-.634-1.22-.95-2.19-.95-.98 0-1.72.316-2.219.95-.499.633-.748 1.563-.748 2.789zM296.885 670.522c0 1.043-.342 1.843-1.025 2.399-.684.556-1.657.834-2.92.834h-1.039v3.739h-1.633v-9.994h2.877c1.249 0 2.185.255 2.807.766.621.51.933 1.262.933 2.256zm-4.984 1.86h.869c.838 0 1.453-.146 1.846-.438.392-.292.588-.748.588-1.367 0-.574-.176-1.003-.527-1.285-.351-.283-.897-.424-1.641-.424h-1.135v3.514zM309.135 670.522c0 1.043-.342 1.843-1.025 2.399-.684.556-1.657.834-2.92.834h-1.039v3.739h-1.633v-9.994h2.877c1.249 0 2.185.255 2.807.766.621.51.933 1.262.933 2.256zm-4.984 1.86h.869c.838 0 1.453-.146 1.846-.438.392-.292.588-.748.588-1.367 0-.574-.176-1.003-.527-1.285-.351-.283-.897-.424-1.641-.424h-1.135v3.514zM318.733 667.501l-3.152 7.109c-.387.87-.742 1.5-1.066 1.89-.323.39-.697.676-1.124.858-.427.182-.942.273-1.548.273-.529 0-1.02-.068-1.471-.205v-1.47c.447.178.914.267 1.402.267.414 0 .762-.102 1.042-.305.28-.202.534-.568.763-1.097l-3.686-7.321h1.764l2.441 5.011c.219.474.353.79.402.95h.068c.027-.119.096-.308.205-.567l2.25-5.394h1.71zM326.813 674.487c0 2.005-1.285 3.008-3.855 3.008h-2.906v-9.994h6.098v1.401h-4.463v2.659h1.189c2.624.001 3.937.975 3.937 2.926zm-5.127 1.634h1.176c.783 0 1.357-.129 1.723-.387.364-.257.547-.673.547-1.247 0-.552-.184-.949-.551-1.193-.367-.243-1.006-.365-1.918-.365h-.977v3.192zM335.418 670.522c0 1.043-.342 1.843-1.025 2.399-.684.556-1.656.834-2.918.834h-1.039v3.739h-1.635v-9.994h2.879c1.248 0 2.184.255 2.806.766.622.51.932 1.262.932 2.256zm-4.982 1.86h.867c.839 0 1.454-.146 1.846-.438.393-.292.588-.748.588-1.367 0-.574-.175-1.003-.525-1.285-.352-.283-.898-.424-1.641-.424h-1.135v3.514zM337.414 667.501h1.498v5.195c0 .542-.014 1.09-.041 1.644l-.063 1.125h.063l5.105-7.964h1.908v9.994h-1.504v-5.154c0-.789.043-1.746.129-2.871h-.055l-5.127 8.025h-1.914v-9.994zM356.172 677.495h-1.92l-4.115-5.065v5.065h-1.635v-9.994h1.635v4.84l4.047-4.84h1.791l-4.033 4.826 4.23 5.168zM357.492 667.501h1.496v5.195c0 .542-.014 1.09-.041 1.644l-.061 1.125h.061l5.107-7.964h1.906v9.994h-1.504v-5.154c0-.789.044-1.746.131-2.871h-.055l-5.127 8.025h-1.914v-9.994z"/><rect x="433.99" y="118.42" fill="#DBDBDB" width="130.396" height="18.668"/><rect x="499.188" y="143.855" fill="#2590D8" width="65.198" height="18.668"/><rect x="433.99" y="143.855" fill="#DBDBDB" width="65.198" height="18.668"/><path fill="#C8C8C8" d="M587.789 0h-580.349c-4.109 0-7.44 3.331-7.44 7.44v45.386h595.229v-45.386c0-4.109-3.331-7.44-7.44-7.44z"/><path fill-rule="evenodd" clip-rule="evenodd" fill="#E76D6B" d="M13.393 9.649c2.466 0 4.464 1.999 4.464 4.464s-1.999 4.464-4.464 4.464c-2.466 0-4.464-1.999-4.464-4.464s1.998-4.464 4.464-4.464z"/><path fill-rule="evenodd" clip-rule="evenodd" fill="#DFBC43" d="M28.273 9.649c2.466 0 4.464 1.999 4.464 4.464s-1.999 4.464-4.464 4.464-4.464-1.999-4.464-4.464 1.999-4.464 4.464-4.464z"/><path fill-rule="evenodd" clip-rule="evenodd" fill="#36D488" d="M43.154 9.649c2.466 0 4.464 1.999 4.464 4.464s-1.999 4.464-4.464 4.464c-2.465 0-4.464-1.999-4.464-4.464s1.999-4.464 4.464-4.464z"/><path fill="#969696" d="M583.149 13.905l1.314-1.314c.509-.509.508-1.333 0-1.841-.509-.509-1.333-.509-1.842 0l-1.313 1.313-1.695-1.695h-.008v5.24h5.24v-.008l-1.696-1.695z"/><path fill-rule="evenodd" clip-rule="evenodd" fill="#E6E6E6" d="M200.856 26.785v-.015c-5.611 0-7.038-17.849-11.936-17.849h-127.17099999999999c-4.898 0-6.324 17.849-11.935 17.849v.015h-49.814v26.041h595.229v-26.041h-394.373zm-16.335-4.487c-2.465 0-4.464-1.999-4.464-4.464 0-2.465 1.999-4.464 4.464-4.464 2.466 0 4.464 1.999 4.464 4.464 0 2.465-1.999 4.464-4.464 4.464z"/><path fill="#969696" d="M586.485 6.886l-1.314 1.314c-.509.509-.508 1.333 0 1.841.509.509 1.333.509 1.842 0l1.313-1.313 1.695 1.695h.008v-5.24h-5.24v.007l1.696 1.696z"/><path fill="#969696" d="M18.597 39.817c0 .617-.5 1.116-1.116 1.116h-6.696c-.616 0-1.116-.5-1.116-1.116 0-.616.5-1.116 1.116-1.116h6.696c.617 0 1.116.5 1.116 1.116z"/><path fill="#969696" d="M13.352 35.328c.436.436.436 1.143 0 1.578l-3.723 3.724c-.436.436-1.143.436-1.579 0-.436-.436-.436-1.143 0-1.579l3.723-3.723c.436-.436 1.143-.436 1.579 0z"/><path fill="#969696" d="M13.352 44.33c.436-.436.436-1.143 0-1.578l-3.723-3.724c-.436-.436-1.143-.436-1.579 0-.436.436-.436 1.143 0 1.579l3.723 3.724c.436.435 1.143.435 1.579-.001z"/><path fill="#CECECE" d="M28.224 39.817c0 .617.5 1.116 1.116 1.116h6.696c.617 0 1.116-.5 1.116-1.116 0-.616-.499-1.116-1.116-1.116h-6.696c-.617 0-1.116.5-1.116 1.116z"/><path fill="#CECECE" d="M33.469 35.328c-.436.436-.436 1.143 0 1.578l3.723 3.724c.436.436 1.143.436 1.579 0 .436-.436.436-1.143 0-1.579l-3.723-3.723c-.437-.436-1.143-.436-1.579 0z"/><path fill="#CECECE" d="M33.469 44.33c-.436-.436-.436-1.143 0-1.578l3.723-3.724c.436-.436 1.143-.436 1.579 0 .436.436.436 1.143 0 1.579l-3.723 3.724c-.437.435-1.143.435-1.579-.001z"/><path fill="#969696" d="M58.029 39.417v-5.208l-1.897 1.897c-.941-.944-2.233-1.536-3.672-1.536-2.877 0-5.208 2.332-5.208 5.208 0 2.877 2.332 5.208 5.208 5.208 2.481 0 4.552-1.735 5.076-4.057h-1.945c-.472 1.279-1.692 2.197-3.132 2.197-1.846 0-3.348-1.502-3.348-3.348s1.502-3.348 3.348-3.348c.924 0 1.753.382 2.359.989l-1.999 1.999h5.21z"/><path fill="#969696" d="M587.045 36.062c0 .616-.499 1.116-1.116 1.116h-7.44c-.617 0-1.116-.5-1.116-1.116 0-.616.499-1.116 1.116-1.116h7.44c.616 0 1.116.5 1.116 1.116z"/><path fill="#969696" d="M587.045 39.783c0 .616-.499 1.116-1.116 1.116h-7.44c-.617 0-1.116-.5-1.116-1.116 0-.616.499-1.116 1.116-1.116h7.44c.616 0 1.116.499 1.116 1.116z"/><path fill="#969696" d="M587.045 43.503c0 .616-.499 1.116-1.116 1.116h-7.44c-.617 0-1.116-.5-1.116-1.116 0-.616.499-1.116 1.116-1.116h7.44c.616 0 1.116.5 1.116 1.116z"/><path fill-rule="evenodd" clip-rule="evenodd" fill="#fff" d="M68.444 31.218h497.76c1.644 0 2.976 1.332 2.976 2.976v11.199c0 1.644-1.332 2.976-2.976 2.976h-497.76c-1.644 0-2.976-1.332-2.976-2.976v-11.198c-.001-1.644 1.332-2.977 2.976-2.977z"/><path fill="#D6D6D6" d="M324.742 8.88h-127.91499999999999c-.121 0-.238.019-.355.04h1.253c4.732 0 6.225 16.657 11.38 17.786h127.57300000000001c-5.612 0-7.038-17.826-11.936-17.826zm-2.574 13.418c-2.465 0-4.464-1.999-4.464-4.464 0-2.465 1.999-4.464 4.464-4.464 2.466 0 4.464 1.999 4.464 4.464 0 2.465-1.999 4.464-4.464 4.464z"/><path fill="#E1E1E1" d="M556.911 42.466l-3.473 2.568 1.339-4.139-3.484-2.553 4.3.01 1.319-4.146 1.32 4.146 4.299-.01-3.484 2.553 1.337 4.139-3.473-2.568z"/></svg>