<svg xmlns="http://www.w3.org/2000/svg" viewBox="0 0 250 100" enable-background="new 0 0 250 100"><style type="text/css">.st0{fill:#088EFF;} .st1{fill:#FFFFFF;}</style><path class="st0" d="M248.7 17.6c-.9-1.2-2.3-2.1-4.3-2.5v-.2c1.5-.2 2.7-1 3.5-2.2.9-1.2 1.3-2.8 1.3-4.7 0-2.8-1-4.8-3-6.1-2-1.3-5.3-1.9-9.8-1.9h-7.4c-1.3 0-2.4 1.1-2.4 2.4v26.8c0 1.3 1.1 2.4 2.4 2.4h9.4c3.6 0 6.4-.8 8.5-2.4 2.1-1.6 3.1-3.9 3.1-6.8 0-2-.4-3.6-1.3-4.8m-15.5-12.1h3.5c1.9 0 3.3.3 4.2.8.9.5 1.3 1.4 1.3 2.6 0 1.3-.4 2.2-1.2 2.8-.8.6-2.1.8-4 .8h-3.9v-7zm8.5 19.6c-.9.7-2.2 1.1-4.1 1.1h-4.4v-8.3h4.2c3.8 0 5.6 1.3 5.6 3.9 0 1.5-.4 2.6-1.3 3.3m-19.7-22.7v2.9c0 .1-.1.2-.2.2h-8.4v25.8c0 .1-.1.2-.2.2h-6.2c-.1 0-.2-.1-.2-.2v-25.7h-8.4c-.1 0-.2-.1-.2-.2v-3c0-1.3 1.1-2.4 2.4-2.4h19.1c1.2 0 2.3 1.1 2.3 2.4m-29.5 7v80.9c0 5.2-4.2 9.4-9.4 9.4h-173.7c-5.2 0-9.4-4.2-9.4-9.4v-80.9c0-5.2 4.2-9.4 9.4-9.4h173.8c5.1 0 9.3 4.2 9.3 9.4z"/><path class="st1" d="M114.2 68.2v9c0 .4-.3.7-.6.8-4.9 1.9-10.3 2.9-16.3 2.9-8.9 0-15.7-2.7-20.5-8.1-4.7-5.4-7.1-13.2-7.1-23.3 0-6.4 1.2-12 3.5-16.8 2.3-4.8 5.7-8.5 10-11 4.3-2.6 9.4-3.8 15.3-3.8 5.7 0 11.5 1.3 17.2 4 .3.2.5.5.5.8 0 .1 0 .3-.1.4l-.9 2.2-2.6 6.5c-.1.4-.5.7-.9.7-.2 0-.3 0-.4-.1-2-.9-4-1.7-6-2.4-2.3-.8-4.6-1.2-6.8-1.2-4.9 0-8.7 1.8-11.4 5.5-2.7 3.7-4 8.8-4 15.4 0 13.7 5.1 20.5 15.4 20.5 4 0 8.9-1 14.5-2.9h.2c.6-.1 1 .3 1 .9m-46.8 10l-.8-1.1-21.3-28.9 21.2-27.9c.3-.4.3-.9-.1-1.2-.2-.2-.4-.3-.7-.3h-9.700000000000001c-1.5 0-2.9.7-3.7 1.9l-20.5 27.8v-29.3c0-.2-.2-.4-.4-.4h-7.9c-2.5 0-4.5 1.9-4.7 4.4v52.5c.2 2.5 2.2 4.4 4.7 4.4h7.9c.2 0 .4-.2.4-.4v-30.7l20.6 28.8c.8 1.3 2.3 2.3 4 2.3h10.1c.3 0 .6-.1.8-.3.5-.5.5-1.2.1-1.6m107 0l-.8-1.1-21.3-28.9 21.2-27.9c.3-.4.3-.9-.1-1.2-.2-.2-.4-.3-.7-.3h-9.700000000000001c-1.5 0-2.9.7-3.7 1.9l-20.6 27.8v-29.3c0-.2-.2-.4-.4-.4h-7.9c-2.5 0-4.5 1.9-4.7 4.4v52.5c.2 2.5 2.2 4.4 4.7 4.4h7.9c.2 0 .4-.2.4-.4v-30.7l20.6 28.8c.8 1.3 2.3 2.3 4 2.3h10.1c.3 0 .6-.1.8-.3.7-.5.7-1.2.2-1.6"/></svg>