<svg baseProfile="basic" xmlns="http://www.w3.org/2000/svg" viewBox="0 0 350 82.126"><path d="M54.612 34.631c0 10.981-11.63 14.749-20.727 14.749-7.082 0-18.258-2.793-18.258-11.761 0-4.418 2.859-7.342 7.472-7.342 2.729 0 5.328 1.17 5.523 1.949.13.585-.13 2.014-.13 3.704 0 3.639 2.339 6.173 4.873 6.173 8.057 0 9.161-13.775-1.235-13.775h-1.689s-.325 0-.325-.455v-6.822c0-.325.325-.325.325-.325h2.924c9.161 0 7.602-12.865.389-12.865-2.729 0-5.393 2.144-5.393 5.718 0 1.819.195 3.313 0 3.704-.325.714-2.534 2.014-5.263 2.014-4.613 0-7.472-3.119-7.472-7.407.002-9.031 11.178-11.89 18.26-11.89 9.097 0 20.467 3.054 20.012 14.035-.26 5.783-3.898 8.706-8.707 9.941 5.068 1.559 9.421 4.677 9.421 10.655zm40.928 10.136c-.65 2.079-4.158 4.613-7.797 4.613-4.483 0-7.992-2.793-8.837-7.407-2.209 4.223-5.717 7.342-10.266 7.342-8.187 0-12.735-9.032-12.735-17.738 0-8.901 4.548-17.608 13.06-17.608 4.483 0 7.667 2.534 9.681 6.173v-4.483c0-.325.325-.39.325-.39h12.994s.26.065.26.325c0 0-.455 14.814-.455 19.297.002 10.331 4.42 8.122 3.77 9.876zm-16.503-13.19c0-4.873-1.689-8.837-4.873-8.837-3.183 0-4.873 3.964-4.873 8.837s1.69 8.772 4.873 8.772c3.184 0 4.873-3.899 4.873-8.772zm54.961 14.229c-1.494 1.69-4.613 3.573-8.251 3.573-13.384 0-9.681-14.944-13.774-15.334v13.515c0 .325-.26.389-.26.389h-13.06s-.259-.065-.259-.325c0 0 .52-14.814.52-19.297 0-10.331-4.418-8.122-3.834-9.876.715-2.079 4.224-4.613 7.862-4.613 5.198 0 9.031 3.769 9.031 9.876v5.458l.52-.195c.65-4.873 4.548-15.139 13.19-15.139 4.743 0 8.057 2.989 8.057 7.277 0 4.354-2.989 6.888-7.082 6.888-1.624 0-3.313-.52-3.313-1.494 0-.975.52-3.379-1.624-3.639-2.534-.325-3.639 3.184-3.769 5.458 2.924-.39 4.743.65 6.237 2.534 2.599 3.443 2.664 9.356 9.746 12.8 1.038.521 1.103.845.063 2.144zm40.279-1.039c-.65 2.079-4.158 4.613-7.797 4.613-4.483 0-7.992-2.793-8.837-7.407-2.209 4.223-5.717 7.342-10.266 7.342-8.187 0-12.735-9.032-12.735-17.738 0-8.901 4.548-17.608 13.06-17.608 4.484 0 7.667 2.534 9.681 6.173v-4.483c0-.325.325-.39.325-.39h12.994s.26.065.26.325c0 0-.455 14.814-.455 19.297.002 10.331 4.42 8.122 3.77 9.876zm-16.503-13.19c0-4.873-1.689-8.837-4.873-8.837-3.183 0-4.873 3.964-4.873 8.837s1.689 8.772 4.873 8.772 4.873-3.899 4.873-8.772zm48.139 7.212c0 7.862-9.161 10.591-16.308 10.591-5.588 0-14.879-2.014-14.879-8.446 0-3.185 2.469-5.913 6.108-5.913 2.144 0 4.483.585 4.743 1.104.39.585.13 1.43.13 2.664 0 2.599 1.494 3.964 3.444 3.964 2.404 0 3.703-1.819 3.703-3.639 0-1.624-.714-4.418-4.483-4.418h-1.494s-.26 0-.26-.325v-6.043c0-.26.26-.26.26-.26h2.274c2.729 0 3.703-2.274 3.703-3.834 0-1.884-.974-3.704-3.378-3.704-2.144 0-3.769 1.365-3.769 3.964 0 1.3.26 2.144-.13 2.664-.259.52-2.599 1.17-4.743 1.17-3.639 0-6.108-2.794-6.108-5.913 0-6.497 9.291-8.511 14.879-8.511 7.146 0 15.918 2.209 15.918 10.071 0 4.353-3.249 6.237-7.018 7.147 3.965 1.105 7.408 3.379 7.408 7.667zm50.738.13c-.715 2.729-6.108 10.396-15.594 10.396-9.811 0-17.672-7.927-17.672-17.738 0-9.486 7.342-17.673 18.517-17.673 10.656 0 15.269 6.692 15.269 11.305 0 10.201-11.891 11.435-20.402 10.006 2.274 6.497 10.916 7.147 18.842 2.729.26-.195.585-.26.845-.065.259.196.39.455.195 1.04zm-20.402-9.421c5.783.52 8.641-1.624 8.641-5.133 0-1.754-1.43-3.249-3.444-3.119l-.064.065h-.195c-.455.065-1.04.259-1.56.585-2.144 1.299-3.118 4.418-3.378 7.602zm62.693 17.998c0 7.276-3.508 10.396-10.07 10.396-.78 0-3.055-.26-3.055-.975v-8.966h-16.308l.066 1.04c0 5.457-3.509 8.901-10.071 8.901-.845 0-2.924-.26-2.924-.975v-14.228c0-1.17 3.704-.066 6.497-10.462 1.43-5.263 2.273-16.633 2.273-16.633 0-.325.325-.325.325-.325 8.707-1.949 17.933-2.079 28.329 0 .066 0 .195 0 .195.26v24.56h4.483s.195 0 .195.389v6.952l.065.066zm-22.674-26.25c-.455 5.393-1.235 13.19-1.885 16.893-.129.65-.26 1.364-.454 1.95h7.212v-18.843h-4.873zm73.673 23.521c-.715 2.079-4.224 4.613-7.862 4.613-5.197 0-9.551-3.769-9.551-9.876v-12.605c0-5.263-3.249-4.808-4.548-.455 2.014 2.209 3.313 5.198 3.313 8.707 0 8.381-7.018 14.229-15.659 14.229-12.02 0-15.528-8.121-15.528-14.099v-19.687c0-.26.26-.325.26-.325h12.54s.26.065.26.39v7.147c1.56-.26 3.379-.455 5.198-.455 2.403 0 4.742.65 6.756 1.819 2.469-7.537 7.667-10.136 11.565-10.136 4.873 0 8.967 4.223 8.967 10.72v10.136c.001 10.332 4.939 8.123 4.289 9.877zm-30.927-9.941c0-3.769-1.69-6.237-4.549-6.237-.454 0-.974.065-1.299.129v7.927c.065 2.534.52 5.198 2.793 5.198 2.664 0 3.055-3.509 3.055-7.017z" fill="#FA463E"/><path d="M11.327 73.248c0 2.9-2.787 4.315-5.776 4.315-4.158 0-5.551-2.787-5.551-4.877v-6.787c0-.09.067-.112.09-.112 0 0 2.135-.518 5.124-.518 2.36 0 5.237.653 5.237 2.99 0 1.124-.764 1.865-1.461 2.112 1.461.45 2.337 1.462 2.337 2.877zm-6.293-5.551c-.18 0-.382.022-.494.067v2.248h.427c.899 0 1.416-.405 1.416-1.192 0-.966-.832-1.123-1.349-1.123zm2.046 5.641c0-.854-.742-1.303-1.73-1.303-.225 0-.585 0-.809.023v1.37c.045.742.292 1.551 1.191 1.551.853 0 1.348-.651 1.348-1.641zm25.235 4.203c-4.36.495-5.416-4-5.889-7.484-.18-.045-.652-.023-.832.09l.157 6.832c0 .112-.112.112-.112.112h-4.832s-.112 0-.09-.112c-.022-10.744 0-12.182 0-12.204-.247-2.675-1.618-2.068-1.416-2.652.27-.742 1.753-1.641 3.079-1.641 1.753 0 3.326 1.035 3.326 3.597l-.112 3.595c.157-.09.54-.09.697-.157-.045-3.439 1.573-6.63 4.9-7.035 1.978-.247 3.618.922 3.371 2.832-.405 3.26-4.315 2.27-4.315 1.978 0-.45.112-1.147-.652-1.147-.922 0-1.371 1.461-1.348 3.147 1.506-.022 2.09 1.124 2.809 2.652.494 1.034 1.91 4.225 3.663 4.787.382.135-.269 2.563-2.404 2.81zm16.82-6.113c0 3.08-1.551 6.09-4.495 6.09-1.551 0-2.652-.876-3.349-2.135v6.518c0 .112-.112.135-.112.135h-4.495s-.112-.023-.089-.113c0 0-.022-10.069-.022-11.619 0-3.573-1.349-2.81-1.147-3.417.247-.719 1.461-1.595 2.719-1.595 1.551 0 2.742.967 3.057 2.562.764-1.483 1.978-2.562 3.551-2.562 2.831 0 4.382 3.124 4.382 6.136zm-4.607 0c0-1.685-.584-3.034-1.685-3.034-1.102 0-1.686 1.348-1.686 3.034 0 1.686.584 3.057 1.686 3.057 1.1-.001 1.685-1.371 1.685-3.057zm19.926 4.563c-.225.719-1.438 1.595-2.697 1.595-1.55 0-2.764-.967-3.056-2.562-.764 1.46-1.978 2.539-3.551 2.539-2.832 0-4.405-3.124-4.405-6.135 0-3.079 1.573-6.09 4.517-6.09 1.551 0 2.652.877 3.349 2.135v-1.55c0-.113.112-.135.112-.135h4.495s.09.022.09.112c0 0-.157 5.124-.157 6.675-.001 3.573 1.527 2.808 1.303 3.416zm-5.709-4.563c0-1.685-.585-3.057-1.686-3.057-1.102 0-1.686 1.371-1.686 3.057s.584 3.035 1.686 3.035c1.101 0 1.686-1.349 1.686-3.035zm18.069 2.54c-.27.944-1.933 3.595-5.214 3.595-3.416 0-6.135-2.742-6.135-6.135 0-3.282 2.517-5.955 5.955-6.113 2.517 0 5.034 1.012 5.034 3.147.022 1.079-.854 2.248-2.18 2.248-.742 0-1.483-.248-1.573-.383-.112-.202-.022-.472-.022-.921 0-.922-.45-1.551-1.079-1.551-1.213 0-1.798 1.91-1.641 3.573.36 4.023 4.181 3.574 6.473 2.203.09-.068.225-.09.315-.023.067.068.112.158.067.36zm14.927 2.023c-.225.697-1.438 1.527-2.697 1.527-1.821 0-3.147-1.258-3.147-3.371v-1.506h-2.203v4.315c0 .113-.112.135-.112.135h-4.495s-.112-.022-.09-.112c0 0 .157-5.125.157-6.675 0-3.573-1.528-2.81-1.326-3.417.247-.719 1.461-1.595 2.719-1.595 1.821 0 3.147 1.303 3.147 3.417v1.303h2.203v-4.113c0-.112.112-.112.112-.112h4.315s.09 0 .09.112v6.652c.001 3.574 1.551 2.81 1.327 3.44zm7.292 1.617c-3.618 0-6.293-2.719-6.293-6.112 0-3.372 2.674-6.113 6.293-6.113 3.618 0 6.293 2.742 6.293 6.113-.001 3.393-2.607 6.112-6.293 6.112zm0-2.539c1.348 0 1.865-1.596 1.865-3.573 0-1.933-.562-3.574-1.865-3.574-1.326 0-1.865 1.64-1.865 3.574-.001 1.887.561 3.573 1.865 3.573zm13.625 7.057c-3.281 0-4.787-2.203-5.057-3.057-.359-1.102-.135-1.303.112-1.258.539.09 1.191 1.753 3.708 1.753 1.798 0 2.832-1.438 2.899-2.788v-2.247c-.922 1.933-2.45 2.607-3.641 2.607-1.663 0-3.079-1.46-3.079-3.708v-3.057c0-3.573-1.708-2.809-1.506-3.416.247-.72 1.461-1.596 2.719-1.596 1.821 0 3.304 1.303 3.304 3.417v3.91c0 2.248 2.113 1.461 2.158-1.168v-5.596c0-.113.09-.113.09-.113h4.338s.089 0 .089.113c0 0 .067 6.539.067 9.529.137 3.888-2.043 6.675-6.201 6.675zm27.522-10.698c0 3.08-1.371 6.09-4.338 6.09-1.461 0-2.494-.809-3.146-1.955v6.338l-.022.112h-4.338s-.18 0-.157-.112c0 0-.022-2.675-.045-6.495-.719 1.303-1.843 2.135-3.326 2.135-2.854 0-4.225-3.102-4.225-6.135 0-3.08 1.371-6.092 4.315-6.092 1.551 0 2.607.9 3.281 2.158v-1.595c0-.09.067-.09.067-.09h4.36s.09-.023.09.09v1.64c.719-1.303 1.82-2.225 3.259-2.225 2.854 0 4.225 3.124 4.225 6.136zm-11.956-.022c0-1.686-.427-3.035-1.528-3.035-1.079 0-1.506 1.348-1.506 3.035 0 1.685.427 3.057 1.506 3.057 1.101 0 1.528-1.372 1.528-3.057zm7.349.022c0-1.685-.427-3.034-1.528-3.034-1.079 0-1.506 1.348-1.506 3.034 0 1.686.427 3.057 1.506 3.057 1.101-.001 1.528-1.371 1.528-3.057zm35.609 5.551c0 .112-.089.112-.089.112h-4.36s-.09 0-.09-.112c0 0 .022-2 .022-4.293l.224-2.427-2.854 6.63c-.045.135-.09.18-.292.18h-.562c-.135 0-.202-.045-.27-.18l-2.248-5.709c-.449 5.754-4.09 6.292-5.934 6.405-2.337.157-4.742-.855-5.304-2.54-.944 1.91-2.45 2.54-3.641 2.54-1.663 0-3.079-1.461-3.079-3.708v-3.507c0-3.573-1.708-2.809-1.506-3.416.247-.72 1.461-1.596 2.719-1.596 1.821 0 3.327 1.303 3.327 3.417v4.36c0 2.202 2.023 1.483 2.113-1.034v-6.18c0-.113.09-.135.09-.135h4.495s.09.022.09.112c-.09 1.978-.112 6.473-.09 7.979.022 1.012.36 1.438.697 1.438 2.248 0 2.023-9.417 2.023-9.417 0-.112.089-.112.089-.112h4.63c.067 0 .112.09.112.09l2.023 4.202h.067l2.203-4.225s.022-.067.112-.067h5.034s.067 0 .067.09c.002.518.182 11.103.182 11.103zm13.332-3.011c-.27.944-1.933 3.595-5.214 3.595-3.416 0-6.135-2.742-6.135-6.135 0-3.282 2.517-5.955 5.955-6.113 2.517 0 5.034 1.012 5.034 3.147.022 1.079-.854 2.248-2.18 2.248-.742 0-1.483-.248-1.573-.383-.112-.202-.022-.472-.022-.921 0-.922-.45-1.551-1.079-1.551-1.213 0-1.798 1.91-1.641 3.573.36 4.023 4.181 3.574 6.473 2.203.09-.068.225-.09.315-.023.067.068.112.158.067.36zm14.478 2.382c-.518.585-1.595 1.237-2.855 1.237-4.63 0-3.349-5.17-4.764-5.304v4.674c0 .113-.09.135-.09.135h-4.518s-.089-.022-.089-.112c0 0 .179-5.125.179-6.675 0-3.573-1.528-2.81-1.326-3.417.247-.719 1.461-1.595 2.719-1.595 1.798 0 3.124 1.303 3.124 3.417v1.887l.18-.067c.224-1.686 1.573-5.237 4.562-5.237 1.641 0 2.787 1.034 2.787 2.517 0 1.506-1.034 2.383-2.45 2.383-.562 0-1.146-.18-1.146-.518 0-.337.179-1.168-.562-1.258-.876-.112-1.258 1.102-1.303 1.888 1.012-.135 1.641.225 2.158.877.899 1.192.922 3.237 3.371 4.427.36.179.383.292.023.741zm12.629-2.382c-.247.944-2.112 3.595-5.395 3.595-3.392 0-6.112-2.742-6.112-6.135 0-3.282 2.54-6.113 6.405-6.113 3.685 0 5.281 2.315 5.281 3.911 0 3.529-4.112 3.955-7.057 3.46.788 2.248 3.776 2.473 6.518.945.09-.068.203-.09.293-.023.09.068.134.158.067.36zm-7.057-3.259c2 .18 2.989-.562 2.989-1.776 0-.607-.495-1.124-1.19-1.079l-.023.023h-.067c-.158.022-.36.09-.54.202-.742.45-1.08 1.528-1.169 2.63z" fill="#00E676"/></svg>