<svg xmlns="http://www.w3.org/2000/svg" xmlns:xlink="http://www.w3.org/1999/xlink" viewBox="0 0 454 127" enable-background="new 0 0 454 127"><style type="text/css">.st0{fill:#F9463D;} .st1{fill:#00E676;}</style><image width="467" height="124" xlink:href="food-delivery-logo.png" transform="translate(-7.332 -230.75)" overflow="visible"/><path class="st0" d="M53.7 47.8c0 14.9-15.7 20-28.1 20-9.6 0-24.7-3.8-24.7-16 0-6 3.9-9.9 10.1-9.9 3.7 0 7.2 1.6 7.5 2.6.2.8-.2 2.7-.2 5 0 4.9 3.2 8.4 6.6 8.4 10.9 0 12.4-18.6-1.7-18.6h-2.3s-.4 0-.4-.6v-9.2c0-.4.4-.4.4-.4h4c12.4 0 10.3-17.4.5-17.4-3.7 0-7.3 2.9-7.3 7.7 0 2.5.3 4.5 0 5-.4 1-3.4 2.7-7.1 2.7-6.2-.1-10.1-4.3-10.1-10.1 0-12.2 15.1-16.1 24.7-16.1 12.3 0 27.7 4.1 27.1 19-.4 7.8-5.3 11.8-11.8 13.5 6.9 2.1 12.8 6.3 12.8 14.4z"/><path class="st0" d="M109.1 61.5c-.9 2.8-5.6 6.2-10.6 6.2-6.1 0-10.8-3.8-12-10-3 5.7-7.7 9.9-13.9 9.9-11.1 0-17.2-12.2-17.2-24 0-12.1 6.2-23.8 17.7-23.8 6.1 0 10.4 3.4 13.1 8.4v-6.1c0-.4.4-.5.4-.5h17.6s.4.1.4.4c0 0-.6 20.1-.6 26.1 0 14 6 11 5.1 13.4zm-22.4-17.8c0-6.6-2.3-12-6.6-12s-6.6 5.4-6.6 12 2.3 11.9 6.6 11.9c4.4-.1 6.6-5.3 6.6-11.9z"/><path class="st0" d="M161.2 62.9c-2 2.3-6.2 4.8-11.2 4.8-18.1 0-13.1-20.2-18.6-20.8v18.3c0 .4-.4.5-.4.5h-17.7s-.4-.1-.4-.4c0 0 .7-20.1.7-26.1 0-14-6-11-5.2-13.4 1-2.8 5.7-6.2 10.6-6.2 7 0 12.2 5.1 12.2 13.4v7.4l.7-.3c.9-6.6 6.2-20.5 17.9-20.5 6.4 0 10.9 4 10.9 9.9s-4 9.3-9.6 9.3c-2.2 0-4.5-.7-4.5-2s.7-4.6-2.2-4.9c-3.4-.4-4.9 4.3-5.1 7.4 4-.5 6.4.9 8.4 3.4 3.5 4.7 3.6 12.7 13.2 17.3 1.6.7 1.7 1.2.3 2.9z"/><path class="st0" d="M215.7 61.5c-.9 2.8-5.6 6.2-10.6 6.2-6.1 0-10.8-3.8-12-10-3 5.7-7.7 9.9-13.9 9.9-11.1 0-17.2-12.2-17.2-24 0-12.1 6.2-23.8 17.7-23.8 6.1 0 10.4 3.4 13.1 8.4v-6.1c0-.4.4-.5.4-.5h17.6s.4.1.4.4c0 0-.6 20.1-.6 26.1 0 14 6 11 5.1 13.4zm-22.3-17.8c0-6.6-2.3-12-6.6-12s-6.6 5.4-6.6 12 2.3 11.9 6.6 11.9c4.3-.1 6.6-5.3 6.6-11.9z"/><path class="st0" d="M258.5 53.4c0 10.6-12.4 14.3-22.1 14.3-7.6 0-20.1-2.7-20.1-11.4 0-4.3 3.3-8 8.3-8 2.9 0 6.1.8 6.4 1.5.5.8.2 1.9.2 3.6 0 3.5 2 5.4 4.7 5.4 3.3 0 5-2.5 5-4.9 0-2.2-1-6-6.1-6h-2s-.4 0-.4-.4v-8.2c0-.4.4-.4.4-.4h3.1c3.7 0 5-3.1 5-5.2 0-2.6-1.3-5-4.6-5-2.9 0-5.1 1.8-5.1 5.4 0 1.8.4 2.9-.2 3.6-.4.7-3.5 1.6-6.4 1.6-4.9 0-8.3-3.8-8.3-8 0-8.8 12.6-11.5 20.1-11.5 9.7 0 21.6 3 21.6 13.6 0 5.9-4.4 8.4-9.5 9.7 5.4 1.4 10 4.5 10 10.3z"/><path class="st0" d="M327.3 53.6c-1 3.7-8.3 14.1-21.1 14.1-13.3 0-23.9-10.7-23.9-24 0-12.8 9.9-23.9 25.1-23.9 14.4 0 20.7 9.1 20.7 15.3 0 13.8-16.1 15.5-27.6 13.5 3.1 8.8 14.8 9.7 25.5 3.7.4-.3.8-.4 1.1-.1.2.3.4.6.2 1.4zm-27.7-12.8c7.8.7 11.7-2.2 11.7-6.9 0-2.4-1.9-4.4-4.7-4.2 0 0 0 .1-.1.1h-.3c-.6.1-1.4.4-2.1.8-2.8 1.7-4.1 5.9-4.5 10.2z"/><path class="st0" d="M384.5 65.2c0 9.9-4.8 14.1-13.6 14.1-1.1 0-4.1-.4-4.1-1.3v-12.1h-22.1l.1 1.4c0 7.4-4.8 12.1-13.6 12.1-1.1 0-4-.4-4-1.3v-19.3c0-1.6 5-.1 8.8-14.2 1.9-7.2 3-22.6 3-22.6 0-.4.4-.4.4-.4 11.8-2.6 24.3-2.8 38.4 0 .1 0 .3 0 .3.4v33.3h6.1s.3 0 .3.5v9.4zm-30.7-35.5c-.6 7.3-1.7 17.9-2.6 22.9-.2.9-.4 1.8-.6 2.6h9.8v-25.5h-6.6z"/><path class="st0" d="M453.6 61.5c-1 2.8-5.7 6.2-10.6 6.2-7 0-12.9-5.1-12.9-13.4v-17.1c0-7.1-4.4-6.5-6.2-.6 2.7 3 4.5 7 4.5 11.8 0 11.3-9.5 19.3-21.2 19.3-16.3 0-21-11-21-19.1v-26.7c0-.4.4-.4.4-.4h17s.4.1.4.5v9.7c2.1-.4 4.6-.6 7-.6 3.3 0 6.4.9 9.1 2.5 3.3-10.2 10.4-13.7 15.7-13.7 6.6 0 12.1 5.7 12.1 14.5v13.7c-.1 14 6.6 11 5.7 13.4zm-41.9-13.4c0-5.1-2.3-8.4-6.2-8.4-.6 0-1.3.1-1.8.2v10.7c.1 3.4.7 7 3.8 7 3.7 0 4.2-4.8 4.2-9.5z"/><path class="st1" d="M27.5 105.1c0 6.6-6.4 9.9-13.2 9.9-9.5 0-12.7-6.4-12.7-11.2v-15.5c0-.2.2-.3.2-.3s4.9-1.2 11.7-1.2c5.4 0 12 1.5 12 6.8 0 2.6-1.7 4.3-3.3 4.8 3.2 1.2 5.3 3.5 5.3 6.7zm-14.4-12.7c-.4 0-.9.1-1.1.2v5.1h1c2.1 0 3.2-.9 3.2-2.7-.1-2.2-2-2.6-3.1-2.6zm4.6 12.9c0-2-1.7-3-4-3-.5 0-1.3 0-1.9.1v3.1c.1 1.7.7 3.5 2.7 3.5 2.1.1 3.2-1.4 3.2-3.7z"/><path class="st1" d="M70.3 115c-10 1.1-12.4-9.2-13.5-17.1-.4-.1-1.5-.1-1.9.2l.4 15.6c0 .3-.3.3-.3.3h-11s-.3 0-.2-.3c-.1-24.6 0-27.9 0-27.9-.6-6.1-3.7-4.7-3.2-6.1.6-1.7 4-3.8 7-3.8 4 0 7.6 2.4 7.6 8.2l-.2 8.3 1.6-.4c-.1-7.9 3.6-15.2 11.2-16.1 4.5-.6 8.3 2.1 7.7 6.5-.9 7.5-9.9 5.2-9.9 4.5 0-1 .3-2.6-1.5-2.6-2.1 0-3.1 3.3-3.1 7.2 3.4-.1 4.8 2.6 6.4 6.1 1.1 2.4 4.4 9.7 8.4 11 .9.2-.6 5.8-5.5 6.4z"/><path class="st1" d="M105.9 101c0 7-3.5 13.9-10.3 13.9-3.5 0-6.1-2-7.7-4.9v14.9c0 .3-.3.3-.3.3h-10.2s-.3-.1-.2-.3c0 0-.1-23-.1-26.6 0-8.2-3.1-6.4-2.6-7.8.6-1.6 3.3-3.6 6.2-3.6 3.5 0 6.3 2.2 7 5.9 1.7-3.4 4.5-5.9 8.1-5.9 6.6 0 10.1 7.2 10.1 14.1zm-10.5 0c0-3.9-1.3-6.9-3.9-6.9-2.5 0-3.9 3.1-3.9 6.9s1.3 7 3.9 7c2.5 0 3.9-3.2 3.9-7z"/><path class="st1" d="M138.1 111.4c-.5 1.6-3.3 3.6-6.2 3.6-3.5 0-6.3-2.2-7-5.9-1.7 3.3-4.5 5.8-8.1 5.8-6.5 0-10.1-7.1-10.1-14 0-7 3.6-13.9 10.3-13.9 3.5 0 6.1 2 7.7 4.9v-3.5c0-.3.3-.3.3-.3h10.3s.2.1.2.3c0 0-.4 11.7-.4 15.3 0 8.1 3.5 6.3 3 7.7zm-13.1-10.4c0-3.9-1.3-7-3.9-7s-3.9 3.1-3.9 7 1.3 6.9 3.9 6.9 3.9-3.1 3.9-6.9z"/><path class="st1" d="M163.5 106.8c-.6 2.2-4.4 8.2-11.9 8.2-7.8 0-14-6.3-14-14 0-7.5 5.8-13.6 13.6-14 5.8 0 11.5 2.3 11.5 7.2.1 2.5-2 5.1-5 5.1-1.7 0-3.4-.6-3.6-.9-.3-.5-.1-1.1-.1-2.1 0-2.1-1-3.5-2.5-3.5-2.8 0-4.1 4.4-3.8 8.2.8 9.2 9.6 8.2 14.8 5 .2-.2.5-.2.7-.1.3.2.4.4.3.9z"/><path class="st1" d="M194.7 111.4c-.5 1.6-3.3 3.5-6.2 3.5-4.2 0-7.2-2.9-7.2-7.7v-3.4h-5v9.9c0 .3-.3.3-.3.3h-10.3s-.3-.1-.2-.3c0 0 .4-11.7.4-15.3 0-8.2-3.5-6.4-3-7.8.6-1.6 3.3-3.6 6.2-3.6 4.2 0 7.2 3 7.2 7.8v3h5v-9.4c0-.3.3-.3.3-.3h9.9s.2 0 .2.3v15.2c0 8.1 3.5 6.4 3 7.8z"/><path class="st1" d="M208.5 115.1c-8.3 0-14.4-6.2-14.4-14 0-7.7 6.1-14 14.4-14s14.4 6.3 14.4 14c0 7.8-6 14-14.4 14zm0-5.8c3.1 0 4.3-3.6 4.3-8.2 0-4.4-1.3-8.2-4.3-8.2s-4.3 3.8-4.3 8.2c0 4.3 1.3 8.2 4.3 8.2z"/><path class="st1" d="M236.8 125.4c-7.5 0-10.9-5-11.6-7-.8-2.5-.3-3 .3-2.9 1.2.2 2.7 4 8.5 4 4.1 0 6.5-3.3 6.6-6.4v-5.1c-2.1 4.4-5.6 6-8.3 6-3.8 0-7-3.3-7-8.5v-7c0-8.2-3.9-6.4-3.4-7.8.6-1.6 3.3-3.6 6.2-3.6 4.2 0 7.6 3 7.6 7.8v8.9c0 5.1 4.8 3.3 4.9-2.7v-12.8c0-.3.2-.3.2-.3h9.9s.2 0 .2.3c0 0 .2 15 .2 21.8.2 9-4.8 15.3-14.3 15.3z"/><path class="st1" d="M296.8 101c0 7-3.1 13.9-9.9 13.9-3.3 0-5.7-1.9-7.2-4.5v14.5c0 .3-.1.3-.1.3h-9.9s-.4 0-.4-.3c0 0-.1-6.1-.1-14.9-1.6 3-4.2 4.9-7.6 4.9-6.5 0-9.7-7.1-9.7-14 0-7 3.1-13.9 9.9-13.9 3.5 0 6 2.1 7.5 4.9v-3.7c0-.2.2-.2.2-.2h10s.2-.1.2.2v3.8c1.6-3 4.2-5.1 7.5-5.1 6.5 0 9.6 7.2 9.6 14.1zm-27.3-.1c0-3.9-1-6.9-3.5-6.9s-3.4 3.1-3.4 6.9 1 7 3.4 7c2.5 0 3.5-3.1 3.5-7zm16.8.1c0-3.9-1-6.9-3.5-6.9s-3.4 3.1-3.4 6.9 1 7 3.4 7c2.5 0 3.5-3.2 3.5-7z"/><path class="st1" d="M364.8 113.7c0 .3-.2.3-.2.3h-10s-.2 0-.2-.3c0 0 .1-4.6.1-9.8l.5-5.6-6.5 15.2c-.1.3-.2.4-.7.4h-1.3c-.3 0-.5-.1-.6-.4l-5.1-13.1c-1 13.2-9.4 14.4-13.6 14.7-5.3.4-10.8-2-12.1-5.8-2.2 4.4-5.6 5.8-8.3 5.8-3.8 0-7-3.3-7-8.5v-8c0-8.2-3.9-6.4-3.4-7.8.6-1.6 3.3-3.6 6.2-3.6 4.2 0 7.6 3 7.6 7.8v10c0 5 4.6 3.4 4.8-2.4v-14.2c0-.3.2-.3.2-.3h10.3s.2.1.2.3c-.2 4.5-.3 14.8-.2 18.2.1 2.3.8 3.3 1.6 3.3 5.1 0 4.6-21.5 4.6-21.5 0-.3.2-.3.2-.3h10.6c.2 0 .3.2.3.2l4.6 9.6h.2l5-9.7s.1-.2.3-.2h11.5s.2 0 .2.2c-.2 1.3.2 25.5.2 25.5z"/><path class="st1" d="M392.5 106.8c-.6 2.2-4.4 8.2-11.9 8.2-7.8 0-14-6.3-14-14 0-7.5 5.8-13.6 13.6-14 5.8 0 11.5 2.3 11.5 7.2.1 2.5-2 5.1-5 5.1-1.7 0-3.4-.6-3.6-.9-.3-.5-.1-1.1-.1-2.1 0-2.1-1-3.5-2.5-3.5-2.8 0-4.1 4.4-3.8 8.2.8 9.2 9.6 8.2 14.8 5 .2-.2.5-.2.7-.1.3.2.4.4.3.9z"/><path class="st1" d="M422.7 112.2c-1.2 1.3-3.6 2.8-6.5 2.8-10.6 0-7.7-11.8-10.9-12.1v10.7c0 .3-.2.3-.2.3h-10.3s-.2-.1-.2-.3c0 0 .4-11.7.4-15.3 0-8.2-3.5-6.4-3-7.8.6-1.6 3.3-3.6 6.2-3.6 4.1 0 7.1 3 7.1 7.8v4.3c.2-.1.3-.1.4-.2.5-3.9 3.6-12 10.4-12 3.8 0 6.4 2.4 6.4 5.8s-2.4 5.4-5.6 5.4c-1.3 0-2.6-.4-2.6-1.2 0-.8.4-2.7-1.3-2.9-2-.3-2.9 2.5-3 4.3 2.3-.3 3.8.5 4.9 2 2.1 2.7 2.1 7.4 7.7 10.1.9.6.9.9.1 1.9z"/><path class="st1" d="M448.7 106.8c-.6 2.2-4.8 8.2-12.3 8.2-7.8 0-14-6.3-14-14 0-7.5 5.8-14 14.7-14 8.4 0 12.1 5.3 12.1 8.9 0 8.1-9.4 9-16.1 7.9 1.8 5.1 8.6 5.7 14.9 2.2.2-.2.5-.2.7-.1 0 .2.1.4 0 .9zm-16.2-7.5c4.6.4 6.8-1.3 6.8-4.1 0-1.4-1.1-2.6-2.7-2.5 0 0 0 .1-.1.1h-.2c-.4.1-.8.2-1.2.5-1.6 1-2.3 3.5-2.6 6z"/></svg>