<svg xmlns="http://www.w3.org/2000/svg" viewBox="90.3 6.8 335 58" enable-background="new 90.3 6.8 335 58"><style type="text/css">.st0{fill:#FA463E;}</style><path class="st0" d="M129.6 41.5c0 11-11.6 14.7-20.7 14.7-7.1 0-18.3-2.8-18.3-11.8 0-4.4 2.9-7.3 7.5-7.3 2.7 0 5.3 1.2 5.5 1.9.1.6-.1 2-.1 3.7 0 3.6 2.3 6.2 4.9 6.2 8.1 0 9.2-13.8-1.2-13.8h-1.7s-.3 0-.3-.5v-6.8c0-.3.3-.3.3-.3h2.9c9.2 0 7.6-12.9.4-12.9-2.7 0-5.4 2.1-5.4 5.7 0 1.8.2 3.3 0 3.7-.3.7-2.5 2-5.3 2-4.6 0-7.5-3.1-7.5-7.4 0-9 11.2-11.9 18.3-11.9 9.1 0 20.5 3.1 20 14-.3 5.8-3.9 8.7-8.7 9.9 5.1 1.8 9.4 4.9 9.4 10.9zm40.9 10.1c-.7 2.1-4.2 4.6-7.8 4.6-4.5 0-8-2.8-8.8-7.4-2.2 4.2-5.7 7.3-10.3 7.3-8.2 0-12.7-9-12.7-17.7 0-8.9 4.5-17.6 13.1-17.6 4.5 0 7.7 2.5 9.7 6.2v-4.5c0-.3.3-.4.3-.4h13s.3.1.3.3c0 0-.5 14.8-.5 19.3 0 10.4 4.4 8.2 3.7 9.9zm-16.5-13.1c0-4.9-1.7-8.8-4.9-8.8s-4.9 4-4.9 8.8 1.7 8.8 4.9 8.8c3.2-.1 4.9-4 4.9-8.8zm55 14.2c-1.5 1.7-4.6 3.6-8.3 3.6-13.4 0-9.7-14.9-13.8-15.3v13.5c0 .3-.3.4-.3.4h-13.1s-.3-.1-.3-.3c0 0 .5-14.8.5-19.3 0-10.3-4.4-8.1-3.8-9.9.7-2.1 4.2-4.6 7.9-4.6 5.2 0 9 3.8 9 9.9v5.3l.5-.2c.6-4.9 4.5-15.1 13.2-15.1 4.7 0 8.1 3 8.1 7.3 0 4.4-3 6.9-7.1 6.9-1.6 0-3.3-.5-3.3-1.5s.5-3.4-1.6-3.6c-2.5-.3-3.6 3.2-3.8 5.5 2.9-.4 4.7.6 6.2 2.5 2.6 3.4 2.7 9.4 9.7 12.8 1.3.5 1.3.8.3 2.1zm40.3-1.1c-.6 2.1-4.2 4.6-7.8 4.6-4.5 0-8-2.8-8.8-7.4-2.2 4.2-5.7 7.3-10.3 7.3-8.2 0-12.7-9-12.7-17.7 0-8.9 4.5-17.6 13.1-17.6 4.5 0 7.7 2.5 9.7 6.2v-4.5c0-.3.3-.4.3-.4h13s.3.1.3.3c0 0-.5 14.8-.5 19.3-.1 10.4 4.3 8.2 3.7 9.9zm-16.5-13.1c0-4.9-1.7-8.8-4.9-8.8s-4.9 4-4.9 8.8 1.7 8.8 4.9 8.8 4.9-4 4.9-8.8zm48.1 7.2c0 7.9-9.2 10.6-16.3 10.6-5.6 0-14.9-2-14.9-8.4 0-3.2 2.5-5.9 6.1-5.9 2.1 0 4.5.6 4.7 1.1.4.6.1 1.4.1 2.7 0 2.6 1.5 4 3.4 4 2.4 0 3.7-1.8 3.7-3.6 0-1.6-.7-4.4-4.5-4.4h-1.5s-.3 0-.3-.3v-6c0-.3.3-.3.3-.3h2.3c2.7 0 3.7-2.3 3.7-3.8 0-1.9-1-3.7-3.4-3.7-2.1 0-3.8 1.4-3.8 4 0 1.3.3 2.1-.1 2.7-.3.5-2.6 1.2-4.7 1.2-3.6 0-6.1-2.8-6.1-5.9 0-6.5 9.3-8.5 14.9-8.5 7.1 0 15.9 2.2 15.9 10.1 0 4.4-3.2 6.2-7 7.1 4.1.7 7.5 3 7.5 7.3zm50.8.1c-.7 2.7-6.1 10.4-15.6 10.4-9.8 0-17.7-7.9-17.7-17.7 0-9.5 7.3-17.7 18.5-17.7 10.7 0 15.3 6.7 15.3 11.3 0 10.2-11.9 11.4-20.4 10 2.3 6.5 10.9 7.1 18.8 2.7.3-.2.6-.3.8-.1.3.2.4.5.3 1.1zm-20.5-9.4c5.8.5 8.6-1.6 8.6-5.1 0-1.8-1.4-3.2-3.4-3.1l-.1.1h-.2c-.5.1-1 .3-1.6.6-2 1.2-3 4.3-3.3 7.5zm62.7 18c0 7.3-3.5 10.4-10.1 10.4-.8 0-3.1-.3-3.1-1v-9h-16.3l.1 1c0 5.5-3.5 8.9-10.1 8.9-.8 0-2.9-.3-2.9-1v-14.1c0-1.2 3.7-.1 6.5-10.5 1.4-5.3 2.3-16.6 2.3-16.6 0-.3.3-.3.3-.3 8.7-1.9 17.9-2.1 28.3 0 .1 0 .2 0 .2.3v24.5h4.5s.2 0 .2.4l.1 7zm-22.6-26.3c-.5 5.4-1.2 13.2-1.9 16.9-.1.7-.3 1.4-.5 2h7.2v-18.9h-4.8zm73.6 23.5c-.7 2.1-4.2 4.6-7.9 4.6-5.2 0-9.6-3.8-9.6-9.9v-12.5c0-5.3-3.2-4.8-4.5-.5 2 2.2 3.3 5.2 3.3 8.7 0 8.4-7 14.2-15.7 14.2-12 0-15.5-8.1-15.5-14.1v-19.6c0-.3.3-.3.3-.3h12.5s.3.1.3.4v7.1c1.6-.3 3.4-.5 5.2-.5 2.4 0 4.7.6 6.8 1.8 2.5-7.5 7.7-10.1 11.6-10.1 4.9 0 9 4.2 9 10.7v10.1c0 10.4 4.9 8.2 4.2 9.9zm-30.9-9.9c0-3.8-1.7-6.2-4.5-6.2-.5 0-1 .1-1.3.1v7.9c.1 2.5.5 5.2 2.8 5.2 2.6 0 3-3.5 3-7z"/></svg>