<svg xmlns="http://www.w3.org/2000/svg" viewBox="0 0 32 32" enable-background="new 0 0 32 32"><style type="text/css">.st0{fill:#FFFFFF;}</style><path class="st0" d="M20.8 8.2h-9.6c-1.7 0-3 1.3-3 3v9.600000000000001c0 1.7 1.3 3 3 3h9.6c1.7 0 3-1.3 3-3v-9.600000000000001c0-1.7-1.3-3-3-3zm.9 1.8h.3v2.5999999999999996h-2.7v-2.6h2.4zm-7.9 4.4c.5-.7 1.3-1.1 2.2-1.1.9 0 1.7.5 2.2 1.1.3.5.5 1 .5 1.6 0 1.5-1.3 2.7-2.7 2.7s-2.7-1.2-2.7-2.7c0-.6.2-1.1.5-1.6zm8.5 6.4c0 .8-.7 1.5-1.5 1.5h-9.6c-.8 0-1.5-.7-1.5-1.5v-6.4h2.3c-.2.5-.3 1.1-.3 1.6 0 2.3 1.9 4.3 4.3 4.3s4.3-1.9 4.3-4.3c0-.5-.1-1.1-.3-1.6h2.3v6.4z"/></svg>