<svg xmlns="http://www.w3.org/2000/svg" viewBox="0 0 32 32" enable-background="new 0 0 32 32"><style type="text/css">.st0{fill:#FFFFFF;}</style><path class="st0" d="M22.5 19.6c0 .8-.1 1.4-.4 2s-.7 1-1.2 1.4c-.6.5-1.2.8-1.9 1-.7.2-1.6.3-2.6.3h-6.1v-15.3h5.4c1.1 0 2 0 2.5.1.6.1 1.1.3 1.6.5.5.3 1 .7 1.2 1.2.3.5.4 1.1.4 1.7 0 .7-.2 1.4-.6 2-.4.6-.9 1-1.5 1.3v.1c.9.2 1.7.6 2.3 1.2.6.6.9 1.4.9 2.5zm-4.9-6.3c0-.2-.1-.5-.2-.8-.1-.3-.3-.4-.6-.6-.3-.1-.6-.2-.9-.2h-1.8v3.3h1.9c.3 0 .5-.1.8-.2.3-.1.5-.3.6-.6s.2-.6.2-.9zm.9 6.2c0-.5-.1-.8-.3-1.1-.2-.3-.5-.5-.9-.6-.2-.1-.6-.1-1-.1h-2.3v3.8h2.3000000000000003c.4 0 .8-.1 1.2-.3.3-.2.6-.4.8-.7.2-.3.2-.6.2-1z"/></svg>