<svg xmlns="http://www.w3.org/2000/svg" viewBox="-113 50 32 32" enable-background="new -113 50 32 32"><style type="text/css">.st0{fill:#DF2926;}</style><path class="st0" d="M-98.1 62.9c.3.3.6.4 1.1.4s.8-.1 1.1-.4c.3-.3.4-.6.4-1v-2.7c-.1-.4-.3-.7-.5-.9-.3-.2-.6-.4-1-.4-.5 0-.8.1-1.1.4-.3.2-.4.6-.4.9v2.7c0 .4.1.8.4 1zm.6-3.7c0-.1 0-.2.1-.3s.2-.1.3-.1.2 0 .3.1c.1.1.1.2.1.3v2.8c0 .1 0 .2-.1.3s-.2.1-.3.1-.2 0-.3-.1c-.1-.1-.1-.2-.1-.3v-2.8zm-3.7 1.2l-1.4-4.2h1.2l.7 2.8h.1l.7-2.8h1.2l-1.3 4.1v2.9h-1.2v-2.8zm6.6 2.6c-.1-.2-.2-.4-.2-.7v-4.3h1v3.9c0 .2.1.2.1.3s.1.1.2.1.2 0 .3-.1l.3-.3v-3.8h1v5h-1v-.6c-.2.2-.4.4-.6.5s-.4.2-.6.2c-.2 0-.4 0-.5-.2zm4.7 2.9c-.8-.8-7.1-.8-7.1-.8s-6.3 0-7.1.8c-.8.8-.8 4.5-.8 4.5s0 3.7.8 4.5l7.1.8s6.3-.1 7.1-.8c.8-.8.8-4.5.8-4.5s0-3.6-.8-4.5zm-10.1 2.2h-1.1v5.4h-1v-5.4h-1.1v-.9h3.2v.9zm3 5.3h-1v-.6c-.1.2-.3.3-.5.4s-.3.1-.5.1-.4-.1-.5-.2-.2-.3-.2-.6v-3.9h.9v3.6c0 .1.1.2.1.2.1.1.1.1.2.1s.2 0 .3-.1c.1 0 .2-.1.3-.2v-3.5h.9v4.7zm3.3-.9c0 .3-.1.6-.2.8-.1.2-.4.3-.6.3s-.3 0-.5-.1l-.4-.3v.4h-.9v-6.3h.9v2c.1-.1.3-.3.4-.3.1-.1.3-.1.4-.1.3 0 .5.1.7.3.1 0 .2.3.2.7v2.6zm3.1-1.2h-1.7v.9c0 .2 0 .4.1.5s.2.1.3.1c.2 0 .3 0 .3-.1s.1-.3.1-.5v-.2h.9v.2c0 .5-.1.8-.3 1.1-.2.2-.6.4-1 .4s-.7-.1-1-.4c-.2-.3-.4-.6-.4-1.1v-2.2c0-.4.1-.7.4-1s.6-.4 1-.4.7.1 1 .4c.2.2.3.6.3 1v1.3zm-4.1-1.7c.1.1.1.2.1.4l-.1 2.3c0 .1 0 .2-.1.3 0 .1-.1.1-.2.1h-.2l-.2-.2v-2.9l.2-.1h.2c.1 0 .2 0 .3.1zm3.1 0c.1.1.1.2.1.4v.5h-.8v-.5c0-.2 0-.3.1-.4 0-.1.2-.1.3-.1s.2 0 .3.1z"/></svg>