<svg xmlns="http://www.w3.org/2000/svg" viewBox="0 0 40 13" enable-background="new 0 0 40 13"><style type="text/css">.st0{fill:#088EFF;} .st1{fill:#FFFFFF;}</style><path class="st0" d="M39.3 6.9c-.2-.3-.6-.5-1.1-.6v-.1c.4-.1.7-.2.9-.6.2-.3.3-.7.3-1.2 0-.7-.3-1.2-.8-1.5-.5-.3-1.3-.5-2.5-.5h-1.9c-.3 0-.6.3-.6.6v6.8c0 .3.3.6.6.6h2.4c.9 0 1.6-.2 2.1-.6.5-.4.8-1 .8-1.7.2-.5.1-.9-.2-1.2m-3.9-3.1h.9c.5 0 .8.1 1.1.2.2.1.3.4.3.7 0 .3-.1.6-.3.7-.2.1-.5.2-1 .2h-1v-1.8zm2.2 5c-.2.2-.6.2-1.1.2h-1.1v-2h1.1c.9 0 1.4.3 1.4 1 0 .3-.1.6-.3.8m-5-5.7v.7s0 .1-.1.1h-2.1v6.5s0 .1-.1.1h-1.6s-.1 0-.1-.1v-6.5h-2.1s-.1 0-.1-.1v-.7c0-.3.3-.6.6-.6h5c.3-.1.6.2.6.6m-7.2-1.9v10.6c0 .7-.5 1.2-1.2 1.2h-22.7c-.7 0-1.2-.5-1.2-1.2v-10.6c0-.7.6-1.2 1.2-1.2h22.700000000000003c.7 0 1.2.5 1.2 1.2z"/><path class="st1" d="M15.2 8.9v1.2c0 .1 0 .1-.1.1-.6.3-1.3.4-2.1.4-1.2 0-2.1-.4-2.7-1.1-.6-.7-.9-1.7-.9-3 0-.8.2-1.6.5-2.2.3-.6.7-1.1 1.3-1.4.6-.3 1.2-.5 2-.5.7 0 1.5.2 2.2.5l.1.1-.1.3-.4.8c0 .1-.1.1-.1.1h-.1l-.8-.3c-.3-.1-.6-.2-.9-.2-.6 0-1.1.2-1.5.7-.4.5-.5 1.1-.5 2 0 1.8.7 2.7 2 2.7.5 0 1.2-.1 1.9-.4.2.1.2.1.2.2m-6.1 1.3l-.1-.1-2.8-3.8 2.8-3.7v-.2h-1.4000000000000001c-.2 0-.4.1-.5.2l-2.6 3.7v-3.8s0-.1-.1-.1h-1c-.3 0-.6.3-.6.6v6.9c0 .3.3.6.6.6h1s.1 0 .1-.1v-4l2.7 3.8c.1.2.3.3.5.3h1.4000000000000001c.1-.2.1-.3 0-.3m14 0l-.1-.1-2.8-3.8 2.8-3.7v-.2h-1.4000000000000001c-.2 0-.4.1-.5.2l-2.7 3.6v-3.7s0-.1-.1-.1h-1c-.3 0-.6.3-.6.6v6.9c0 .3.3.6.6.6h1s.1 0 .1-.1v-4l2.7 3.8c.1.2.3.3.5.3h1.5000000000000002v-.3"/></svg>