<svg xmlns="http://www.w3.org/2000/svg" viewBox="0 0 152 13" enable-background="new 0 0 152 13"><style type="text/css">.st0{fill:#088EFF;} .st1{fill:#FFFFFF;}</style><path class="st0" d="M101.7 1.2v10.6c0 .7-.5 1.2-1.2 1.2h-98.9c-.7 0-1.2-.5-1.2-1.2v-10.6c-.1-.7.5-1.2 1.2-1.2h98.89999999999999c.6 0 1.2.5 1.2 1.2z"/><path class="st1" d="M30.4 2.9c-.8-.3-1.5-.5-2.2-.5-.8 0-1.4.2-2 .5-.6.3-1 .8-1.3 1.4-.3.6-.5 1.4-.5 2.2 0 1.3.3 2.3.9 3 .6.7 1.5 1.1 2.7 1.1.8 0 1.5-.1 2.1-.4l.1-.1v-1.2c0-.1-.1-.1-.1-.1-.7.2-1.4.4-1.9.4-1.3 0-2-.9-2-2.7 0-.9.2-1.5.5-2s.8-.8 1.4-.8c.3 0 .6.1.9.2l.8.3h.1c.1 0 .1 0 .1-.1l.3-.8.1-.3v-.1zM15.3 3.1c-.5-.4-1.2-.6-2.2-.6h-2.4c-.1 0-.1.1-.1.1v7.2c0 .3.3.6.6.6h.9c.1 0 .1-.1.1-.1v-2.7h.7c1 0 1.8-.2 2.3-.7.5-.5.8-1.1.8-2 0-.8-.2-1.4-.7-1.8zm-1.4 2.8c-.3.2-.6.3-1.2.3h-.6v-2.4h.9c.5 0 .8.1 1 .3.2.2.3.5.3.9s-.1.7-.4.9zM23.8 10.3l-2.7-7.7c0-.1-.1-.1-.1-.1h-2c-.1 0-.1 0-.1.1l-2.7 7.7c0 .1.1.1.1.1h1.5c.1 0 .1 0 .1-.1l.6-1.8h2.9l.5 1.8c0 .1.1.1.1.1h1.5c.2 0 .3 0 .3-.1zm-4.8-3.2c.6-1.8.9-3 1-3.5 0 .1.1.3.1.5.1.2.4 1.2.9 2.9h-2zM37.8 2.4h-.9c-.1 0-.1.1-.1.1v3h-3.2v-3c0-.1-.1-.1-.1-.1h-.9c-.3 0-.6.3-.6.6v6.8c0 .3.3.6.6.6h.9c.1 0 .1-.1.1-.1v-3.3h3.2v3.3c0 .1.1.1.1.1h.9c.3 0 .6-.3.6-.6v-6.7c0-.4-.2-.7-.6-.7zM9 10.1l-2.8-3.8 2.8-3.7v-.2h-1.4000000000000001c-.2 0-.4.1-.5.2l-2.6 3.7v-3.8s0-.1-.1-.1h-1c-.3 0-.6.3-.6.6v6.9c0 .3.3.6.6.6h1s.1 0 .1-.1v-4l2.7 3.8c.1.2.3.3.5.3h1.4000000000000001c.1-.1.1-.2 0-.2l-.1-.2zM99.2 10.2l-.1-.1-2.8-3.8 2.8-3.6v-.2h-1.4000000000000001c-.2 0-.4.1-.5.2l-2.7 3.6v-3.8s0-.1-.1-.1h-1c-.3 0-.6.3-.6.6v6.9c0 .3.3.6.6.6h1s.1 0 .1-.1v-4l2.7 3.8c.1.2.3.3.5.3h1.4000000000000001c.1-.2.1-.3.1-.3zM72.6 2.4h-1.1c-.2 0-.4.1-.5.3l-3.5 5.8.1-1.2v-4.7c0-.1-.1-.1-.1-.1h-.8c-.3 0-.6.3-.6.6v6.8c0 .3.3.6.6.6h1.1c.2 0 .4-.1.5-.3l3.5-5.9c-.1 1-.1 1.8-.1 2.3v3.7c0 .1.1.1.1.1h.8c.3 0 .6-.3.6-.6v-6.7c0-.4-.3-.7-.6-.7zM83.1 2.4h-1.3c-.3 0-.5.2-.6.4l-1.9 5.7-1.8-5.7c-.1-.2-.3-.4-.6-.4h-1.3c-.3 0-.6.3-.6.6v6.8c0 .3.3.6.6.6h.8c.1 0 .1-.1.1-.1v-3.6c0-.4 0-1.3-.1-2.6l1.8 5.8c.1.2.3.4.6.4h.7c.3 0 .5-.2.5-.4l1.9-5.9c0 1-.1 1.6-.1 1.9v4.2c0 .1.1.1.1.1h.8c.3 0 .6-.3.6-.6v-6.5c.4-.4.1-.7-.2-.7zM43.9 2.3c-1.2 0-2.2.4-2.8 1.1-.7.7-1 1.7-1 3.1 0 1.3.3 2.4 1 3.1.7.7 1.6 1.1 2.8 1.1s2.2-.4 2.8-1.1c.7-.7 1-1.7 1-3.1 0-1.3-.3-2.3-1-3.1-.6-.7-1.6-1.1-2.8-1.1zm0 6.8c-.7 0-1.2-.2-1.5-.7-.3-.5-.5-1.1-.5-2 0-.9.2-1.6.5-2 .3-.5.9-.7 1.5-.7 1.3 0 2 .9 2 2.7 0 1.8-.6 2.7-2 2.7zM91.4 2.9c-.8-.3-1.5-.5-2.2-.5-.8 0-1.4.2-2 .5-.6.3-1 .8-1.3 1.4-.3.6-.5 1.4-.5 2.2 0 1.3.3 2.3.9 3 .6.7 1.5 1.1 2.7 1.1.8 0 1.5-.1 2.1-.4l.1-.1v-1.2c0-.1-.1-.1-.1-.1-.7.2-1.4.4-1.9.4-1.3 0-2-.9-2-2.7 0-.9.2-1.5.5-2s.8-.8 1.4-.8c.3 0 .6.1.9.2l.8.3h.1c.1 0 .1 0 .1-.1l.3-.8.1-.3v-.1zM55.4 2.4h-1.4c-.1 0-.1 0-.1.1l-1.6 4.1-.1.3h-.1l-1.9-4.4-.1-.1h-1.5c-.1 0-.1.1-.1.1l2.7 5.6c-.1.3-.3.6-.5.7-.2.1-.4.2-.7.2-.4 0-.7 0-1-.1-.1 0-.1.1-.1.1v1.1c0 .1 0 .1.1.1.4.1.8.1 1.2.1.5 0 1-.1 1.4-.2.4-.2.7-.4 1-.7.3-.3.6-.8.9-1.5l2.4-5.5v-.1c-.4.2-.4.1-.5.1zM63 3.7c-.5-.3-1.1-.4-1.7-.4h-.3v-.8c0-.1-.1-.1-.1-.1h-1.2c-.1 0-.1.1-.1.1v.8h-.3c-.7 0-1.2.1-1.7.4s-.9.6-1.1 1.1c-.3.5-.4 1-.4 1.5 0 .6.1 1.1.4 1.6.1.5.5.8 1 1.1.5.2 1.1.4 1.8.4h.1v1.1c0 .1.1.1.1.1h1.2c.1 0 .1-.1.1-.1v-1.2h.1c.7 0 1.3-.1 1.8-.4.5-.2.9-.6 1.2-1.1.3-.5.4-1 .4-1.6 0-.6-.1-1.1-.4-1.5 0-.4-.4-.7-.9-1zm-3.6 4.3c-.7 0-1.1-.2-1.5-.5-.3-.3-.5-.7-.5-1.3 0-.5.2-.9.5-1.2.3-.3.7-.4 1.3-.4h.2v3.4zm3-.4c-.3.3-.8.4-1.4.4v-3.4h.2c.5 0 1 .2 1.3.5.3.3.5.7.5 1.2-.1.5-.2.9-.6 1.3z"/><path class="st0" d="M116.1 6.5c0 1.4-.2 2.4-.7 3-.4.7-1.1 1-2.1 1-.9 0-1.6-.3-2-1-.5-.7-.7-1.7-.7-3 0-1.4.2-2.4.7-3.1.4-.7 1.1-1 2.1-1 .9 0 1.6.3 2.1 1 .3.8.6 1.8.6 3.1zm-3.9 0c0 1 .1 1.7.2 2.1.2.4.4.6.8.6s.7-.2.8-.6c.2-.4.3-1.1.3-2.1s-.1-1.7-.3-2.1c-.2-.4-.5-.6-.8-.6-.4 0-.7.2-.8.6-.1.4-.2 1.1-.2 2.1zM151.1 2.6h-1.2c-.3 0-.5.2-.6.4l-1.8 5.6-1.8-5.6c-.1-.2-.3-.4-.6-.4h-1.2c-.3 0-.6.3-.6.6v6.7c0 .3.3.6.6.6h.7c.1 0 .1-.1.1-.1v-3.6c0-.4 0-1.3-.1-2.5l1.8 5.7c.1.2.3.4.6.4h.7c.2 0 .5-.2.5-.4l1.9-5.8c0 1-.1 1.6-.1 1.8v4.2c0 .1.1.1.1.1h.8c.3 0 .6-.3.6-.6v-6.5c.2-.4-.1-.6-.4-.6zM108 2.6h-.6c-.1 0-.3 0-.4.1l-2.3 1.8-.1.1v.1l.6.8h.2l.8-.6c.1-.1.3-.3.6-.5v5.4c0 .3.3.6.6.6h.9c.1 0 .1-.1.1-.1v-7.1c.2-.4 0-.6-.4-.6zM122 6.9c-.3-.3-.8-.5-1.4-.6.5-.1 1-.4 1.3-.7.3-.3.4-.8.4-1.3 0-.6-.2-1-.7-1.4-.5-.3-1.1-.5-1.9-.5-.9 0-1.7.2-2.4.7l-.1.1v.1l.6.9.1.1h.1c.3-.2.5-.3.8-.4.3-.1.5-.1.8-.1.7 0 1.1.3 1.1.9 0 .4-.1.7-.4.8-.3.2-.7.2-1.3.2h-.5c-.1 0-.1.1-.1.1v1c0 .1.1.1.1.1h.5c.7 0 1.1.1 1.4.2.3.2.5.4.5.8s-.1.7-.4.9c-.3.2-.7.3-1.2.3-.4 0-.7 0-1.1-.1l-.8-.3h-.1c-.1 0-.1.1-.1.1v1.2c0 .1 0 .1.1.1.6.3 1.4.4 2.2.4 1 0 1.8-.2 2.3-.6.5-.4.8-1 .8-1.8-.1-.5-.3-.9-.6-1.2zM132 6.9c-.3-.3-.8-.5-1.4-.6.5-.1 1-.4 1.3-.7.3-.3.4-.8.4-1.3 0-.6-.2-1-.7-1.4-.5-.3-1.1-.5-1.9-.5-.9 0-1.7.2-2.4.7l-.1.1v.1l.6.9.1.1h.1c.3-.2.5-.3.8-.4.3-.1.5-.1.8-.1.7 0 1.1.3 1.1.9 0 .4-.1.7-.4.8-.3.2-.7.2-1.3.2h-.5c-.1 0-.1.1-.1.1v1c0 .1.1.1.1.1h.5c.7 0 1.1.1 1.4.2.3.2.5.4.5.8s-.1.7-.4.9c-.3.2-.7.3-1.2.3-.4 0-.7 0-1.1-.1l-.8-.3h-.1c-.1 0-.1.1-.1.1v1.2c0 .1 0 .1.1.1.6.3 1.4.4 2.2.4 1 0 1.8-.2 2.3-.6.5-.4.8-1 .8-1.8-.1-.5-.3-.9-.6-1.2zM125.4 9.1h-1.3c-.1 0-.1.1-.1.1-.1.8-.3 1.6-.5 2.4 0 .1.1.1.1.1h.9c.1 0 .1 0 .1-.1.4-.9.7-1.8.9-2.5h-.1zM141.6 7.2v-1.1c0-.1-.1-.1-.1-.1h-2.5v-2h2.7c.1 0 .1-.1.1-.1v-1.2c0-.1-.1-.1-.1-.1h-3.8c-.3 0-.6.3-.6.6v6.7c0 .3.3.6.6.6h.9c.1 0 .1-.1.1-.1v-3h2.5c.2-.1.2-.1.2-.2z"/></svg>