<svg xmlns="http://www.w3.org/2000/svg" viewBox="0 0 52 13" enable-background="new 0 0 52 13"><style type="text/css">.st0{fill:#0091EA;}</style><path class="st0" d="M10.3 12.8h-2.6l-4.6-6.4v6.4h-1.7c-.5 0-.9-.4-.9-.9v-10.8c0-.5.4-.9.9-.9h1.7v6.1l4.5-6.1h2.4c.2 0 .3.2.2.4l-4.3 5.7 4.6 6.2c.1.1 0 .3-.2.3zM16.7 2.2c-1 0-1.8.4-2.3 1.1-.6.8-.8 1.8-.8 3.2 0 2.8 1.1 4.2 3.2 4.2.8 0 1.8-.2 2.9-.6.1 0 .3.1.3.2v1.8c0 .1-.1.2-.1.2-1 .4-2.1.6-3.3.6-1.8 0-3.2-.6-4.2-1.7s-1.5-2.7-1.5-4.8c0-1.3.2-2.5.7-3.5.5-1 1.2-1.7 2.1-2.3.7-.3 1.8-.6 3-.6s2.3.3 3.5.8c.1.1.2.2.1.3l-.7 1.7c0 .2-.2.2-.3.2l-1.2-.5c-.5-.2-1-.3-1.4-.3zM32 12.8h-2.1c-.3 0-.6-.1-.8-.4l-4.3-6v6.4h-1.7c-.5 0-.9-.4-.9-.9v-10.8c0-.5.4-.9.9-.9h1.7v6.1l4.2-5.7c.2-.2.5-.4.8-.4h1.9c.2 0 .3.2.2.4l-4.3 5.7 4.6 6.2c.1.1 0 .3-.2.3zM32.4 7.5c0-2.5.6-4.4 1.6-5.6 1.1-1.3 2.7-1.9 4.8-1.9.6 0 1.1 0 1.5.1.1 0 .2.1.2.2v1.7c0 .1-.1.3-.3.2-.4-.1-.8-.1-1.3-.1-.9 0-1.7.1-2.2.4-.6.3-1 .7-1.3 1.2-.3.5-.5 1.3-.5 2.3h.1c.6-1 1.5-1.5 2.7-1.5 1.1 0 2 .4 2.7 1.1s1 1.7 1 2.9c0 1.3-.4 2.4-1.1 3.2-.8.8-1.8 1.2-3.2 1.2-.9 0-1.7-.2-2.4-.6s-1.2-1.1-1.6-1.9c-.5-.8-.7-1.8-.7-2.9zm4.6 3.4c.6 0 1-.2 1.3-.6.3-.4.5-.9.5-1.6 0-.6-.1-1.1-.4-1.5-.3-.4-.7-.5-1.3-.5-.5 0-1 .2-1.4.5-.4.4-.6.8-.6 1.2 0 .7.2 1.3.5 1.7.4.5.9.8 1.4.8zM42.6 7.5c0-2.5.5-4.4 1.6-5.6 1.1-1.3 2.7-1.9 4.8-1.9.6 0 1.1 0 1.5.1.1 0 .2.1.2.2v1.7c0 .1-.1.3-.3.2-.4-.1-.8-.1-1.3-.1-.9 0-1.7.1-2.2.4-.6.3-1 .7-1.3 1.2-.3.5-.5 1.3-.5 2.3h.1c.6-1 1.5-1.5 2.7-1.5 1.1 0 2 .4 2.7 1.1s1 1.7 1 2.9c0 1.3-.4 2.4-1.1 3.2-.8.8-1.8 1.2-3.2 1.2-.9 0-1.7-.2-2.4-.6s-1.2-1.1-1.6-1.9c-.5-.8-.7-1.8-.7-2.9zm4.6 3.4c.6 0 1-.2 1.3-.6.3-.4.5-.9.5-1.7 0-.6-.1-1.1-.4-1.5-.3-.4-.7-.5-1.3-.5-.5 0-1 .2-1.4.5-.4.4-.6.8-.6 1.2 0 .7.2 1.3.5 1.7.4.6.9.9 1.4.9z"/></svg>