<svg baseProfile="basic" xmlns="http://www.w3.org/2000/svg" viewBox="0 0 795.36 162.773"><path fill="#088EFF" d="M314.3 15.334v132.105c0 8.469-6.865 15.334-15.334 15.334h-283.632c-8.469 0-15.334-6.865-15.334-15.334v-132.057h.005l-.005-.048c0-8.469 6.865-15.334 15.334-15.334h282.998v.064l.634-.064c8.469 0 15.334 6.865 15.334 15.334z"/><path fill="#088EFF" d="M453.348 81.464c0 13.176-2.16 22.929-6.477 29.258-4.318 6.331-10.965 9.495-19.944 9.495-8.704 0-15.266-3.268-19.686-9.804-4.42-6.535-6.63-16.186-6.63-28.949 0-13.313 2.149-23.125 6.451-29.438 4.299-6.312 10.921-9.469 19.866-9.469 8.704 0 15.282 3.303 19.738 9.908 4.454 6.605 6.682 16.271 6.682 28.999zm-36.896 0c0 9.255.8 15.885 2.4 19.893 1.6 4.008 4.291 6.011 8.075 6.011 3.716 0 6.399-2.03 8.051-6.089s2.477-10.664 2.477-19.815c0-9.253-.835-15.901-2.503-19.944-1.669-4.042-4.344-6.063-8.025-6.063-3.749 0-6.433 2.021-8.049 6.063-1.617 4.043-2.426 10.691-2.426 19.944z"/><path fill="#088EFF" d="M789.624 43.744h-11.901c-2.532 0-4.677 1.643-5.438 3.919l-17.661 53.802h-.309l-16.61-53.667h-.008c-.719-2.347-2.902-4.055-5.485-4.055h-11.814v.012c-3.168 0-5.736 2.568-5.736 5.736v63.998c0 3.168 2.568 5.736 5.736 5.736h7.198c.755 0 1.367-.612 1.367-1.367v-33.74c0-4.027-.328-12.064-.981-24.111h.464l16.926 55.155h.004c.716 2.352 2.901 4.064 5.487 4.064h6.567v-.015c2.385-.12 4.381-1.693 5.126-3.854l18.191-55.247h.465c-.413 9.5-.645 15.352-.697 17.554-.052 2.203-.078 4.148-.078 5.834v34.406c.025.733.623 1.322 1.363 1.322h7.823v-.028c3.168 0 5.736-2.568 5.736-5.736v-63.982c.001-3.168-2.567-5.736-5.735-5.736z"/><path fill="#088EFF" d="M376.292 43.744h-5.37c-1.296 0-2.488.435-3.448 1.16v-.008l-21.751 17.317v.006c-.333.249-.551.643-.551 1.091 0 .339.128.646.333.885v.007l6.011 7.504h.005c.25.268.603.438.998.438.278 0 .536-.084.751-.227l.143-.115.064-.052v.001l7.498-6.026c1.032-.826 2.872-2.563 5.522-5.212l-.258 7.843-.154 7.173v37.918c0 3.168 2.568 5.736 5.736 5.736h8.842c.755 0 1.367-.612 1.367-1.367v-68.336c-.002-3.168-2.57-5.736-5.738-5.736z"/><path fill="#088EFF" d="M510.25 85.309c-3.13-2.941-7.74-4.79-13.829-5.548v-.309c5.161-1.239 9.168-3.51 12.024-6.811 2.854-3.303 4.283-7.311 4.283-12.023 0-5.641-2.262-10.045-6.786-13.21-4.525-3.164-10.691-4.748-18.5-4.748-8.982 0-16.785 2.203-23.413 6.603v.002c-.411.236-.692.674-.692 1.182 0 .248.069.478.185.677l.004.006.128.183v.008l5.79 8.625h.004c.242.385.667.643 1.155.643.305 0 .584-.103.811-.272v.005c2.658-1.629 5.103-2.803 7.332-3.521 2.562-.826 5.082-1.239 7.56-1.239 7.154 0 10.733 2.857 10.733 8.566 0 3.715-1.351 6.339-4.051 7.87-2.701 1.531-6.975 2.296-12.823 2.296h-4.463c-.755 0-1.367.612-1.367 1.367v9.486h.001l-.001.012c0 .744.594 1.345 1.333 1.364h4.394c6.33 0 10.94.741 13.829 2.219 2.889 1.48 4.334 3.991 4.334 7.534 0 3.957-1.256 6.83-3.767 8.618-2.511 1.789-6.399 2.684-11.662 2.684-3.44 0-6.914-.465-10.423-1.394-2.721-.72-5.261-1.61-7.63-2.661v.013c-.194-.106-.414-.172-.652-.172-.755 0-1.367.612-1.367 1.367v10.503c0 .527.304.974.74 1.202 6.155 2.514 13.161 3.784 21.035 3.784 9.77 0 17.286-2.02 22.55-6.063 5.263-4.042 7.895-9.693 7.895-16.952.001-4.99-1.564-8.955-4.694-11.896z"/><path fill="#088EFF" d="M606.591 85.309c-3.13-2.941-7.74-4.79-13.829-5.548v-.309c5.161-1.239 9.168-3.51 12.024-6.811 2.854-3.303 4.283-7.311 4.283-12.023 0-5.641-2.262-10.045-6.786-13.21-4.525-3.164-10.691-4.748-18.5-4.748-8.982 0-16.785 2.203-23.413 6.603v.002c-.411.236-.692.674-.692 1.182 0 .248.069.478.185.677l.004.006.128.183v.008l5.79 8.625h.004c.242.385.667.643 1.155.643.305 0 .584-.103.811-.272v.005c2.658-1.629 5.103-2.803 7.332-3.521 2.562-.826 5.082-1.239 7.56-1.239 7.154 0 10.733 2.857 10.733 8.566 0 3.715-1.351 6.339-4.051 7.87-2.701 1.531-6.975 2.296-12.823 2.296h-4.463c-.755 0-1.367.612-1.367 1.367v9.486h.001l-.001.012c0 .744.594 1.345 1.333 1.364h4.394c6.33 0 10.94.741 13.829 2.219 2.89 1.48 4.334 3.991 4.334 7.534 0 3.957-1.256 6.83-3.767 8.618-2.511 1.789-6.399 2.684-11.662 2.684-3.44 0-6.914-.465-10.423-1.394-2.721-.72-5.261-1.61-7.63-2.661v.013c-.194-.106-.414-.172-.652-.172-.755 0-1.367.612-1.367 1.367v10.503c0 .527.304.974.74 1.202 6.155 2.514 13.161 3.784 21.035 3.784 9.77 0 17.286-2.02 22.55-6.063 5.263-4.042 7.895-9.693 7.895-16.952.002-4.99-1.564-8.955-4.694-11.896z"/><path fill="#088EFF" d="M542.874 106.903h-12.61c-.738 0-1.335.586-1.362 1.317h-.01c-1.149 7.268-2.692 14.941-4.629 23.024h.009l-.02.196c0 .755.612 1.367 1.367 1.367h8.743c.504 0 .939-.276 1.177-.682h.001c4.031-9.074 6.927-16.965 8.682-23.668l.019-.187c0-.755-.612-1.367-1.367-1.367z"/><path fill="#088EFF" d="M698.927 87.993v-10.321c0-.755-.612-1.367-1.367-1.367h-24.227v-19.454h26.137c.755 0 1.367-.612 1.367-1.367v-10.373c0-.755-.612-1.367-1.367-1.367h-36.139c-3.168 0-5.736 2.568-5.736 5.736v63.969c0 3.168 2.568 5.736 5.736 5.736h8.635c.755 0 1.367-.612 1.367-1.367v-28.458h24.227c.755 0 1.367-.612 1.367-1.367z"/><path fill="#fff" d="M187.59 112.318v14.663c0 .64-.41 1.15-.966 1.379-7.975 3.17-16.816 4.794-26.567 4.794-14.566 0-25.707-4.418-33.423-13.252-7.718-8.835-11.576-21.516-11.576-38.048 0-10.41 1.895-19.529 5.685-27.361 3.79-7.832 9.234-13.836 16.335-18.014 7.1-4.178 15.421-6.269 24.966-6.269 9.327 0 18.695 2.19 28.107 6.514l.004.013c.454.266.774.739.774 1.303 0 .211-.043.413-.121.597h.001l-1.413 3.569v.005l-4.221 10.635-.027.012c-.17.661-.743 1.158-1.457 1.158-.256 0-.486-.078-.698-.188l-.017.007-.001.011c-3.24-1.484-6.493-2.833-9.768-3.977-3.79-1.324-7.511-1.986-11.163-1.986-7.992 0-14.178 3.001-18.563 9.006-4.383 6.005-6.573 14.372-6.573 25.103 0 22.327 8.378 33.492 25.136 33.492 6.559 0 14.465-1.595 23.609-4.654l.01.035c.128-.034.254-.079.394-.079.847 0 1.533.685 1.533 1.532m-76.405 16.326l-1.284-1.746h.007l-34.817-47.167 34.643-45.625c.463-.601.443-1.455-.108-2.006-.3-.3-.692-.449-1.085-.449h-15.717c-2.503 0-4.705 1.218-6.104 3.075l-33.614 45.415v-47.825c-.056-.368-.341-.665-.725-.665h-12.89c-4.066 0-7.36 3.175-7.617 7.177v85.781c.257 4.001 3.551 7.177 7.617 7.177h12.89c.384 0 .669-.298.725-.665v-50.087l33.667 47.071.008-.004c1.347 2.201 3.752 3.685 6.522 3.685h16.58c.471 0 .942-.181 1.301-.539.719-.719.719-1.884.001-2.603m174.732 0l-1.284-1.746h.007l-34.815-47.167 34.643-45.625c.463-.601.442-1.455-.107-2.006-.3-.3-.692-.449-1.085-.449h-15.717c-2.504 0-4.706 1.218-6.106 3.075l-33.613 45.415v-47.825c-.056-.368-.341-.665-.725-.665h-12.89c-4.067 0-7.36 3.175-7.618 7.177v85.781c.258 4.001 3.551 7.177 7.618 7.177h12.89c.384 0 .669-.298.725-.665v-50.087l33.667 47.071.008-.004c1.348 2.201 3.753 3.685 6.522 3.685h16.58c.471 0 .942-.181 1.301-.539.719-.719.719-1.884-.001-2.603"/></svg>