<svg xmlns="http://www.w3.org/2000/svg" viewBox="0 0 32 32" enable-background="new 0 0 32 32"><style type="text/css">.st0{fill:#FFFFFF;}</style><path class="st0" d="M16 8.975c1.188 0 2.15.963 2.15 2.15 0 1.188-.963 2.15-2.15 2.15-1.188 0-2.15-.963-2.15-2.15 0-1.175.963-2.15 2.15-2.15zm0 7.35c2.862 0 5.2-2.337 5.2-5.2 0-2.862-2.337-5.2-5.2-5.2-2.862 0-5.2 2.337-5.2 5.2 0 2.875 2.337 5.2 5.2 5.2zm2.1 4.25c1.063-.237 2.075-.662 3.025-1.25.713-.45.925-1.387.475-2.1-.45-.713-1.387-.925-2.1-.475-2.125 1.337-4.875 1.337-7 0-.713-.45-1.65-.237-2.1.475-.45.713-.237 1.65.475 2.1.938.588 1.962 1.012 3.025 1.25l-2.913 2.913c-.6.6-.6 1.563 0 2.15.3.3.688.45 1.075.45.388 0 .775-.15 1.075-.45l2.85-2.862 2.862 2.862c.6.6 1.563.6 2.15 0 .6-.6.6-1.563 0-2.15l-2.9-2.912"/></svg>