<svg xmlns="http://www.w3.org/2000/svg" viewBox="-113 50 32 32" enable-background="new -113 50 32 32"><style type="text/css">.st0{fill:#FFFFFF;}</style><path class="st0" d="M-97 59c1.2 0 2.2 1 2.2 2.2s-1 2.2-2.2 2.2-2.2-1-2.2-2.2 1-2.2 2.2-2.2zm0 7.3c2.9 0 5.2-2.3 5.2-5.2 0-2.9-2.3-5.2-5.2-5.2-2.9 0-5.2 2.3-5.2 5.2 0 2.9 2.3 5.2 5.2 5.2zm2.1 4.3c1.1-.2 2.1-.7 3-1.3.7-.4.9-1.4.5-2.1s-1.4-.9-2.1-.5c-2.1 1.3-4.9 1.3-7 0-.7-.4-1.7-.2-2.1.5-.5.7-.2 1.7.5 2.1.9.6 2 1 3 1.3l-2.9 2.9c-.6.6-.6 1.6 0 2.2.3.3.7.4 1.1.4s.8-.1 1.1-.4l2.8-2.9 2.9 2.9c.6.6 1.6.6 2.2 0 .6-.6.6-1.6 0-2.2l-3-2.9"/></svg>