<svg xmlns="http://www.w3.org/2000/svg" viewBox="0 0 83 13" enable-background="new 0 0 83 13"><style type="text/css">.st0{fill:#0C80C3;} .st1{fill:#3FB55B;}</style><path class="st0" d="M5.7 2v1.9h-1.4v7.5h-2.5v-7.5h-1.4v-1.9h5.3zM6.3 2h2.4c.8 0 1.3.1 1.7.2.4.1.7.4 1 .7.2.4.4.9.4 1.8 0 .5-.1.9-.3 1.1-.2.2-.5.4-1 .5.5.2.9.4 1.1.7.2.3.3.7.3 1.4v.9c0 .6-.1 1.1-.2 1.4-.1.3-.4.5-.7.6-.3.1-1 .2-1.9.2h-2.8v-9.5zm2.4 1.6v2.1h.2c.2 0 .4-.1.5-.2s.1-.5.1-1c0-.3 0-.5-.1-.6s-.1-.2-.2-.2-.3-.1-.5-.1zm0 3.6v2.6c.3 0 .6-.1.7-.2.1-.1.1-.3.1-.7v-.9c0-.4 0-.6-.1-.7-.1-.1-.3-.1-.7-.1zM18.4 7.5c0 .9 0 1.6-.1 2 0 .4-.2.7-.4 1.1-.2.3-.5.6-.9.7-.4.2-.9.3-1.4.3-.5 0-1-.1-1.3-.2-.4-.2-.7-.4-1-.7-.2-.3-.4-.7-.4-1.1 0-.4-.1-1.1-.1-2v-1.7c0-.9 0-1.6.1-2 0-.4.2-.7.4-1.1.2-.3.5-.6.9-.7.4-.2.9-.3 1.4-.3.5 0 1 .1 1.3.2.4.2.7.4 1 .7.2.3.4.7.4 1.1s.1 1.1.1 2v1.7zm-2.5-3.1c0-.4 0-.7-.1-.8 0-.1-.1-.2-.3-.2-.1 0-.2 0-.3.1-.1.1-.1.4-.1.9v4.4c0 .5 0 .9.1 1 0 .1.1.2.3.2.2 0 .3-.1.3-.2s.1-.5.1-1v-4.4zM24.7 11.4h-2v-4.3l-1.3 4.3h-2.1v-9.4h2v4.2l1.4-4.2h2v9.4zm-2.1-11.4h1c0 .5-.2.9-.5 1.3s-.6.4-1.1.4c-.5 0-.9-.2-1.2-.5-.3-.3-.4-.7-.5-1.3h1c0 .5.3.8.7.8.4.1.6-.2.6-.7z"/><path class="st1" d="M31.3 11.4h-2.4v-7.5h-.7v7.5h-2.4v-9.4h5.6v9.4zM37.8 7.5c0 .9 0 1.6-.1 2 0 .4-.2.7-.4 1.1s-.5.6-.9.7c-.4.2-.9.3-1.4.3-.5 0-1-.1-1.3-.2-.4-.2-.7-.4-1-.7-.2-.3-.4-.7-.4-1.1 0-.4-.1-1.1-.1-2v-1.7c0-.9 0-1.6.1-2 0-.4.2-.7.4-1.1s.5-.6.9-.7c.4-.2.8-.3 1.4-.3.5 0 1 .1 1.3.2.4.2.7.4 1 .7s.4.7.4 1.1c0 .4.1 1.1.1 2v1.7zm-2.5-3.1c0-.4 0-.7-.1-.8 0-.1-.1-.2-.3-.2-.1 0-.2 0-.3.1-.1.1-.1.4-.1.9v4.4c0 .5 0 .9.1 1 0 .1.1.2.3.2.2 0 .3-.1.3-.2s.1-.5.1-1v-4.4zM44.4 6.1h-2.4v-1.6c0-.5 0-.8-.1-.9-.1-.1-.2-.2-.3-.2-.2 0-.3.1-.4.2-.1.2-.2.5-.2 1v4.3c0 .5 0 .8.1.9s.2.2.4.2.3-.1.4-.2c.1-.1.1-.5.1-1v-1.2h2.4v.4c0 1-.1 1.7-.2 2.1-.1.4-.4.8-.9 1.1-.5.3-1 .5-1.7.5s-1.3-.1-1.8-.4-.8-.6-.9-1.1c-.2-.5-.2-1.1-.2-2.1v-2.8c0-.7 0-1.2.1-1.5 0-.3.2-.7.4-1s.5-.6 1-.7.9-.3 1.4-.3c.7 0 1.3.1 1.8.4.5.3.8.6.9 1 .1.4.2 1.1.2 1.9v1zM45.2 2h2.4c.7 0 1.2.1 1.5.2.4.1.6.3.8.5.2.2.3.4.4.7s.1.7.1 1.3v.8c0 .6-.1 1-.2 1.3s-.3.5-.7.6c-.3.1-.8.2-1.3.2h-.7v3.8h-2.4v-9.4zm2.5 1.6v2.4h.2c.2 0 .4-.1.5-.2s.1-.3.1-.7v-.7c0-.3-.1-.5-.2-.6-.1-.1-.3-.2-.6-.2zM51.2 2h4.1v1.9h-1.6v1.8h1.5v1.8h-1.5v2.1h1.8v1.9h-4.2v-9.5zM63 13h-1.7v-1.6h-3.9v1.6h-1.7v-3.6h.5c.3-.8.5-1.8.6-3s.3-2.6.3-4.1v-.3h5.4v7.4h.5v3.6zm-2.9-3.6v-5.5h-.7v.1c0 1.8-.2 3.6-.6 5.5h1.3zM69.4 2v9.4h-2.4v-3.9h-.7v3.9h-2.4v-9.4h2.4v3.3h.7v-3.3h2.4zM75.8 11.4h-2v-4.3l-1.3 4.3h-2.1v-9.4h2v4.2l1.4-4.2h2v9.4zM76.8 2h2.4v4c.5 0 .7-.3.7-.8v-1.8c0-.7.1-1.1.4-1.4h2.2c-.2.2-.3.7-.3 1.4v1.6c0 1-.5 1.5-1.6 1.7 1.1.1 1.6.7 1.6 1.7v1.5c0 .7.1 1.2.3 1.5h-2.2c-.2-.2-.3-.7-.3-1.4v-1.8c0-.2-.1-.4-.2-.6-.1-.1-.3-.2-.5-.2v4h-2.4v-9.4z"/></svg>