<svg xmlns="http://www.w3.org/2000/svg" viewBox="0 0 600 53" enable-background="new 0 0 600 53"><path fill="#C8C8C8" d="M592.5 0h-585c-4.2 0-7.5 3.3-7.5 7.4v45.6h600v-45.6c0-4.1-3.3-7.4-7.5-7.4z"/><path fill="#E76D6B" d="M13.5 9.6c2.5 0 4.5 2 4.5 4.5s-2 4.5-4.5 4.5-4.5-1.9-4.5-4.4 2-4.6 4.5-4.6z"/><path fill="#DFBC43" d="M28.5 9.6c2.5 0 4.5 2 4.5 4.5s-2 4.5-4.5 4.5-4.5-2-4.5-4.5 2-4.5 4.5-4.5z"/><path fill="#36D488" d="M43.6 9.6c2.5 0 4.5 2 4.5 4.5s-2 4.5-4.5 4.5-4.5-2-4.5-4.5 1.9-4.5 4.5-4.5z"/><path fill="#969696" d="M587.8 14l1.3-1.3c.5-.5.5-1.3 0-1.8s-1.3-.5-1.8 0l-1.3 1.3-1.7-1.7v5.2h5.2l-1.7-1.7z"/><path fill="#E6E6E6" d="M202.5 26.9c-5.6 0-7.1-18-12-18h-128.3c-4.9 0-6.4 17.9-12 17.9h-50.2v26.1h600v-26.1h-397.5v.1zm-16.5-4.5c-2.5 0-4.5-2-4.5-4.5s2-4.5 4.5-4.5 4.5 2 4.5 4.5-2 4.5-4.5 4.5z"/><path fill="#969696" d="M591.2 6.9l-1.3 1.3c-.5.5-.5 1.3 0 1.8s1.3.5 1.8 0l1.3-1.3 1.7 1.7v-5.2h-5.2l1.7 1.7zm-572.4 33.1c0 .6-.5 1.1-1.1 1.1h-6.8c-.6 0-1.1-.5-1.1-1.1s.5-1.1 1.1-1.1h6.8c.6-.1 1.1.4 1.1 1.1zm-5.3-4.6c.4.4.4 1.1 0 1.6l-3.7 3.7c-.4.4-1.1.4-1.6 0-.4-.4-.4-1.1 0-1.6l3.7-3.7c.4-.4 1.1-.4 1.6 0zm0 9.1c.4-.4.4-1.1 0-1.6l-3.8-3.7c-.4-.4-1.1-.4-1.6 0-.4.4-.4 1.1 0 1.6l3.7 3.7c.5.5 1.2.5 1.7 0z"/><path fill="#CECECE" d="M28.4 40c0 .6.5 1.1 1.1 1.1h6.8c.6 0 1.1-.5 1.1-1.1s-.5-1.1-1.1-1.1h-6.8c-.6-.1-1.1.4-1.1 1.1zm5.4-4.6c-.4.4-.4 1.1 0 1.6l3.7 3.7c.4.4 1.1.4 1.6 0 .4-.4.4-1.1 0-1.6l-3.8-3.7c-.4-.4-1.1-.4-1.5 0zm0 9.1c-.4-.4-.4-1.1 0-1.6l3.7-3.7c.4-.4 1.1-.4 1.6 0 .4.4.4 1.1 0 1.6l-3.8 3.7c-.4.5-1.1.5-1.5 0z"/><path fill="#969696" d="M58.5 39.5v-5.2l-1.9 1.9c-.9-.9-2.2-1.5-3.7-1.5-2.9 0-5.2 2.3-5.2 5.2 0 2.9 2.3 5.2 5.2 5.2 2.5 0 4.6-1.7 5.1-4.1h-1.9c-.5 1.3-1.7 2.2-3.1 2.2-1.8 0-3.3-1.5-3.3-3.3s1.5-3.3 3.3-3.3c.9 0 1.8.4 2.4 1l-2 2c-.1.1 5.1-.1 5.1-.1zm533.2-3.3c0 .6-.5 1.1-1.1 1.1h-7.5c-.6 0-1.1-.5-1.1-1.1s.5-1.1 1.1-1.1h7.5c.6-.1 1.1.4 1.1 1.1zm0 3.8c0 .6-.5 1.1-1.1 1.1h-7.5c-.6 0-1.1-.5-1.1-1.1s.5-1.1 1.1-1.1h7.5c.6-.1 1.1.4 1.1 1.1zm0 3.7c0 .6-.5 1.1-1.1 1.1h-7.5c-.6 0-1.1-.5-1.1-1.1s.5-1.1 1.1-1.1h7.5c.6 0 1.1.5 1.1 1.1z"/><path fill="#fff" d="M69 31.3h501.8c1.6 0 3 1.3 3 3v11.2c0 1.6-1.3 3-3 3h-501.8c-1.6 0-3-1.3-3-3v-11.2c0-1.6 1.3-3 3-3z"/><path fill="#D6D6D6" d="M327.3 8.9h-129.3 1.3c4.7 0 6.3 16.8 11.5 17.9h128.6c-5.6 0-7.1-17.9-12.1-17.9zm-2.5 13.5c-2.5 0-4.5-2-4.5-4.5s2-4.5 4.5-4.5 4.5 2 4.5 4.5-2.1 4.5-4.5 4.5z"/><path fill="#E1E1E1" d="M561.4 42.7l-3.5 2.6 1.3-4.1-3.5-2.6h4.3l1.3-4.1 1.3 4.1h4.3l-3.5 2.6 1.3 4.1-3.3-2.6z"/><path fill="#F4F4F4" d="M74 36.2h104.4v7.4h-104.4v-7.4z"/></svg>