<svg xmlns="http://www.w3.org/2000/svg" viewBox="0 0 595.3 52.8" enable-background="new 0 0 595.3 52.8"><path fill="#C8C8C8" d="M587.8 0h-580.4c-4.1 0-7.4 3.3-7.4 7.4v45.4h595.2v-45.4c0-4.1-3.3-7.4-7.4-7.4z"/><path fill="#E76D6B" d="M13.4 9.6c2.5 0 4.5 2 4.5 4.5s-2 4.5-4.5 4.5-4.5-2-4.5-4.5 2-4.5 4.5-4.5z"/><path fill="#DFBC43" d="M28.3 9.6c2.5 0 4.5 2 4.5 4.5s-2 4.5-4.5 4.5-4.5-2-4.5-4.5 2-4.5 4.5-4.5z"/><path fill="#36D488" d="M43.2 9.6c2.5 0 4.5 2 4.5 4.5s-2 4.5-4.5 4.5-4.5-2-4.5-4.5 2-4.5 4.5-4.5z"/><path fill="#969696" d="M583.1 13.9l1.3-1.3c.5-.5.5-1.3 0-1.8s-1.3-.5-1.8 0l-1.3 1.3-1.7-1.7v5.2h5.2l-1.7-1.7z"/><path fill="#E6E6E6" d="M200.9 26.8c-5.6 0-7-17.9-11.9-17.9h-127.3c-4.9 0-6.3 17.8-11.9 17.8h-49.8v26h595.2v-26h-394.3v.1zm-16.4-4.5c-2.5 0-4.5-2-4.5-4.5s2-4.5 4.5-4.5 4.5 2 4.5 4.5-2 4.5-4.5 4.5z"/><path fill="#969696" d="M586.5 6.9l-1.3 1.3c-.5.5-.5 1.3 0 1.8s1.3.5 1.8 0l1.3-1.3 1.7 1.7v-5.2h-5.2l1.7 1.7zM18.6 39.8c0 .6-.5 1.1-1.1 1.1h-6.7c-.6 0-1.1-.5-1.1-1.1s.5-1.1 1.1-1.1h6.7c.6 0 1.1.5 1.1 1.1zM13.4 35.3c.4.4.4 1.1 0 1.6l-3.7 3.7c-.4.4-1.1.4-1.6 0-.4-.4-.4-1.1 0-1.6l3.7-3.7c.4-.4 1.1-.4 1.6 0zM13.4 44.3c.4-.4.4-1.1 0-1.6l-3.8-3.7c-.4-.4-1.1-.4-1.6 0-.4.4-.4 1.1 0 1.6l3.7 3.7c.5.5 1.2.5 1.7 0z"/><path fill="#CECECE" d="M28.2 39.8c0 .6.5 1.1 1.1 1.1h6.7c.6 0 1.1-.5 1.1-1.1s-.5-1.1-1.1-1.1h-6.7c-.6 0-1.1.5-1.1 1.1zM33.5 35.3c-.4.4-.4 1.1 0 1.6l3.7 3.7c.4.4 1.1.4 1.6 0 .4-.4.4-1.1 0-1.6l-3.8-3.7c-.4-.4-1.1-.4-1.5 0zM33.5 44.3c-.4-.4-.4-1.1 0-1.6l3.7-3.7c.4-.4 1.1-.4 1.6 0 .4.4.4 1.1 0 1.6l-3.8 3.7c-.4.5-1.1.5-1.5 0z"/><path fill="#969696" d="M58 39.4v-5.2l-1.9 1.9c-.9-.9-2.2-1.5-3.7-1.5-2.9 0-5.2 2.3-5.2 5.2 0 2.9 2.3 5.2 5.2 5.2 2.5 0 4.6-1.7 5.1-4.1h-1.9c-.5 1.3-1.7 2.2-3.1 2.2-1.8 0-3.3-1.5-3.3-3.3s1.5-3.3 3.3-3.3c.9 0 1.8.4 2.4 1l-2 2 5.1-.1zM587 36.1c0 .6-.5 1.1-1.1 1.1h-7.4c-.6 0-1.1-.5-1.1-1.1s.5-1.1 1.1-1.1h7.4c.6-.1 1.1.4 1.1 1.1zM587 39.8c0 .6-.5 1.1-1.1 1.1h-7.4c-.6 0-1.1-.5-1.1-1.1s.5-1.1 1.1-1.1h7.4c.6 0 1.1.5 1.1 1.1zM587 43.5c0 .6-.5 1.1-1.1 1.1h-7.4c-.6 0-1.1-.5-1.1-1.1s.5-1.1 1.1-1.1h7.4c.6 0 1.1.5 1.1 1.1z"/><path fill="#fff" d="M68.4 31.2h497.8c1.6 0 3 1.3 3 3v11.2c0 1.6-1.3 3-3 3h-497.8c-1.6 0-3-1.3-3-3v-11.2c.1-1.6 1.4-3 3-3z"/><path fill="#D6D6D6" d="M324.7 8.9h-128.3 1.3c4.7 0 6.2 16.7 11.4 17.8h127.6c-5.6 0-7.1-17.8-12-17.8zm-2.5 13.4c-2.5 0-4.5-2-4.5-4.5s2-4.5 4.5-4.5 4.5 2 4.5 4.5-2.1 4.5-4.5 4.5z"/><path fill="#E1E1E1" d="M556.9 42.5l-3.5 2.6 1.3-4.1-3.5-2.6h4.3l1.3-4.1 1.3 4.1h4.3l-3.5 2.6 1.3 4.1-3.3-2.6z"/><path fill="#F4F4F4" d="M73.4 36.1h103.6v7.4h-103.6z"/></svg>