<?xml version="1.0" encoding="UTF-8" standalone="no"?>
<svg width="2000px" height="720px" viewBox="0 0 2000 720" version="1.1" xmlns="http://www.w3.org/2000/svg" xmlns:xlink="http://www.w3.org/1999/xlink">
    <!-- Generator: Sketch 3.6.1 (26313) - http://www.bohemiancoding.com/sketch -->
    <title>Доставка груза</title>
    <desc>Created with Sketch.</desc>
    <defs>
        <linearGradient x1="54.2515555%" y1="56.926539%" x2="54.2515576%" y2="-86.8123878%" id="linearGradient-1">
            <stop stop-color="#FFE9D8" offset="0%"></stop>
            <stop stop-color="#FFFFFF" offset="100%"></stop>
        </linearGradient>
        <rect id="path-2" x="279" y="0" width="2004" height="605"></rect>
        <rect id="path-3" x="0" y="0" width="78" height="64"></rect>
        <rect id="path-5" x="0" y="0" width="78" height="64"></rect>
    </defs>
    <g id="Page-1" stroke="none" stroke-width="1" fill="none" fill-rule="evenodd">
        <g id="Доставка-груза">
            <g id="landscape" transform="translate(-279.000000, 0.000000)">
                <g id="sky-fill">
                    <use fill="url(#linearGradient-1)" fill-rule="evenodd" xlink:href="#path-2"></use>
                    <use fill="none" xlink:href="#path-2"></use>
                </g>
                <g id="sun" transform="translate(557.000000, 78.000000)" fill="#FFFFFF">
                    <path d="M178.5,357 C277.082828,357 357,277.082828 357,178.5 C357,79.9171722 277.082828,0 178.5,0 C79.9171722,0 0,79.9171722 0,178.5 C0,277.082828 79.9171722,357 178.5,357 Z" id="Oval-39" fill-opacity="0.15"></path>
                    <circle id="Oval-39" fill-opacity="0.15" cx="178.5" cy="178.5" r="136.5"></circle>
                    <circle id="Oval-39" fill-opacity="0.15" cx="177.625" cy="177.625" r="91.875"></circle>
                    <circle id="Oval-39" cx="175.875" cy="175.875" r="51.625"></circle>
                </g>
                <path d="M495.266131,290.261661 C589.744784,290.261661 654.42645,352.53375 772.612556,352.533749 C890.798663,352.533749 977.07292,295.301503 1093.2531,295.301502 C1209.43329,295.301502 1348.36031,353.385659 1488.85611,353.385658 C1629.35191,353.385656 1762.41147,295.265809 1855.20395,297.853872 C2016.79886,302.360894 2164.12897,392.867302 2389.25522,374.410739 C2614.38148,355.954176 2479.82518,744.795489 2479.82518,744.795489 L186.702271,910.157593 L141,331.517602 C141,331.517602 175.54169,348.31232 247.014787,348.312324 C318.487885,348.312328 400.787478,290.261661 495.266131,290.261661 Z" id="back-hills" fill="#C6F5DB"></path>
                <path d="M110.117279,380.046021 C196.083649,380.046021 68.4593652,310.547814 179.016779,310.547815 C289.574193,310.547815 459.150924,364.718355 553.484795,364.718353 C647.818665,364.71835 755.226184,324.134514 830.410969,324.134514 C905.595753,324.134514 1027.03702,375.706921 1119.56035,375.706924 C1212.08368,375.706927 1389.22807,312.994979 1497.9749,312.994979 C1606.72173,312.994979 1764.19182,395.196138 1928.01782,394.804834 C2072.27857,394.460262 2192.01933,311.519538 2315.07123,317.006161 C2438.12314,322.492785 2444.72879,346.341199 2491.3934,376.75848 C2554.7157,418.033707 2468.79809,774.885345 2468.79809,774.885345 L0.214530905,884.919442 C0.214530905,884.919442 24.1509094,380.046021 110.117279,380.046021 Z" id="mid-hills" fill="#8EEDB8"></path>
                <path d="M151.538218,401.717011 C254.361545,401.717011 402.843389,377.474682 501.025591,377.181315 C599.207792,376.887949 777.278381,424.048044 879.257866,424.048044 C981.237352,424.048044 1195.95688,374.264084 1314.30556,374.231121 C1432.65424,374.198159 1679.9536,436.527988 1832.17953,436.645956 C1971.80376,436.754159 2121.19269,398.557232 2292.87116,397.270772 C2464.54963,395.984312 2458.16857,774.117422 2458.16857,774.117422 L224.159804,784.551425 C224.159804,784.551425 48.7148923,401.717011 151.538218,401.717011 Z" id="front-hills" fill="#5BDD95"></path>
            </g>
            <g id="greens" transform="translate(269.000000, 397.000000)">
                <g id="pinetree" transform="translate(132.000000, 43.905977)">
                    <path d="M17.4838859,49.410982 L17.4838859,62.5251143" id="Path-181" stroke="#2B8E60" stroke-width="3" stroke-linejoin="round"></path>
                    <polygon id="Triangle-5-Copy" fill="#7AFFA7" points="18.499268 17.4838859 35.6199742 49.7920583 0 49.7920583 "></polygon>
                    <path d="M35.6199742,49.7920583 L26.0215838,33.3382409 C26.0215838,33.3382409 18.0548883,25.0303085 17.8326985,28.8035198 C17.8309035,28.834002 17.8273136,28.8949664 17.8273136,28.8949664 L22.7930627,40.9808675 C23.9998177,43.9179311 26.4133276,49.7920583 26.4133276,49.7920583 L35.6199742,49.7920583 Z" id="Combined-Shape" fill="#4CE580"></path>
                    <polygon id="Triangle-5-Copy" stroke="#2B8E60" stroke-width="3" stroke-linejoin="round" points="18.499268 17.4838859 35.6199742 49.7920583 0 49.7920583 "></polygon>
                    <polygon id="Triangle-5-Copy" fill="#7AFFA7" points="17.7535968 10.6423654 30.9461798 34.9677719 4.56101372 34.9677719 "></polygon>
                    <path d="M23.6520139,34.9566395 L30.281413,34.5997678 L23.3891475,20.3777064 L18.956105,20.4293512 L23.6520139,34.9566395 Z" id="Path-183" fill="#4CE580"></path>
                    <polygon id="Triangle-5-Copy" stroke="#2B8E60" stroke-width="3" stroke-linejoin="round" points="17.7535968 10.6423654 30.9461798 34.9677719 4.56101372 34.9677719 "></polygon>
                    <polygon id="Triangle-5" fill="#7AFFA7" points="17.5966666 0 26.8314747 21.2847307 8.36185849 21.2847307 "></polygon>
                    <polygon id="Triangle-5" stroke="#2B8E60" stroke-width="3" stroke-linejoin="round" points="17.5966666 0 26.8314747 21.2847307 8.36185849 21.2847307 "></polygon>
                </g>
                <g id="pinetree-copy" transform="translate(154.044900, 65.950876)">
                    <path d="M12.5670485,28.7490403 L12.5670485,39.8091519" id="Path-181" stroke="#2B8E60" stroke-width="3" stroke-linejoin="round"></path>
                    <polygon id="Triangle-5-Copy" fill="#7AFFA7" points="12.8195437 10.2598127 25.170047 33.7108131 0.469040418 33.7108131 "></polygon>
                    <path d="M18.3414661,33.7000809 L24.547712,33.3560374 L18.0953784,19.6452051 L13.9452961,19.6949935 L18.3414661,33.7000809 Z" id="Path-183" fill="#4CE580"></path>
                    <polygon id="Triangle-5-Copy" stroke="#2B8E60" stroke-width="3" stroke-linejoin="round" points="12.8195437 10.2598127 25.170047 33.7108131 0.469040418 33.7108131 "></polygon>
                    <polygon id="Triangle-5" fill="#7AFFA7" points="12.6726304 0 21.3179827 20.5196254 4.02727808 20.5196254 "></polygon>
                    <polygon id="Triangle-5" stroke="#2B8E60" stroke-width="3" stroke-linejoin="round" points="12.6726304 0 21.3179827 20.5196254 4.02727808 20.5196254 "></polygon>
                </g>
                <g id="tree3" transform="translate(27.000000, 27.000000)">
                    <ellipse id="Oval-11" fill="#4CE580" cx="22.6228855" cy="31.2810269" rx="22.6228855" ry="31.2810269"></ellipse>
                    <path d="M37.000231,7.12834439 C39.0603123,11.8431952 40.2457711,17.3706887 40.2457711,23.2810269 C40.2457711,40.557061 30.1171602,54.5620538 17.6228855,54.5620538 C12.162654,54.5620538 7.15422959,51.8873056 3.24554011,47.4337094 C1.18545874,42.7188586 0,37.1913651 0,31.2810269 C0,14.0049928 10.1286109,-3.55271368e-15 22.6228855,-3.55271368e-15 C28.083117,-3.55271368e-15 33.0915415,2.67474821 37.000231,7.12834439 L37.000231,7.12834439 Z" id="Combined-Shape" fill="#7AFFA7"></path>
                    <ellipse id="Oval-11" stroke="#2B8E60" stroke-width="3" stroke-linejoin="round" cx="22.6228855" cy="31.2810269" rx="22.6228855" ry="31.2810269"></ellipse>
                    <path d="M23,31 L23,86.750505" id="Path-103" stroke="#2B8E60" stroke-width="3" stroke-linejoin="round"></path>
                </g>
                <g id="tree4" transform="translate(703.000000, 0.000000)">
                    <ellipse id="Oval-11" fill="#4CE580" cx="29.8622089" cy="40.9889318" rx="29.8622089" ry="40.9889318"></ellipse>
                    <path d="M48.6644978,9.14326644 C52.0307043,15.7777902 54.0044178,23.8428482 54.0044178,32.540656 C54.0044178,55.1782179 40.6346515,73.5295878 24.1422089,73.5295878 C17.0163071,73.5295878 10.4733625,70.1036601 5.33991743,64.3863185 C1.97371354,57.7517976 3.55271368e-15,49.6867396 3.55271368e-15,40.9889318 C3.55271368e-15,18.3513699 13.3697663,0 29.8622089,0 C36.9881095,0 43.5310531,3.42592656 48.6644978,9.14326644 L48.6644978,9.14326644 Z" id="Combined-Shape" fill="#7AFFA7"></path>
                    <ellipse id="Oval-11" stroke="#2B8E60" stroke-width="3" stroke-linejoin="round" cx="29.8622089" cy="40.9889318" rx="29.8622089" ry="40.9889318"></ellipse>
                    <path d="M30,24 L30,114.052386" id="Path-103" stroke="#2B8E60" stroke-width="3" stroke-linejoin="round"></path>
                    <path d="M30.8063911,59.0699874 L48.5000003,36.5" id="Path-107" stroke="#2B8E60" stroke-width="3" stroke-linejoin="round"></path>
                    <path d="M30.3471831,45.3486526 L17.5,33.5" id="Path-108" stroke="#2B8E60" stroke-width="3" stroke-linejoin="round"></path>
                </g>
                <g id="tree2" transform="translate(769.000000, 27.000000)">
                    <ellipse id="Oval-11" fill="#4CE580" cx="22.6228855" cy="31.2810269" rx="22.6228855" ry="31.2810269"></ellipse>
                    <path d="M33.9848775,4.2253973 C37.2690384,9.65524809 39.2457711,16.648944 39.2457711,24.2810269 C39.2457711,41.557061 29.1171602,55.5620538 16.6228855,55.5620538 C12.4813896,55.5620538 8.59981707,54.0232783 5.26089361,51.3366565 C1.97673268,45.9068057 0,38.9131099 0,31.2810269 C0,14.0049928 10.1286109,-3.55271368e-15 22.6228855,-3.55271368e-15 C26.7643815,-3.55271368e-15 30.645954,1.53877553 33.9848775,4.2253973 L33.9848775,4.2253973 Z" id="Combined-Shape" fill="#7AFFA7"></path>
                    <ellipse id="Oval-11" stroke="#2B8E60" stroke-width="3" stroke-linejoin="round" cx="22.6228855" cy="31.2810269" rx="22.6228855" ry="31.2810269"></ellipse>
                    <path d="M23,31 L23,86.750505" id="Path-103" stroke="#2B8E60" stroke-width="3" stroke-linejoin="round"></path>
                </g>
                <g id="tree1" transform="translate(0.000000, 63.000000)">
                    <ellipse id="Oval-11" fill="#4CE580" cx="13.2786502" cy="18.3371537" rx="13.2786502" ry="18.3371537"></ellipse>
                    <path d="M1.75128832,27.4454063 C3.8905964,29.4819103 6.4837872,30.6743074 9.2786502,30.6743074 C16.6122462,30.6743074 22.5573004,22.4644841 22.5573004,12.3371537 C22.5573004,9.34320659 22.0377184,6.51684452 21.1162824,4.02064407 L21.1162836,4.0206473 C20.7734554,3.4987641 20.4091519,3.00427767 20.0252997,2.53984867 C18.048129,0.926078346 15.7417042,0 13.2786502,0 C5.9450542,0 0,8.20982336 0,18.3371537 C0,21.6522775 0.637038038,24.7619322 1.75128832,27.4454063 L1.75128832,27.4454063 Z" id="Combined-Shape" fill="#7AFFA7"></path>
                    <ellipse id="Oval-11" stroke="#2B8E60" stroke-width="3" stroke-linejoin="round" cx="13.2786502" cy="18.3371537" rx="13.2786502" ry="18.3371537"></ellipse>
                    <path d="M13.5,18 L13.5,50.6813305" id="Path-103" stroke="#2B8E60" stroke-width="3"></path>
                </g>
                <g id="bush-1" transform="translate(73.000000, 75.000000)">
                    <ellipse id="bush" fill="#4CE580" cx="22.6228855" cy="21" rx="22.6228855" ry="21"></ellipse>
                    <path d="M34.4908156,3.11821254 C37.4709844,6.67498275 39.2457711,11.1450978 39.2457711,16 C39.2457711,27.5979797 29.1171602,37 16.6228855,37 C12.2704447,37 8.20507968,35.8590547 4.75495544,33.8817875 C1.77478672,30.3250173 0,25.8549022 0,21 C0,9.40202025 10.1286109,0 22.6228855,0 C26.9753264,0 31.0406914,1.14094535 34.4908156,3.11821254 L34.4908156,3.11821254 Z" id="Combined-Shape" fill="#7AFFA7"></path>
                    <ellipse id="bush" stroke="#2B8E60" stroke-width="3" stroke-linejoin="round" cx="22.6228855" cy="21" rx="22.6228855" ry="21"></ellipse>
                </g>
                <g id="bush-1" transform="translate(1059.000000, 72.000000)">
                    <ellipse id="bush" fill="#4CE580" cx="22.6228855" cy="21" rx="22.6228855" ry="21"></ellipse>
                    <path d="M34.4908156,3.11821254 C37.4709844,6.67498275 39.2457711,11.1450978 39.2457711,16 C39.2457711,27.5979797 29.1171602,37 16.6228855,37 C12.2704447,37 8.20507968,35.8590547 4.75495544,33.8817875 C1.77478672,30.3250173 0,25.8549022 0,21 C0,9.40202025 10.1286109,0 22.6228855,0 C26.9753264,0 31.0406914,1.14094535 34.4908156,3.11821254 L34.4908156,3.11821254 Z" id="Combined-Shape" fill="#7AFFA7"></path>
                    <ellipse id="bush" stroke="#2B8E60" stroke-width="3" stroke-linejoin="round" cx="22.6228855" cy="21" rx="22.6228855" ry="21"></ellipse>
                </g>
                <g id="bush-2" transform="translate(435.000000, 67.000000)">
                    <ellipse id="bush" fill="#4CE580" cx="28.0523781" cy="26.0217391" rx="28.0523781" ry="26.0217391"></ellipse>
                    <path d="M41.4508078,3.15430705 C46.1721136,7.8109444 49.0647561,14.0812491 49.0647561,20.9782609 C49.0647561,35.3496706 36.5052787,47 21.0123781,47 C16.1598803,47 11.5951489,45.8571127 7.61394836,43.845693 C2.89264248,39.1890556 3.55271368e-15,32.9187509 3.55271368e-15,26.0217391 C3.55271368e-15,11.6503294 12.5594775,0 28.0523781,0 C32.9048758,0 37.4696072,1.14288732 41.4508078,3.15430705 L41.4508078,3.15430705 Z" id="Combined-Shape" fill="#7AFFA7"></path>
                    <ellipse id="bush" stroke="#2B8E60" stroke-width="3" stroke-linejoin="round" cx="28.0523781" cy="26.0217391" rx="28.0523781" ry="26.0217391"></ellipse>
                    <path d="M27.6048391,44.8834869 L27.6048391,18.1505088" id="Path-109" stroke="#2B8E60" stroke-width="3" stroke-linejoin="round"></path>
                    <path d="M27.8906286,32.5172403 L34.644314,25.1721434" id="Path-110" stroke="#2B8E60" stroke-width="3" stroke-linejoin="round"></path>
                </g>
                <g id="bush-2" transform="translate(1242.000000, 68.000000)">
                    <ellipse id="bush" fill="#4CE580" cx="28.0523781" cy="26.0217391" rx="28.0523781" ry="26.0217391"></ellipse>
                    <path d="M41.4508078,3.15430705 C46.1721136,7.8109444 49.0647561,14.0812491 49.0647561,20.9782609 C49.0647561,35.3496706 36.5052787,47 21.0123781,47 C16.1598803,47 11.5951489,45.8571127 7.61394836,43.845693 C2.89264248,39.1890556 3.55271368e-15,32.9187509 3.55271368e-15,26.0217391 C3.55271368e-15,11.6503294 12.5594775,0 28.0523781,0 C32.9048758,0 37.4696072,1.14288732 41.4508078,3.15430705 L41.4508078,3.15430705 Z" id="Combined-Shape" fill="#7AFFA7"></path>
                    <ellipse id="bush" stroke="#2B8E60" stroke-width="3" stroke-linejoin="round" cx="28.0523781" cy="26.0217391" rx="28.0523781" ry="26.0217391"></ellipse>
                    <path d="M27.6048391,44.8834869 L27.6048391,18.1505088" id="Path-109" stroke="#2B8E60" stroke-width="3" stroke-linejoin="round"></path>
                    <path d="M27.8906286,32.5172403 L34.644314,25.1721434" id="Path-110" stroke="#2B8E60" stroke-width="3" stroke-linejoin="round"></path>
                </g>
                <g id="pinetree" transform="translate(842.000000, 24.000000)">
                    <path d="M23,65 L23,82.2516021" id="Path-181" stroke="#2B8E60" stroke-width="3" stroke-linejoin="round"></path>
                    <polygon id="Triangle-5-Copy" fill="#7AFFA7" points="24.3357321 23 46.8579702 65.5013047 0 65.5013047 "></polygon>
                    <path d="M46.8579702,65.5013047 L34.2313162,43.8563569 C34.2313162,43.8563569 23.7511519,32.9272965 23.4588619,37.8909447 C23.4565006,37.931044 23.451778,38.0112425 23.451778,38.0112425 C23.451778,38.0112425 27.8067302,48.6105538 29.9842063,53.9102094 C31.5716888,57.7739079 34.7466539,65.5013047 34.7466539,65.5013047 L46.8579702,65.5013047 Z" id="Combined-Shape" fill="#4CE580"></path>
                    <polygon id="Triangle-5-Copy" stroke="#2B8E60" stroke-width="3" stroke-linejoin="round" points="24.3357321 23 46.8579702 65.5013047 0 65.5013047 "></polygon>
                    <polygon id="Triangle-5-Copy" fill="#7AFFA7" points="23.3548038 14 40.7096076 46 6 46 "></polygon>
                    <path d="M31.114154,45.9853553 L39.8351088,45.5158917 L30.768354,26.8068122 L24.9366998,26.8747508 L31.114154,45.9853553 Z" id="Path-183" fill="#4CE580"></path>
                    <polygon id="Triangle-5-Copy" stroke="#2B8E60" stroke-width="3" stroke-linejoin="round" points="23.3548038 14 40.7096076 46 6 46 "></polygon>
                    <polygon id="Triangle-5" fill="#7AFFA7" points="23.1483626 0 35.2967253 28 11 28 "></polygon>
                    <polygon id="Triangle-5" stroke="#2B8E60" stroke-width="3" stroke-linejoin="round" points="23.1483626 0 35.2967253 28 11 28 "></polygon>
                </g>
                <g id="pinetree" transform="translate(1207.000000, 43.000000)">
                    <path d="M21.5319149,54.8192771 L21.5319149,69.368821" id="Path-181" stroke="#2B8E60" stroke-width="3" stroke-linejoin="round"></path>
                    <polygon id="Triangle-5-Copy" fill="#7AFFA7" points="22.7823875 19.3975904 43.8670359 55.2420642 0 55.2420642 "></polygon>
                    <path d="M43.8670359,55.2420642 L32.0463385,36.9872889 C32.0463385,36.9872889 22.235121,27.7700091 21.9614877,31.9562184 C21.9592771,31.9900371 21.954856,32.0576744 21.954856,32.0576744 L28.0703208,45.4664417 C29.5564746,48.7249825 32.5287824,55.2420642 32.5287824,55.2420642 L43.8670359,55.2420642 Z" id="Combined-Shape" fill="#4CE580"></path>
                    <polygon id="Triangle-5-Copy" stroke="#2B8E60" stroke-width="3" stroke-linejoin="round" points="22.7823875 19.3975904 43.8670359 55.2420642 0 55.2420642 "></polygon>
                    <polygon id="Triangle-5-Copy" fill="#7AFFA7" points="21.8640716 11.8072289 38.111122 38.7951807 5.61702128 38.7951807 "></polygon>
                    <path d="M29.1281442,38.7828298 L37.2924422,38.3868966 L28.8044165,22.6081548 L23.3449956,22.6654525 L29.1281442,38.7828298 Z" id="Path-183" fill="#4CE580"></path>
                    <polygon id="Triangle-5-Copy" stroke="#2B8E60" stroke-width="3" stroke-linejoin="round" points="21.8640716 11.8072289 38.111122 38.7951807 5.61702128 38.7951807 "></polygon>
                    <polygon id="Triangle-5" fill="#7AFFA7" points="21.6708076 0 33.0437428 23.6144578 10.2978723 23.6144578 "></polygon>
                    <polygon id="Triangle-5" stroke="#2B8E60" stroke-width="3" stroke-linejoin="round" points="21.6708076 0 33.0437428 23.6144578 10.2978723 23.6144578 "></polygon>
                </g>
                <g id="pinetree-copy" transform="translate(871.000000, 53.000000)">
                    <path d="M16.5319149,37.8192771 L16.5319149,52.368821" id="Path-181" stroke="#2B8E60" stroke-width="3" stroke-linejoin="round"></path>
                    <polygon id="Triangle-5-Copy" fill="#7AFFA7" points="16.8640716 13.4967531 33.111122 44.3464745 0.617021277 44.3464745 "></polygon>
                    <path d="M24.1281442,44.3323562 L32.2924422,43.879768 L23.8044165,25.8432089 L18.3449956,25.9087054 L24.1281442,44.3323562 Z" id="Path-183" fill="#4CE580"></path>
                    <polygon id="Triangle-5-Copy" stroke="#2B8E60" stroke-width="3" stroke-linejoin="round" points="16.8640716 13.4967531 33.111122 44.3464745 0.617021277 44.3464745 "></polygon>
                    <polygon id="Triangle-5" fill="#7AFFA7" points="16.6708076 0 28.0437428 26.9935062 5.29787234 26.9935062 "></polygon>
                    <polygon id="Triangle-5" stroke="#2B8E60" stroke-width="3" stroke-linejoin="round" points="16.6708076 0 28.0437428 26.9935062 5.29787234 26.9935062 "></polygon>
                </g>
            </g>
            <path d="M2060.03407,527 C2071.34592,527 2080.51599,522.075132 2080.51599,516 C2080.51599,509.924868 2071.34592,505 2060.03407,505 L-13.5180837,505 C-24.8299337,505 -34,509.924868 -34,516 C-34,522.075132 -24.8299337,527 -13.5180837,527 L2060.03407,527 Z" id="road" stroke="#2B8E60" stroke-width="3" fill="#D8D8D8"></path>
            <g id="bush-2" transform="translate(569.000000, 466.000000)">
                <mask id="mask-4" fill="white">
                    <use xlink:href="#path-3"></use>
                </mask>
                <use id="Mask" xlink:href="#path-3"></use>
                <g mask="url(#mask-4)">
                    <g transform="translate(18.000000, 26.000000)">
                        <ellipse id="bush" stroke="none" fill="#4CE580" fill-rule="evenodd" cx="23.7218557" cy="22.0046921" rx="23.7218557" ry="22.0046921"></ellipse>
                        <path d="M30.0304724,0.786641982 C36.3149617,4.74468293 40.4437114,11.4274293 40.4437114,19.0046921 C40.4437114,31.1575479 29.8230749,41.0093841 16.7218557,41.0093841 C14.5374451,41.0093841 12.4219948,40.7355029 10.4132354,40.2227398 C4.12874809,36.2646986 0,29.5819534 0,22.0046921 C0,9.85183621 10.6206366,0 23.7218557,0 C25.9062663,0 28.0217167,0.273881256 30.0304761,0.786644287 L30.0304724,0.786641982 Z" id="Combined-Shape" stroke="none" fill="#7AFFA7" fill-rule="evenodd"></path>
                        <ellipse id="bush" stroke="#2B8E60" stroke-width="3" stroke-linejoin="round" fill="none" cx="23.7218557" cy="22.0046921" rx="23.7218557" ry="22.0046921"></ellipse>
                    </g>
                </g>
            </g>
            <g id="bush-2-copy" transform="translate(1383.000000, 466.000000)">
                <mask id="mask-6" fill="white">
                    <use xlink:href="#path-5"></use>
                </mask>
                <use id="Mask" xlink:href="#path-5"></use>
                <g id="bush-2" mask="url(#mask-6)">
                    <g transform="translate(18.000000, 15.000000)">
                        <ellipse id="bush" stroke="none" fill="#4CE580" fill-rule="evenodd" cx="29.6523196" cy="27.3836168" rx="29.6523196" ry="27.3836168"></ellipse>
                        <path d="M37.5380905,0.978932245 C45.3937022,5.90449431 50.5546393,14.2208009 50.5546393,23.6502835 C50.5546393,38.7738374 37.2788436,51.0339003 20.9023196,51.0339003 C18.1718064,51.0339003 15.5274935,50.6930702 13.0165442,50.0549651 C5.16093511,45.1294027 0,36.8130976 0,27.3836168 C0,12.2600628 13.2757957,0 29.6523196,0 C32.3828329,0 35.0271458,0.340830008 37.5380951,0.978935113 L37.5380905,0.978932245 Z" id="Combined-Shape" stroke="none" fill="#7AFFA7" fill-rule="evenodd"></path>
                        <ellipse id="bush" stroke="#2B8E60" stroke-width="3" stroke-linejoin="round" fill="none" cx="29.6523196" cy="27.3836168" rx="29.6523196" ry="27.3836168"></ellipse>
                    </g>
                </g>
            </g>
            <g id="box-copy" transform="translate(832.000000, 434.000000)">
                <g id="box-frame">
                    <rect id="Rectangle-54" fill="#FFFFFF" x="0" y="0" width="48.5897674" height="49"></rect>
                    <rect id="Rectangle-54" fill="#D9B383" x="4.74046512" y="4.7804878" width="43.8493023" height="44.2195122"></rect>
                    <rect id="Rectangle-54" stroke="#866F52" stroke-width="3" x="0" y="0" width="48.5897674" height="49"></rect>
                </g>
                <rect id="Rectangle-61" fill="#866F52" x="18.9618605" y="0" width="10.2710078" height="15.5365854"></rect>
                <path d="M14.6319342,35.1505418 L14.6319342,40.6506695 L13.3783947,40.6506695 L13.3783947,35.1505418 L12.1248553,35.1505418 L14.0051644,31.6147455 L15.8854736,35.1505418 L14.6319342,35.1505418 Z M9.6177765,35.1505418 L9.6177765,40.6506695 L8.36423709,40.6506695 L8.36423709,35.1505418 L7.11069767,35.1505418 L8.99100679,31.6147455 L10.8713159,35.1505418 L9.6177765,35.1505418 Z M7.11069767,41.0435358 L15.8854736,41.0435358 L15.8854736,41.8292683 L7.11069767,41.8292683 L7.11069767,41.0435358 Z" id="Combined-Shape" fill="#866F52"></path>
                <path d="M24.1952157,36.0626454 C23.9927339,35.7230887 23.6116908,35.512707 23.1974888,35.512707 C22.7789585,35.512707 22.393932,35.727212 22.1923781,36.0725127 C22.157279,36.1323051 22.0902716,36.1696753 22.0174143,36.1696753 C21.9442912,36.1696753 21.8772838,36.1323051 21.8424506,36.0722636 C21.6411626,35.7269629 21.256402,35.512707 20.8381376,35.512707 C20.4964532,35.512707 20.1768386,35.6522225 19.9606601,35.8951288 C19.9053524,35.9574125 19.8133502,35.9790872 19.7330477,35.9489419 C19.6530111,35.9187966 19.6024897,35.8435579 19.6086054,35.7628383 C19.7723668,33.4924416 21.7708106,31.702403 24.1952158,31.6178695 L24.1952158,31.1469461 C24.1952158,31.0006222 24.3206312,30.8820032 24.4753389,30.8820032 C24.6300467,30.8820032 24.7554621,31.0006222 24.7554621,31.1469461 L24.7554534,31.6288621 C27.0728956,31.8012443 28.9566395,33.5323658 29.1374802,35.7187414 C29.1438619,35.7366791 29.1470527,35.7556134 29.1470527,35.7750459 C29.1470527,35.8781877 29.0577095,35.9618969 28.9423079,35.9618969 C28.8846071,35.9618969 28.82797,35.9382291 28.7894141,35.8948797 C28.5724378,35.6522225 28.2528233,35.512707 27.9130001,35.512707 C27.4950017,35.512707 27.1099752,35.7269629 26.9097508,36.0720145 C26.8749176,36.1320559 26.8079102,36.1696753 26.7342552,36.1696753 C26.661398,36.1696753 26.5946565,36.1323051 26.5595574,36.0725127 C26.3580035,35.727212 25.972977,35.512707 25.5547126,35.512707 C25.2512161,35.512707 24.9659574,35.6270879 24.7553782,35.8220871 L24.7553045,39.9253212 C24.7553884,39.9278479 24.7553884,39.9278479 24.75548,39.9321009 C24.758407,40.0921044 24.7253286,40.2965861 24.619641,40.5034467 C24.4289492,40.8766847 24.059463,41.1070836 23.5153819,41.1070836 C22.9713009,41.1070835 22.60184,40.8767165 22.4112108,40.5035193 C22.3055835,40.2967315 22.2725336,40.0923063 22.27548,39.9322849 C22.275573,39.9279953 22.275573,39.9279953 22.275658,39.9254512 C22.2808782,39.7792106 22.410454,39.6646617 22.5650737,39.669599 C22.7196933,39.6745363 22.8408055,39.7970903 22.8355853,39.9433309 C22.8356398,39.9416399 22.8356398,39.9416399 22.8356414,39.9415113 C22.8340864,40.0259647 22.8547433,40.1537349 22.9156703,40.2730124 C23.0148402,40.4671586 23.19132,40.5771977 23.5153819,40.5771977 C23.8394438,40.5771978 24.0159721,40.4671208 24.1152024,40.2728989 C24.1761826,40.1535433 24.1968622,40.0257077 24.1953175,39.9412678 C24.1953193,39.9414057 24.1953193,39.9414057 24.1952157,39.934205 L24.1952157,36.0626432 Z" id="Combined-Shape" fill="#866F52"></path>
            </g>
            <rect id="Rectangle-76" fill="#696969" x="841" y="505" width="111" height="15"></rect>
            <g id="truck-icon" transform="translate(778.000000, 403.000000)">
                <g id="cabin" transform="translate(131.000000, 25.000000)">
                    <path d="M0,1.00034803 C0,0.44787107 0.448094851,0 1.00765081,0 L40.4670571,0 C41.5665938,0 42.8261224,0.821944584 43.2751114,1.82429709 L57.2504559,33.0237746 C57.4749805,33.5250182 58.0023154,34.2060857 58.4450324,34.5583002 L65.4081256,40.0979622 C65.8433474,40.4442137 66.1961643,41.1686058 66.1961643,41.7186304 L66.1961643,74.8237512 C66.1961643,75.37257 65.755948,75.8174756 65.1959932,75.8174756 L1.00017113,75.8174756 C0.447791869,75.8174756 0,75.3722282 0,74.8171276 L0,1.00034803 Z" id="cabin-overlay" stroke="#000000" stroke-width="2" fill="#FFFFFF"></path>
                    <path d="M0.507433015,1.98402926 C0.507433015,1.43155229 0.955527866,0.983681224 1.51508383,0.983681224 L40.9744901,0.983681224 C42.0740269,0.983681224 43.362393,1.78997696 43.8505857,2.78144375 L57.9536919,31.4233338 C58.1995979,31.9227425 58.7442658,32.6023225 59.1869828,32.954537 L66.150076,38.494199 C66.5852978,38.8404505 66.9353176,39.5705566 66.9318419,40.1289921 L66.7284728,72.804408 C66.7147344,75.0117514 64.9158824,76.8011568 62.7118045,76.8011568 L1.50760415,76.8011568 C0.955224885,76.8011568 0.507433015,76.3559094 0.507433015,75.8008088 L0.507433015,1.98402926 Z" id="cabin-fill" fill="#FFD600" style="mix-blend-mode: multiply;"></path>
                </g>
                <path d="M145.014619,29.1666667 L168.793035,29.1666667 C170.229714,29.188385 171.049458,29.8721011 171.41489,30.736084 L179.551522,49.932251 C180.56302,51.584554 179.150795,51.3333333 178.173254,51.3333333 L145.010058,51.3333333 C143.331455,51.3632406 143.267045,50.5703065 143.267045,49.6307588 L143.267045,30.8692412 C143.267045,30.0216639 143.386196,29.1668091 145.014619,29.1666667 Z" id="Path" stroke="#000000" fill="#CDFFE3"></path>
                <path d="M145.19951,50.1691385 C145.19951,50.1671496 157.26529,50.1510722 157.26529,50.1510722 C157.26529,50.1510722 163.414863,30.3074759 163.137648,30.3074759 L152.611705,30.3071836 C152.611475,30.3071836 145.19951,50.1691385 145.19951,50.1691385 Z" id="Path" fill="#FFFFFF"></path>
                <rect id="Rectangle-74" stroke="#000000" stroke-width="2" fill="#D8D8D8" x="0" y="66" width="132" height="29.1666667"></rect>
                <rect id="Rectangle-74" fill="#BCB4B4" x="2" y="68" width="128" height="5.83333333"></rect>
                <path d="M26.639866,102.368254 L200,102.368254 L200,94.786506 L26.639866,94.786506 L26.639866,102.368254 L26.639866,102.368254 Z" id="lower-frame" fill="#000000"></path>
                <path d="M64.2334377,107.702892 L64.2334377,107.702892 C68.3544792,107.702892 71.6952434,104.354854 71.6952434,100.22484 C71.6952434,96.0948262 68.3544792,92.7467883 64.2334377,92.7467883 C60.1123962,92.7467883 56.771632,96.0948262 56.771632,100.22484 C56.771632,104.354854 60.1123962,107.702892 64.2334377,107.702892 L64.2334377,107.702892 Z" id="Path" fill="#FFFFFF"></path>
                <path d="M64.2334377,107.702892 L64.2334377,107.702892 C68.3544792,107.702892 71.6952434,104.354854 71.6952434,100.22484 C71.6952434,96.0948262 68.3544792,92.7467883 64.2334377,92.7467883 C60.1123962,92.7467883 56.771632,96.0948262 56.771632,100.22484 C56.771632,104.354854 60.1123962,107.702892 64.2334377,107.702892 L64.2334377,107.702892 Z M64.2334377,117.050458 L64.2334377,117.050458 C54.9610943,117.050458 47.4443748,109.517372 47.4443748,100.22484 C47.4443748,90.9323086 54.9610943,83.3992232 64.2334377,83.3992232 C73.5057811,83.3992232 81.0225006,90.9323086 81.0225006,100.22484 C81.0225006,109.517372 73.5057811,117.050458 64.2334377,117.050458 L64.2334377,117.050458 Z" id="wheel-left" fill="#000000"></path>
                <path d="M174.984169,107.670403 L174.984169,107.670403 C179.099702,107.670403 182.436,104.326841 182.436,100.202348 C182.436,96.0778547 179.099702,92.7342924 174.984169,92.7342924 C170.868637,92.7342924 167.532338,96.0778547 167.532338,100.202348 C167.532338,104.326841 170.868637,107.670403 174.984169,107.670403 L174.984169,107.670403 Z M174.984169,117.005473 L174.984169,117.005473 C165.724221,117.005473 158.21755,109.482457 158.21755,100.202348 C158.21755,90.9222383 165.724221,83.3992232 174.984169,83.3992232 C184.244117,83.3992232 191.750788,90.9222383 191.750788,100.202348 C191.750788,109.482457 184.244117,117.005473 174.984169,117.005473 L174.984169,117.005473 Z" id="wheel-right" fill="#000000"></path>
                <path d="M174.984169,107.670403 L174.984169,107.670403 C179.099702,107.670403 182.436,104.326841 182.436,100.202348 C182.436,96.0778547 179.099702,92.7342924 174.984169,92.7342924 C170.868637,92.7342924 167.532338,96.0778547 167.532338,100.202348 C167.532338,104.326841 170.868637,107.670403 174.984169,107.670403 L174.984169,107.670403 Z" id="Path" fill="#FFFFFF"></path>
                <path d="M143.939806,62.5494174 L153.199773,62.5494174 C154.24432,62.5494174 155.091092,61.7008014 155.091092,60.6539805 C155.091092,59.6071596 154.24432,58.7585436 153.199773,58.7585436 L143.939806,58.7585436 C142.89526,58.7585436 142.048487,59.6071596 142.048487,60.6539805 C142.048487,61.7008014 142.89526,62.5494174 143.939806,62.5494174 L143.939806,62.5494174 Z" id="door-handle" fill="#FFFFFF"></path>
                <path d="M143.939806,60.6539805 L153.199773,60.6539805 C154.24432,60.6539805 155.091092,59.8053645 155.091092,58.7585436 C155.091092,57.7117227 154.24432,56.8631067 153.199773,56.8631067 L143.939806,56.8631067 C142.89526,56.8631067 142.048487,57.7117227 142.048487,58.7585436 C142.048487,59.8053645 142.89526,60.6539805 143.939806,60.6539805 L143.939806,60.6539805 Z" id="door-handle" fill="#000000"></path>
            </g>
            <g id="fx" transform="translate(698.000000, 389.000000)" stroke="#FFFFFF" stroke-width="4" stroke-linecap="round">
                <path d="M133.303307,2 L210.734189,2" id="Path-111"></path>
                <path d="M226.081477,2 L240.856299,2" id="Path-112"></path>
                <path d="M202.580174,16 L252.894423,16" id="Path-113"></path>
                <path d="M110.636271,45 L65,45" id="Path-114"></path>
                <path d="M53.1210248,45 L42,45" id="Path-115"></path>
                <path d="M71.4142796,66 L-1.42108547e-14,66" id="Path-120"></path>
                <path d="M95.9524746,66 L88,66" id="Path-121"></path>
            </g>
            <g id="clouds" transform="translate(526.000000, 88.000000)" stroke="#FFFFFF" stroke-linecap="round">
                <path d="M417.405941,115 L324.17402,115 C324.519552,113.207048 324.700495,111.355439 324.700495,109.461538 C324.700495,93.4027973 311.691264,80.3846154 295.643564,80.3846154 C293.526861,80.3846154 291.463021,80.6111031 289.474924,81.0411821 C286.207253,63.3349774 270.697892,49.9230769 252.058168,49.9230769 C234.899241,49.9230769 220.393062,61.2886574 215.647405,76.9071543 C213.556285,76.4639327 211.387655,76.2307692 209.164604,76.2307692 C192.201848,76.2307692 178.407629,89.8062234 178.039713,106.692308 L142.056931,106.692308" id="Combined-Shape" stroke-width="6"></path>
                <path d="M113,76.2307692 L124.39931,76.2307692 C124.131525,74.9901212 123.990511,73.7022615 123.990511,72.3814436 C123.990511,62.5865136 131.745465,54.6040962 141.446475,54.2470851 C145.378067,47.6530741 152.577983,43.2365493 160.808725,43.2365493 C170.75503,43.2365493 179.196009,49.6860532 182.183168,58.6338519" id="Combined-Shape" stroke-width="6"></path>
                <path d="M672,115 C672,106.970894 667.12186,100.081923 660.16958,97.1390149 C660.668842,94.6317211 660.930693,92.0387686 660.930693,89.3846154 C660.930693,67.5906095 643.275308,49.9230769 621.496287,49.9230769 C604.280147,49.9230769 589.640775,60.9631197 584.26232,76.3544559 C583.540128,76.2727439 582.805903,76.2307692 582.061881,76.2307692 C571.363415,76.2307692 562.690594,84.9095572 562.690594,95.6153846" id="Combined-Shape" stroke-width="6"></path>
                <path d="M796.59824,36.0769231 C796.59824,31.6257994 793.893929,27.8067361 790.039769,26.1752658 C790.316546,24.7852885 790.46171,23.3478244 790.46171,21.8764321 C790.46171,9.79441226 780.674032,0 768.600319,0 C759.056147,0 750.940467,6.1203074 747.958793,14.6528567 C747.558429,14.6075577 747.151395,14.5842881 746.738929,14.5842881 C740.807982,14.5842881 736,19.3955783 736,25.3306056" id="Combined-Shape-Copy" stroke-width="4"></path>
                <path d="M501.809406,141.307692 L514.302397,141.307692 C515.018606,128.952244 525.258147,119.153846 537.784653,119.153846 C548.892167,119.153846 558.2015,126.858069 560.667419,137.217809 C567.621652,137.840264 573.28769,142.939795 574.76651,149.615385 L583.445545,149.615385" id="Combined-Shape" stroke-width="6"></path>
                <path d="M915,129.876938 L939.179151,129.876938 C940.565314,105.963989 960.383101,87 984.627119,87 C1006.12479,87 1024.14224,101.910886 1028.91482,121.961307 C1042.37416,123.166017 1053.34031,133.035738 1056.20245,145.95579 L1073,145.95579" id="Combined-Shape-Copy-2" stroke-width="6"></path>
                <path d="M487.490544,97.0769231 L442.968445,97.0769231 C443.13345,96.2207143 443.219858,95.3364942 443.219858,94.4320786 C443.219858,86.7633653 437.007412,80.5466448 429.343972,80.5466448 C428.333158,80.5466448 427.347589,80.6548021 426.39819,80.8601826 C424.837743,72.4047373 417.431381,66 408.530142,66 C400.336044,66 393.408744,71.4275349 391.142496,78.8860133 C390.1439,78.6743566 389.108289,78.5630115 388.04669,78.5630115 C379.946273,78.5630115 373.358962,85.0458525 373.183267,93.1096563 L356,93.1096563" id="Combined-Shape" stroke-width="4"></path>
                <path d="M0,123 L71.1580124,123" id="Path-169" stroke-width="6"></path>
                <path d="M89,123 L98.2195444,123" id="Path-169-Copy" stroke-width="6"></path>
                <path d="M90.4474332,76 L99.9854205,76" id="Path-170" stroke-width="6"></path>
                <path d="M839,105.93791 L846.57942,105.93791 C846.401369,105.113001 846.307609,104.256701 846.307609,103.378487 C846.307609,96.8658224 851.46389,91.5583003 857.914107,91.320923 C860.528229,86.9365544 865.315465,84 870.788098,84 C877.401412,84 883.013833,88.2882856 885,94.2376913" id="Combined-Shape" stroke-width="6"></path>
            </g>
            <g id="birds" transform="translate(241.000000, 195.000000)" stroke="#FFFFFF" stroke-width="4" stroke-linecap="round">
                <path d="M0,0.363003847 C0,0.363003847 8.14248371,0.919720647 10.6685739,7.63824906 C12.3566317,3.4795213 20.144413,-2.47741902 27.708559,1.0956288" id="Path-118"></path>
                <path d="M24,14.4454267 C24,14.4454267 33.9912971,15.1285503 37.0909555,23.3725721 C39.1622997,18.2695733 48.7183566,10.960064 58,15.3443997" id="Path-118-Copy"></path>
            </g>
        </g>
    </g>
</svg>