<svg width="1280" height="720" viewBox="0 0 1280 720" xmlns="http://www.w3.org/2000/svg"><title>Доставка груза</title><desc>Created with Sketch.</desc><g fill="none"><g><g transform="translate(411 254) translate(27)"><ellipse id="Oval-11" fill="#5DF390" style="mix-blend-mode:multiply" cx="26.623" cy="36.281" rx="22.623" ry="31.281"/><ellipse id="Oval-11" stroke="#13AF48" stroke-width="3" cx="22.623" cy="31.281" rx="22.623" ry="31.281"/><path d="M23 31v55.751" id="Path-103" stroke="#8FA460" stroke-width="3"/></g><g transform="translate(411 254) translate(561 143)"><ellipse id="Oval-11" fill="#5DF390" style="mix-blend-mode:multiply" cx="35.142" cy="47.541" rx="29.862" ry="40.989"/><ellipse id="Oval-11" stroke="#13AF48" stroke-width="3" cx="29.862" cy="40.989" rx="29.862" ry="40.989"/><path d="M30 24v90.052" id="Path-103" stroke="#8FA460" stroke-width="4"/><path d="M30.806 59.07l17.694-22.57" stroke="#8FA460" stroke-width="2"/><path d="M30.347 45.349l-12.847-11.849" stroke="#8FA460" stroke-width="2"/></g><g transform="translate(411 254) translate(627 170)"><ellipse id="Oval-11" fill="#5DF390" style="mix-blend-mode:multiply" cx="26.623" cy="36.281" rx="22.623" ry="31.281"/><ellipse id="Oval-11" stroke="#13AF48" stroke-width="3" cx="22.623" cy="31.281" rx="22.623" ry="31.281"/><path d="M23 31v55.751" id="Path-103" stroke="#8FA460" stroke-width="3"/></g><g transform="translate(411 254) translate(0 36)"><ellipse id="Oval-11" fill="#5DF390" style="mix-blend-mode:multiply" cx="16.279" cy="22.337" rx="13.279" ry="18.337"/><ellipse stroke="#13AF48" stroke-width="3" cx="13.279" cy="18.337" rx="13.279" ry="18.337"/><path d="M13.5 18.172v32.681" stroke="#90A560" stroke-width="2"/></g><g transform="translate(411 254) translate(73 48)"><ellipse id="bush" fill="#5DF390" style="mix-blend-mode:multiply" cx="26.623" cy="25" rx="22.623" ry="21"/><ellipse id="bush" stroke="#13AF48" stroke-width="3" cx="22.623" cy="21" rx="22.623" ry="21"/></g><g transform="translate(411 254) translate(293 210)"><ellipse id="bush" fill="#5DF390" style="mix-blend-mode:multiply" cx="33.012" cy="30.978" rx="28.052" ry="26.022"/><ellipse stroke="#13AF48" stroke-width="3" cx="28.052" cy="26.022" rx="28.052" ry="26.022"/><path d="M27.605 44.883v-26.733" stroke="#8FA460"/><path d="M27.891 32.517l6.754-7.345" stroke="#8FA460"/></g></g><g fill="#9B9B9B"><path d="M336.5 526h1063.001c5.799 0 10.5-4.701 10.5-10.5s-4.701-10.5-10.5-10.5h-1063.001c-5.799 0-10.5 4.701-10.5 10.5s4.701 10.5 10.5 10.5z"/><path d="M585.673 408c3.59 0 6.5-2.91 6.5-6.5s-2.91-6.5-6.5-6.5h-249.173c-3.59 0-6.5 2.91-6.5 6.5s2.91 6.5 6.5 6.5h249.173z"/><path d="M-32.894 349h618.399c2.485 0 4.5-2.015 4.5-4.5s-2.015-4.5-4.5-4.5h-618.399c-2.485 0-4.5 2.015-4.5 4.5s2.015 4.5 4.5 4.5z"/><path d="M562.956 349c6.058-5.587 14.153-9 23.044-9 18.778 0 34 15.222 34 34s-15.222 34-34 34c-10.852 0-20.516-5.084-26.741-13h24.741c12.703 0 23-10.297 23-23s-10.297-23-23-23h-21.044zM384.563 505c-11.964 12.916-29.069 21-48.063 21-36.175 0-65.5-29.325-65.5-65.5s29.325-65.5 65.5-65.5c14.688 0 28.248 4.835 39.173 13h-35.173c-26.786 0-48.5 21.714-48.5 48.5s21.714 48.5 48.5 48.5l.5-.003 43.563.003z" id="Combined-Shape"/></g><g><g><path d="M892.802 437.709c0-.549.448-.995.994-.995h33.459c1.104 0 2.361.808 2.815 1.819l11.821 26.346c.228.507.766 1.199 1.197 1.542l5.762 4.577c.433.344.785 1.072.785 1.624v28.078c0 .553-.457 1.001-.998 1.001h-54.835c-.551 0-.998-.45-.998-.995v-62.997z" fill="#fff"/><path d="M893.614 438.928c0-.549.448-.995.994-.995h33.459c1.104 0 2.395.804 2.883 1.794l11.925 24.178c.243.494.794 1.175 1.225 1.517l5.762 4.577c.433.344.782 1.08.778 1.625l-.17 27.302c-.014 2.205-1.82 3.993-4.021 3.993h-51.837c-.551 0-.998-.45-.998-.995v-62.997z" fill="#FFD600" style="mix-blend-mode:multiply"/><path d="M892.802 438.354v61.709c0 .909.734 1.639 1.64 1.639h53.553c.921 0 1.64-.724 1.64-1.617v-26.845c0-.874-.572-2.071-1.277-2.631l-4.777-3.794c-.702-.557-1.575-1.678-1.942-2.497l-11.049-24.626c-.741-1.651-2.783-2.976-4.57-2.976h-31.604c-.885 0-1.613.734-1.613 1.639zm-1.624 0c0-1.796 1.448-3.264 3.237-3.264h31.604c2.43 0 5.05 1.704 6.051 3.935l11.049 24.626c.26.58.971 1.493 1.47 1.889l4.777 3.794c1.088.864 1.891 2.528 1.891 3.904v26.845c0 1.799-1.454 3.242-3.263 3.242h-53.553c-1.803 0-3.263-1.458-3.263-3.264v-61.709z" fill="#000"/></g><path d="M902.545 441.992v17.876l-.002-.002h30.856c-.257 0-.595.512-.499.743l-7.483-18.117c-.09-.218-.508-.498-.746-.498h-22.124l-.002-.002zm.002-1.622h22.124c.898 0 1.906.679 2.246 1.502l7.483 18.117c.343.83-.092 1.502-1.001 1.502h-30.856c-.896 0-1.622-.727-1.622-1.622v-17.876c0-.896.732-1.622 1.626-1.622z" fill="#000"/><path d="M902.545 441.992v17.876l-.002-.002h30.856c-.257 0-.595.512-.499.743l-7.483-18.117c-.09-.218-.508-.498-.746-.498h-22.124l-.002-.002z" id="Path" fill="#fff"/><g><path fill="#fff" d="M801.872 422.093h92.555v79.608h-92.555z"/><path d="M801.872 425.337v73.12c0 1.794 1.451 3.244 3.24 3.244h89.315v-76.364c0-1.794-1.451-3.244-3.24-3.244h-86.075c-1.786 0-3.24 1.452-3.24 3.244zm-1.624 0c0-2.688 2.18-4.869 4.864-4.869h86.075c2.687 0 4.864 2.178 4.864 4.869v77.989h-90.939c-2.687 0-4.864-2.178-4.864-4.869v-73.12z" fill="#000"/></g><path d="M801.871 503.744h147.911v-6.499h-147.911v6.499z" fill="#000"/><path d="M926.527 435.496h-30.914v-11.378c0-1.794-1.42-3.244-3.173-3.244h-87.397c-1.738 0-3.173 1.452-3.173 3.244v73.107c0 1.8 1.457 3.257 3.254 3.257h142.904c.901 0 1.604-.724 1.604-1.617v-26.845c0-.874-.559-2.071-1.25-2.631l-4.674-3.794c-.687-.557-1.541-1.678-1.9-2.497l-10.811-24.626c-.725-1.651-2.724-2.976-4.472-2.976zm0-4.874c3.699 0 7.437 2.485 8.932 5.89l10.811 24.626c.047.108.424.603.509.672l4.674 3.794c1.829 1.485 3.052 4.073 3.052 6.416v26.845c0 3.575-2.874 6.491-6.476 6.491h-142.904c-4.488 0-8.126-3.64-8.126-8.131v-73.107c0-4.458 3.59-8.118 8.044-8.118h87.397c4.467 0 8.044 3.656 8.044 8.118v11.378l-4.871-4.874h30.914z" fill="#0A0A0A"/><path d="M834.347 508.606c3.587 0 6.495-2.91 6.495-6.499 0-3.589-2.908-6.499-6.495-6.499s-6.495 2.91-6.495 6.499c0 3.589 2.908 6.499 6.495 6.499z" id="Path" fill="#fff"/><path d="M834.347 508.606c3.587 0 6.495-2.91 6.495-6.499 0-3.589-2.908-6.499-6.495-6.499s-6.495 2.91-6.495 6.499c0 3.589 2.908 6.499 6.495 6.499zm0 8.123c-8.071 0-14.614-6.546-14.614-14.622 0-8.075 6.543-14.622 14.614-14.622 8.071 0 14.614 6.546 14.614 14.622 0 8.075-6.543 14.622-14.614 14.622z" fill="#000"/><path d="M928.525 508.606c3.587 0 6.495-2.91 6.495-6.499 0-3.589-2.908-6.499-6.495-6.499s-6.495 2.91-6.495 6.499c0 3.589 2.908 6.499 6.495 6.499zm0 8.123c-8.071 0-14.614-6.546-14.614-14.622 0-8.075 6.543-14.622 14.614-14.622 8.071 0 14.614 6.546 14.614 14.622 0 8.075-6.543 14.622-14.614 14.622z" fill="#000"/><path d="M928.525 508.606c3.587 0 6.495-2.91 6.495-6.499 0-3.589-2.908-6.499-6.495-6.499s-6.495 2.91-6.495 6.499c0 3.589 2.908 6.499 6.495 6.499z" id="Path" fill="#fff"/><path d="M902.578 469.614h7.95c.897 0 1.624-.727 1.624-1.625 0-.897-.727-1.625-1.624-1.625h-7.95c-.897 0-1.624.727-1.624 1.625 0 .897.727 1.625 1.624 1.625z" id="door-handle" fill="#fff"/><path d="M902.578 467.989h7.95c.897 0 1.624-.727 1.624-1.625 0-.897-.727-1.625-1.624-1.625h-7.95c-.897 0-1.624.727-1.624 1.625 0 .897.727 1.625 1.624 1.625z" fill="#000"/><g><path d="M847.133 477.141c11.407 0 20.655-9.253 20.655-20.666 0-11.414-9.247-20.666-20.655-20.666-11.407 0-20.655 9.253-20.655 20.666 0 11.414 9.247 20.666 20.655 20.666z" fill="#FFD600"/><path d="M847.133 477.141c11.407 0 20.655-9.253 20.655-20.666 0-11.414-9.247-20.666-20.655-20.666-11.407 0-20.655 9.253-20.655 20.666 0 11.414 9.247 20.666 20.655 20.666zm0 4.313c-13.788 0-24.965-11.184-24.965-24.979 0-13.796 11.177-24.979 24.965-24.979s24.965 11.184 24.965 24.979c0 13.796-11.177 24.979-24.965 24.979z" fill="#000"/><path d="M839.272 446.652c-5.173 0-8.044 3.286-8.044 9.187 0 5.926 2.871 9.212 8.044 9.212 5.121 0 7.992-3.286 7.992-9.212 0-5.9-2.871-9.187-7.992-9.187zm0 3.364c2.276 0 3.285 1.682 3.285 5.822 0 4.14-1.009 5.848-3.285 5.848-2.328 0-3.311-1.708-3.311-5.848s.983-5.822 3.311-5.822zm22.837.44v-3.649h-11.871v10.222c1.112-.078 3.983-.129 4.914-.129 1.785 0 2.819.828 2.819 2.251 0 1.553-1.035 2.433-2.819 2.433-1.629 0-3.259-.776-4.604-2.225l-1.836 3.493c1.888 1.346 4.604 2.251 6.983 2.251 4.371 0 7.216-2.458 7.216-6.262 0-3.235-2.716-5.46-6.854-5.46h-1.629v-2.924h7.681z" fill="#000"/></g></g><g stroke="#000"><path d="M772.303 380.203h77.431"/><path d="M865.081 380.448h14.775"/><path d="M841.58 394.602h50.314"/><path d="M749.636 423h-45.636"/><path d="M692.121 423h-11.121"/><path d="M710.414 444h-71.414"/><path d="M734.952 444h-7.952"/></g><g><path d="M902 280h-67.38c.25-1.295.38-2.632.38-4 0-11.598-9.402-21-21-21-1.53 0-3.021.164-4.458.474-2.362-12.788-13.571-22.474-27.042-22.474-12.401 0-22.885 8.208-26.315 19.489-1.511-.32-3.079-.489-4.685-.489-12.259 0-22.229 9.804-22.495 22h-26.005" id="Combined-Shape" stroke="#666" stroke-width="2"/><path d="M682 252h8.238c-.194-.896-.295-1.826-.295-2.78 0-7.074 5.605-12.839 12.616-13.097 2.841-4.762 8.045-7.952 13.993-7.952 7.188 0 13.289 4.658 15.448 11.12" id="Combined-Shape" stroke="#979797"/><path d="M1086 280c0-5.799-3.526-10.774-8.55-12.9.361-1.811.55-3.684.55-5.6 0-15.74-12.76-28.5-28.5-28.5-12.442 0-23.023 7.973-26.91 19.089-.522-.059-1.053-.089-1.59-.089-7.732 0-14 6.268-14 14" id="Combined-Shape" stroke="#666" stroke-width="2"/><path d="M963 299h9.029c.518-8.923 7.918-16 16.971-16 8.028 0 14.756 5.564 16.538 13.046 5.026.45 9.121 4.133 10.19 8.954h6.273" stroke="#979797"/></g><g stroke="#979797" stroke-width="2"><path d="M872.331 184.918s8.142.557 10.669 7.275c1.688-4.159 9.476-10.116 17.04-6.543"/><path d="M897 199.445s9.991.683 13.091 8.927c2.071-5.103 11.627-12.413 20.909-8.028"/></g></g></svg>