<svg version="1.2" baseProfile="tiny" xmlns="http://www.w3.org/2000/svg" width="360" height="72"><g><polygon fill-rule="evenodd" fill="#007CC0" points="329.33,39.721 329.33,63.63 332.178,61.15 338.286,55.858 343.468,69.514 344.097,71.138 345.724,70.512 352.015,68.068 353.609,67.441 353.014,65.848 347.797,52.081 356.271,51.712 359.825,51.563 357.494,48.861 349.722,39.72 345.168,39.72 352.531,48.378 345.243,48.712 342.836,48.823 343.69,51.043 349.166,65.478 346.093,66.624 340.654,52.3 339.765,49.97 337.879,51.598 332.81,56.004 332.81,39.719 329.328,39.72 329.33,39.721"/><g fill="#0081C8"><path d="M231.616 42.482c2.858 0 5.333.962 7.424 2.885l.925.925c1.718 2.018 2.578 4.324 2.578 6.919 0 2.746-.962 5.146-2.886 7.201-1.886 2.036-4.201 3.184-6.947 3.446-.373.037-.737.056-1.093.056-2.913 0-5.426-.981-7.536-2.942-2.054-1.923-3.184-4.286-3.39-7.088-.018-.261-.028-.532-.028-.813 0-2.67.962-5.024 2.885-7.06 1.868-2.017 4.156-3.175 6.864-3.474.391-.037.793-.055 1.204-.055zm0 1.905c-2.371 0-4.426.841-6.163 2.522-1.737 1.83-2.634 3.904-2.69 6.219 0 2.447.86 4.539 2.578 6.276 1.737 1.736 3.828 2.605 6.275 2.605 2.391 0 4.445-.849 6.164-2.549 1.736-1.793 2.624-3.866 2.661-6.22 0-2.409-.859-4.482-2.577-6.219l-.925-.813c-1.588-1.214-3.362-1.821-5.323-1.821zM245.523 63.549v-15.324h2.045v6.723h7.62v-6.723h2.045v15.324h-2.045v-6.724h-7.62v6.724h-2.045zM267.917 48.225l6.443 15.324h-2.101l-5.491-12.887-5.378 12.887h-2.102l6.444-15.324h2.185zM291.169 48.225v15.324h-2.074v-2.69c-1.232 1.644-2.66 2.616-4.285 2.914-.504.093-1.046.14-1.625.14-2.521 0-4.566-.859-6.135-2.578-1.383-1.475-2.074-3.278-2.074-5.406 0-2.428.849-4.426 2.55-5.996 1.512-1.382 3.352-2.073 5.518-2.073 2.447 0 4.389.924 5.828 2.773l.223.308v-2.717h2.074zm-8.068 1.541c-1.83 0-3.343.691-4.538 2.074-.767.859-1.233 1.858-1.401 2.997-.056.318-.084.635-.084.953 0 1.961.709 3.548 2.129 4.762 1.139.972 2.475 1.457 4.006 1.457 1.83 0 3.324-.709 4.482-2.129.934-1.139 1.4-2.494 1.4-4.062 0-1.905-.7-3.455-2.101-4.651-1.102-.934-2.399-1.401-3.893-1.401zM294.862 63.549v-15.324l2.045-.028v12.494l9.413-12.466h2.046v15.324h-2.046v-12.466l-9.413 12.467h-2.045zm2.521-20.535h1.793c.093.598.336 1.027.729 1.289.541.299 1.121.447 1.737.447.616 0 1.194-.149 1.736-.447.392-.262.635-.691.729-1.289h1.792c-.205 1.121-.579 1.905-1.121 2.353l-.252.196c-.746.542-1.708.813-2.884.813-2.261 0-3.643-.961-4.147-2.885l-.112-.477zM312.057 63.549v-15.324h2.045v6.723h7.62v-6.723h2.045v15.324h-2.045v-6.724h-7.62v6.724h-2.045z"/></g><g fill="#3EB75B"><path d="M4.53 37.549h-3.471v-34.665h3.471v34.665zm15.339 0l-14.635-17.778 14.167-16.887h4.363l-14.168 16.887 14.636 17.778h-4.363zM28.172 11.89h3.471v4.41c2.44-3.221 5.801-4.894 10.086-5.019 4.034 0 7.365 1.423 9.991 4.269 2.346 2.533 3.518 5.614 3.518 9.241 0 3.91-1.392 7.162-4.175 9.757-2.596 2.408-5.739 3.612-9.429 3.612-4.379 0-7.709-1.673-9.992-5.019v13.416h-3.471v-34.667zm13.416 2.581c-3.127 0-5.708 1.157-7.74 3.471-1.627 1.908-2.439 4.128-2.439 6.661 0 3.347 1.203 6.036 3.612 8.068 1.845 1.532 4.05 2.299 6.614 2.299 3.221 0 5.817-1.188 7.787-3.565 1.532-1.877 2.298-4.081 2.298-6.615 0-3.346-1.204-6.019-3.612-8.021-1.189-1.001-2.565-1.673-4.128-2.018-.782-.187-1.579-.28-2.392-.28zM86.292 11.89v25.659h-3.471v-4.504c-2.064 2.753-4.457 4.379-7.177 4.879-.844.156-1.752.235-2.721.235-4.222 0-7.646-1.439-10.273-4.316-2.314-2.47-3.471-5.489-3.471-9.053 0-4.065 1.423-7.412 4.269-10.039 2.533-2.313 5.613-3.471 9.241-3.471 4.097 0 7.349 1.548 9.757 4.644l.375.517v-4.551h3.471zm-13.51 2.581c-3.065 0-5.599 1.157-7.599 3.471-1.283 1.439-2.064 3.112-2.345 5.019-.094.532-.141 1.063-.141 1.595 0 3.284 1.188 5.942 3.565 7.975 1.907 1.627 4.144 2.44 6.708 2.44 3.065 0 5.566-1.188 7.506-3.565 1.563-1.907 2.345-4.175 2.345-6.802 0-3.19-1.173-5.785-3.518-7.787-1.846-1.564-4.019-2.346-6.521-2.346zM113.828 29.997h3.94c-1.189 2.252-2.44 3.94-3.753 5.067l-.282.187c-2.471 1.94-5.317 2.909-8.537 2.909-4.128 0-7.537-1.391-10.226-4.175-2.502-2.564-3.753-5.676-3.753-9.335 0-3.814 1.391-7.036 4.175-9.663 2.627-2.47 5.817-3.706 9.57-3.706 4.065 0 7.427 1.407 10.085 4.222 1.095 1.126 1.954 2.424 2.58 3.894l.094.281h-3.893c-2.002-3.408-4.972-5.144-8.913-5.207-3.19 0-5.786 1.188-7.787 3.565-.97 1.158-1.642 2.455-2.017 3.893-.251.908-.376 1.846-.376 2.815 0 3.127 1.173 5.708 3.518 7.74 1.939 1.658 4.206 2.486 6.802 2.486 2.815 0 5.222-1.047 7.224-3.143.501-.531 1.016-1.142 1.549-1.83zM122.552 37.549v-25.659h3.424v11.258h12.759v-11.258h3.425v25.659h-3.425v-11.258h-12.759v11.258h-3.424zM160.548 11.281c4.128 0 7.474 1.439 10.039 4.315 2.189 2.503 3.284 5.567 3.284 9.194 0 4.159-1.407 7.522-4.222 10.086l-1.501 1.173c-2.158 1.407-4.597 2.111-7.318 2.111-4.285 0-7.74-1.454-10.367-4.363-2.252-2.502-3.377-5.582-3.377-9.242 0-3.94 1.407-7.193 4.222-9.757 2.532-2.345 5.612-3.517 9.24-3.517zm0 3.19c-3.221 0-5.801 1.204-7.74 3.612-1.126 1.439-1.829 3.095-2.111 4.972-.063.532-.094 1.064-.094 1.595 0 3.503 1.25 6.239 3.753 8.209 1.782 1.407 3.909 2.111 6.38 2.111 3.221 0 5.754-1.236 7.599-3.706 1.344-1.813 2.017-3.956 2.017-6.426 0-3.44-1.189-6.161-3.565-8.163-1.377-1.156-2.987-1.86-4.831-2.11-.47-.063-.939-.094-1.408-.094zM182.033 46.556l4.175-9.851-9.945-24.815h3.799l8.116 20.453 8.678-20.453h3.706l-14.823 34.666h-3.706zM220.076 42.616h-3.471v-4.456c-4.347-.032-7.818-1.532-10.413-4.504-2.158-2.47-3.237-5.503-3.237-9.101 0-3.877 1.423-7.114 4.269-9.71 2.595-2.376 5.723-3.565 9.382-3.565v-3.33h3.471v3.331c3.971.187 7.208 1.688 9.71 4.503 2.252 2.502 3.378 5.504 3.378 9.006 0 4.159-1.424 7.522-4.269 10.086l-1.454 1.125c-2.158 1.44-4.613 2.158-7.365 2.158v4.457zm-3.472-28.145c-3.19 0-5.77 1.173-7.74 3.518-1.595 1.877-2.392 4.097-2.392 6.661 0 3.472 1.235 6.193 3.706 8.163 1.783 1.439 3.925 2.158 6.426 2.158v-20.5zm3.472 20.499c3.221-.031 5.754-1.282 7.6-3.753 1.313-1.782 1.97-3.909 1.97-6.379 0-3.284-1.205-5.941-3.612-7.975l-1.407-.985c-1.407-.845-2.925-1.313-4.551-1.407v20.499zM238.089 37.549v-25.659l3.425-.046v20.921l15.761-20.875h3.425v25.659h-3.425v-20.874l-15.761 20.875h-3.425zM289.595 16.113l-8.397 21.437h-3.19l-7.928-21.437v21.437h-3.471v-25.66h5.207l7.928 21.579 8.116-21.579 5.207-.094v25.753h-3.471v-21.436zM320.601 29.997h3.94c-1.189 2.252-2.44 3.94-3.753 5.067l-.281.187c-2.471 1.94-5.317 2.909-8.538 2.909-4.128 0-7.537-1.391-10.226-4.175-2.503-2.564-3.753-5.676-3.753-9.335 0-3.814 1.391-7.036 4.175-9.663 2.627-2.47 5.817-3.706 9.569-3.706 4.066 0 7.427 1.407 10.086 4.222 1.095 1.126 1.954 2.424 2.58 3.894l.094.281h-3.893c-2.002-3.408-4.972-5.144-8.912-5.207-3.19 0-5.786 1.188-7.787 3.565-.969 1.158-1.642 2.455-2.017 3.893-.251.908-.376 1.846-.376 2.815 0 3.127 1.172 5.708 3.518 7.74 1.939 1.658 4.206 2.486 6.801 2.486 2.815 0 5.222-1.047 7.224-3.143.501-.531 1.016-1.142 1.549-1.83zM332.797 11.844v25.706h-3.471v-25.66l3.471-.046zm10.554-.048l4.269.094-9.991 12.9 10.648 12.759h-4.315l-10.602-12.759 9.991-12.994z"/></g></g></svg>