<svg version="1.2" baseProfile="tiny" xmlns="http://www.w3.org/2000/svg" width="360" height="72" overflow="scroll"><g fill="#0081C8"><path d="M187.96 62.154v2.426h-1.646v-2.426c-3.057 0-5.186-1.075-6.387-3.227-.623-1.127-.942-2.478-.957-4.051l.066-1.29c.326-2.448 1.521-4.14 3.583-5.074 1.054-.475 2.284-.712 3.694-.712v-1.825h1.646v1.825c3.249.148 5.452 1.32 6.609 3.516.534 1.024.802 2.248.802 3.672 0 2.686-.935 4.659-2.805 5.92-1.23.831-2.765 1.246-4.605 1.246zm-1.647-12.841c-2.256 0-3.872.787-4.852 2.359-.356.578-.593 1.246-.712 2.003-.074.4-.111.816-.111 1.246 0 2.24.779 3.85 2.337 4.829.919.579 2.032.876 3.338.891v-11.328zm1.647 0v11.328c2.849-.015 4.644-1.113 5.386-3.294.237-.683.356-1.461.356-2.337 0-2.433-.891-4.109-2.671-5.029l-.868-.355c-.667-.208-1.401-.313-2.203-.313zM203.582 51.184c1.959 0 3.546.683 4.763 2.047 1.038 1.188 1.558 2.641 1.558 4.362 0 1.973-.668 3.568-2.003 4.784l-.712.557c-1.023.667-2.181 1.001-3.472 1.001-2.033 0-3.672-.689-4.918-2.069-1.068-1.187-1.603-2.648-1.603-4.384 0-1.87.668-3.412 2.003-4.629 1.202-1.114 2.663-1.669 4.384-1.669zm0 1.512c-1.528 0-2.752.571-3.672 1.714-.534.683-.867 1.469-1.001 2.358-.03.253-.045.505-.045.757 0 1.662.594 2.96 1.78 3.895.846.668 1.854 1.002 3.026 1.002 1.528 0 2.73-.586 3.605-1.759.638-.86.957-1.876.957-3.049 0-1.632-.564-2.922-1.691-3.872-.653-.549-1.417-.882-2.292-1.001-.222-.029-.444-.045-.667-.045zM214.375 63.646v-10.682h-3.404v-1.491h7.789v1.491h-2.737v10.682h-1.648zM226.215 51.184c1.959 0 3.546.683 4.763 2.047 1.038 1.188 1.558 2.641 1.558 4.362 0 1.973-.668 3.568-2.003 4.784l-.712.557c-1.023.667-2.181 1.001-3.472 1.001-2.033 0-3.672-.689-4.918-2.069-1.068-1.187-1.603-2.648-1.603-4.384 0-1.87.668-3.412 2.003-4.629 1.202-1.114 2.663-1.669 4.384-1.669zm0 1.512c-1.528 0-2.752.571-3.672 1.714-.534.683-.867 1.469-1.001 2.358-.03.253-.045.505-.045.757 0 1.662.594 2.96 1.78 3.895.846.668 1.854 1.002 3.026 1.002 1.528 0 2.73-.586 3.605-1.759.638-.86.957-1.876.957-3.049 0-1.632-.564-2.922-1.691-3.872-.653-.549-1.417-.882-2.292-1.001-.222-.029-.444-.045-.667-.045z"/></g></svg>