<svg version="1.2" baseProfile="tiny" xmlns="http://www.w3.org/2000/svg" width="360" height="72" overflow="scroll"><g fill="#231F20"><path d="M102.473 63.897h-3.88l-5.841-8.167v8.167h-3.417v-16.113h3.417v7.803l5.775-7.803h3.637l-5.875 7.737 6.184 8.376zm16.777-8.078c0 2.667-.661 4.717-1.984 6.15-1.323 1.433-3.218 2.149-5.687 2.149s-4.364-.716-5.687-2.149c-1.322-1.433-1.984-3.49-1.984-6.172s.663-4.73 1.989-6.145c1.326-1.414 3.227-2.122 5.704-2.122 2.476 0 4.37.713 5.681 2.139 1.313 1.425 1.968 3.475 1.968 6.15zm-11.759 0c0 1.8.342 3.156 1.025 4.067.683.911 1.704 1.367 3.064 1.367 2.726 0 4.089-1.811 4.089-5.433 0-3.63-1.356-5.445-4.067-5.445-1.36 0-2.385.457-3.075 1.372-.691.914-1.036 2.271-1.036 4.072zm28.666 8.078h-3.406v-13.27h-5.929v13.27h-3.417v-16.113h12.752v16.113zm4.841-16.113h3.075v7.781l-.044 2.083-.11 2.369h.066l7.44-12.234h4.089v16.114h-3.042v-7.737c0-1.036.066-2.571.198-4.607h-.088l-7.473 12.344h-4.111v-16.113z"/><polygon points="172.214,65.285 175.509,65.285 175.509,61.186 173.107,61.186 173.107,47.784 169.701,47.784 169.701,61.053 163.772,61.053 163.772,47.784 160.355,47.784 160.355,63.897 172.214,63.897"/><path d="M188.252 63.897h-9.28v-16.113h9.28v2.799h-5.863v3.538h5.456v2.799h-5.456v4.155h5.863v2.822zm17.509 0h-3.406v-6.955h-6.381v6.955h-3.417v-16.113h3.417v6.315h6.381v-6.315h3.406v16.113zm11.249 0h-3.417v-13.27h-4.375v-2.843h12.168v2.843h-4.376v13.27zm18.976-11.088c0 1.735-.542 3.061-1.626 3.979-1.084.919-2.625 1.378-4.624 1.378h-1.466v5.731h-3.417v-16.113h5.147c1.954 0 3.44.42 4.458 1.262 1.018.841 1.527 2.096 1.528 3.763zm-7.715 2.558h1.124c1.051 0 1.837-.208 2.359-.623.522-.415.783-1.019.783-1.813 0-.801-.219-1.392-.656-1.774-.437-.382-1.122-.573-2.055-.573h-1.554l-.001 4.783z"/></g></svg>