<svg version="1.2" baseProfile="tiny" xmlns="http://www.w3.org/2000/svg" width="360" height="72"><polygon fill-rule="evenodd" fill="#007CC0" points="327.996,39.95 327.996,63.58 330.811,61.129 336.848,55.898 341.969,69.396 342.591,71 344.199,70.382 350.416,67.966 351.992,67.347 351.404,65.772 346.248,52.165 354.623,51.8 358.136,51.654 355.832,48.983 348.15,39.949 343.65,39.949 350.927,48.505 343.723,48.836 341.345,48.945 342.188,51.14 347.601,65.406 344.563,66.539 339.188,52.382 338.309,50.079 336.445,51.688 331.436,56.043 331.436,39.947 327.994,39.949 327.996,39.95"/><g fill="#3EB75B"><path d="M6.982 37.803h-3.431v-34.262h3.431v34.262zm15.16 0l-14.465-17.572 14.001-16.69h4.312l-14.001 16.69 14.465 17.571h-4.312zM30.348 12.442h3.431v4.358c2.411-3.183 5.733-4.837 9.968-4.96 3.987 0 7.279 1.407 9.875 4.219 2.318 2.504 3.477 5.548 3.477 9.134 0 3.864-1.375 7.078-4.126 9.643-2.566 2.38-5.672 3.57-9.319 3.57-4.328 0-7.62-1.653-9.875-4.96v13.259h-3.431v-34.263zm13.26 2.55c-3.091 0-5.641 1.144-7.65 3.431-1.607 1.886-2.411 4.08-2.411 6.583 0 3.308 1.19 5.965 3.57 7.974 1.823 1.515 4.002 2.272 6.537 2.272 3.183 0 5.749-1.174 7.696-3.523 1.514-1.855 2.272-4.034 2.272-6.537 0-3.307-1.19-5.95-3.57-7.928-1.175-.989-2.535-1.653-4.08-1.994-.773-.185-1.561-.278-2.364-.278zM87.791 12.442v25.36h-3.431v-4.451c-2.04 2.72-4.404 4.328-7.094 4.822-.834.154-1.731.231-2.689.231-4.172 0-7.557-1.421-10.153-4.265-2.288-2.441-3.431-5.424-3.431-8.948 0-4.018 1.406-7.326 4.219-9.922 2.504-2.287 5.548-3.431 9.134-3.431 4.048 0 7.263 1.53 9.643 4.59l.371.51v-4.497h3.431zm-13.353 2.55c-3.03 0-5.533 1.144-7.511 3.431-1.268 1.422-2.04 3.076-2.318 4.96-.093.526-.139 1.051-.139 1.577 0 3.245 1.174 5.873 3.523 7.881 1.885 1.607 4.095 2.411 6.63 2.411 3.029 0 5.501-1.174 7.418-3.523 1.545-1.885 2.318-4.126 2.318-6.723 0-3.153-1.159-5.718-3.477-7.696-1.823-1.545-3.971-2.318-6.444-2.318zM115.005 30.338h3.895c-1.175 2.226-2.411 3.895-3.709 5.007l-.278.185c-2.442 1.917-5.255 2.875-8.438 2.875-4.08 0-7.449-1.375-10.107-4.126-2.473-2.534-3.709-5.61-3.709-9.226 0-3.771 1.375-6.955 4.126-9.551 2.597-2.441 5.749-3.663 9.458-3.663 4.018 0 7.341 1.391 9.968 4.172 1.082 1.113 1.931 2.396 2.55 3.848l.093.278h-3.848c-1.979-3.369-4.915-5.084-8.809-5.146-3.152 0-5.718 1.175-7.696 3.524-.958 1.144-1.623 2.427-1.994 3.848-.248.896-.371 1.824-.371 2.782 0 3.091 1.159 5.641 3.477 7.649 1.917 1.639 4.157 2.458 6.723 2.458 2.782 0 5.162-1.035 7.14-3.106.493-.525 1.003-1.127 1.529-1.808zM123.628 37.803v-25.36h3.384v11.127h12.611v-11.128h3.384v25.36h-3.384v-11.126h-12.611v11.127h-3.384zM161.182 11.84c4.08 0 7.387 1.422 9.921 4.265 2.163 2.473 3.246 5.502 3.246 9.087 0 4.111-1.391 7.434-4.173 9.968l-1.483 1.159c-2.133 1.391-4.544 2.086-7.233 2.086-4.235 0-7.649-1.438-10.246-4.312-2.225-2.473-3.338-5.517-3.338-9.133 0-3.895 1.391-7.109 4.172-9.644 2.504-2.317 5.548-3.476 9.134-3.476zm0 3.152c-3.184 0-5.734 1.19-7.65 3.57-1.113 1.422-1.808 3.06-2.086 4.914-.062.526-.093 1.051-.093 1.577 0 3.462 1.236 6.166 3.709 8.113 1.762 1.391 3.863 2.086 6.305 2.086 3.183 0 5.687-1.221 7.511-3.663 1.329-1.792 1.994-3.91 1.994-6.352 0-3.399-1.175-6.088-3.523-8.067-1.36-1.143-2.952-1.838-4.775-2.086-.465-.061-.929-.092-1.392-.092zM182.416 46.704l4.125-9.736-9.828-24.525h3.755l8.02 20.214 8.578-20.214h3.662l-14.65 34.262h-3.662zM220.015 42.81h-3.431v-4.404c-4.296-.031-7.728-1.514-10.292-4.451-2.133-2.441-3.199-5.439-3.199-8.994 0-3.832 1.406-7.031 4.219-9.597 2.565-2.349 5.656-3.523 9.272-3.523v-3.293h3.431v3.292c3.925.186 7.124 1.669 9.598 4.451 2.226 2.473 3.338 5.44 3.338 8.902 0 4.111-1.407 7.434-4.219 9.968l-1.438 1.113c-2.133 1.421-4.56 2.132-7.279 2.132v4.404zm-3.431-27.818c-3.152 0-5.702 1.159-7.649 3.478-1.576 1.854-2.364 4.049-2.364 6.583 0 3.431 1.221 6.12 3.662 8.067 1.762 1.422 3.879 2.133 6.352 2.133v-20.261zm3.431 20.261c3.184-.031 5.688-1.267 7.511-3.709 1.299-1.762 1.947-3.863 1.947-6.306 0-3.245-1.189-5.872-3.569-7.881l-1.392-.974c-1.391-.834-2.89-1.298-4.497-1.391v20.261zM237.818 37.803v-25.36l3.385-.046v20.678l15.577-20.631h3.385v25.36h-3.385v-20.633l-15.577 20.631h-3.385zM288.724 16.615l-8.299 21.188h-3.153l-7.835-21.188v21.188h-3.431v-25.36h5.146l7.835 21.327 8.021-21.327 5.146-.093v25.453h-3.431v-21.188zM319.368 30.338h3.895c-1.175 2.226-2.411 3.895-3.709 5.007l-.278.185c-2.442 1.917-5.255 2.875-8.438 2.875-4.08 0-7.449-1.375-10.107-4.126-2.474-2.534-3.709-5.61-3.709-9.226 0-3.771 1.375-6.955 4.126-9.551 2.597-2.441 5.749-3.663 9.458-3.663 4.018 0 7.341 1.391 9.968 4.172 1.082 1.113 1.932 2.396 2.55 3.848l.093.278h-3.848c-1.979-3.369-4.914-5.084-8.809-5.146-3.153 0-5.719 1.175-7.696 3.524-.959 1.144-1.623 2.427-1.994 3.848-.247.896-.37 1.824-.37 2.782 0 3.091 1.158 5.641 3.477 7.649 1.916 1.639 4.157 2.458 6.723 2.458 2.782 0 5.161-1.035 7.14-3.106.492-.525 1.002-1.127 1.528-1.808zM331.422 12.396v25.407h-3.431v-25.36l3.431-.047zm10.432-.046l4.219.093-9.875 12.75 10.524 12.61h-4.266l-10.478-12.61 9.876-12.843z"/></g><g fill="#0081C8"><path d="M249.314 46.91c2.27 0 4.235.765 5.897 2.293l.734.734c1.364 1.602 2.047 3.435 2.047 5.496 0 2.181-.764 4.088-2.292 5.72-1.499 1.617-3.338 2.529-5.519 2.737-.298.029-.587.044-.868.044-2.314 0-4.311-.778-5.986-2.337-1.633-1.527-2.53-3.404-2.693-5.63-.015-.207-.021-.423-.021-.646 0-2.121.764-3.99 2.292-5.607 1.483-1.603 3.301-2.522 5.452-2.76.312-.028.63-.044.957-.044zm0 1.514c-1.885 0-3.517.668-4.896 2.003-1.379 1.454-2.092 3.101-2.136 4.94 0 1.943.682 3.605 2.047 4.984 1.38 1.38 3.041 2.07 4.985 2.07 1.898 0 3.53-.675 4.896-2.025 1.38-1.424 2.084-3.071 2.114-4.94 0-1.914-.683-3.561-2.047-4.94l-.734-.646c-1.262-.964-2.671-1.446-4.229-1.446zM260.375 63.646v-12.173h1.624v5.341h6.054v-5.341h1.624v12.173h-1.624v-5.341h-6.054v5.341h-1.624zM278.11 51.473l5.118 12.173h-1.669l-4.361-10.237-4.273 10.237h-1.669l5.119-12.173h1.735zM297.204 51.473v12.173h-1.647v-2.137c-.979 1.306-2.114 2.077-3.404 2.314-.4.074-.831.111-1.291.111-2.003 0-3.627-.682-4.874-2.047-1.098-1.172-1.646-2.604-1.646-4.295 0-1.929.675-3.517 2.025-4.763 1.201-1.098 2.663-1.646 4.384-1.646 1.943 0 3.486.734 4.629 2.203l.178.244v-2.158h1.646zm-6.409 1.223c-1.454 0-2.656.549-3.605 1.647-.608.683-.979 1.476-1.112 2.381-.045.252-.067.505-.067.757 0 1.558.563 2.818 1.691 3.783.905.771 1.966 1.157 3.183 1.157 1.454 0 2.641-.564 3.561-1.691.741-.905 1.112-1.98 1.112-3.228 0-1.513-.556-2.744-1.669-3.693-.876-.742-1.908-1.113-3.094-1.113zM300.009 63.646v-12.173l1.624-.022v9.926l7.478-9.903h1.625v12.173h-1.625v-9.903l-7.478 9.903h-1.624zm2.003-16.313h1.424c.074.476.267.816.579 1.024.43.237.89.355 1.379.355.49 0 .949-.118 1.38-.355.312-.208.505-.549.579-1.024h1.424c-.163.891-.46 1.514-.89 1.87l-.2.155c-.594.431-1.358.646-2.293.646-1.795 0-2.893-.764-3.293-2.292l-.089-.379zM313.539 63.646v-12.173h1.624v5.341h6.054v-5.341h1.624v12.173h-1.624v-5.341h-6.054v5.341h-1.624z"/></g></svg>