<svg xmlns="http://www.w3.org/2000/svg" viewBox="0 0 500 107" enable-background="new 0 0 500 107"><path fill="#088EFF" d="M500 48.9v52.1c0 3.3-2.7 6-6 6h-488c-3.3 0-6-2.7-6-6v-52c0-3.3 2.7-6 6-6h487.9c3.4-.2 6.1 2.5 6.1 5.9zm-146.8-33.6c0 5.2-.9 9-2.6 11.5-1.7 2.5-4.3 3.7-7.9 3.7-3.4 0-6-1.3-7.8-3.9-1.7-2.6-2.6-6.4-2.6-11.4 0-5.2.8-9.1 2.5-11.6s4.3-3.7 7.8-3.7c3.4 0 6 1.3 7.8 3.9 1.9 2.7 2.8 6.5 2.8 11.5zm-14.6 0c0 3.6.3 6.3.9 7.8s1.7 2.4 3.2 2.4c1.5 0 2.5-.8 3.2-2.4.7-1.6 1-4.2 1-7.8 0-3.6-.3-6.3-1-7.9-.7-1.6-1.7-2.4-3.2-2.4-1.5 0-2.5.8-3.2 2.4-.6 1.7-.9 4.3-.9 7.9zm-308.8-12.5c-1.9-1.6-4.6-2.3-8.2-2.3h-9c-.3 0-.5.2-.5.5v26.9c0 1.2 1 2.3 2.3 2.3h3.5c.3 0 .5-.2.5-.5v-10h2.7c3.7 0 6.5-.8 8.5-2.5s3-4.1 3-7.3-.9-5.6-2.8-7.1zm-5 10.5c-1 .8-2.4 1.1-4.4 1.1h-2.1v-8.8h2.9c1.7 0 3 .4 3.8 1.1.8.7 1.2 1.8 1.2 3.3.1 1.4-.4 2.5-1.4 3.3zm36.6 16.2l-10.2-28.8c-.1-.2-.3-.4-.5-.4h-6.9c-.2 0-.5.2-.5.4l-10.1 28.8v.2c0 .3.2.5.5.5h5.6c.2 0 .4-.2.5-.4l2-6.7h10.8l2 6.7c.1.2.3.4.5.4h5.6c.3 0 .5-.2.5-.5.2-.1.2-.1.2-.2zm-18-11.6c2.2-6.9 3.4-11.2 3.9-12.9.1.5.3 1.2.5 2 .3.8 1.4 4.5 3.4 10.9h-7.8zm103.9-17.9c-4.6 0-8.1 1.3-10.5 3.9-2.4 2.6-3.7 6.4-3.7 11.3 0 5 1.2 8.7 3.7 11.4s5.9 4 10.5 4 8.1-1.3 10.5-4 3.7-6.4 3.7-11.4c0-4.9-1.2-8.7-3.6-11.4-2.5-2.5-6-3.8-10.6-3.8zm0 25.3c-2.5 0-4.4-.8-5.7-2.5-1.3-1.7-1.9-4.2-1.9-7.5s.6-5.8 1.9-7.5c1.3-1.7 3.2-2.5 5.7-2.5 5 0 7.5 3.3 7.5 10s-2.5 10-7.5 10zm-22.5-24.8h-4c-.8 0-1.5.4-1.9 1.1l-13.1 21.5h-.1l.2-4.4.1-3.8v-13.9c0-.3-.2-.5-.5-.5h-2.9c-1.2 0-2.3 1-2.3 2.3v25.2c0 1.2 1 2.3 2.3 2.3h4.1c.8 0 1.5-.4 1.9-1l13.2-21.8h.2c-.2 3.8-.4 6.6-.4 8.5v13.7c0 .3.2.5.5.5h2.8c1.2 0 2.3-1 2.3-2.3v-25.2c-.2-1.2-1.2-2.2-2.4-2.2zm-30 24.5h-3.4v-24c0-.3-.2-.5-.5-.5h-16.4c-.3 0-.5.2-.5.4v.1c-.6 4.3-1.4 8.4-2.5 12.2-1.1 3.9-2.7 7.9-4.7 11.8h-1.8c-.3 0-.5.2-.5.5v11.1c0 1.2 1 2.3 2.3 2.3h3.3c.3 0 .5-.2.5-.5v-8.1h18.6v8.1c0 .3.2.5.5.5h3.3c1.2 0 2.3-1 2.3-2.3v-11.1c0-.3-.2-.5-.5-.5zm-9.7 0h-11.6c1.3-2.8 2.4-5.9 3.4-9.4s1.7-6.8 2.2-9.9h6v19.3zm400.6-24.5h-4.7c-1 0-1.8.6-2.1 1.5l-7 21.2h-.1l-6.5-21.1c-.3-.9-1.1-1.6-2.2-1.6h-4.7c-1.2 0-2.3 1-2.3 2.3v25.2c0 1.2 1 2.3 2.3 2.3h2.8c.3 0 .5-.2.5-.5v-13.4c0-1.6-.1-4.8-.4-9.5h.2l6.7 21.7c.3.9 1.1 1.6 2.2 1.6h2.6c.9 0 1.7-.7 2-1.5l7.2-21.8h.2c-.2 3.7-.3 6-.3 6.9v15.899999999999999c0 .3.2.5.5.5h3.1c1.2 0 2.3-1 2.3-2.3v-25.2c-.1-1.2-1.1-2.2-2.3-2.2zm-162.9 0h-2.1c-.5 0-1 .2-1.4.5l-8.6 6.8c-.1.1-.2.3-.2.4 0 .1.1.3.1.3l2.4 3c.1.1.2.2.4.2.1 0 .2 0 .3-.1h.1l3-2.4c.4-.3 1.1-1 2.2-2.1l-.1 3.1-.1 2.8v14.9c0 1.2 1 2.3 2.3 2.3h3.5c.3 0 .5-.2.5-.5v-27c0-1.2-1.1-2.2-2.3-2.2zm52.8 16.3c-1.2-1.2-3-1.9-5.4-2.2v-.1c2-.5 3.6-1.4 4.7-2.7 1.1-1.3 1.7-2.9 1.7-4.7 0-2.2-.9-4-2.7-5.2-1.8-1.2-4.2-1.9-7.3-1.9-3.5 0-6.6.9-9.2 2.6-.2.1-.3.3-.3.5 0 .1 0 .2.1.3l.1.1 2.3 3.4c.1.2.3.3.5.3.1 0 .2 0 .3-.1 1-.6 2-1.1 2.9-1.4 1-.3 2-.5 3-.5 2.8 0 4.2 1.1 4.2 3.4 0 1.5-.5 2.5-1.6 3.1-1.1.6-2.7.9-5.1.9h-1.8c-.3 0-.5.2-.5.5v3.7c0 .3.2.5.5.5h1.7c2.5 0 4.3.3 5.4.9 1.1.6 1.7 1.6 1.7 3 0 1.6-.5 2.7-1.5 3.4-1 .7-2.5 1.1-4.6 1.1-1.4 0-2.7-.2-4.1-.5-1.1-.3-2.1-.6-3-1l-.3-.1c-.3 0-.5.2-.5.5v4.1c0 .2.1.4.3.5 2.4 1 5.2 1.5 8.3 1.5 3.8 0 6.8-.8 8.9-2.4 2.1-1.6 3.1-3.8 3.1-6.7 0-2-.6-3.6-1.8-4.8zm37.9 0c-1.2-1.2-3-1.9-5.4-2.2v-.1c2-.5 3.6-1.4 4.7-2.7 1.1-1.3 1.7-2.9 1.7-4.7 0-2.2-.9-4-2.7-5.2-1.8-1.2-4.2-1.9-7.3-1.9-3.5 0-6.6.9-9.2 2.6-.2.1-.3.3-.3.5 0 .1 0 .2.1.3l.1.1 2.3 3.4c.1.2.3.3.5.3.1 0 .2 0 .3-.1 1-.6 2-1.1 2.9-1.4 1-.3 2-.5 3-.5 2.8 0 4.2 1.1 4.2 3.4 0 1.5-.5 2.5-1.6 3.1-1.1.6-2.7.9-5.1.9h-1.8c-.3 0-.5.2-.5.5v3.7c0 .3.2.5.5.5h1.7c2.5 0 4.3.3 5.4.9 1.1.6 1.7 1.6 1.7 3 0 1.6-.5 2.7-1.5 3.4-1 .7-2.5 1.1-4.6 1.1-1.4 0-2.7-.2-4.1-.5-1.1-.3-2.1-.6-3-1l-.3-.1c-.3 0-.5.2-.5.5v4.1c0 .2.1.4.3.5 2.4 1 5.2 1.5 8.3 1.5 3.8 0 6.8-.8 8.9-2.4 2.1-1.6 3.1-3.8 3.1-6.7.1-2-.5-3.6-1.8-4.8zm-25.1 8.6h-5c-.3 0-.5.2-.5.5-.5 2.9-1.1 5.9-1.8 9.1v.1c0 .3.2.5.5.5h3.4c.2 0 .4-.1.5-.3 1.6-3.6 2.7-6.7 3.4-9.3v-.1c.1-.3-.2-.5-.5-.5zm61.5-7.5v-4.1c0-.3-.2-.5-.5-.5h-9.5v-7.7h10.3c.3 0 .5-.2.5-.5v-4.1c0-.3-.2-.5-.5-.5h-14.2c-1.2 0-2.3 1-2.3 2.3v25.2c0 1.2 1 2.3 2.3 2.3h3.4c.3 0 .5-.2.5-.5v-11.4h9.5c.3 0 .5-.2.5-.5z"/><path fill="#fff" d="M148.6 57.4v.2l-.6 1.4-1.7 4.2c-.1.3-.3.5-.6.5-.1 0-.2 0-.3-.1-1.3-.6-2.6-1.1-3.8-1.6-1.5-.5-3-.8-4.4-.8-3.1 0-5.6 1.2-7.3 3.5-1.7 2.4-2.6 5.7-2.6 9.9 0 8.8 3.3 13.2 9.9 13.2 2.6 0 5.7-.6 9.3-1.8h.2c.3 0 .6.3.6.6v5.8c0 .3-.2.5-.4.5-3.1 1.2-6.6 1.9-10.5 1.9-5.7 0-10.1-1.7-13.2-5.2-3-3.5-4.6-8.5-4.6-15 0-4.1.7-7.7 2.2-10.8 1.5-3.1 3.6-5.5 6.4-7.1 2.8-1.6 6.1-2.5 9.8-2.5 3.7 0 7.4.9 11.1 2.6.4.2.5.4.5.6zm-71.1 9.8c0 4.2-1.3 7.5-4 9.7-2.7 2.3-6.4 3.4-11.3 3.4h-3.6v13.3c0 .4-.3.7-.7.7h-4.7c-1.7 0-3-1.3-3-3v-35.7c0-.4.3-.7.7-.7h11.9c4.8 0 8.4 1 10.9 3.1 2.6 2 3.8 5.1 3.8 9.2zm-8.4.3c0-2-.5-3.4-1.6-4.3-1.1-.9-2.7-1.4-5-1.4h-3.8v11.7h2.8c2.6 0 4.5-.5 5.8-1.5 1.1-1.1 1.8-2.6 1.8-4.5zm46.6 25.9v.2c0 .4-.3.7-.7.7h-7.5c-.3 0-.6-.2-.7-.5l-2.7-8.9h-14.3l-2.7 8.9c-.1.3-.4.5-.7.5h-7.5c-.4 0-.7-.3-.7-.7v-.2l13.4-38.2c.1-.3.4-.5.7-.5h9.2c.3 0 .6.2.7.5l13.5 38.2zm-13.5-15.5c-2.6-8.5-4.1-13.3-4.5-14.4-.3-1.1-.6-2-.7-2.6-.6 2.3-2.3 8-5.1 17.1h10.3zm82.8-23h-4.6c-.4 0-.7.3-.7.7v14.8h-15.7v-14.8c0-.4-.3-.7-.7-.7h-4.7c-1.7 0-3 1.3-3 3v33.5c0 1.7 1.3 3 3 3h4.7c.4 0 .7-.3.7-.7v-16.4h15.6v16.3c0 .4.3.7.7.7h4.6c1.7 0 3-1.3 3-3v-33.4c.1-1.7-1.2-3-2.9-3zm-142.2 37.5l-13.7-18.6 13.6-18c.2-.2.2-.6 0-.8-.1-.1-.3-.2-.4-.2h-6.2c-1 0-1.9.5-2.4 1.2l-13.2 18v-18.9c0-.1-.1-.3-.3-.3h-5.1c-1.6 0-2.9 1.3-3 2.8v33.8c.1 1.6 1.4 2.8 3 2.8h5.1c.2 0 .3-.1.3-.3v-19.6l13.3 18.5c.5.9 1.5 1.5 2.6 1.5h6.5c.2 0 .4-.1.5-.2.3-.3.3-.7 0-1l-.6-.7zm444.9.7l-.5-.7-13.7-18.6 13.6-18c.2-.2.2-.6 0-.8-.1-.1-.3-.2-.4-.2h-6.2c-1 0-1.9.5-2.4 1.2l-13.3 18v-18.9c0-.1-.1-.3-.3-.3h-5.1c-1.6 0-2.9 1.3-3 2.8v33.8c.1 1.6 1.4 2.8 3 2.8h5.1c.2 0 .3-.1.3-.3v-19.6l13.3 18.5c.5.9 1.5 1.5 2.6 1.5h6.5c.2 0 .4-.1.5-.2.3-.3.3-.7 0-1zm-131.4-38.2h-5.3c-1.1 0-2.1.6-2.6 1.5l-17.3 28.5h-.2l.3-5.8.1-5.1v-18.4c0-.4-.3-.7-.7-.7h-3.8c-1.7 0-3 1.3-3 3v33.5c0 1.7 1.3 3 3 3h5.4c1 0 2-.5 2.5-1.3l17.5-28.9h.2c-.3 5-.5 8.7-.5 11.3v18.2c0 .4.3.7.7.7h3.7c1.7 0 3-1.3 3-3v-33.5c0-1.7-1.3-3-3-3zm52 0h-6.2c-1.3 0-2.4.9-2.8 2l-9.3 28.2h-.2l-8.6-28.1c-.4-1.2-1.5-2.1-2.9-2.1h-6.2c-1.7 0-3 1.3-3 3v33.5c0 1.7 1.3 3 3 3h3.8c.4 0 .7-.3.7-.7v-17.7c0-2.1-.2-6.3-.5-12.6h.2l8.9 28.8c.4 1.2 1.5 2.1 2.9 2.1h3.4c1.2-.1 2.3-.9 2.7-2l9.5-28.9h.2c-.2 5-.3 8-.4 9.2v21.1c0 .4.3.7.7.7h4.1c1.7 0 3-1.3 3-3v-33.5c0-1.7-1.3-3-3-3zm-179.4 4.6c3.2 3.5 4.8 8.5 4.8 15.1 0 6.5-1.6 11.6-4.9 15.1-3.2 3.5-7.9 5.3-13.9 5.3s-10.7-1.8-13.9-5.3c-3.2-3.5-4.9-8.6-4.9-15.1 0-6.6 1.6-11.6 4.9-15.1 3.2-3.5 7.9-5.2 14-5.2s10.7 1.7 13.9 5.2zm-3.9 15.1c0-8.9-3.3-13.3-10-13.3-3.3 0-5.8 1.1-7.5 3.4-1.7 2.2-2.5 5.6-2.5 10s.8 7.7 2.5 10c1.7 2.2 4.2 3.3 7.5 3.3 6.6-.1 10-4.6 10-13.4zm224.1-17.7c-3.7-1.7-7.4-2.6-11.1-2.6-3.8 0-7 .8-9.8 2.5-2.8 1.6-4.9 4-6.4 7.1-1.5 3.1-2.2 6.7-2.2 10.8 0 6.5 1.5 11.5 4.6 15 3 3.5 7.4 5.2 13.2 5.2 3.8 0 7.3-.6 10.5-1.9.2-.1.4-.3.4-.5v-5.8c0-.3-.3-.6-.6-.6h-.2c-3.6 1.2-6.7 1.8-9.3 1.8-6.6 0-9.9-4.4-9.9-13.2 0-4.2.9-7.5 2.6-9.9 1.7-2.4 4.2-3.5 7.3-3.5 1.4 0 2.9.3 4.4.8 1.3.5 2.6 1 3.8 1.6l.3.1c.3 0 .5-.2.6-.5l1.7-4.2.6-1.4v-.2c-.2-.3-.3-.5-.5-.6zm-177.5-2h-7c-.3 0-.6.2-.7.5l-8 20.2-.5 1.4h-.3l-9.5-21.6c-.1-.2-.4-.4-.6-.4h-7.3c-.4 0-.7.3-.7.7v.2l13.2 27.4c-.6 1.7-1.4 2.9-2.3 3.6-.9.7-2.1 1-3.6 1-1.9 0-3.6-.2-5-.7h-.2c-.4 0-.7.3-.7.7v5.6c0 .3.2.6.5.7 1.8.4 3.7.7 5.8.7 2.6 0 4.9-.4 6.7-1.1 1.8-.7 3.4-1.9 4.8-3.4 1.3-1.5 2.8-4.1 4.3-7.6l11.8-26.9.1-.3c-.1-.4-.4-.7-.8-.7zm43.1 11.4c1.3 2.2 1.9 4.8 1.9 7.5 0 2.9-.7 5.5-2.2 7.9-1.4 2.4-3.4 4.1-6 5.3-2.5 1.2-5.5 1.8-8.8 1.8h-.6v5.4c0 .4-.3.7-.7.7h-6.1c-.4 0-.7-.3-.7-.7v-5.4h-.5c-3.3 0-6.3-.6-8.8-1.8-2.5-1.2-4.5-2.9-6-5.3-1.4-2.4-2.2-5-2.2-7.9 0-2.8.6-5.3 1.9-7.5 1.3-2.2 3.1-4 5.6-5.3 2.4-1.3 5.3-1.9 8.6-1.9h1.4v-4.1c0-.4.3-.7.7-.7h6.1c.4 0 .7.3.7.7v4.1h1.4c3.3 0 6.1.6 8.6 1.9 2.5 1.3 4.4 3.1 5.7 5.3zm-23.1-.6h-1.1c-2.6 0-4.7.7-6.3 2.2-1.5 1.5-2.3 3.4-2.3 5.9 0 2.6.8 4.7 2.4 6.2 1.6 1.5 3.9 2.3 6.9 2.3h.4v-16.6zm17.2 8.1c0-2.4-.8-4.4-2.3-5.9-1.5-1.5-3.6-2.2-6.3-2.2h-1.1v16.7h.4c2.9 0 5.2-.8 6.8-2.3 1.7-1.5 2.5-3.6 2.5-6.3z"/></svg>