<svg version="1.2" baseProfile="tiny" xmlns="http://www.w3.org/2000/svg" width="360" height="72"><g fill="#0081C8"><path d="M96.943 63.646v-16.446h4.54c1.973 0 3.435.289 4.384.867 1.172.698 1.817 1.899 1.936 3.605.015.163.022.334.022.512 0 1.722-.549 2.982-1.647 3.783-.861.623-2.122.965-3.783 1.023h-3.806v6.654h-1.646zm1.647-8.145h3.049c1.469 0 2.522-.186 3.16-.557.816-.46 1.269-1.276 1.357-2.448v-.312c0-1.498-.497-2.5-1.491-3.004-.653-.326-1.899-.49-3.739-.49h-2.336v6.811zM122.224 51.473v12.173h-1.646v-2.137c-.979 1.306-2.114 2.077-3.405 2.314-.4.074-.831.111-1.291.111-2.003 0-3.627-.682-4.874-2.047-1.098-1.172-1.647-2.604-1.647-4.295 0-1.929.675-3.517 2.025-4.763 1.202-1.098 2.663-1.646 4.384-1.646 1.943 0 3.486.734 4.629 2.203l.178.244v-2.158h1.647zm-6.41 1.223c-1.454 0-2.656.549-3.605 1.647-.608.683-.979 1.476-1.113 2.381-.044.252-.067.505-.067.757 0 1.558.564 2.818 1.691 3.783.905.771 1.966 1.157 3.183 1.157 1.454 0 2.641-.564 3.561-1.691.742-.905 1.113-1.98 1.113-3.228 0-1.513-.557-2.744-1.669-3.693-.876-.742-1.907-1.113-3.094-1.113zM135.287 60.063h1.869c-.564 1.068-1.157 1.869-1.78 2.403l-.133.089c-1.172.921-2.522 1.38-4.05 1.38-1.958 0-3.576-.66-4.852-1.98-1.187-1.216-1.78-2.692-1.78-4.429 0-1.81.66-3.338 1.98-4.584 1.247-1.172 2.76-1.758 4.54-1.758 1.928 0 3.523.667 4.785 2.003.519.534.927 1.149 1.224 1.847l.044.134h-1.847c-.95-1.617-2.359-2.44-4.229-2.471-1.513 0-2.745.564-3.694 1.691-.46.549-.779 1.165-.957 1.848-.119.43-.178.875-.178 1.335 0 1.483.557 2.708 1.669 3.672.919.786 1.995 1.18 3.227 1.18 1.335 0 2.478-.497 3.427-1.491.238-.253.482-.543.735-.869zM139.426 63.646v-12.173h9.414v12.173h-1.647v-10.682h-6.12v10.682h-1.647zM151.643 63.646v-12.173l1.625-.022v9.926l7.478-9.903h1.625v12.173h-1.625v-9.903l-7.478 9.903h-1.625zM175.432 60.063h1.869c-.564 1.068-1.157 1.869-1.78 2.403l-.133.089c-1.172.921-2.522 1.38-4.05 1.38-1.958 0-3.576-.66-4.852-1.98-1.187-1.216-1.78-2.692-1.78-4.429 0-1.81.66-3.338 1.98-4.584 1.247-1.172 2.76-1.758 4.54-1.758 1.928 0 3.523.667 4.785 2.003.519.534.927 1.149 1.224 1.847l.044.134h-1.847c-.95-1.617-2.359-2.44-4.229-2.471-1.513 0-2.745.564-3.694 1.691-.46.549-.779 1.165-.957 1.848-.119.43-.178.875-.178 1.335 0 1.483.557 2.708 1.669 3.672.919.786 1.995 1.18 3.227 1.18 1.335 0 2.478-.497 3.427-1.491.238-.253.483-.543.735-.869zM191.967 51.473v12.173h-1.646v-2.137c-.979 1.306-2.115 2.077-3.404 2.314-.4.074-.832.111-1.291.111-2.004 0-3.627-.682-4.874-2.047-1.098-1.172-1.647-2.604-1.647-4.295 0-1.929.675-3.517 2.025-4.763 1.201-1.098 2.664-1.646 4.385-1.646 1.943 0 3.486.734 4.629 2.203l.178.244v-2.158h1.645zm-6.408 1.223c-1.455 0-2.656.549-3.605 1.647-.609.683-.979 1.476-1.113 2.381-.045.252-.066.505-.066.757 0 1.558.563 2.818 1.691 3.783.904.771 1.965 1.157 3.182 1.157 1.455 0 2.641-.564 3.561-1.691.742-.905 1.113-1.98 1.113-3.228 0-1.513-.557-2.744-1.67-3.693-.877-.742-1.908-1.113-3.093-1.113zM194.771 63.646v-12.173h1.624v5.341h6.054v-5.341h1.624v12.173h-1.624v-5.341h-6.054v5.341h-1.624zM206.877 63.646v-12.173l1.624-.022v9.926l7.478-9.903h1.625v12.173h-1.625v-9.903l-7.478 9.903h-1.624zM232.603 58.104h-11.017c.074 1.335.668 2.434 1.78 3.293.876.683 1.862 1.024 2.96 1.024 1.351 0 2.485-.49 3.405-1.469.37-.386.652-.824.846-1.313h1.713c-.312.95-.904 1.84-1.78 2.671-1.157 1.083-2.536 1.624-4.139 1.624-1.869 0-3.428-.66-4.674-1.98-1.172-1.231-1.758-2.715-1.758-4.451 0-1.839.652-3.374 1.958-4.606 1.202-1.142 2.656-1.713 4.362-1.713 1.766 0 3.264.608 4.495 1.824.4.4.742.846 1.023 1.336.55.964.826 2.218.826 3.76zm-10.972-1.491h9.324c-.386-1.677-1.269-2.834-2.648-3.472-.623-.297-1.313-.445-2.069-.445-1.513 0-2.723.579-3.627 1.736-.491.624-.817 1.35-.98 2.181z"/></g></svg>