<svg version="1.2" baseProfile="tiny" xmlns="http://www.w3.org/2000/svg" width="360" height="72" overflow="scroll"><g fill="#0081C8"><path d="M115.614 59.328h1.825c-1.662 3.071-4.169 4.606-7.522 4.606-2.434 0-4.473-.793-6.12-2.381-1.617-1.706-2.456-3.731-2.515-6.075 0-2.448.801-4.488 2.404-6.12 1.617-1.617 3.657-2.433 6.12-2.448 2.374 0 4.339.742 5.897 2.226.712.668 1.269 1.446 1.669 2.337h-1.847c-.549-.86-1.127-1.491-1.736-1.892l-.067-.045c-1.098-.741-2.381-1.112-3.85-1.112-2.018 0-3.694.705-5.029 2.114-1.261 1.32-1.892 2.945-1.892 4.873 0 1.914.675 3.561 2.025 4.94 1.35 1.365 2.989 2.056 4.918 2.07 1.573 0 2.93-.453 4.073-1.357.445-.341.994-.919 1.647-1.736zM119.797 63.646v-12.173h9.414v12.173h-1.647v-10.682h-6.12v10.682h-1.647zM132.015 51.473h1.647v2.092c1.157-1.528 2.752-2.321 4.785-2.381 1.914 0 3.494.675 4.74 2.024 1.112 1.202 1.669 2.663 1.669 4.385 0 1.854-.661 3.397-1.981 4.629-1.231 1.143-2.722 1.713-4.473 1.713-2.078 0-3.657-.793-4.74-2.381v6.364h-1.647v-16.445zm6.364 1.223c-1.484 0-2.708.549-3.672 1.647-.771.904-1.157 1.958-1.157 3.159 0 1.588.571 2.864 1.713 3.828.875.728 1.921 1.091 3.138 1.091 1.528 0 2.759-.564 3.694-1.691.727-.891 1.091-1.937 1.091-3.138 0-1.588-.571-2.856-1.714-3.806-.564-.475-1.217-.794-1.958-.957-.37-.088-.749-.133-1.135-.133zM159.587 51.473v12.173h-1.646v-2.137c-.979 1.306-2.114 2.077-3.405 2.314-.4.074-.831.111-1.291.111-2.003 0-3.627-.682-4.874-2.047-1.098-1.172-1.647-2.604-1.647-4.295 0-1.929.675-3.517 2.025-4.763 1.202-1.098 2.663-1.646 4.384-1.646 1.943 0 3.486.734 4.629 2.203l.178.244v-2.158h1.647zm-6.409 1.223c-1.454 0-2.656.549-3.605 1.647-.608.683-.979 1.476-1.113 2.381-.044.252-.067.505-.067.757 0 1.558.564 2.818 1.691 3.783.905.771 1.966 1.157 3.183 1.157 1.454 0 2.641-.564 3.561-1.691.742-.905 1.113-1.98 1.113-3.228 0-1.513-.557-2.744-1.669-3.693-.876-.742-1.907-1.113-3.094-1.113zM162.391 63.646v-12.173h3.271c1.543 0 2.648.237 3.316.712.712.534 1.068 1.351 1.068 2.448 0 1.187-.445 2.025-1.335 2.515 1.365.563 2.047 1.565 2.047 3.004 0 1.217-.4 2.129-1.202 2.737l-.177.111c-.712.431-1.817.646-3.316.646h-3.672zm1.647-7.21h1.491c1.157 0 1.869-.089 2.136-.268.623-.415.935-.92.935-1.513 0-.549-.237-.987-.712-1.313-.386-.252-1.18-.378-2.381-.378h-1.469v3.472zm0 5.718h1.669c1.172 0 1.906-.044 2.203-.134.193-.059.363-.147.512-.267.445-.356.712-.683.801-.979.044-.163.067-.348.067-.556 0-.653-.378-1.247-1.135-1.78-.327-.237-1.217-.356-2.671-.356h-1.446v4.072zM178.837 51.184c1.958 0 3.546.683 4.763 2.047 1.037 1.188 1.557 2.641 1.557 4.362 0 1.973-.668 3.568-2.002 4.784l-.713.557c-1.023.667-2.181 1.001-3.471 1.001-2.033 0-3.672-.689-4.918-2.069-1.068-1.187-1.603-2.648-1.603-4.384 0-1.87.667-3.412 2.003-4.629 1.201-1.114 2.663-1.669 4.384-1.669zm0 1.512c-1.528 0-2.752.571-3.672 1.714-.534.683-.868 1.469-1.001 2.358-.03.253-.045.505-.045.757 0 1.662.593 2.96 1.781 3.895.845.668 1.854 1.002 3.026 1.002 1.528 0 2.73-.586 3.605-1.759.637-.86.957-1.876.957-3.049 0-1.632-.564-2.922-1.691-3.872-.654-.549-1.417-.882-2.292-1.001-.223-.029-.446-.045-.668-.045zM186.849 51.473h1.646v3.761c0 1.143.268 1.862.801 2.159.386.222 1.188.333 2.404.333h2.492v-6.253h1.624v12.173h-1.624v-4.473h-3.872c-1.351 0-2.337-.571-2.96-1.714-.342-.623-.512-1.335-.512-2.137v-3.849zM198.621 63.646v-12.173h1.624v5.341h6.054v-5.341h1.624v12.173h-1.624v-5.341h-6.054v5.341h-1.624zM210.727 63.646v-12.173l1.624-.022v9.926l7.478-9.903h1.625v12.173h-1.625v-9.903l-7.478 9.903h-1.624zM225.903 51.45v12.195h-1.646v-12.172l1.646-.023zm5.007-.022l2.025.045-4.74 6.12 5.052 6.053h-2.047l-5.03-6.053 4.74-6.165z"/></g></svg>