<svg version="1.2" baseProfile="tiny" xmlns="http://www.w3.org/2000/svg" width="360" height="72"><polygon fill-rule="evenodd" fill="#007CC0" points="329.489,39.739 329.489,63.659 332.34,61.178 338.45,55.883 343.635,69.546 344.264,71.17 345.892,70.544 352.185,68.099 353.781,67.472 353.185,65.878 347.966,52.104 356.444,51.735 360,51.587 357.668,48.883 349.891,39.738 345.336,39.738 352.702,48.399 345.41,48.734 343.002,48.845 343.857,51.066 349.335,65.508 346.26,66.654 340.819,52.323 339.93,49.992 338.043,51.621 332.972,56.03 332.972,39.736 329.487,39.738 329.489,39.739"/><g fill="#0081C8"><path d="M115.196 46.787c2.298 0 4.288.773 5.97 2.32l.744.743c1.381 1.622 2.072 3.477 2.072 5.564 0 2.208-.773 4.138-2.32 5.789-1.517 1.638-3.379 2.561-5.586 2.771-.301.029-.594.045-.879.045-2.343 0-4.363-.788-6.06-2.365-1.652-1.547-2.561-3.447-2.726-5.699-.015-.211-.022-.429-.022-.653 0-2.147.773-4.04 2.32-5.678 1.501-1.622 3.341-2.553 5.519-2.793.315-.029.638-.044.968-.044zm0 1.531c-1.907 0-3.559.676-4.956 2.028-1.396 1.472-2.118 3.139-2.163 5.001 0 1.968.691 3.649 2.073 5.046 1.396 1.396 3.079 2.095 5.046 2.095 1.922 0 3.574-.683 4.956-2.05 1.397-1.441 2.11-3.108 2.14-5.001 0-1.938-.691-3.604-2.072-5.001l-.744-.653c-1.276-.976-2.703-1.465-4.28-1.465zM132.497 51.112c1.982 0 3.589.69 4.821 2.072 1.051 1.202 1.577 2.674 1.577 4.415 0 1.998-.676 3.612-2.027 4.844l-.721.563c-1.037.676-2.208 1.014-3.515 1.014-2.058 0-3.717-.698-4.979-2.095-1.081-1.202-1.622-2.682-1.622-4.438l-.022-2.162c.18-4.881 2.193-7.645 6.038-8.29l.158-.023c1.742 0 3.589-.314 5.542-.945v1.599l-1.825.519c-1.382.33-2.621.496-3.717.496-2.268.405-3.687 1.682-4.258 3.829l-.271.991c1.277-1.548 2.884-2.344 4.821-2.389zm0 1.533c-1.547 0-2.786.578-3.717 1.734-.541.69-.878 1.486-1.014 2.388-.03.256-.045.511-.045.766 0 1.683.6 2.996 1.802 3.942.856.676 1.877 1.014 3.063 1.014 1.547 0 2.763-.593 3.649-1.779.646-.871.969-1.899.969-3.086 0-1.652-.571-2.959-1.712-3.92-.661-.556-1.435-.894-2.32-1.014-.224-.031-.449-.045-.675-.045zM143.198 63.728v-10.588h-3.312v-1.734h4.979v4.596h1.78c2.163 0 3.604.466 4.325 1.396l.338.563.248.721c.075.375.113.788.113 1.238 0 1.728-.541 2.839-1.622 3.335-.255.12-.548.218-.878.292l-1.194.158-1.059.022h-3.718zm1.667-1.51h2.095c1.697 0 2.703-.405 3.019-1.216.105-.271.158-.608.158-1.014 0-.932-.323-1.563-.969-1.893l-.676-.248-1.036-.157c-.256-.015-.541-.022-.856-.022h-1.734v4.55zM153.064 63.728l4.393-5.182c-1.171 0-2.14-.36-2.906-1.081-.646-.615-.969-1.404-.969-2.365 0-1.907.946-3.071 2.838-3.492.631-.135 1.389-.202 2.275-.202h3.469v12.322h-1.667v-10.814h-1.442c-1.532 0-2.583.173-3.154.519l-.36.315c-.315.33-.473.759-.473 1.284 0 1.231.856 1.968 2.568 2.207.571.076 1.457.113 2.658.113l-5.271 6.375h-1.959zM165.004 63.728v-12.323h3.312c1.562 0 2.681.24 3.356.721.721.541 1.081 1.367 1.081 2.478 0 1.202-.45 2.051-1.352 2.546 1.382.571 2.073 1.585 2.073 3.041 0 1.231-.406 2.155-1.217 2.771l-.18.112c-.721.436-1.84.653-3.356.653h-3.717zm1.667-7.299h1.509c1.171 0 1.892-.09 2.163-.271.631-.42.946-.931.946-1.532 0-.555-.241-.998-.721-1.329-.391-.255-1.194-.383-2.41-.383h-1.487v3.515zm0 5.789h1.689c1.186 0 1.93-.045 2.23-.135.195-.06.368-.15.518-.271.451-.36.721-.69.811-.991.045-.165.068-.353.068-.563 0-.661-.383-1.262-1.149-1.803-.331-.24-1.232-.36-2.703-.36h-1.464v4.123zM181.359 51.405l5.181 12.322h-1.689l-4.415-10.362-4.326 10.362h-1.689l5.181-12.322h1.757zM200.484 58.118h-11.151c.075 1.352.676 2.463 1.802 3.334.887.691 1.885 1.036 2.996 1.036 1.367 0 2.516-.495 3.447-1.486.375-.391.66-.834.855-1.329h1.735c-.315.961-.917 1.862-1.803 2.703-1.171 1.097-2.568 1.645-4.189 1.645-1.893 0-3.47-.668-4.731-2.005-1.187-1.246-1.779-2.748-1.779-4.506 0-1.862.66-3.416 1.982-4.663 1.217-1.156 2.688-1.734 4.415-1.734 1.787 0 3.304.616 4.551 1.847.405.406.751.856 1.036 1.353.556.974.834 2.244.834 3.805zm-11.106-1.51h9.439c-.392-1.696-1.284-2.868-2.682-3.514-.63-.301-1.329-.45-2.095-.45-1.532 0-2.756.585-3.672 1.757-.494.631-.825 1.367-.99 2.207zM202.781 63.728v-12.323h1.645v5.406h6.128v-5.406h1.645v12.322h-1.645v-5.406h-6.128v5.406h-1.645zM215.036 63.728v-12.323l1.645-.022v10.047l7.569-10.024h1.645v12.322h-1.645v-10.025l-7.569 10.024h-1.645zM228.102 63.728l4.394-5.182c-1.172 0-2.141-.36-2.906-1.081-.646-.615-.969-1.404-.969-2.365 0-1.907.946-3.071 2.839-3.492.63-.135 1.389-.202 2.274-.202h3.47v12.322h-1.667v-10.814h-1.442c-1.531 0-2.583.173-3.153.519l-.36.315c-.315.33-.474.759-.474 1.284 0 1.231.856 1.968 2.568 2.207.57.076 1.457.113 2.658.113l-5.271 6.375h-1.961zM252.273 51.112c1.982 0 3.59.69 4.821 2.072 1.051 1.202 1.577 2.674 1.577 4.415 0 1.998-.676 3.612-2.027 4.844l-.722.563c-1.036.676-2.207 1.014-3.514 1.014-2.058 0-3.717-.698-4.979-2.095-1.082-1.202-1.622-2.682-1.622-4.438 0-1.893.676-3.454 2.027-4.686 1.219-1.125 2.697-1.689 4.439-1.689zm0 1.533c-1.547 0-2.785.578-3.717 1.734-.54.69-.878 1.486-1.014 2.388-.03.256-.045.511-.045.766 0 1.683.601 2.996 1.802 3.942.856.676 1.878 1.014 3.064 1.014 1.546 0 2.763-.593 3.649-1.779.646-.871.969-1.899.969-3.086 0-1.652-.571-2.959-1.713-3.92-.66-.556-1.434-.894-2.32-1.014-.223-.031-.449-.045-.675-.045zM261.037 63.728v-12.323h1.645v5.406h6.128v-5.406h1.645v12.322h-1.645v-5.406h-6.128v5.406h-1.645zM278.991 51.405l5.181 12.322h-1.689l-4.415-10.362-4.325 10.362h-1.689l5.181-12.322h1.756zM298.319 51.405v12.322h-1.667v-2.163c-.991 1.322-2.14 2.104-3.446 2.344-.405.074-.842.112-1.307.112-2.027 0-3.672-.69-4.934-2.072-1.111-1.187-1.667-2.636-1.667-4.349 0-1.952.683-3.559 2.05-4.82 1.217-1.111 2.695-1.667 4.438-1.667 1.968 0 3.529.743 4.687 2.23l.18.247v-2.185h1.666zm-6.487 1.24c-1.473 0-2.688.556-3.649 1.667-.616.69-.991 1.494-1.127 2.41-.045.256-.067.511-.067.766 0 1.577.57 2.854 1.712 3.83.916.781 1.99 1.171 3.222 1.171 1.472 0 2.673-.57 3.604-1.712.751-.916 1.126-2.005 1.126-3.267 0-1.531-.563-2.778-1.689-3.739-.888-.751-1.931-1.126-3.132-1.126zM301.157 63.728v-12.323l1.645-.022v10.047l7.569-10.024h1.645v12.322h-1.645v-10.025l-7.569 10.024h-1.645zm2.028-16.513h1.442c.075.48.271.826.586 1.036.435.24.9.36 1.396.36.495 0 .961-.12 1.396-.36.315-.21.511-.556.586-1.036h1.441c-.165.901-.466 1.532-.901 1.893l-.202.157c-.601.437-1.374.653-2.32.653-1.817 0-2.929-.773-3.334-2.32l-.09-.383zM314.854 63.728v-12.323h1.645v5.406h6.128v-5.406h1.645v12.322h-1.645v-5.406h-6.128v5.406h-1.645z"/></g><g fill="#3EB75B"><path d="M4.532 37.566h-3.473v-34.682h3.473v34.682zm15.347 0l-14.643-17.787 14.174-16.895h4.365l-14.174 16.895 14.643 17.787h-4.365zM28.185 11.895h3.473v4.412c2.44-3.222 5.803-4.896 10.09-5.022 4.036 0 7.369 1.424 9.997 4.271 2.347 2.534 3.52 5.617 3.52 9.246 0 3.912-1.393 7.166-4.177 9.762-2.597 2.41-5.742 3.614-9.433 3.614-4.381 0-7.713-1.674-9.997-5.022v13.422h-3.473v-34.683zm13.423 2.581c-3.129 0-5.71 1.158-7.744 3.473-1.627 1.909-2.441 4.13-2.441 6.665 0 3.348 1.204 6.039 3.614 8.072 1.846 1.533 4.052 2.3 6.618 2.3 3.222 0 5.819-1.189 7.791-3.567 1.533-1.877 2.3-4.083 2.3-6.618 0-3.348-1.205-6.022-3.614-8.025-1.189-1.001-2.566-1.673-4.13-2.018-.783-.188-1.581-.282-2.394-.282zM86.334 11.895v25.672h-3.473v-4.505c-2.065 2.753-4.458 4.38-7.181 4.88-.845.157-1.752.235-2.722.235-4.224 0-7.65-1.439-10.278-4.318-2.316-2.471-3.473-5.491-3.473-9.058 0-4.067 1.423-7.415 4.271-10.043 2.534-2.315 5.616-3.473 9.246-3.473 4.098 0 7.352 1.549 9.762 4.646l.375.516v-4.552h3.473zm-13.517 2.581c-3.067 0-5.601 1.158-7.603 3.473-1.283 1.439-2.065 3.114-2.347 5.022-.094.532-.141 1.064-.141 1.596 0 3.285 1.188 5.945 3.567 7.978 1.908 1.627 4.145 2.441 6.711 2.441 3.066 0 5.569-1.189 7.509-3.567 1.564-1.908 2.347-4.177 2.347-6.805 0-3.191-1.173-5.788-3.52-7.791-1.846-1.565-4.02-2.347-6.523-2.347zM113.883 30.01h3.942c-1.189 2.253-2.44 3.942-3.754 5.069l-.282.188c-2.472 1.94-5.319 2.91-8.542 2.91-4.13 0-7.541-1.392-10.231-4.177-2.503-2.565-3.754-5.679-3.754-9.339 0-3.817 1.392-7.04 4.177-9.668 2.628-2.471 5.82-3.708 9.574-3.708 4.067 0 7.431 1.408 10.09 4.224 1.095 1.126 1.955 2.425 2.582 3.896l.094.281h-3.896c-2.002-3.41-4.975-5.146-8.917-5.209-3.191 0-5.789 1.189-7.791 3.567-.97 1.158-1.643 2.457-2.018 3.896-.251.908-.375 1.847-.375 2.816 0 3.129 1.173 5.71 3.52 7.744 1.94 1.659 4.208 2.488 6.805 2.488 2.816 0 5.225-1.048 7.228-3.145.499-.534 1.016-1.144 1.548-1.833zM122.611 37.566v-25.671h3.426v11.264h12.766v-11.264h3.426v25.672h-3.426v-11.264h-12.766v11.264h-3.426zM160.626 11.284c4.13 0 7.478 1.44 10.044 4.318 2.189 2.503 3.285 5.57 3.285 9.199 0 4.162-1.408 7.525-4.224 10.09l-1.502 1.173c-2.159 1.408-4.599 2.112-7.321 2.112-4.287 0-7.744-1.455-10.372-4.365-2.252-2.503-3.379-5.585-3.379-9.246 0-3.942 1.408-7.196 4.224-9.762 2.534-2.345 5.615-3.519 9.245-3.519zm0 3.192c-3.223 0-5.804 1.205-7.744 3.614-1.126 1.44-1.83 3.098-2.112 4.975-.063.532-.094 1.064-.094 1.596 0 3.504 1.251 6.242 3.754 8.213 1.783 1.408 3.911 2.112 6.383 2.112 3.222 0 5.756-1.236 7.603-3.708 1.345-1.814 2.018-3.958 2.018-6.43 0-3.441-1.189-6.164-3.567-8.166-1.377-1.157-2.988-1.861-4.834-2.112-.468-.063-.937-.094-1.407-.094zM182.121 46.577l4.178-9.855-9.95-24.827h3.802l8.119 20.462 8.682-20.462h3.709l-14.832 34.683h-3.708zM220.183 42.635h-3.474v-4.458c-4.349-.031-7.822-1.533-10.419-4.506-2.158-2.471-3.238-5.506-3.238-9.104 0-3.879 1.424-7.118 4.271-9.715 2.597-2.377 5.726-3.567 9.386-3.567v-3.333h3.474v3.332c3.973.188 7.211 1.69 9.715 4.506 2.253 2.503 3.379 5.507 3.379 9.011 0 4.162-1.424 7.525-4.271 10.09l-1.455 1.126c-2.159 1.439-4.615 2.159-7.368 2.159v4.459zm-3.474-28.159c-3.19 0-5.772 1.173-7.743 3.52-1.596 1.877-2.394 4.099-2.394 6.665 0 3.473 1.235 6.195 3.707 8.166 1.784 1.439 3.927 2.159 6.43 2.159v-20.51zm3.474 20.509c3.222-.031 5.756-1.283 7.603-3.755 1.314-1.783 1.972-3.911 1.972-6.383 0-3.285-1.205-5.944-3.614-7.979l-1.408-.985c-1.407-.845-2.926-1.314-4.552-1.408v20.51zM238.205 37.566v-25.671l3.426-.047v20.932l15.77-20.885h3.426v25.672h-3.427v-20.885l-15.77 20.885h-3.425zM289.735 16.119l-8.4 21.448h-3.191l-7.932-21.448v21.448h-3.473v-25.672h5.209l7.932 21.589 8.119-21.589 5.21-.094v25.766h-3.474v-21.448zM320.757 30.01h3.942c-1.189 2.253-2.44 3.942-3.755 5.069l-.281.188c-2.473 1.94-5.32 2.91-8.542 2.91-4.13 0-7.541-1.392-10.231-4.177-2.503-2.565-3.755-5.679-3.755-9.339 0-3.817 1.393-7.04 4.178-9.668 2.628-2.471 5.819-3.708 9.574-3.708 4.066 0 7.431 1.408 10.09 4.224 1.095 1.126 1.955 2.425 2.581 3.896l.095.281h-3.896c-2.003-3.41-4.976-5.146-8.917-5.209-3.191 0-5.789 1.189-7.791 3.567-.971 1.158-1.643 2.457-2.019 3.896-.251.908-.375 1.847-.375 2.816 0 3.129 1.173 5.71 3.52 7.744 1.939 1.659 4.208 2.488 6.806 2.488 2.815 0 5.225-1.048 7.228-3.145.499-.534 1.015-1.144 1.548-1.833zM332.959 11.848v25.719h-3.473v-25.672l3.473-.047zm10.56-.047l4.271.094-9.996 12.906 10.653 12.766h-4.317l-10.606-12.766 9.995-13z"/></g></svg>