<svg version="1.2" baseProfile="tiny" xmlns="http://www.w3.org/2000/svg" width="360" height="72"><g><polygon fill-rule="evenodd" fill="#00B5F0" points="329.531,39.782 329.531,63.708 332.382,61.226 338.494,55.93 343.68,69.596 344.31,71.221 345.938,70.595 352.232,68.149 353.828,67.522 353.233,65.927 348.012,52.15 356.492,51.781 360.049,51.632 357.716,48.928 349.938,39.781 345.381,39.781 352.749,48.444 345.455,48.779 343.047,48.89 343.902,51.112 349.382,65.557 346.306,66.703 340.864,52.369 339.974,50.037 338.086,51.667 333.014,56.076 333.014,39.779 329.529,39.781 329.531,39.782"/><g fill="#3EB75B"><path d="M4.497 37.608h-3.474v-34.691h3.474v34.691zm15.35 0l-14.646-17.791 14.177-16.9h4.366l-14.177 16.9 14.646 17.791h-4.366zM28.156 11.931h3.474v4.413c2.441-3.223 5.805-4.898 10.093-5.023 4.037 0 7.37 1.424 9.998 4.272 2.348 2.535 3.521 5.618 3.521 9.248 0 3.912-1.393 7.167-4.178 9.764-2.598 2.41-5.743 3.615-9.436 3.615-4.382 0-7.715-1.674-9.999-5.023v13.426h-3.474v-34.692zm13.426 2.582c-3.13 0-5.712 1.158-7.746 3.474-1.628 1.909-2.441 4.131-2.441 6.666 0 3.349 1.204 6.04 3.614 8.074 1.846 1.534 4.053 2.301 6.619 2.301 3.223 0 5.821-1.189 7.793-3.568 1.533-1.878 2.3-4.084 2.3-6.619 0-3.348-1.205-6.024-3.614-8.027-1.19-1.001-2.567-1.674-4.131-2.019-.783-.189-1.581-.282-2.394-.282zM86.318 11.931v25.678h-3.474v-4.507c-2.065 2.755-4.46 4.382-7.183 4.883-.845.156-1.753.235-2.723.235-4.225 0-7.652-1.44-10.281-4.319-2.316-2.472-3.474-5.493-3.474-9.06 0-4.068 1.424-7.417 4.272-10.046 2.535-2.316 5.617-3.474 9.247-3.474 4.1 0 7.354 1.549 9.764 4.647l.375.517v-4.554h3.477zm-13.52 2.582c-3.067 0-5.603 1.158-7.605 3.474-1.284 1.44-2.065 3.114-2.347 5.023-.094.533-.141 1.064-.141 1.596 0 3.286 1.189 5.946 3.568 7.98 1.909 1.628 4.147 2.441 6.713 2.441 3.067 0 5.57-1.189 7.511-3.568 1.565-1.909 2.347-4.178 2.347-6.807 0-3.192-1.174-5.789-3.521-7.792-1.846-1.565-4.021-2.347-6.525-2.347zM113.874 30.05h3.943c-1.19 2.253-2.441 3.943-3.756 5.07l-.282.188c-2.472 1.941-5.32 2.911-8.543 2.911-4.131 0-7.543-1.392-10.234-4.178-2.504-2.566-3.755-5.681-3.755-9.342 0-3.818 1.392-7.041 4.178-9.67 2.629-2.472 5.821-3.708 9.577-3.708 4.068 0 7.433 1.408 10.093 4.225 1.095 1.126 1.955 2.426 2.582 3.896l.094.281h-3.896c-2.003-3.411-4.976-5.147-8.919-5.21-3.192 0-5.79 1.19-7.792 3.567-.97 1.158-1.643 2.458-2.019 3.896-.251.908-.376 1.847-.376 2.817 0 3.13 1.174 5.712 3.521 7.746 1.94 1.659 4.209 2.488 6.807 2.488 2.817 0 5.226-1.048 7.229-3.145.499-.532 1.015-1.143 1.548-1.832zM122.604 37.608v-25.677h3.427v11.266h12.769v-11.266h3.427v25.678h-3.427v-11.267h-12.768v11.266h-3.428zM160.628 11.32c4.131 0 7.48 1.44 10.045 4.319 2.191 2.504 3.286 5.571 3.286 9.201 0 4.162-1.407 7.527-4.224 10.093l-1.503 1.173c-2.159 1.408-4.601 2.113-7.323 2.113-4.288 0-7.746-1.456-10.374-4.366-2.253-2.504-3.38-5.587-3.38-9.248 0-3.943 1.408-7.198 4.225-9.764 2.535-2.347 5.617-3.521 9.248-3.521zm0 3.193c-3.223 0-5.805 1.205-7.746 3.615-1.126 1.44-1.831 3.098-2.112 4.976-.063.532-.094 1.064-.094 1.596 0 3.506 1.251 6.244 3.756 8.215 1.784 1.408 3.912 2.113 6.384 2.113 3.223 0 5.758-1.236 7.605-3.709 1.344-1.815 2.018-3.959 2.018-6.431 0-3.442-1.19-6.165-3.567-8.168-1.378-1.157-2.99-1.861-4.835-2.112-.471-.064-.94-.095-1.409-.095zM182.128 46.622l4.178-9.858-9.953-24.833h3.803l8.121 20.467 8.684-20.467h3.708l-14.834 34.691h-3.707zM220.198 42.679h-3.474v-4.459c-4.351-.032-7.824-1.534-10.422-4.507-2.159-2.472-3.239-5.508-3.239-9.107 0-3.88 1.423-7.119 4.272-9.717 2.597-2.378 5.727-3.568 9.389-3.568v-3.334h3.474v3.333c3.974.188 7.213 1.69 9.717 4.507 2.254 2.504 3.381 5.508 3.381 9.013 0 4.162-1.425 7.527-4.273 10.093l-1.455 1.126c-2.159 1.441-4.616 2.16-7.37 2.16v4.46zm-3.474-28.166c-3.192 0-5.774 1.173-7.746 3.52-1.597 1.878-2.394 4.1-2.394 6.666 0 3.474 1.236 6.197 3.708 8.168 1.784 1.44 3.928 2.16 6.431 2.16v-20.514zm3.474 20.514c3.223-.031 5.758-1.283 7.605-3.756 1.314-1.784 1.972-3.912 1.972-6.384 0-3.286-1.206-5.946-3.616-7.98l-1.407-.986c-1.409-.845-2.927-1.314-4.554-1.408v20.514zM238.224 37.608v-25.677l3.426-.047v20.936l15.773-20.89h3.427v25.678h-3.427v-20.89l-15.773 20.89h-3.426zM289.767 16.156l-8.404 21.453h-3.191l-7.934-21.453v21.453h-3.474v-25.678h5.21l7.934 21.594 8.121-21.594 5.21-.094v25.772h-3.474v-21.453zM320.796 30.05h3.943c-1.19 2.253-2.441 3.943-3.756 5.07l-.281.188c-2.473 1.941-5.321 2.911-8.544 2.911-4.131 0-7.543-1.392-10.233-4.178-2.504-2.566-3.756-5.681-3.756-9.342 0-3.818 1.392-7.041 4.178-9.67 2.629-2.472 5.82-3.708 9.576-3.708 4.068 0 7.433 1.408 10.093 4.225 1.095 1.126 1.955 2.426 2.582 3.896l.094.281h-3.896c-2.003-3.411-4.976-5.147-8.92-5.21-3.191 0-5.79 1.19-7.792 3.567-.971 1.158-1.643 2.458-2.019 3.896-.251.908-.375 1.847-.375 2.817 0 3.13 1.173 5.712 3.521 7.746 1.94 1.659 4.208 2.488 6.806 2.488 2.817 0 5.226-1.048 7.229-3.145.501-.532 1.017-1.143 1.55-1.832zM333 11.884v25.725h-3.474v-25.678l3.474-.047zm10.563-.047l4.272.094-9.999 12.909 10.657 12.768h-4.319l-10.61-12.768 9.999-13.003z"/></g></g><g fill="#231F20"><path d="M89.624 63.897h-3.88l-5.841-8.167v8.167h-3.417v-16.113h3.417v7.803l5.775-7.803h3.637l-5.875 7.737 6.184 8.376zM106.401 55.819c0 2.667-.661 4.717-1.984 6.15-1.323 1.433-3.218 2.149-5.687 2.149-2.469 0-4.364-.716-5.687-2.149-1.322-1.433-1.984-3.49-1.984-6.172s.663-4.73 1.989-6.145c1.326-1.414 3.227-2.122 5.704-2.122 2.476 0 4.37.713 5.681 2.139 1.313 1.425 1.968 3.475 1.968 6.15zm-11.759 0c0 1.8.342 3.156 1.025 4.067.683.911 1.704 1.367 3.064 1.367 2.726 0 4.089-1.811 4.089-5.433 0-3.63-1.356-5.445-4.067-5.445-1.36 0-2.385.457-3.075 1.372-.691.914-1.036 2.271-1.036 4.072zM123.308 63.897h-3.406v-13.27h-5.929v13.27h-3.417v-16.113h12.752v16.113zM128.149 47.784h3.075v7.781l-.044 2.083-.11 2.369h.066l7.44-12.234h4.089v16.114h-3.042v-7.737c0-1.036.066-2.571.198-4.607h-.088l-7.473 12.344h-4.111v-16.113z"/><polygon points="159.365,65.285 162.66,65.285 162.66,61.186 160.258,61.186 160.258,47.784 156.852,47.784 156.852,61.053 150.923,61.053 150.923,47.784 147.506,47.784 147.506,63.897 159.365,63.897"/><path d="M175.403 63.897h-9.28v-16.113h9.28v2.799h-5.863v3.538h5.456v2.799h-5.456v4.155h5.863v2.822zM192.912 63.897h-3.406v-6.955h-6.381v6.955h-3.417v-16.113h3.417v6.315h6.381v-6.315h3.406v16.113zM204.161 63.897h-3.417v-13.27h-4.375v-2.843h12.168v2.843h-4.376v13.27zM223.137 52.809c0 1.735-.542 3.061-1.626 3.979-1.084.919-2.625 1.378-4.624 1.378h-1.466v5.731h-3.417v-16.113h5.147c1.954 0 3.44.42 4.458 1.262 1.019.841 1.528 2.096 1.528 3.763zm-7.715 2.558h1.124c1.051 0 1.837-.208 2.359-.623.522-.415.783-1.019.783-1.813 0-.801-.219-1.392-.656-1.774-.437-.382-1.122-.573-2.055-.573h-1.554v4.783z"/></g><g fill="#00B5F0"><path d="M242.388 55.872c0 2.618-.655 4.654-1.965 6.106-1.309 1.453-3.163 2.178-5.561 2.178-2.428 0-4.293-.72-5.594-2.162-1.302-1.441-1.954-3.489-1.954-6.145 0-2.655.655-4.693 1.965-6.116 1.309-1.423 3.177-2.135 5.606-2.135 2.391 0 4.239.722 5.545 2.168 1.305 1.444 1.958 3.481 1.958 6.106zm-12.278 0c0 1.98.4 3.482 1.199 4.506.799 1.023 1.984 1.534 3.554 1.534 1.562 0 2.741-.506 3.537-1.519.796-1.012 1.193-2.519 1.193-4.522 0-1.973-.394-3.47-1.182-4.489-.789-1.019-1.964-1.529-3.526-1.529-1.577 0-2.767.51-3.571 1.529-.803 1.02-1.204 2.517-1.204 4.49zM258.529 63.937h-2.64v-7.25h-7.416v7.25h-2.63v-16.086h2.63v6.579h7.416v-6.579h2.64v16.086zM274.834 63.937h-2.629v-13.83h-4.578c-.579 4.695-1.043 7.889-1.392 9.583-.349 1.695-.838 2.874-1.469 3.538-.631.664-1.467.985-2.509.963-.535 0-1.045-.092-1.529-.275v-2.189c.418.182.825.274 1.222.274.528 0 .94-.316 1.237-.952.297-.634.624-2.037.98-4.209.356-2.171.779-5.167 1.271-8.988h9.396v16.085zM289.059 63.937l-1.605-4.466h-6.151l-1.573 4.466h-2.773l6.018-16.151h2.86l6.018 16.151h-2.794zm-2.299-6.734l-1.507-4.379c-.11-.294-.262-.755-.456-1.386-.195-.631-.329-1.094-.402-1.386-.198.903-.488 1.889-.869 2.96l-1.452 4.191h4.686zM293.977 47.851h2.41v8.362c0 .873-.021 1.755-.066 2.646-.044.892-.077 1.495-.099 1.81h.099l8.219-12.817h3.07v16.085h-2.42v-8.296c0-1.269.069-2.809.209-4.621h-.089l-8.252 12.916h-3.081v-16.085zm6.899-1.287c-1.555 0-2.694-.28-3.417-.842-.722-.561-1.123-1.498-1.204-2.81h2.343c.044.528.145.939.303 1.232.157.293.385.504.682.633.297.128.75.192 1.358.192.719 0 1.265-.159 1.64-.478.374-.319.602-.846.683-1.578h2.387c-.11 1.261-.554 2.185-1.331 2.773-.777.585-1.925.878-3.444.878zM324.51 63.937h-2.64v-7.25h-7.416v7.25h-2.63v-16.086h2.63v6.579h7.416v-6.579h2.64v16.086z"/></g></svg>