<svg version="1.2" baseProfile="tiny" xmlns="http://www.w3.org/2000/svg" width="360" height="72"><path d="M111.542 46.91c2.27 0 4.235.765 5.897 2.293l.734.734c1.365 1.602 2.047 3.435 2.047 5.496 0 2.181-.764 4.088-2.292 5.72-1.499 1.617-3.338 2.529-5.519 2.737-.297.029-.586.044-.868.044-2.314 0-4.31-.778-5.986-2.337-1.632-1.527-2.53-3.404-2.693-5.63-.015-.207-.022-.423-.022-.646 0-2.121.764-3.99 2.292-5.607 1.483-1.603 3.301-2.522 5.452-2.76.312-.028.631-.044.958-.044zm0 1.514c-1.884 0-3.516.668-4.896 2.003-1.38 1.454-2.092 3.101-2.136 4.94 0 1.943.682 3.605 2.047 4.984 1.379 1.38 3.041 2.07 4.985 2.07 1.899 0 3.531-.675 4.896-2.025 1.38-1.424 2.084-3.071 2.114-4.94 0-1.914-.683-3.561-2.047-4.94l-.734-.646c-1.262-.964-2.671-1.446-4.229-1.446zm17.09 2.76c1.958 0 3.546.683 4.763 2.047 1.038 1.188 1.558 2.641 1.558 4.362 0 1.973-.667 3.568-2.003 4.784l-.712.557c-1.024.667-2.181 1.001-3.472 1.001-2.033 0-3.672-.689-4.918-2.069-1.068-1.187-1.603-2.648-1.603-4.384l-.022-2.137c.178-4.821 2.166-7.552 5.964-8.189l.156-.022c1.721 0 3.546-.312 5.475-.935v1.58l-1.803.512c-1.365.327-2.589.49-3.672.49-2.24.4-3.643 1.661-4.206 3.783l-.267.979c1.261-1.528 2.849-2.315 4.762-2.359zm0 1.512c-1.528 0-2.752.571-3.672 1.714-.534.683-.868 1.469-1.001 2.358-.03.253-.044.505-.044.757 0 1.662.593 2.96 1.78 3.895.846.668 1.854 1.002 3.027 1.002 1.528 0 2.729-.586 3.605-1.759.638-.86.957-1.876.957-3.049 0-1.632-.564-2.922-1.691-3.872-.653-.549-1.417-.882-2.292-1.001-.223-.029-.446-.045-.669-.045zm10.571 10.95v-10.459h-3.271v-1.714h4.918v4.54h1.758c2.137 0 3.561.46 4.273 1.38l.334.556.245.712c.074.371.111.779.111 1.225 0 1.706-.534 2.804-1.603 3.293-.252.119-.542.216-.868.29l-1.18.155-1.046.022h-3.671zm1.647-1.492h2.069c1.677 0 2.671-.4 2.982-1.201.104-.268.156-.602.156-1.002 0-.92-.319-1.543-.957-1.869l-.667-.245-1.024-.155c-.252-.015-.534-.022-.846-.022h-1.713v4.494zm8.1 1.492l4.34-5.118c-1.157 0-2.114-.356-2.871-1.068-.638-.608-.957-1.387-.957-2.337 0-1.884.935-3.033 2.804-3.449.623-.134 1.372-.2 2.248-.2h3.427v12.173h-1.647v-10.683h-1.424c-1.513 0-2.552.171-3.115.512l-.356.312c-.312.326-.468.749-.468 1.269 0 1.217.846 1.943 2.537 2.181.563.074 1.439.111 2.626.111l-5.208 6.298h-1.936zm11.795 0v-12.173h3.271c1.543 0 2.648.237 3.316.712.712.534 1.068 1.351 1.068 2.448 0 1.187-.445 2.025-1.335 2.515 1.365.563 2.047 1.565 2.047 3.004 0 1.217-.4 2.129-1.202 2.737l-.178.111c-.712.431-1.817.646-3.316.646h-3.671zm1.647-7.21h1.491c1.157 0 1.869-.089 2.136-.268.623-.415.935-.92.935-1.513 0-.549-.237-.987-.712-1.313-.386-.252-1.18-.378-2.381-.378h-1.469v3.472zm0 5.718h1.669c1.172 0 1.906-.044 2.203-.134.193-.059.363-.147.512-.267.445-.356.712-.683.801-.979.044-.163.067-.348.067-.556 0-.653-.378-1.246-1.135-1.78-.327-.237-1.217-.356-2.671-.356h-1.446v4.072zm14.509-10.681l5.119 12.173h-1.669l-4.362-10.237-4.272 10.237h-1.669l5.118-12.173h1.735zm18.894 6.631h-11.017c.074 1.335.668 2.434 1.78 3.293.876.683 1.862 1.024 2.96 1.024 1.351 0 2.485-.49 3.405-1.469.37-.386.652-.824.846-1.313h1.713c-.312.95-.904 1.84-1.78 2.671-1.157 1.083-2.536 1.624-4.139 1.624-1.869 0-3.428-.66-4.674-1.98-1.172-1.231-1.758-2.715-1.758-4.451 0-1.839.652-3.374 1.958-4.606 1.202-1.142 2.656-1.713 4.362-1.713 1.766 0 3.264.608 4.495 1.824.4.4.742.846 1.023 1.336.551.964.826 2.218.826 3.76zm-10.972-1.491h9.324c-.386-1.677-1.269-2.834-2.648-3.472-.623-.297-1.313-.445-2.069-.445-1.513 0-2.723.579-3.627 1.736-.49.624-.817 1.35-.98 2.181zm13.241 7.033v-12.173h1.624v5.341h6.054v-5.341h1.624v12.173h-1.624v-5.341h-6.054v5.341h-1.624zm12.107 0v-12.173l1.624-.022v9.926l7.478-9.903h1.625v12.173h-1.625v-9.903l-7.478 9.903h-1.624zm12.906 0l4.339-5.118c-1.157 0-2.114-.356-2.87-1.068-.639-.608-.957-1.387-.957-2.337 0-1.884.935-3.033 2.804-3.449.623-.134 1.372-.2 2.248-.2h3.427v12.173h-1.646v-10.683h-1.425c-1.513 0-2.552.171-3.115.512l-.356.312c-.312.326-.467.749-.467 1.269 0 1.217.846 1.943 2.537 2.181.563.074 1.438.111 2.626.111l-5.208 6.298h-1.937z" fill="#0081C8"/></svg>