<svg version="1.2" baseProfile="tiny" xmlns="http://www.w3.org/2000/svg" width="360" height="72"><g fill="#0081C8"><path d="M165.017 63.646v-16.446h3.85c1.884 0 3.271.318 4.162.956.979.728 1.469 1.833 1.469 3.316 0 1.721-.631 2.856-1.892 3.404 1.884.609 2.826 1.959 2.826 4.051 0 2.032-.712 3.383-2.136 4.05-.935.445-2.255.668-3.961.668h-4.318zm1.647-9.325h2.003c1.884 0 3.108-.363 3.672-1.091.326-.415.49-.993.49-1.735 0-1.306-.542-2.137-1.625-2.493-.623-.207-1.558-.312-2.804-.312h-1.736v5.631zm0 7.833h2.56c2.047 0 3.375-.4 3.983-1.201.371-.475.556-1.12.556-1.937 0-1.454-.608-2.403-1.825-2.849l-.935-.244-1.38-.134c-.312-.015-.646-.022-1.001-.022h-1.958v6.387zM177.435 63.646v-12.173l1.625-.022v9.926l7.478-9.903h1.625v12.173h-1.625v-9.903l-7.478 9.903h-1.625zM192.032 63.646v2.671h-1.869v-4.162h1.469l4.495-10.682h1.736l4.495 10.682h1.469v4.162h-1.869v-2.671h-9.926zm8.635-1.492l-3.738-8.746-3.649 8.746h7.387zM218.026 58.104h-11.016c.074 1.335.668 2.434 1.78 3.293.876.683 1.862 1.024 2.96 1.024 1.351 0 2.485-.49 3.405-1.469.37-.386.652-.824.846-1.313h1.713c-.312.95-.904 1.84-1.78 2.671-1.157 1.083-2.536 1.624-4.139 1.624-1.869 0-3.428-.66-4.674-1.98-1.172-1.231-1.758-2.715-1.758-4.451 0-1.839.652-3.374 1.958-4.606 1.202-1.142 2.656-1.713 4.362-1.713 1.766 0 3.264.608 4.495 1.824.4.4.742.846 1.023 1.336.55.964.825 2.218.825 3.76zm-10.971-1.491h9.324c-.386-1.677-1.269-2.834-2.648-3.472-.623-.297-1.313-.445-2.069-.445-1.513 0-2.723.579-3.627 1.736-.491.624-.817 1.35-.98 2.181zM226.215 51.184c1.959 0 3.546.683 4.763 2.047 1.038 1.188 1.558 2.641 1.558 4.362 0 1.973-.668 3.568-2.003 4.784l-.712.557c-1.023.667-2.181 1.001-3.472 1.001-2.033 0-3.672-.689-4.918-2.069-1.068-1.187-1.603-2.648-1.603-4.384 0-1.87.668-3.412 2.003-4.629 1.202-1.114 2.663-1.669 4.384-1.669zm0 1.512c-1.528 0-2.752.571-3.672 1.714-.534.683-.867 1.469-1.001 2.358-.03.253-.045.505-.045.757 0 1.662.594 2.96 1.78 3.895.846.668 1.854 1.002 3.026 1.002 1.528 0 2.73-.586 3.605-1.759.638-.86.957-1.876.957-3.049 0-1.632-.564-2.922-1.691-3.872-.653-.549-1.417-.882-2.292-1.001-.222-.029-.444-.045-.667-.045z"/></g></svg>