<svg baseProfile="tiny" xmlns="http://www.w3.org/2000/svg" width="360" height="72"><polygon fill="#007CC0" points="329.489,39.739 329.489,63.659 332.34,61.178 338.45,55.883 343.635,69.546 344.264,71.17 345.892,70.544 352.185,68.099 353.781,67.472 353.185,65.878 347.966,52.104 356.444,51.735 360,51.587 357.668,48.883 349.891,39.738 345.336,39.738 352.702,48.399 345.41,48.734 343.002,48.845 343.857,51.066 349.335,65.508 346.26,66.654 340.819,52.323 339.93,49.992 338.043,51.621 332.972,56.03 332.972,39.736 329.487,39.738"/><path fill="#3EB75B" d="M4.532 37.566h-3.473v-34.682h3.473v34.682zm15.347 0l-14.643-17.787 14.174-16.895h4.365l-14.174 16.895 14.643 17.787h-4.365zm8.306-25.671h3.473v4.412c2.44-3.222 5.803-4.896 10.09-5.022 4.036 0 7.369 1.424 9.997 4.271 2.347 2.534 3.52 5.617 3.52 9.246 0 3.912-1.393 7.166-4.177 9.762-2.597 2.41-5.742 3.614-9.433 3.614-4.381 0-7.713-1.674-9.997-5.022v13.422h-3.473v-34.683zm13.423 2.581c-3.129 0-5.71 1.158-7.744 3.473-1.627 1.909-2.441 4.13-2.441 6.665 0 3.348 1.204 6.039 3.614 8.072 1.846 1.533 4.052 2.3 6.618 2.3 3.222 0 5.819-1.189 7.791-3.567 1.533-1.877 2.3-4.083 2.3-6.618 0-3.348-1.205-6.022-3.614-8.025-1.189-1.001-2.566-1.673-4.13-2.018-.783-.188-1.581-.282-2.394-.282zm44.726-2.581v25.672h-3.473v-4.505c-2.065 2.753-4.458 4.38-7.181 4.88-.845.157-1.752.235-2.722.235-4.224 0-7.65-1.439-10.278-4.318-2.316-2.471-3.473-5.491-3.473-9.058 0-4.067 1.423-7.415 4.271-10.043 2.534-2.315 5.616-3.473 9.246-3.473 4.098 0 7.352 1.549 9.762 4.646l.375.516v-4.552h3.473zm-13.517 2.581c-3.067 0-5.601 1.158-7.603 3.473-1.283 1.439-2.065 3.114-2.347 5.022-.094.532-.141 1.064-.141 1.596 0 3.285 1.188 5.945 3.567 7.978 1.908 1.627 4.145 2.441 6.711 2.441 3.066 0 5.569-1.189 7.509-3.567 1.564-1.908 2.347-4.177 2.347-6.805 0-3.191-1.173-5.788-3.52-7.791-1.846-1.565-4.02-2.347-6.523-2.347zm41.066 15.534h3.942c-1.189 2.253-2.44 3.942-3.754 5.069l-.282.188c-2.472 1.94-5.319 2.91-8.542 2.91-4.13 0-7.541-1.392-10.231-4.177-2.503-2.565-3.754-5.679-3.754-9.339 0-3.817 1.392-7.04 4.177-9.668 2.628-2.471 5.82-3.708 9.574-3.708 4.067 0 7.431 1.408 10.09 4.224 1.095 1.126 1.955 2.425 2.582 3.896l.094.281h-3.896c-2.002-3.41-4.975-5.146-8.917-5.209-3.191 0-5.789 1.189-7.791 3.567-.97 1.158-1.643 2.457-2.018 3.896-.251.908-.375 1.847-.375 2.816 0 3.129 1.173 5.71 3.52 7.744 1.94 1.659 4.208 2.488 6.805 2.488 2.816 0 5.225-1.048 7.228-3.145.499-.534 1.016-1.144 1.548-1.833zm8.728 7.556v-25.671h3.426v11.264h12.766v-11.264h3.426v25.672h-3.426v-11.264h-12.766v11.264l-3.426-.001zm38.015-26.282c4.13 0 7.478 1.44 10.044 4.318 2.189 2.503 3.285 5.57 3.285 9.199 0 4.162-1.408 7.525-4.224 10.09l-1.502 1.173c-2.159 1.408-4.599 2.112-7.321 2.112-4.287 0-7.744-1.455-10.372-4.365-2.252-2.503-3.379-5.585-3.379-9.246 0-3.942 1.408-7.196 4.224-9.762 2.534-2.345 5.615-3.519 9.245-3.519zm0 3.192c-3.223 0-5.804 1.205-7.744 3.614-1.126 1.44-1.83 3.098-2.112 4.975-.063.532-.094 1.064-.094 1.596 0 3.504 1.251 6.242 3.754 8.213 1.783 1.408 3.911 2.112 6.383 2.112 3.222 0 5.756-1.236 7.603-3.708 1.345-1.814 2.018-3.958 2.018-6.43 0-3.441-1.189-6.164-3.567-8.166-1.377-1.157-2.988-1.861-4.834-2.112-.468-.063-.937-.094-1.407-.094zm21.495 32.101l4.178-9.855-9.95-24.827h3.802l8.119 20.462 8.682-20.462h3.709l-14.832 34.683h-3.708v-.001zm38.062-3.942h-3.474v-4.458c-4.349-.031-7.822-1.533-10.419-4.506-2.158-2.471-3.238-5.506-3.238-9.104 0-3.879 1.424-7.118 4.271-9.715 2.597-2.377 5.726-3.567 9.386-3.567v-3.333h3.474v3.332c3.973.188 7.211 1.69 9.715 4.506 2.253 2.503 3.379 5.507 3.379 9.011 0 4.162-1.424 7.525-4.271 10.09l-1.455 1.126c-2.159 1.439-4.615 2.159-7.368 2.159v4.459zm-3.474-28.159c-3.19 0-5.772 1.173-7.743 3.52-1.596 1.877-2.394 4.099-2.394 6.665 0 3.473 1.235 6.195 3.707 8.166 1.784 1.439 3.927 2.159 6.43 2.159v-20.51zm3.474 20.509c3.222-.031 5.756-1.283 7.603-3.755 1.314-1.783 1.972-3.911 1.972-6.383 0-3.285-1.205-5.944-3.614-7.979l-1.408-.985c-1.407-.845-2.926-1.314-4.552-1.408l-.001 20.51zm18.022 2.581v-25.671l3.426-.047v20.932l15.77-20.885h3.426v25.672h-3.427v-20.885l-15.77 20.885-3.425-.001zm51.53-21.447l-8.4 21.448h-3.191l-7.932-21.448v21.448h-3.473v-25.672h5.209l7.932 21.589 8.119-21.589 5.21-.094v25.766h-3.474v-21.448zm31.022 13.891h3.942c-1.189 2.253-2.44 3.942-3.755 5.069l-.281.188c-2.473 1.94-5.32 2.91-8.542 2.91-4.13 0-7.541-1.392-10.231-4.177-2.503-2.565-3.755-5.679-3.755-9.339 0-3.817 1.393-7.04 4.178-9.668 2.628-2.471 5.819-3.708 9.574-3.708 4.066 0 7.431 1.408 10.09 4.224 1.095 1.126 1.955 2.425 2.581 3.896l.095.281h-3.896c-2.003-3.41-4.976-5.146-8.917-5.209-3.191 0-5.789 1.189-7.791 3.567-.971 1.158-1.643 2.457-2.019 3.896-.251.908-.375 1.847-.375 2.816 0 3.129 1.173 5.71 3.52 7.744 1.939 1.659 4.208 2.488 6.806 2.488 2.815 0 5.225-1.048 7.228-3.145.499-.534 1.015-1.144 1.548-1.833zm12.202-18.162v25.719h-3.473v-25.672l3.473-.047zm10.56-.047l4.271.094-9.996 12.906 10.653 12.766h-4.317l-10.606-12.766 9.995-13z"/><path fill="#0081C8" d="M252.273 51.112c1.982 0 3.59.69 4.821 2.072 1.051 1.202 1.577 2.674 1.577 4.415 0 1.998-.676 3.612-2.027 4.844l-.722.563c-1.036.676-2.207 1.014-3.514 1.014-2.058 0-3.717-.698-4.979-2.095-1.082-1.202-1.622-2.682-1.622-4.438 0-1.893.676-3.454 2.027-4.686 1.219-1.125 2.697-1.689 4.439-1.689zm0 1.533c-1.547 0-2.785.578-3.717 1.734-.54.69-.878 1.486-1.014 2.388-.03.256-.045.511-.045.766 0 1.683.601 2.996 1.802 3.942.856.676 1.878 1.014 3.064 1.014 1.546 0 2.763-.593 3.649-1.779.646-.871.969-1.899.969-3.086 0-1.652-.571-2.959-1.713-3.92-.66-.556-1.434-.894-2.32-1.014-.223-.031-.449-.045-.675-.045zm8.764 11.083v-12.323h1.645v5.406h6.128v-5.406h1.645v12.322h-1.645v-5.406h-6.128v5.406h-1.645v.001zm17.954-12.323l5.181 12.322h-1.689l-4.415-10.362-4.325 10.362h-1.689l5.181-12.322h1.756zm19.328 0v12.322h-1.667v-2.163c-.991 1.322-2.14 2.104-3.446 2.344-.405.074-.842.112-1.307.112-2.027 0-3.672-.69-4.934-2.072-1.111-1.187-1.667-2.636-1.667-4.349 0-1.952.683-3.559 2.05-4.82 1.217-1.111 2.695-1.667 4.438-1.667 1.968 0 3.529.743 4.687 2.23l.18.247v-2.185l1.666.001zm-6.487 1.24c-1.473 0-2.688.556-3.649 1.667-.616.69-.991 1.494-1.127 2.41-.045.256-.067.511-.067.766 0 1.577.57 2.854 1.712 3.83.916.781 1.99 1.171 3.222 1.171 1.472 0 2.673-.57 3.604-1.712.751-.916 1.126-2.005 1.126-3.267 0-1.531-.563-2.778-1.689-3.739-.888-.751-1.931-1.126-3.132-1.126zm9.325 11.083v-12.323l1.645-.022v10.047l7.569-10.024h1.645v12.322h-1.645v-10.025l-7.569 10.024h-1.645v.001zm2.028-16.513h1.442c.075.48.271.826.586 1.036.435.24.9.36 1.396.36.495 0 .961-.12 1.396-.36.315-.21.511-.556.586-1.036h1.441c-.165.901-.466 1.532-.901 1.893l-.202.157c-.601.437-1.374.653-2.32.653-1.817 0-2.929-.773-3.334-2.32l-.09-.383zm11.669 16.513v-12.323h1.645v5.406h6.128v-5.406h1.645v12.322h-1.645v-5.406h-6.128v5.406h-1.645v.001z"/><g fill="#0081C8"><path d="M111.195 63.721v-15.142h-4.259v-1.51h10.184v1.51h-4.259v15.142h-1.666zM118.698 63.721v-12.325l1.645-.022v10.049l7.571-10.027h1.645v12.325h-1.645v-10.027l-7.571 10.027h-1.645zM132.397 63.721v-12.325h9.531v12.325h-1.667v-10.816h-6.196v10.816h-1.668zM150.76 51.103c1.983 0 3.59.691 4.822 2.073 1.051 1.201 1.577 2.673 1.577 4.416 0 1.998-.676 3.613-2.028 4.844l-.721.564c-1.037.676-2.208 1.014-3.515 1.014-2.058 0-3.717-.698-4.979-2.095-1.082-1.202-1.622-2.681-1.622-4.439 0-1.893.676-3.455 2.028-4.686 1.216-1.128 2.695-1.691 4.438-1.691zm0 1.533c-1.547 0-2.786.578-3.718 1.735-.541.69-.879 1.487-1.014 2.388-.03.256-.045.511-.045.766 0 1.683.601 2.997 1.802 3.943.856.676 1.878 1.014 3.064 1.014 1.547 0 2.764-.593 3.65-1.78.645-.871.969-1.9.969-3.087 0-1.652-.571-2.959-1.712-3.92-.662-.556-1.435-.894-2.321-1.014-.225-.031-.45-.045-.675-.045zM159.525 63.721v-12.325h6.783v1.533l-5.138-.023v10.816h-1.645zM167.839 51.396h1.667v2.118c1.172-1.547 2.786-2.35 4.844-2.411 1.938 0 3.538.683 4.8 2.05 1.126 1.217 1.689 2.696 1.689 4.439 0 1.878-.669 3.439-2.005 4.686-1.248 1.157-2.757 1.735-4.529 1.735-2.103 0-3.703-.804-4.799-2.411v6.444h-1.667v-16.65zm6.444 1.24c-1.502 0-2.741.556-3.717 1.667-.782.917-1.172 1.983-1.172 3.2 0 1.607.578 2.899 1.735 3.876.887.736 1.945 1.103 3.177 1.103 1.547 0 2.794-.57 3.741-1.712.735-.901 1.104-1.96 1.104-3.176 0-1.608-.579-2.892-1.735-3.853-.571-.481-1.232-.804-1.983-.969-.377-.092-.759-.136-1.15-.136zM195.755 51.396v12.325h-1.667v-2.163c-.991 1.322-2.14 2.103-3.447 2.343-.406.075-.841.113-1.306.113-2.028 0-3.672-.69-4.934-2.073-1.112-1.186-1.667-2.636-1.667-4.348 0-1.953.683-3.56 2.05-4.822 1.216-1.112 2.695-1.667 4.438-1.667 1.968 0 3.53.744 4.687 2.231l.18.248v-2.186h1.666zm-6.488 1.24c-1.473 0-2.689.556-3.65 1.667-.616.691-.991 1.495-1.127 2.411-.045.255-.067.511-.067.766 0 1.577.571 2.854 1.713 3.83.916.782 1.99 1.172 3.222 1.172 1.471 0 2.673-.57 3.605-1.712.751-.916 1.126-2.005 1.126-3.267 0-1.533-.563-2.779-1.689-3.741-.889-.751-1.932-1.126-3.133-1.126zM206.345 66.154h-1.667v-2.141c-2.088-.015-3.756-.736-5.002-2.163-1.036-1.186-1.554-2.644-1.554-4.372 0-1.862.683-3.417 2.05-4.664 1.247-1.141 2.749-1.712 4.507-1.712v-1.6h1.667v1.6c1.908.09 3.462.811 4.664 2.163 1.081 1.201 1.622 2.644 1.622 4.326 0 1.998-.683 3.613-2.05 4.844l-.698.541c-1.037.691-2.216 1.037-3.537 1.037v2.141zm-1.667-13.518c-1.533 0-2.772.563-3.718 1.689-.766.902-1.149 1.968-1.149 3.199 0 1.667.593 2.975 1.78 3.921.856.69 1.885 1.036 3.087 1.036v-9.845zm1.667 9.845c1.547-.014 2.764-.615 3.65-1.802.631-.856.946-1.877.946-3.064 0-1.577-.578-2.853-1.735-3.83l-.676-.473c-.676-.406-1.405-.631-2.185-.676v9.845zM214.998 63.721v-12.325l1.645-.022v10.049l7.571-10.027h1.645v12.325h-1.645v-10.027l-7.571 10.027h-1.645zM228.065 63.721l4.394-5.182c-1.172 0-2.14-.361-2.907-1.082-.646-.615-.968-1.404-.968-2.366 0-1.907.946-3.071 2.839-3.492.631-.136 1.389-.203 2.276-.203h3.47v12.325h-1.667v-10.816h-1.442c-1.532 0-2.584.173-3.154.519l-.36.315c-.315.33-.473.758-.473 1.284 0 1.232.856 1.968 2.568 2.208.57.075 1.457.113 2.659.113l-5.272 6.376h-1.963z"/></g></svg>