<svg version="1.2" baseProfile="tiny" xmlns="http://www.w3.org/2000/svg" width="360" height="72"><g fill="#0081C8"><path d="M144.299 63.646v-16.446h1.646v7.232h8.523v-7.232h1.647v16.445h-1.647v-7.722h-8.523v7.722h-1.646zM165.128 51.184c1.958 0 3.545.683 4.762 2.047 1.038 1.188 1.558 2.641 1.558 4.362 0 1.973-.667 3.568-2.003 4.784l-.712.557c-1.024.667-2.181 1.001-3.472 1.001-2.033 0-3.672-.689-4.918-2.069-1.068-1.187-1.603-2.648-1.603-4.384 0-1.87.667-3.412 2.003-4.629 1.203-1.114 2.664-1.669 4.385-1.669zm0 1.512c-1.528 0-2.752.571-3.672 1.714-.534.683-.868 1.469-1.001 2.358-.03.253-.045.505-.045.757 0 1.662.593 2.96 1.781 3.895.845.668 1.854 1.002 3.026 1.002 1.528 0 2.729-.586 3.605-1.759.638-.86.957-1.876.957-3.049 0-1.632-.564-2.922-1.691-3.872-.653-.549-1.417-.882-2.292-1.001-.223-.029-.445-.045-.668-.045zM173.785 63.646v-12.173h3.271c1.543 0 2.648.237 3.316.712.711.534 1.069 1.351 1.069 2.448 0 1.187-.445 2.025-1.336 2.515 1.365.563 2.047 1.565 2.047 3.004 0 1.217-.4 2.129-1.201 2.737l-.178.111c-.712.431-1.818.646-3.316.646h-3.672zm1.647-7.21h1.491c1.157 0 1.869-.089 2.136-.268.623-.415.935-.92.935-1.513 0-.549-.237-.987-.712-1.313-.386-.252-1.18-.378-2.381-.378h-1.469v3.472zm0 5.718h1.669c1.172 0 1.906-.044 2.203-.134.193-.059.363-.147.512-.267.445-.356.712-.683.801-.979.045-.163.066-.348.066-.556 0-.653-.378-1.247-1.134-1.78-.327-.237-1.217-.356-2.671-.356h-1.446v4.072zM190.23 51.184c1.959 0 3.546.683 4.763 2.047 1.038 1.188 1.558 2.641 1.558 4.362 0 1.973-.668 3.568-2.003 4.784l-.712.557c-1.023.667-2.181 1.001-3.472 1.001-2.033 0-3.672-.689-4.918-2.069-1.068-1.187-1.603-2.648-1.603-4.384 0-1.87.668-3.412 2.003-4.629 1.203-1.114 2.664-1.669 4.384-1.669zm0 1.512c-1.528 0-2.752.571-3.672 1.714-.534.683-.867 1.469-1.001 2.358-.03.253-.045.505-.045.757 0 1.662.594 2.96 1.78 3.895.846.668 1.854 1.002 3.026 1.002 1.528 0 2.73-.586 3.605-1.759.638-.86.957-1.876.957-3.049 0-1.632-.564-2.922-1.691-3.872-.653-.549-1.417-.882-2.292-1.001-.221-.029-.444-.045-.667-.045zM209.146 60.063h1.869c-.563 1.068-1.157 1.869-1.78 2.403l-.134.089c-1.172.921-2.522 1.38-4.05 1.38-1.958 0-3.575-.66-4.852-1.98-1.187-1.216-1.78-2.692-1.78-4.429 0-1.81.66-3.338 1.98-4.584 1.246-1.172 2.76-1.758 4.54-1.758 1.929 0 3.523.667 4.784 2.003.52.534.928 1.149 1.225 1.847l.044.134h-1.847c-.949-1.617-2.359-2.44-4.229-2.471-1.513 0-2.745.564-3.694 1.691-.46.549-.778 1.165-.956 1.848-.119.43-.179.875-.179 1.335 0 1.483.557 2.708 1.669 3.672.92.786 1.995 1.18 3.228 1.18 1.335 0 2.478-.497 3.427-1.491.238-.253.483-.543.735-.869zM215.422 63.646v-10.682h-3.404v-1.491h7.789v1.491h-2.737v10.682h-1.648zM221.342 63.646v-12.173l1.624-.022v9.926l7.478-9.903h1.625v12.173h-1.625v-9.903l-7.478 9.903h-1.624z"/></g></svg>