<svg version="1.2" baseProfile="tiny" xmlns="http://www.w3.org/2000/svg" width="360" height="72"><g fill="#0081C8"><path d="M170.024 63.646h-1.646v-16.446h1.646v16.446zm7.277 0l-6.943-8.435 6.721-8.011h2.07l-6.721 8.011 6.943 8.435h-2.07zM193.636 51.473v12.173h-1.647v-2.137c-.979 1.306-2.114 2.077-3.404 2.314-.4.074-.831.111-1.291.111-2.003 0-3.627-.682-4.874-2.047-1.098-1.172-1.646-2.604-1.646-4.295 0-1.929.675-3.517 2.025-4.763 1.201-1.098 2.663-1.646 4.384-1.646 1.943 0 3.486.734 4.629 2.203l.178.244v-2.158h1.646zm-6.409 1.223c-1.454 0-2.656.549-3.605 1.647-.608.683-.979 1.476-1.112 2.381-.045.252-.067.505-.067.757 0 1.558.563 2.818 1.691 3.783.905.771 1.966 1.157 3.183 1.157 1.454 0 2.641-.564 3.561-1.691.741-.905 1.112-1.98 1.112-3.228 0-1.513-.556-2.744-1.669-3.693-.877-.742-1.908-1.113-3.094-1.113zM196.439 51.473h1.646v2.092c1.157-1.528 2.752-2.321 4.784-2.381 1.914 0 3.494.675 4.74 2.024 1.113 1.202 1.669 2.663 1.669 4.385 0 1.854-.66 3.397-1.98 4.629-1.231 1.143-2.723 1.713-4.473 1.713-2.077 0-3.657-.793-4.74-2.381v6.364h-1.646v-16.445zm6.365 1.223c-1.483 0-2.708.549-3.672 1.647-.771.904-1.157 1.958-1.157 3.159 0 1.588.571 2.864 1.714 3.828.875.728 1.921 1.091 3.138 1.091 1.527 0 2.76-.564 3.694-1.691.727-.891 1.09-1.937 1.09-3.138 0-1.588-.571-2.856-1.713-3.806-.564-.475-1.217-.794-1.959-.957-.372-.088-.75-.133-1.135-.133zM213.753 63.646v-10.682h-3.404v-1.491h7.789v1.491h-2.738v10.682h-1.647zM232.068 51.473v12.173h-1.647v-2.137c-.979 1.306-2.114 2.077-3.404 2.314-.4.074-.831.111-1.291.111-2.003 0-3.627-.682-4.874-2.047-1.098-1.172-1.646-2.604-1.646-4.295 0-1.929.675-3.517 2.025-4.763 1.201-1.098 2.663-1.646 4.384-1.646 1.943 0 3.486.734 4.629 2.203l.178.244v-2.158h1.646zm-6.409 1.223c-1.454 0-2.656.549-3.605 1.647-.608.683-.979 1.476-1.112 2.381-.045.252-.067.505-.067.757 0 1.558.563 2.818 1.691 3.783.905.771 1.966 1.157 3.183 1.157 1.454 0 2.641-.564 3.561-1.691.741-.905 1.112-1.98 1.112-3.228 0-1.513-.556-2.744-1.669-3.693-.876-.742-1.907-1.113-3.094-1.113z"/></g></svg>