<svg version="1.2" baseProfile="tiny" xmlns="http://www.w3.org/2000/svg" width="360" height="72"><polygon fill-rule="evenodd" fill="#007CC0" points="327.998,39.952 327.998,63.58 330.814,61.13 336.85,55.899 341.971,69.396 342.593,71 344.201,70.382 350.417,67.966 351.993,67.347 351.405,65.772 346.249,52.167 354.624,51.802 358.136,51.655 355.832,48.985 348.151,39.951 343.651,39.951 350.928,48.507 343.725,48.837 341.346,48.947 342.19,51.141 347.602,65.406 344.565,66.539 339.19,52.383 338.311,50.08 336.447,51.69 331.438,56.044 331.438,39.949 327.996,39.951 327.998,39.952"/><g fill="#0081C8"><path d="M251.725 51.185c1.959 0 3.546.683 4.763 2.048 1.038 1.187 1.558 2.641 1.558 4.361 0 1.973-.668 3.568-2.002 4.784l-.713.557c-1.023.667-2.181 1.001-3.471 1.001-2.033 0-3.672-.689-4.918-2.069-1.068-1.187-1.603-2.648-1.603-4.384 0-1.869.667-3.412 2.003-4.629 1.201-1.113 2.662-1.669 4.383-1.669zm0 1.513c-1.527 0-2.752.571-3.671 1.713-.534.683-.868 1.469-1.001 2.359-.03.252-.045.504-.045.756 0 1.662.594 2.96 1.78 3.895.846.668 1.854 1.001 3.026 1.001 1.527 0 2.729-.585 3.605-1.758.637-.859.956-1.876.956-3.048 0-1.632-.563-2.923-1.69-3.872-.654-.549-1.418-.883-2.293-1.002-.222-.029-.445-.044-.667-.044zM260.381 63.646v-12.171h1.625v5.34h6.053v-5.34h1.625v12.172h-1.625v-5.341h-6.053v5.341h-1.625zM278.116 51.475l5.118 12.172h-1.669l-4.361-10.236-4.272 10.236h-1.669l5.118-12.172h1.735zM297.209 51.475v12.172h-1.646v-2.137c-.979 1.306-2.115 2.077-3.405 2.314-.4.074-.831.111-1.29.111-2.004 0-3.627-.683-4.874-2.047-1.098-1.172-1.646-2.604-1.646-4.295 0-1.929.675-3.516 2.024-4.762 1.202-1.098 2.663-1.647 4.385-1.647 1.943 0 3.485.734 4.628 2.203l.179.245v-2.158h1.645zm-6.409 1.223c-1.454 0-2.655.549-3.604 1.646-.609.683-.979 1.477-1.113 2.381-.044.253-.066.505-.066.757 0 1.558.563 2.818 1.691 3.783.904.771 1.965 1.156 3.182 1.156 1.454 0 2.641-.563 3.561-1.69.742-.905 1.113-1.98 1.113-3.227 0-1.514-.557-2.744-1.67-3.694-.876-.741-1.908-1.112-3.094-1.112zM300.012 63.646v-12.171l1.625-.022v9.925l7.477-9.902h1.625v12.172h-1.625v-9.902l-7.477 9.902h-1.625zm2.004-16.311h1.424c.074.476.267.816.578 1.024.43.237.891.355 1.38.355s.949-.118 1.38-.355c.311-.208.504-.549.578-1.024h1.424c-.163.891-.459 1.514-.89 1.869l-.2.156c-.594.431-1.357.646-2.292.646-1.796 0-2.894-.765-3.294-2.292l-.088-.379zM313.541 63.646v-12.171h1.625v5.34h6.053v-5.34h1.625v12.172h-1.625v-5.341h-6.053v5.341h-1.625z"/></g><g fill="#3EB75B"><path d="M7.008 37.806h-3.43v-34.26h3.43v34.26zm15.159 0l-14.463-17.571 14-16.689h4.311l-14 16.689 14.464 17.57h-4.312zM30.372 12.447h3.431v4.358c2.411-3.183 5.733-4.837 9.967-4.96 3.987 0 7.278 1.407 9.875 4.219 2.318 2.503 3.477 5.548 3.477 9.132 0 3.864-1.375 7.078-4.126 9.643-2.566 2.38-5.672 3.569-9.318 3.569-4.327 0-7.619-1.653-9.875-4.96v13.259h-3.431v-34.26zm13.259 2.55c-3.091 0-5.641 1.144-7.649 3.431-1.607 1.885-2.411 4.08-2.411 6.583 0 3.307 1.189 5.965 3.569 7.974 1.823 1.515 4.002 2.271 6.537 2.271 3.183 0 5.749-1.174 7.696-3.523 1.514-1.854 2.271-4.033 2.271-6.537 0-3.307-1.19-5.949-3.57-7.927-1.175-.989-2.534-1.653-4.08-1.993-.772-.186-1.56-.279-2.363-.279zM87.811 12.447v25.358h-3.431v-4.451c-2.04 2.72-4.404 4.328-7.093 4.822-.834.154-1.731.231-2.689.231-4.172 0-7.557-1.421-10.153-4.265-2.287-2.441-3.43-5.424-3.43-8.947 0-4.017 1.406-7.325 4.218-9.92 2.503-2.287 5.547-3.431 9.133-3.431 4.048 0 7.263 1.53 9.643 4.589l.371.51v-4.497h3.431zm-13.352 2.55c-3.029 0-5.533 1.144-7.51 3.431-1.268 1.422-2.04 3.076-2.318 4.96-.093.526-.139 1.051-.139 1.576 0 3.245 1.174 5.872 3.523 7.881 1.885 1.607 4.095 2.411 6.629 2.411 3.028 0 5.501-1.174 7.417-3.523 1.545-1.885 2.318-4.126 2.318-6.722 0-3.152-1.159-5.718-3.477-7.696-1.822-1.545-3.97-2.318-6.443-2.318zM115.023 30.342h3.895c-1.175 2.225-2.411 3.894-3.709 5.007l-.278.186c-2.441 1.917-5.254 2.874-8.437 2.874-4.08 0-7.449-1.374-10.106-4.126-2.473-2.534-3.708-5.609-3.708-9.225 0-3.771 1.375-6.954 4.126-9.55 2.596-2.441 5.749-3.662 9.457-3.662 4.017 0 7.34 1.391 9.967 4.172 1.082 1.112 1.931 2.396 2.55 3.848l.093.278h-3.848c-1.978-3.369-4.914-5.084-8.808-5.146-3.152 0-5.718 1.175-7.696 3.523-.958 1.144-1.623 2.426-1.993 3.848-.248.896-.371 1.824-.371 2.781 0 3.091 1.159 5.641 3.477 7.649 1.916 1.639 4.156 2.457 6.722 2.457 2.781 0 5.161-1.035 7.139-3.106.493-.525 1.003-1.128 1.528-1.808zM123.646 37.806v-25.359h3.384v11.126h12.61v-11.126h3.384v25.358h-3.384v-11.125h-12.61v11.126h-3.384zM161.196 11.845c4.08 0 7.386 1.422 9.921 4.265 2.163 2.473 3.245 5.501 3.245 9.086 0 4.111-1.391 7.434-4.172 9.967l-1.483 1.159c-2.132 1.391-4.543 2.086-7.232 2.086-4.234 0-7.649-1.437-10.245-4.311-2.226-2.473-3.338-5.517-3.338-9.133 0-3.895 1.391-7.108 4.172-9.643 2.502-2.318 5.546-3.476 9.132-3.476zm0 3.152c-3.184 0-5.733 1.19-7.649 3.57-1.113 1.422-1.808 3.06-2.086 4.914-.062.526-.093 1.051-.093 1.576 0 3.461 1.236 6.166 3.709 8.113 1.762 1.391 3.863 2.086 6.305 2.086 3.183 0 5.686-1.221 7.51-3.662 1.329-1.792 1.993-3.91 1.993-6.352 0-3.399-1.175-6.088-3.523-8.066-1.36-1.143-2.952-1.838-4.775-2.086-.464-.062-.927-.093-1.391-.093zM182.429 46.707l4.126-9.736-9.829-24.524h3.755l8.021 20.212 8.576-20.212h3.662l-14.649 34.26h-3.662zM220.025 42.813h-3.431v-4.404c-4.296-.031-7.727-1.514-10.292-4.45-2.133-2.441-3.198-5.439-3.198-8.994 0-3.832 1.405-7.031 4.218-9.597 2.565-2.348 5.656-3.523 9.272-3.523v-3.292h3.431v3.292c3.924.186 7.123 1.669 9.596 4.45 2.226 2.473 3.338 5.44 3.338 8.901 0 4.111-1.406 7.434-4.219 9.967l-1.437 1.113c-2.132 1.422-4.56 2.132-7.278 2.132v4.405zm-3.43-27.816c-3.152 0-5.702 1.159-7.649 3.477-1.576 1.854-2.364 4.049-2.364 6.583 0 3.43 1.221 6.119 3.663 8.066 1.762 1.422 3.877 2.132 6.351 2.132v-20.258zm3.43 20.259c3.183-.03 5.686-1.267 7.51-3.708 1.299-1.762 1.947-3.863 1.947-6.305 0-3.245-1.189-5.872-3.569-7.881l-1.392-.974c-1.391-.834-2.89-1.298-4.496-1.391v20.259zM237.827 37.806v-25.359l3.384-.046v20.676l15.577-20.63h3.384v25.358h-3.384v-20.63l-15.577 20.63h-3.384zM288.729 16.62l-8.298 21.186h-3.152l-7.835-21.186v21.186h-3.431v-25.359h5.146l7.836 21.325 8.02-21.325 5.146-.093v25.451h-3.431v-21.185zM319.371 30.342h3.895c-1.175 2.225-2.41 3.894-3.709 5.007l-.277.186c-2.441 1.917-5.255 2.874-8.438 2.874-4.08 0-7.449-1.374-10.106-4.126-2.474-2.534-3.708-5.609-3.708-9.225 0-3.771 1.374-6.954 4.125-9.55 2.596-2.441 5.749-3.662 9.457-3.662 4.018 0 7.34 1.391 9.968 4.172 1.081 1.112 1.931 2.396 2.55 3.848l.093.278h-3.849c-1.978-3.369-4.914-5.084-8.808-5.146-3.152 0-5.718 1.175-7.696 3.523-.957 1.144-1.622 2.426-1.992 3.848-.248.896-.371 1.824-.371 2.781 0 3.091 1.158 5.641 3.477 7.649 1.916 1.639 4.156 2.457 6.723 2.457 2.781 0 5.16-1.035 7.139-3.106.492-.525 1.002-1.128 1.527-1.808zM331.424 12.401v25.405h-3.43v-25.359l3.43-.046zm10.431-.047l4.219.093-9.875 12.749 10.523 12.61h-4.265l-10.478-12.61 9.876-12.842z"/></g></svg>