<svg version="1.2" baseProfile="tiny" xmlns="http://www.w3.org/2000/svg" width="360" height="72"><g fill="#0081C8"><path d="M60.002 63.646v-14.956h-4.206v-1.49h10.059v1.49h-4.206v14.955h-1.647zM73.333 51.184c1.958 0 3.545.683 4.762 2.047 1.038 1.188 1.558 2.641 1.558 4.362 0 1.973-.667 3.568-2.003 4.784l-.712.557c-1.024.667-2.181 1.001-3.472 1.001-2.033 0-3.672-.689-4.918-2.069-1.068-1.187-1.603-2.648-1.603-4.384 0-1.87.667-3.412 2.003-4.629 1.202-1.114 2.663-1.669 4.385-1.669zm0 1.512c-1.528 0-2.752.571-3.672 1.714-.534.683-.868 1.469-1.001 2.358-.03.253-.045.505-.045.757 0 1.662.593 2.96 1.781 3.895.845.668 1.854 1.002 3.026 1.002 1.528 0 2.729-.586 3.605-1.759.638-.86.957-1.876.957-3.049 0-1.632-.564-2.922-1.691-3.872-.653-.549-1.417-.882-2.292-1.001-.224-.029-.446-.045-.668-.045zM81.989 63.646v-12.173h3.271c1.543 0 2.648.237 3.316.712.712.534 1.068 1.351 1.068 2.448 0 1.187-.445 2.025-1.335 2.515 1.365.563 2.047 1.565 2.047 3.004 0 1.217-.4 2.129-1.202 2.737l-.177.111c-.712.431-1.817.646-3.316.646h-3.672zm1.647-7.21h1.491c1.157 0 1.869-.089 2.136-.268.623-.415.935-.92.935-1.513 0-.549-.237-.987-.712-1.313-.386-.252-1.18-.378-2.381-.378h-1.469v3.472zm0 5.718h1.669c1.172 0 1.906-.044 2.203-.134.193-.059.363-.147.512-.267.445-.356.712-.683.801-.979.044-.163.067-.348.067-.556 0-.653-.378-1.247-1.135-1.78-.327-.237-1.217-.356-2.671-.356h-1.446v4.072zM104.91 51.473v12.173h-1.646v-2.137c-.979 1.306-2.114 2.077-3.405 2.314-.4.074-.831.111-1.291.111-2.003 0-3.627-.682-4.874-2.047-1.098-1.172-1.647-2.604-1.647-4.295 0-1.929.675-3.517 2.025-4.763 1.202-1.098 2.663-1.646 4.384-1.646 1.943 0 3.486.734 4.629 2.203l.178.244v-2.158h1.647zm-6.409 1.223c-1.454 0-2.656.549-3.605 1.647-.608.683-.979 1.476-1.113 2.381-.044.252-.067.505-.067.757 0 1.558.564 2.818 1.691 3.783.905.771 1.966 1.157 3.183 1.157 1.454 0 2.641-.564 3.561-1.691.742-.905 1.113-1.98 1.113-3.228 0-1.513-.557-2.744-1.669-3.693-.876-.742-1.907-1.113-3.094-1.113zM107.714 51.473h1.647v2.092c1.157-1.528 2.752-2.321 4.785-2.381 1.914 0 3.494.675 4.74 2.024 1.112 1.202 1.669 2.663 1.669 4.385 0 1.854-.661 3.397-1.981 4.629-1.231 1.143-2.722 1.713-4.473 1.713-2.078 0-3.657-.793-4.74-2.381v6.364h-1.647v-16.445zm6.365 1.223c-1.484 0-2.708.549-3.672 1.647-.771.904-1.157 1.958-1.157 3.159 0 1.588.571 2.864 1.713 3.828.875.728 1.921 1.091 3.138 1.091 1.528 0 2.759-.564 3.694-1.691.727-.891 1.091-1.937 1.091-3.138 0-1.588-.571-2.856-1.714-3.806-.564-.475-1.217-.794-1.958-.957-.371-.088-.749-.133-1.135-.133zM131.259 59.885c0 1.706-.534 2.804-1.603 3.293-.252.119-.542.216-.868.29l-1.18.155-1.046.022h-3.672v-12.172h1.647v4.54h1.758c2.137 0 3.561.46 4.273 1.38l.334.556.245.712c.075.37.112.778.112 1.224zm-6.721 2.269h2.07c1.676 0 2.67-.4 2.982-1.201.104-.268.156-.602.156-1.002 0-.92-.319-1.543-.957-1.869l-.667-.245-1.024-.155c-.252-.015-.534-.022-.846-.022h-1.713v4.494zm7.922 1.492v-12.173h1.647v12.173h-1.647zM142.853 63.646v-12.173l1.625-.022v9.926l7.478-9.903h1.625v12.173h-1.625v-9.903l-7.478 9.903h-1.625zM164.083 67.918l1.98-4.673-4.718-11.772h1.803l3.85 9.703 4.117-9.703h1.758l-7.032 16.445h-1.758zM184.734 60.063h1.869c-.563 1.068-1.157 1.869-1.78 2.403l-.134.089c-1.172.921-2.522 1.38-4.05 1.38-1.958 0-3.576-.66-4.852-1.98-1.187-1.216-1.78-2.692-1.78-4.429 0-1.81.66-3.338 1.98-4.584 1.247-1.172 2.76-1.758 4.54-1.758 1.929 0 3.523.667 4.784 2.003.52.534.928 1.149 1.225 1.847l.044.134h-1.847c-.949-1.617-2.359-2.44-4.229-2.471-1.513 0-2.745.564-3.694 1.691-.46.549-.779 1.165-.957 1.848-.119.43-.178.875-.178 1.335 0 1.483.557 2.708 1.669 3.672.919.786 1.995 1.18 3.226 1.18 1.336 0 2.479-.497 3.428-1.491.239-.253.483-.543.736-.869zM194.504 51.473l5.118 12.173h-1.669l-4.361-10.237-4.273 10.237h-1.669l5.119-12.173h1.735zM202.737 67.918l1.98-4.673-4.717-11.772h1.803l3.85 9.703 4.117-9.703h1.758l-7.032 16.445h-1.759zM213.13 63.646v-12.173h6.698v1.514l-5.074-.022v10.682h-1.624zM221.342 63.646v-12.173l1.624-.022v9.926l7.478-9.903h1.625v12.173h-1.625v-9.903l-7.478 9.903h-1.624z"/></g></svg>