<svg xmlns="http://www.w3.org/2000/svg" viewBox="0 0 360 72" enable-background="new 0 0 360 72"><g fill="#0081C8"><path d="M138.4 63.6v-16.5h4.6c2 0 3.4.3 4.4.9 1.2.7 1.8 1.9 1.9 3.6v.5c0 1.7-.6 3-1.7 3.8-.9.6-2.1 1-3.8 1h-3.8000000000000003v6.7h-1.6zm1.7-8.1h3.1c1.5 0 2.5-.2 3.2-.6.8-.5 1.3-1.3 1.4-2.5v-.3c0-1.5-.5-2.5-1.5-3-.7-.3-1.9-.5-3.8-.5h-2.3v6.9zM163.3 58.1h-11.1c.1 1.3.7 2.4 1.8 3.3.9.7 1.9 1 3 1 1.4 0 2.5-.5 3.4-1.5.4-.4.7-.8.8-1.3h1.7c-.3 1-.9 1.8-1.8 2.7-1.2 1.1-2.5 1.6-4.2 1.6-1.9 0-3.4-.7-4.7-2-1.2-1.2-1.8-2.7-1.8-4.5 0-1.8.7-3.4 2-4.6 1.2-1.1 2.7-1.7 4.4-1.7 1.8 0 3.3.6 4.5 1.8.4.4.7.8 1 1.3.7 1.1 1 2.3 1 3.9zm-11-1.5h9.4c-.4-1.7-1.3-2.8-2.7-3.5-.6-.3-1.3-.4-2.1-.4-1.5 0-2.7.6-3.6 1.7-.5.6-.9 1.3-1 2.2zM167.3 51.4v12.2h-1.7v-12.2h1.7zm5 0h2l-4.8 6.1 5.1 6.1h-2.1l-5-6.1 4.8-6.1zM182.6 51.4l5.1 12.2h-1.7l-4.4-10.3-4.3 10.3h-1.7l5.1-12.2h1.9zM201.2 51.4v12.2h-1.7v-2.1c-1 1.3-2.1 2.1-3.4 2.3-.4.1-.8.1-1.3.1-2 0-3.6-.7-4.9-2.1-1.1-1.2-1.7-2.6-1.7-4.3 0-1.9.7-3.5 2-4.8 1.2-1.1 2.7-1.7 4.4-1.7 2 0 3.5.7 4.6 2.2l.2.2v-2.2h1.8zm-6.4 1.2c-1.5 0-2.7.6-3.6 1.7-.6.7-1 1.5-1.1 2.4l-.1.8c0 1.6.6 2.8 1.7 3.8.9.8 2 1.2 3.2 1.2 1.5 0 2.7-.6 3.6-1.7.7-.9 1.1-2 1.1-3.2 0-1.5-.6-2.8-1.7-3.7-.9-.9-1.9-1.3-3.1-1.3zM215.2 53.4l-4 10.2h-1.5l-3.8-10.2v10.2h-1.7v-12.2h2.5l3.8 10.3 3.9-10.3h2.5v12.3h-1.7v-10.3zM232.2 51.4v12.2h-1.7v-2.1c-1 1.3-2.1 2.1-3.4 2.3-.4.1-.8.1-1.3.1-2 0-3.6-.7-4.9-2.1-1.1-1.2-1.7-2.6-1.7-4.3 0-1.9.7-3.5 2-4.8 1.2-1.1 2.7-1.7 4.4-1.7 2 0 3.5.7 4.6 2.2l.2.2v-2.2h1.8zm-6.5 1.2c-1.5 0-2.7.6-3.6 1.7-.6.7-1 1.5-1.1 2.4l-.1.8c0 1.6.6 2.8 1.7 3.8.9.8 2 1.2 3.2 1.2 1.5 0 2.7-.6 3.6-1.7.7-.9 1.1-2 1.1-3.2 0-1.5-.6-2.8-1.7-3.7-.8-.9-1.9-1.3-3.1-1.3z"/></g></svg>