<svg version="1.2" baseProfile="tiny" xmlns="http://www.w3.org/2000/svg" width="360" height="72"><g fill="#0081C8"><path d="M154.023 63.646l7.055-16.445h1.847l7.077 16.445h-1.803l-2.381-5.541h-7.655l-2.404 5.541h-1.736zm4.763-7.033h6.387l-3.16-7.544-3.227 7.544zM179.304 66.049h-1.647v-2.114c-2.063-.015-3.709-.727-4.94-2.136-1.024-1.172-1.536-2.611-1.536-4.317 0-1.84.675-3.375 2.025-4.606 1.231-1.128 2.715-1.691 4.451-1.691v-1.58h1.647v1.58c1.883.089 3.418.801 4.606 2.136 1.068 1.188 1.604 2.611 1.604 4.273 0 1.973-.676 3.568-2.025 4.784l-.691.534c-1.023.683-2.188 1.023-3.493 1.023v2.114zm-1.647-13.353c-1.513 0-2.737.557-3.672 1.669-.757.891-1.135 1.944-1.135 3.16 0 1.647.586 2.938 1.758 3.872.846.683 1.862 1.024 3.049 1.024v-9.725zm1.647 9.726c1.528-.015 2.729-.608 3.604-1.78.623-.846.936-1.854.936-3.027 0-1.558-.57-2.818-1.713-3.783l-.668-.467c-.668-.4-1.388-.623-2.159-.668v9.725zM187.85 63.646v-12.173l1.624-.022v9.926l7.478-9.903h1.625v12.173h-1.625v-9.903l-7.478 9.903h-1.624zM201.38 51.473h1.646v10.682h5.274v-10.682h1.646v10.682h5.274v-10.705l1.646.022v12.173h-15.486v-12.172zM232.068 51.473v12.173h-1.647v-2.137c-.979 1.306-2.114 2.077-3.404 2.314-.4.074-.831.111-1.291.111-2.003 0-3.627-.682-4.874-2.047-1.098-1.172-1.646-2.604-1.646-4.295 0-1.929.675-3.517 2.025-4.763 1.201-1.098 2.663-1.646 4.384-1.646 1.943 0 3.486.734 4.629 2.203l.178.244v-2.158h1.646zm-6.409 1.223c-1.454 0-2.656.549-3.605 1.647-.608.683-.979 1.476-1.112 2.381-.045.252-.067.505-.067.757 0 1.558.563 2.818 1.691 3.783.905.771 1.966 1.157 3.183 1.157 1.454 0 2.641-.564 3.561-1.691.741-.905 1.112-1.98 1.112-3.228 0-1.513-.556-2.744-1.669-3.693-.876-.742-1.907-1.113-3.094-1.113z"/></g></svg>