<svg version="1.2" baseProfile="tiny" xmlns="http://www.w3.org/2000/svg" width="360" height="72" overflow="scroll"><g fill="#0081C8"><path d="M116.322 46.912c2.27 0 4.235.765 5.897 2.292l.734.734c1.365 1.603 2.047 3.435 2.047 5.497 0 2.181-.765 4.087-2.292 5.719-1.499 1.617-3.338 2.528-5.519 2.736-.297.03-.586.045-.868.045-2.314 0-4.31-.779-5.986-2.337-1.632-1.527-2.529-3.404-2.692-5.63-.015-.207-.022-.422-.022-.645 0-2.122.764-3.991 2.292-5.608 1.483-1.602 3.301-2.521 5.452-2.759.312-.028.631-.044.957-.044zm0 1.514c-1.884 0-3.516.667-4.896 2.003-1.379 1.454-2.092 3.101-2.136 4.939 0 1.943.682 3.605 2.047 4.984 1.379 1.38 3.041 2.069 4.984 2.069 1.899 0 3.531-.675 4.896-2.024 1.38-1.424 2.084-3.071 2.114-4.94 0-1.913-.683-3.56-2.047-4.939l-.734-.646c-1.261-.964-2.671-1.446-4.228-1.446zM133.411 51.185c1.958 0 3.545.683 4.762 2.048 1.038 1.187 1.558 2.641 1.558 4.361 0 1.973-.667 3.568-2.003 4.784l-.712.557c-1.023.667-2.181 1.001-3.471 1.001-2.033 0-3.672-.689-4.918-2.069-1.068-1.187-1.602-2.648-1.602-4.384l-.022-2.137c.178-4.82 2.166-7.551 5.964-8.188l.156-.022c1.721 0 3.545-.312 5.474-.935v1.58l-1.803.512c-1.365.326-2.589.489-3.671.489-2.24.401-3.642 1.662-4.206 3.783l-.267.979c1.26-1.528 2.848-2.315 4.761-2.359zm0 1.513c-1.528 0-2.752.571-3.671 1.713-.534.683-.868 1.469-1.001 2.359-.03.252-.044.504-.044.756 0 1.662.593 2.96 1.78 3.895.845.668 1.854 1.001 3.026 1.001 1.527 0 2.729-.585 3.604-1.758.638-.859.957-1.876.957-3.048 0-1.632-.564-2.923-1.691-3.872-.653-.549-1.417-.883-2.292-1.002-.223-.029-.445-.044-.668-.044zM143.981 63.646v-10.458h-3.271v-1.713h4.918v4.539h1.758c2.136 0 3.561.46 4.272 1.38l.334.556.245.713c.074.37.111.778.111 1.224 0 1.706-.534 2.804-1.602 3.293-.252.119-.542.216-.868.289l-1.179.156-1.046.022h-3.672zm1.647-1.491h2.069c1.676 0 2.67-.4 2.982-1.201.104-.268.156-.602.156-1.002 0-.92-.319-1.543-.957-1.869l-.667-.244-1.023-.156c-.252-.015-.534-.022-.846-.022h-1.713v4.494zM153.728 63.646l4.339-5.118c-1.157 0-2.114-.356-2.871-1.068-.638-.608-.957-1.387-.957-2.336 0-1.884.935-3.034 2.804-3.449.623-.134 1.372-.2 2.248-.2h3.427v12.172h-1.646v-10.682h-1.424c-1.513 0-2.552.171-3.115.512l-.356.312c-.312.327-.467.75-.467 1.269 0 1.217.846 1.943 2.537 2.181.564.074 1.439.111 2.626.111l-5.207 6.298h-1.938zM165.521 63.646v-12.171h3.271c1.543 0 2.648.237 3.316.712.712.534 1.068 1.35 1.068 2.447 0 1.188-.445 2.025-1.335 2.515 1.365.564 2.047 1.565 2.047 3.004 0 1.217-.4 2.129-1.201 2.737l-.178.111c-.712.431-1.817.646-3.315.646h-3.673zm1.646-7.209h1.491c1.157 0 1.869-.089 2.136-.267.623-.416.935-.92.935-1.514 0-.549-.237-.986-.712-1.313-.386-.252-1.18-.379-2.381-.379h-1.469v3.473zm0 5.718h1.669c1.172 0 1.906-.045 2.203-.134.193-.059.363-.147.512-.267.445-.356.712-.683.801-.979.044-.163.067-.348.067-.556 0-.653-.378-1.246-1.135-1.78-.326-.237-1.216-.356-2.67-.356h-1.447v4.072zM181.676 51.475l5.119 12.172h-1.67l-4.361-10.236-4.272 10.236h-1.669l5.118-12.172h1.735zM200.568 58.105h-11.016c.074 1.335.668 2.433 1.781 3.293.875.683 1.861 1.023 2.959 1.023 1.35 0 2.484-.489 3.404-1.468.371-.386.653-.823.846-1.313h1.714c-.312.95-.905 1.84-1.78 2.671-1.157 1.083-2.537 1.624-4.139 1.624-1.869 0-3.428-.66-4.674-1.98-1.172-1.231-1.758-2.715-1.758-4.45 0-1.84.653-3.375 1.959-4.606 1.201-1.143 2.655-1.714 4.361-1.714 1.766 0 3.264.608 4.494 1.825.401.4.742.846 1.024 1.335.55.965.825 2.218.825 3.76zm-10.97-1.491h9.324c-.387-1.676-1.269-2.833-2.648-3.471-.623-.297-1.313-.445-2.069-.445-1.513 0-2.722.578-3.627 1.735-.49.624-.816 1.351-.98 2.181zM202.838 63.646v-12.171h1.625v5.34h6.053v-5.34h1.624v12.172h-1.624v-5.341h-6.053v5.341h-1.625zM214.943 63.646v-12.171l1.624-.022v9.925l7.477-9.902h1.624v12.172h-1.624v-9.902l-7.477 9.902h-1.624zM227.849 63.646l4.339-5.118c-1.156 0-2.113-.356-2.87-1.068-.638-.608-.957-1.387-.957-2.336 0-1.884.935-3.034 2.804-3.449.623-.134 1.372-.2 2.248-.2h3.426v12.172h-1.646v-10.682h-1.424c-1.514 0-2.552.171-3.115.512l-.355.312c-.313.327-.468.75-.468 1.269 0 1.217.846 1.943 2.536 2.181.564.074 1.439.111 2.627.111l-5.207 6.298h-1.938z"/></g></svg>