<svg xmlns="http://www.w3.org/2000/svg" viewBox="0 0 70 53" enable-background="new 0 0 70 53"><path fill-rule="evenodd" clip-rule="evenodd" fill="#00C853" d="M63.4 52.2h-56.7c-3.7 0-6.7-3-6.7-6.7v-38.8c.1-3.7 3.1-6.7 6.7-6.7h56.7c3.7 0 6.7 3 6.7 6.7v38.8c0 3.7-3 6.7-6.7 6.7z"/><g fill="#fff"><path d="M14.2 33.8c1.2 0 2.2.4 3.1 1.2.9.8 1.3 1.8 1.4 3v.3c0 1.2-.4 2.3-1.2 3.2-.8.9-1.8 1.3-3.1 1.4h-.2c-1.2 0-2.3-.4-3.2-1.2-.9-.8-1.3-1.8-1.4-3v-.3c0-1.2.4-2.3 1.3-3.2.8-.9 1.9-1.3 3.1-1.4h.2zm0 1.5c-.9 0-1.7.3-2.2 1l-.3.4c-.3.5-.4 1-.4 1.6 0 .9.3 1.6 1 2.2.6.5 1.2.8 2 .8.9 0 1.6-.3 2.2-1 .5-.5.7-1.2.7-2 0-.9-.3-1.7-1-2.2-.6-.5-1.3-.8-2-.8zM19.9 42.6v-8.7h1.6v3.5h3.2v-3.5h1.6v8.7h-1.6v-3.6h-3.2v3.7h-1.6zM31.9 33.9l3.4 8.7h-1.7l-2.3-6.6-2.4 6.6h-1.7l3.4-8.7h1.3zM35.9 42.6l3.6-8.7h1.3l3.7 8.7h-1.8l-.9-2.3h-3.1l-1 2.3h-1.8zm3.3-3.8h1.9l-.9-2.6-1 2.6zM52.4 42.6h-1.6v-6.3l-3.7 6.3h-1.8v-8.7h1.6v6.4l3.6-6.4h1.8v8.7zm-5.7-10.5h1.2c.1.3.4.5.8.5s.7-.2.7-.5h1.2c0 .6-.3 1.1-.9 1.4-.3.2-.7.2-1.1.2-.9 0-1.5-.3-1.8-1l-.1-.6zM54 42.6v-8.7h1.6v3.5h3.2v-3.5h1.6v8.7h-1.6v-3.6h-3.2v3.7h-1.6z"/></g><g fill="#fff"><path d="M9.6 29.7v-20.2h3.7v8.7l6.3-8.7h4.5l-7.6 9.9 7.6 10.3h-4.5l-6.3-8.9v8.9h-3.7zM39.3 24.1h4.4c-1 2.3-2.6 4-4.9 5-1.4.6-2.8 1-4.4 1-2.8 0-5.2-1-7.3-2.9-2-1.9-3.1-4.1-3.3-6.9v-.8c0-2.7.9-5.1 2.8-7 1.8-2 4-3.1 6.7-3.3h.9c2.5 0 4.8.8 6.7 2.3 1.1.9 1.9 1.9 2.5 3.1l.3.7h-4.2c-1.2-1.5-2.7-2.4-4.6-2.5h-.7c-2.1 0-3.8.7-5 2.2-1 1.4-1.6 2.9-1.7 4.6 0 2 .7 3.7 2.2 5 1.3 1.2 2.8 1.9 4.6 1.9 1.6 0 3-.6 4.3-1.7l.7-.7zM46 29.7v-20.2h3.7v8.7l6.3-8.7h4.5l-7.6 9.9 7.6 10.3h-4.5l-6.3-8.9v8.9h-3.7z"/></g></svg>