<svg xmlns="http://www.w3.org/2000/svg" viewBox="0 0 360 72" enable-background="new 0 0 360 72"><path fill="#0091EA" d="M329.5 39.7v24l2.8-2.5 6.2-5.3 5.1 13.6.7 1.7 1.6-.7 6.3-2.4 1.6-.6-.6-1.6-5.2-13.8 8.4-.4 3.6-.1-2.3-2.7-7.8-9.2h-4.6l7.4 8.7-7.3.3-2.4.1.9 2.3 5.4 14.4-3 1.2-5.5-14.4-.9-2.3-1.9 1.6-5 4.4v-16.3h-3.5zM252.3 51.1c2 0 3.6.7 4.8 2.1 1.1 1.2 1.6 2.7 1.6 4.4 0 2-.7 3.6-2 4.8l-.7.6c-1 .7-2.2 1-3.5 1-2.1 0-3.7-.7-5-2.1-1.1-1.2-1.6-2.7-1.6-4.4 0-1.9.7-3.5 2-4.7 1.2-1.1 2.6-1.7 4.4-1.7zm0 1.5c-1.5 0-2.8.6-3.7 1.7-.5.7-.9 1.5-1 2.4v.8c0 1.7.6 3 1.8 3.9.9.7 1.9 1 3.1 1 1.5 0 2.8-.6 3.6-1.8.6-.9 1-1.9 1-3.1 0-1.7-.6-3-1.7-3.9-.7-.6-1.4-.9-2.3-1-.4.1-.6 0-.8 0zm8.7 11.1v-12.3h1.6v5.4h6.1v-5.4h1.6v12.3h-1.6v-5.4h-6.1v5.4h-1.6zm18-12.3l5.2 12.3h-1.7l-4.4-10.4-4.3 10.4h-1.7l5.2-12.3h1.7zm19.3 0v12.3h-1.7v-2.2c-1 1.3-2.1 2.1-3.4 2.3-.4.1-.8.1-1.3.1-2 0-3.7-.7-4.9-2.1-1.1-1.2-1.7-2.6-1.7-4.3 0-2 .7-3.6 2-4.8 1.2-1.1 2.7-1.7 4.4-1.7 2 0 3.5.7 4.7 2.2l.2.2v-2.2l1.7.2zm-6.5 1.2c-1.5 0-2.7.6-3.6 1.7-.6.7-1 1.5-1.1 2.4l-.1.8c0 1.6.6 2.9 1.7 3.8.9.8 2 1.2 3.2 1.2 1.5 0 2.7-.6 3.6-1.7.8-.9 1.1-2 1.1-3.3 0-1.5-.6-2.8-1.7-3.7-.8-.8-1.9-1.2-3.1-1.2zm9.4 11.1v-12.3h1.6v10l7.6-10h1.6v12.3h-1.6v-10l-7.6 10h-1.6zm2-16.5h1.4c.1.5.3.8.6 1 .4.2.9.4 1.4.4.5 0 1-.1 1.4-.4.3-.2.5-.6.6-1h1.4c-.2.9-.5 1.5-.9 1.9l-.2.2c-.6.4-1.4.7-2.3.7-1.8 0-2.9-.8-3.3-2.3l-.1-.5zm11.7 16.5v-12.3h1.6v5.4h6.1v-5.4h1.6v12.3h-1.6v-5.4h-6.1v5.4h-1.6z"/><path fill="#00C853" d="M4.5 37.6h-3.4v-34.7h3.5v34.7zm15.4 0l-14.7-17.8 14.2-16.9h4.4l-14.2 16.9 14.6 17.8h-4.3zm8.3-25.7h3.5v4.4c2.4-3.2 5.8-4.9 10.1-5 4 0 7.4 1.4 10 4.3 2.3 2.5 3.5 5.6 3.5 9.2 0 3.9-1.4 7.2-4.2 9.8-2.6 2.4-5.7 3.6-9.4 3.6-4.4 0-7.7-1.7-10-5v13.4h-3.5v-34.7zm13.4 2.6c-3.1 0-5.7 1.2-7.7 3.5-1.6 1.9-2.4 4.1-2.4 6.7 0 3.3 1.2 6 3.6 8.1 1.8 1.5 4.1 2.3 6.6 2.3 3.2 0 5.8-1.2 7.8-3.6 1.5-1.9 2.3-4.1 2.3-6.6 0-3.3-1.2-6-3.6-8-1.2-1-2.6-1.7-4.1-2-.9-.3-1.7-.4-2.5-.4zm44.7-2.6v25.7h-3.5v-4.5c-2.1 2.8-4.5 4.4-7.2 4.9-.8.2-1.8.2-2.7.2-4.2 0-7.7-1.4-10.3-4.3-2.3-2.5-3.5-5.5-3.5-9.1 0-4.1 1.4-7.4 4.3-10 2.5-2.3 5.6-3.5 9.2-3.5 4.1 0 7.4 1.5 9.8 4.6l.4.5v-4.6c.1.1 3.5.1 3.5.1zm-13.5 2.6c-3.1 0-5.6 1.2-7.6 3.5-1.3 1.4-2.1 3.1-2.3 5-.1.5-.1 1.1-.1 1.6 0 3.3 1.2 5.9 3.6 8 1.9 1.6 4.1 2.4 6.7 2.4 3.1 0 5.6-1.2 7.5-3.6 1.6-1.9 2.3-4.2 2.3-6.8 0-3.2-1.2-5.8-3.5-7.8-1.9-1.5-4.1-2.3-6.6-2.3zm41.1 15.5h3.9c-1.2 2.3-2.4 3.9-3.8 5.1l-.3.2c-2.5 1.9-5.3 2.9-8.5 2.9-4.1 0-7.5-1.4-10.2-4.2-2.5-2.6-3.8-5.7-3.8-9.3 0-3.8 1.4-7 4.2-9.7 2.6-2.5 5.8-3.7 9.6-3.7 4.1 0 7.4 1.4 10.1 4.2 1.1 1.1 2 2.4 2.6 3.9l.1.3h-3.9c-2-3.4-5-5.1-8.9-5.2-3.2 0-5.8 1.2-7.8 3.6-1 1.2-1.6 2.5-2 3.9-.3.9-.4 1.8-.4 2.8 0 3.1 1.2 5.7 3.5 7.7 1.9 1.7 4.2 2.5 6.8 2.5 2.8 0 5.2-1 7.2-3.1.5-.6 1.1-1.2 1.6-1.9zm8.7 7.6v-25.7h3.4v11.3h12.8v-11.3h3.4v25.7h-3.4v-11.3h-12.8v11.3h-3.4zm38-26.3c4.1 0 7.5 1.4 10 4.3 2.2 2.5 3.3 5.6 3.3 9.2 0 4.2-1.4 7.5-4.2 10.1l-1.5 1.2c-2.2 1.4-4.6 2.1-7.3 2.1-4.3 0-7.7-1.5-10.4-4.4-2.3-2.5-3.4-5.6-3.4-9.2 0-3.9 1.4-7.2 4.2-9.8 2.6-2.3 5.7-3.5 9.3-3.5zm0 3.2c-3.2 0-5.8 1.2-7.7 3.6-1.1 1.4-1.8 3.1-2.1 5-.1.5-.1 1.1-.1 1.6 0 3.5 1.3 6.2 3.8 8.2 1.8 1.4 3.9 2.1 6.4 2.1 3.2 0 5.8-1.2 7.6-3.7 1.3-1.8 2-4 2-6.4 0-3.4-1.2-6.2-3.6-8.2-1.4-1.2-3-1.9-4.8-2.1-.5-.1-1-.1-1.5-.1zm21.5 32.1l4.2-9.9-9.9-24.8h3.8l8.1 20.5 8.7-20.5h3.7l-14.8 34.7h-3.8zm38.1-4h-3.5v-4.5c-4.3 0-7.8-1.5-10.4-4.5-2.2-2.5-3.2-5.5-3.2-9.1 0-3.9 1.4-7.1 4.3-9.7 2.6-2.4 5.7-3.6 9.4-3.6v-3.2h3.5v3.3c4 .2 7.2 1.7 9.7 4.5 2.3 2.5 3.4 5.5 3.4 9 0 4.2-1.4 7.5-4.3 10.1l-1.5 1.1c-2.2 1.4-4.6 2.2-7.4 2.2v4.4zm-3.5-28.1c-3.2 0-5.8 1.2-7.7 3.5-1.6 1.9-2.4 4.1-2.4 6.7 0 3.5 1.2 6.2 3.7 8.2 1.8 1.4 3.9 2.2 6.4 2.2v-20.6zm3.5 20.5c3.2 0 5.8-1.3 7.6-3.8 1.3-1.8 2-3.9 2-6.4 0-3.3-1.2-5.9-3.6-8l-1.4-1c-1.4-.8-2.9-1.3-4.6-1.4v20.6zm18 2.6v-25.7h3.4v20.9l15.8-20.9h3.4v25.7h-3.4v-20.9l-15.8 20.9h-3.4zm51.5-21.5l-8.4 21.4h-3.2l-7.9-21.4v21.4h-3.5v-25.6h5.2l7.9 21.6 8.1-21.6 5.2-.1v25.8h-3.5c.1 0 .1-21.5.1-21.5zm31.1 13.9h3.9c-1.2 2.3-2.4 3.9-3.8 5.1l-.3.2c-2.5 1.9-5.3 2.9-8.5 2.9-4.1 0-7.5-1.4-10.2-4.2-2.5-2.6-3.8-5.7-3.8-9.3 0-3.8 1.4-7 4.2-9.7 2.6-2.5 5.8-3.7 9.6-3.7 4.1 0 7.4 1.4 10.1 4.2 1.1 1.1 2 2.4 2.6 3.9l.1.3h-3.9c-2-3.4-5-5.1-8.9-5.2-3.2 0-5.8 1.2-7.8 3.6-1 1.2-1.6 2.5-2 3.9-.3.9-.4 1.8-.4 2.8 0 3.1 1.2 5.7 3.5 7.7 1.9 1.7 4.2 2.5 6.8 2.5 2.8 0 5.2-1 7.2-3.1.5-.6 1-1.2 1.6-1.9zm12.2-18.2v25.7h-3.5v-25.6l3.5-.1zm10.5 0l4.3.1-10 12.9 10.7 12.8h-4.3l-10.6-12.8 9.9-13z"/></svg>