<svg version="1.1" id="Слой_1" xmlns="http://www.w3.org/2000/svg" xmlns:xlink="http://www.w3.org/1999/xlink" x="0px" y="0px"
	 viewBox="0 0 263 113" style="enable-background:new 0 0 263 113;" xml:space="preserve">
<style type="text/css">
	.st0{enable-background:new    ;}
	.st1{fill:#3399D3;}
	.st2{fill:#65C57C;}
</style>
<g id="Слой_2">
</g>
<g class="st0">
	<path class="st1" d="M32,52.7v4.9h-3.8V77h-6.3V57.6h-3.7v-4.9H32z"/>
	<path class="st1" d="M33.4,52.7h6.3c2,0,3.5,0.2,4.5,0.5c1,0.3,1.9,0.9,2.5,1.9c0.6,0.9,0.9,2.5,0.9,4.6c0,1.4-0.2,2.4-0.7,3
		c-0.4,0.6-1.3,1-2.6,1.3c1.5,0.3,2.5,0.9,3,1.6c0.5,0.8,0.8,1.9,0.8,3.5v2.3c0,1.6-0.2,2.9-0.6,3.6c-0.4,0.8-1,1.3-1.8,1.6
		s-2.5,0.4-5,0.4h-7.3V52.7z M39.7,56.9v5.4c0.3,0,0.5,0,0.6,0c0.6,0,1-0.2,1.2-0.5c0.2-0.3,0.3-1.2,0.3-2.6c0-0.8-0.1-1.3-0.2-1.6
		c-0.1-0.3-0.3-0.5-0.5-0.6S40.4,56.9,39.7,56.9z M39.7,66v6.8c0.9,0,1.5-0.2,1.7-0.4s0.4-0.9,0.4-1.8v-2.3c0-1-0.1-1.7-0.3-1.9
		S40.7,66.1,39.7,66z"/>
	<path class="st1" d="M64.8,66.9c0,2.4-0.1,4.2-0.2,5.2c-0.1,1-0.5,1.9-1.1,2.8c-0.6,0.8-1.4,1.5-2.5,1.9c-1,0.5-2.2,0.7-3.6,0.7
		c-1.3,0-2.5-0.2-3.5-0.6c-1-0.4-1.9-1.1-2.5-1.9s-1-1.8-1.1-2.8c-0.1-1-0.2-2.8-0.2-5.3v-4.2c0-2.4,0.1-4.2,0.2-5.2
		c0.1-1,0.5-1.9,1.1-2.8c0.6-0.8,1.4-1.5,2.5-1.9c1-0.5,2.2-0.7,3.6-0.7c1.3,0,2.5,0.2,3.5,0.6c1,0.4,1.9,1.1,2.5,1.9s1,1.8,1.1,2.8
		c0.1,1,0.2,2.8,0.2,5.3V66.9z M58.5,58.9c0-1.1-0.1-1.9-0.2-2.2c-0.1-0.3-0.4-0.5-0.8-0.5c-0.3,0-0.6,0.1-0.8,0.4
		c-0.2,0.3-0.3,1-0.3,2.3v11.3c0,1.4,0.1,2.3,0.2,2.6c0.1,0.3,0.4,0.5,0.8,0.5c0.4,0,0.7-0.2,0.8-0.6c0.1-0.4,0.2-1.3,0.2-2.7V58.9z
		"/>
	<path class="st1" d="M81.3,77H76V65.9L72.7,77h-5.5V52.7h5.3v11l3.5-11h5.3V77z M75.9,47.4h2.6c-0.1,1.4-0.5,2.5-1.2,3.3
		s-1.8,1.2-3.1,1.2c-1.3,0-2.3-0.4-3.1-1.3c-0.7-0.8-1.1-1.9-1.2-3.3h2.6c0.1,1.4,0.7,2.1,1.7,2.1C75.2,49.5,75.8,48.8,75.9,47.4z"
		/>
</g>
<g class="st0">
	<path class="st2" d="M103.8,77h-6.3V57.6h-1.9V77h-6.3V52.7h14.5V77z"/>
	<path class="st2" d="M120.8,66.9c0,2.4-0.1,4.2-0.2,5.2c-0.1,1-0.5,1.9-1.1,2.8c-0.6,0.8-1.4,1.5-2.5,1.9c-1,0.5-2.2,0.7-3.6,0.7
		c-1.3,0-2.5-0.2-3.5-0.6c-1-0.4-1.9-1.1-2.5-1.9s-1-1.8-1.1-2.8c-0.1-1-0.2-2.8-0.2-5.3v-4.2c0-2.4,0.1-4.2,0.2-5.2
		c0.1-1,0.5-1.9,1.1-2.8c0.6-0.8,1.4-1.5,2.5-1.9c1-0.5,2.2-0.7,3.6-0.7c1.3,0,2.5,0.2,3.5,0.6c1,0.4,1.9,1.1,2.5,1.9s1,1.8,1.1,2.8
		c0.1,1,0.2,2.8,0.2,5.3V66.9z M114.4,58.9c0-1.1-0.1-1.9-0.2-2.2c-0.1-0.3-0.4-0.5-0.8-0.5c-0.3,0-0.6,0.1-0.8,0.4
		c-0.2,0.3-0.3,1-0.3,2.3v11.3c0,1.4,0.1,2.3,0.2,2.6c0.1,0.3,0.4,0.5,0.8,0.5c0.4,0,0.7-0.2,0.8-0.6c0.1-0.4,0.2-1.3,0.2-2.7V58.9z
		"/>
	<path class="st2" d="M137.9,63.3h-6.3v-4.2c0-1.2-0.1-2-0.2-2.3c-0.1-0.3-0.4-0.5-0.9-0.5c-0.5,0-0.9,0.2-1,0.6
		c-0.1,0.4-0.2,1.2-0.2,2.4v11.3c0,1.2,0.1,2,0.2,2.3c0.1,0.4,0.5,0.5,0.9,0.5c0.5,0,0.8-0.2,0.9-0.5c0.1-0.4,0.2-1.2,0.2-2.5v-3.1
		h6.3v0.9c0,2.5-0.2,4.3-0.5,5.4s-1.1,2-2.4,2.8c-1.2,0.8-2.7,1.2-4.5,1.2c-1.9,0-3.4-0.3-4.6-1c-1.2-0.7-2-1.6-2.4-2.8
		c-0.4-1.2-0.6-3-0.6-5.3v-7.1c0-1.8,0.1-3.1,0.2-3.9c0.1-0.9,0.5-1.7,1.1-2.5c0.6-0.8,1.4-1.4,2.5-1.9c1.1-0.5,2.3-0.7,3.6-0.7
		c1.9,0,3.4,0.4,4.6,1.1c1.2,0.7,2,1.6,2.4,2.7c0.4,1.1,0.6,2.7,0.6,5V63.3z"/>
	<path class="st2" d="M140.1,52.7h6.4c1.7,0,3,0.1,4,0.4c0.9,0.3,1.6,0.7,2.1,1.2c0.5,0.5,0.8,1.1,0.9,1.9s0.2,1.8,0.2,3.4v2.1
		c0,1.6-0.2,2.7-0.5,3.4c-0.3,0.7-0.9,1.3-1.8,1.6c-0.9,0.4-2,0.6-3.4,0.6h-1.7V77h-6.3V52.7z M146.5,56.9V63c0.2,0,0.3,0,0.5,0
		c0.6,0,1-0.1,1.2-0.4c0.2-0.3,0.3-0.9,0.3-1.8v-2c0-0.8-0.1-1.4-0.4-1.6C147.8,57,147.3,56.9,146.5,56.9z"/>
	<path class="st2" d="M155.6,52.7h10.5v4.9h-4.2v4.6h3.9v4.6h-3.9v5.3h4.6V77h-11V52.7z"/>
	<path class="st2" d="M186.4,81.2H182V77h-10.2v4.2h-4.4v-9.3h1.3c0.7-2,1.2-4.6,1.7-7.9c0.4-3.2,0.7-6.8,0.7-10.6v-0.7h14v19.2h1.3
		V81.2z M178.8,71.9V57.5h-1.9v0.2c0,4.7-0.5,9.4-1.5,14.2H178.8z"/>
	<path class="st2" d="M202.9,52.7V77h-6.3V66.8h-1.9V77h-6.3V52.7h6.3v8.7h1.9v-8.7H202.9z"/>
	<path class="st2" d="M219.5,77h-5.3V65.9L211,77h-5.5V52.7h5.3v11l3.5-11h5.3V77z"/>
	<path class="st2" d="M222.1,52.7h6.3l0,10.3c1.2,0,1.8-0.7,1.8-2l0.1-4.7c0-1.8,0.4-2.9,1-3.5h5.8c-0.6,0.6-0.9,1.8-0.8,3.7l0,4.2
		c0,2.5-1.4,4-4.3,4.3c2.9,0.4,4.3,1.8,4.3,4.4l0,3.9c0,1.8,0.3,3.2,0.8,3.9h-5.8c-0.7-0.6-1-1.8-1-3.5v-4.7c0-0.6-0.2-1.1-0.5-1.4
		s-0.8-0.6-1.4-0.6l0,10.3h-6.3V52.7z"/>
</g>
<g class="st0">
	<path d="M20.4,33.2v4.4h0.4l3.4-4.4h1.5l-3.7,4.5c1.6,0.2,2.2,1.2,2.8,2.5c0.4,1,0.6,1.9,1.1,2.8h-1.4c-0.4-0.7-0.6-1.5-0.9-2.3
		c-0.5-1.3-1.1-2.2-2.7-2.2h-0.4V43h-1.3v-9.8H20.4z"/>
	<path d="M35.1,38c0,3.4-2.1,5.2-4.6,5.2c-2.6,0-4.4-2-4.4-5c0-3.1,1.9-5.2,4.6-5.2C33.4,33,35.1,35.1,35.1,38z M27.5,38.1
		c0,2.1,1.1,4,3.1,4c2,0,3.2-1.9,3.2-4.1c0-2-1-4-3.1-4C28.6,34,27.5,36,27.5,38.1z"/>
	<path d="M38.1,33.2v4.1h4.8v-4.1h1.3V43h-1.3v-4.6h-4.8V43h-1.3v-9.8H38.1z"/>
	<path d="M48.2,34.2h-3v-1.1h7.3v1.1h-3V43h-1.3V34.2z"/>
	<path d="M53.9,39.9l-1,3.1h-1.3l3.3-9.8h1.5l3.4,9.8h-1.4l-1.1-3.1H53.9z M57.2,38.9l-1-2.8c-0.2-0.6-0.4-1.2-0.5-1.8h0
		c-0.1,0.6-0.3,1.2-0.5,1.8l-1,2.8H57.2z"/>
	<path d="M62.5,33.2v4.4h0.4l3.4-4.4h1.5l-3.7,4.5c1.6,0.2,2.2,1.2,2.8,2.5c0.4,1,0.6,1.9,1.1,2.8h-1.4c-0.4-0.7-0.6-1.5-0.9-2.3
		c-0.5-1.3-1.1-2.2-2.7-2.2h-0.4V43h-1.3v-9.8H62.5z"/>
	<path d="M71.5,34.2h-3v-1.1h7.3v1.1h-3V43h-1.3V34.2z"/>
	<path d="M78.1,33.2v3.7c0.3,0,0.8-0.1,1.2-0.1c2,0,3.8,0.9,3.8,3.1c0,0.9-0.3,1.6-0.8,2.1c-0.8,0.8-2.2,1.2-3.5,1.2
		c-0.9,0-1.5-0.1-2-0.1v-9.8H78.1z M78.1,42c0.3,0.1,0.6,0.1,1,0.1c1.4,0,2.6-0.7,2.6-2.2c0-1.5-1.3-2.1-2.6-2.1c-0.5,0-0.8,0-1,0.1
		V42z M85.5,33.2V43h-1.3v-9.8H85.5z"/>
	<path d="M96.1,33.2v1.1h-4V43h-1.3v-9.8H96.1z"/>
	<path d="M97.6,39.9l-1,3.1h-1.3l3.3-9.8h1.5l3.4,9.8h-1.4l-1.1-3.1H97.6z M100.8,38.9l-1-2.8c-0.2-0.6-0.4-1.2-0.5-1.8h0
		c-0.1,0.6-0.3,1.2-0.5,1.8l-1,2.8H100.8z"/>
	<path d="M104.7,33.8c0.7-0.4,1.5-0.7,2.6-0.7c1.7,0,2.9,0.9,2.9,2.4c0,1.2-0.9,2.1-2,2.4v0c1.4,0.1,2.4,1.1,2.4,2.5
		c0,2-1.8,2.9-3.6,2.9c-0.9,0-1.8-0.2-2.6-0.6l0.3-1c0.5,0.3,1.4,0.6,2.2,0.6c1.5,0,2.3-0.8,2.3-1.9c0-1.5-1.4-1.9-2.7-1.9h-0.6v-1
		h0.6c1.3,0,2.3-0.8,2.3-1.8c0-1-0.7-1.5-1.8-1.5c-0.7,0-1.5,0.3-2,0.6L104.7,33.8z"/>
	<path d="M117.3,38.4h-3.8v3.5h4.3V43h-5.5v-9.8h5.3v1.1h-4v3.1h3.8V38.4z"/>
	<path d="M121.3,34.2h-3v-1.1h7.3v1.1h-3V43h-1.3V34.2z"/>
	<path d="M128,33.2v3.7c0.3,0,0.8-0.1,1.2-0.1c2,0,3.8,0.9,3.8,3.1c0,0.9-0.3,1.6-0.8,2.1c-0.8,0.8-2.2,1.2-3.5,1.2
		c-0.9,0-1.5-0.1-2-0.1v-9.8H128z M128,42c0.3,0.1,0.6,0.1,1,0.1c1.4,0,2.6-0.7,2.6-2.2c0-1.5-1.3-2.1-2.6-2.1c-0.5,0-0.8,0-1,0.1
		V42z M135.3,33.2V43H134v-9.8H135.3z"/>
</g>
<polygon points="19.1,44 135.3,44 135.3,45 19.1,45 "/>
</svg>