<svg version="1.1" id="Слой_1" xmlns="http://www.w3.org/2000/svg" xmlns:xlink="http://www.w3.org/1999/xlink" x="0px" y="0px"
	 viewBox="-241 104.3 263 113" style="enable-background:new -241 104.3 263 113;" xml:space="preserve">
<style type="text/css">
	.st0{enable-background:new    ;}
	.st1{fill:#00B0FF;}
</style>
<g id="Слой_x0020_1">
	<g class="st0">
		<path d="M-220.6,137.5v4.4h0.4l3.4-4.4h1.5l-3.7,4.5c1.6,0.2,2.2,1.2,2.8,2.5c0.4,1,0.6,1.9,1.1,2.8h-1.4
			c-0.4-0.7-0.6-1.5-0.9-2.3c-0.5-1.3-1.1-2.2-2.7-2.2h-0.4v4.5h-1.3v-9.8H-220.6z"/>
		<path d="M-205.9,142.3c0,3.4-2.1,5.2-4.6,5.2c-2.6,0-4.4-2-4.4-5c0-3.1,1.9-5.2,4.6-5.2C-207.6,137.3-205.9,139.4-205.9,142.3z
			 M-213.5,142.5c0,2.1,1.1,4,3.1,4c2,0,3.2-1.9,3.2-4.1c0-2-1-4-3.1-4C-212.4,138.4-213.5,140.3-213.5,142.5z"/>
		<path d="M-202.9,137.5v4.1h4.8v-4.1h1.3v9.8h-1.3v-4.6h-4.8v4.6h-1.3v-9.8H-202.9z"/>
		<path d="M-192.8,138.6h-3v-1.1h7.3v1.1h-3v8.8h-1.3V138.6z"/>
		<path d="M-187.1,144.2l-1,3.1h-1.3l3.3-9.8h1.5l3.4,9.8h-1.4l-1.1-3.1H-187.1z M-183.8,143.2l-1-2.8c-0.2-0.6-0.4-1.2-0.5-1.8h0
			c-0.1,0.6-0.3,1.2-0.5,1.8l-1,2.8H-183.8z"/>
		<path d="M-178.5,137.5v4.4h0.4l3.4-4.4h1.5l-3.7,4.5c1.6,0.2,2.2,1.2,2.8,2.5c0.4,1,0.6,1.9,1.1,2.8h-1.4
			c-0.4-0.7-0.6-1.5-0.9-2.3c-0.5-1.3-1.1-2.2-2.7-2.2h-0.4v4.5h-1.3v-9.8H-178.5z"/>
		<path d="M-169.5,138.6h-3v-1.1h7.3v1.1h-3v8.8h-1.3V138.6z"/>
		<path d="M-162.9,137.5v3.7c0.3,0,0.8-0.1,1.2-0.1c2,0,3.8,0.9,3.8,3.1c0,0.9-0.3,1.6-0.8,2.1c-0.8,0.8-2.2,1.2-3.5,1.2
			c-0.9,0-1.5-0.1-2-0.1v-9.8H-162.9z M-162.9,146.3c0.3,0.1,0.6,0.1,1,0.1c1.4,0,2.6-0.7,2.6-2.2c0-1.5-1.3-2.1-2.6-2.1
			c-0.5,0-0.8,0-1,0.1V146.3z M-155.5,137.5v9.8h-1.3v-9.8H-155.5z"/>
	</g>
	<polygon points="-222,148.3 -155.5,148.3 -155.5,149.3 -222,149.3 	"/>
	<g class="st0">
		<path class="st1" d="M-222,161.5h5.2l0,8.4c1,0,1.5-0.6,1.5-1.6l0.1-3.9c0-1.4,0.3-2.4,0.8-2.9h4.7c-0.5,0.5-0.7,1.5-0.7,3l0,3.4
			c0,2.1-1.1,3.2-3.5,3.5c2.3,0.3,3.5,1.5,3.5,3.6l0,3.1c0,1.5,0.2,2.6,0.7,3.2h-4.7c-0.6-0.5-0.8-1.5-0.8-2.9v-3.9
			c0-0.5-0.1-0.9-0.4-1.2s-0.7-0.4-1.2-0.5l0,8.4h-5.2V161.5z"/>
		<path class="st1" d="M-203.7,165.1l-0.1,1.4c0.4-0.6,0.9-1,1.5-1.3c0.5-0.3,1.1-0.4,1.7-0.4c0.8,0,1.4,0.2,2,0.6
			c0.6,0.4,0.9,0.9,1,1.4c0.1,0.5,0.2,1.4,0.2,2.7v6.8c0,1.5-0.1,2.5-0.3,3.1c-0.2,0.6-0.5,1.1-1.1,1.5c-0.5,0.4-1.2,0.6-2,0.6
			c-0.6,0-1.2-0.1-1.7-0.4c-0.5-0.3-1-0.7-1.4-1.3v3.7h-4.9v-18.5H-203.7z M-202.3,169.8c0-1,0-1.6-0.1-1.8
			c-0.1-0.2-0.3-0.3-0.6-0.3c-0.3,0-0.5,0.1-0.6,0.4s-0.1,0.8-0.1,1.8v6.7c0,1,0,1.6,0.1,1.8s0.3,0.4,0.6,0.4c0.3,0,0.5-0.1,0.6-0.3
			s0.1-0.8,0.1-1.6V169.8z"/>
		<path class="st1" d="M-191.3,171.4h-4.6v-1.1c0-1.3,0.1-2.2,0.4-2.9c0.3-0.7,0.9-1.3,1.7-1.8c0.9-0.5,2-0.8,3.4-0.8
			c1.7,0,2.9,0.3,3.8,0.9c0.8,0.6,1.4,1.3,1.5,2.2s0.3,2.6,0.3,5.3v8.1h-4.8v-1.4c-0.3,0.6-0.7,1-1.2,1.3c-0.5,0.3-1,0.4-1.7,0.4
			c-0.9,0-1.7-0.2-2.4-0.7c-0.7-0.5-1.1-1.5-1.1-3.2v-1.3c0-1.2,0.2-2,0.6-2.5c0.4-0.4,1.3-1,2.8-1.5c1.6-0.6,2.5-1.1,2.6-1.3
			c0.1-0.2,0.2-0.7,0.2-1.3c0-0.8-0.1-1.4-0.2-1.7c-0.1-0.3-0.3-0.4-0.6-0.4c-0.3,0-0.5,0.1-0.6,0.3c-0.1,0.2-0.1,0.8-0.1,1.7V171.4
			z M-189.8,173.6c-0.8,0.6-1.2,1.1-1.4,1.5s-0.2,1-0.2,1.7c0,0.8,0.1,1.4,0.2,1.6s0.3,0.4,0.7,0.4c0.3,0,0.5-0.1,0.6-0.3
			s0.1-0.7,0.1-1.5V173.6z"/>
		<path class="st1" d="M-172.2,171.2h-4.7v-1.9c0-0.7-0.1-1.1-0.2-1.3c-0.1-0.2-0.3-0.3-0.6-0.3c-0.3,0-0.5,0.1-0.6,0.3
			s-0.1,0.7-0.1,1.4v7.6c0,0.6,0.1,1,0.2,1.3s0.4,0.4,0.6,0.4c0.3,0,0.6-0.2,0.7-0.5s0.2-0.9,0.2-1.7v-1.9h4.4
			c0,1.3-0.1,2.3-0.1,2.9c-0.1,0.6-0.4,1.3-0.8,2c-0.5,0.7-1.1,1.2-1.8,1.5c-0.7,0.3-1.7,0.5-2.7,0.5c-1.4,0-2.5-0.2-3.3-0.7
			c-0.8-0.5-1.4-1.1-1.7-2c-0.3-0.9-0.5-2.1-0.5-3.7v-4.6c0-1.4,0.1-2.4,0.4-3.1c0.3-0.7,0.9-1.3,1.8-1.9c0.9-0.5,2-0.8,3.3-0.8
			c1.3,0,2.4,0.3,3.3,0.8c0.9,0.5,1.5,1.2,1.8,2.1C-172.4,168.5-172.2,169.7-172.2,171.2z"/>
		<path class="st1" d="M-159.2,181.3h-4.9v-6h-1.8v6h-4.9v-16.2h4.9v5.8h1.8v-5.8h4.9V181.3z"/>
		<path class="st1" d="M-146.3,170.8v4c0,1.5-0.1,2.5-0.2,3.2c-0.1,0.7-0.5,1.3-0.9,1.9c-0.5,0.6-1.1,1-1.8,1.3
			c-0.8,0.3-1.6,0.4-2.6,0.4c-1.1,0-2-0.1-2.8-0.4c-0.8-0.2-1.3-0.6-1.8-1.1c-0.4-0.5-0.7-1.1-0.9-1.8c-0.2-0.7-0.3-1.7-0.3-3.1
			v-4.2c0-1.5,0.2-2.7,0.5-3.5c0.3-0.8,0.9-1.5,1.8-2c0.8-0.5,1.9-0.8,3.2-0.8c1.1,0,2.1,0.2,2.9,0.5c0.8,0.3,1.4,0.8,1.8,1.3
			c0.4,0.5,0.7,1.1,0.9,1.6S-146.3,169.7-146.3,170.8z M-151.2,169.6c0-0.8,0-1.4-0.1-1.6c-0.1-0.2-0.3-0.3-0.6-0.3
			s-0.5,0.1-0.6,0.3c-0.1,0.2-0.1,0.7-0.1,1.6v7.3c0,0.8,0,1.3,0.1,1.5c0.1,0.2,0.3,0.3,0.6,0.3c0.3,0,0.5-0.1,0.6-0.3
			c0.1-0.2,0.1-0.7,0.1-1.4V169.6z"/>
		<path class="st1" d="M-134.3,165.1l-1.4,11.7c-0.2,1.9-0.4,3.1-0.6,3.8s-0.4,1.2-0.8,1.7c-0.4,0.4-0.8,0.8-1.5,1
			c-0.6,0.2-1.6,0.3-3,0.3h-3V181c0.8,0,1.3,0,1.5-0.1c0.2-0.1,0.3-0.3,0.3-0.5c0-0.1-0.1-0.7-0.3-1.7l-2.7-13.5h4.5l1.6,10.9
			l0.8-10.9H-134.3z"/>
		<path class="st1" d="M-115.9,176.4c0,1.1-0.1,2-0.2,2.7s-0.4,1.2-0.9,1.6s-1.2,0.6-2.2,0.6c-1.3,0-2.3-0.5-3.1-1.5v3.7h-4.9v-3.7
			c-0.8,1-1.9,1.5-3.2,1.5c-0.9,0-1.6-0.2-2.1-0.5s-0.8-0.8-1-1.4c-0.1-0.6-0.2-1.5-0.2-2.6v-6.8c0-1.1,0.1-2,0.2-2.7
			c0.1-0.7,0.5-1.2,0.9-1.6s1.2-0.6,2.2-0.6c1.3,0,2.3,0.5,3.1,1.5v-4h4.9v4c0.8-1,1.9-1.5,3.2-1.5c0.9,0,1.6,0.2,2.1,0.5
			s0.8,0.8,1,1.4c0.1,0.6,0.2,1.5,0.2,2.6V176.4z M-127.2,177.4V169c0-0.8-0.3-1.2-0.8-1.2c-0.2,0-0.4,0.1-0.5,0.2
			c-0.1,0.2-0.2,0.5-0.2,1v7.7c0,0.8,0,1.3,0,1.4c0,0.2,0.1,0.3,0.2,0.5c0.1,0.1,0.3,0.2,0.5,0.2c0.3,0,0.5-0.1,0.6-0.3
			C-127.3,178.3-127.2,177.9-127.2,177.4z M-120.8,177.5v-7.7c0-0.8,0-1.3,0-1.4c0-0.2-0.1-0.3-0.2-0.5c-0.1-0.1-0.3-0.2-0.5-0.2
			c-0.3,0-0.5,0.1-0.6,0.3c-0.1,0.2-0.2,0.6-0.2,1.1v8.4c0,0.8,0.3,1.2,0.8,1.2c0.2,0,0.4-0.1,0.5-0.2
			C-120.9,178.3-120.8,178-120.8,177.5z"/>
		<path class="st1" d="M-102,181.3h-4.3v-8.8l-3.4,8.8h-4.5v-16.2h4.3v8.7l3.4-8.7h4.6V181.3z"/>
		<path class="st1" d="M-84.9,181.3h-4.2v-11.2l-2,11.2h-2.7l-2.1-11.2v11.2h-4.2v-16.2h6.1l1.6,9l1.4-9h6.2V181.3z"/>
		<path class="st1" d="M-72.3,171.2h-4.7v-1.9c0-0.7-0.1-1.1-0.2-1.3c-0.1-0.2-0.3-0.3-0.6-0.3c-0.3,0-0.5,0.1-0.6,0.3
			s-0.1,0.7-0.1,1.4v7.6c0,0.6,0.1,1,0.2,1.3s0.4,0.4,0.6,0.4c0.3,0,0.6-0.2,0.7-0.5c0.1-0.3,0.2-0.9,0.2-1.7v-1.9h4.4
			c0,1.3-0.1,2.3-0.1,2.9c-0.1,0.6-0.4,1.3-0.8,2c-0.5,0.7-1.1,1.2-1.8,1.5c-0.7,0.3-1.7,0.5-2.7,0.5c-1.4,0-2.5-0.2-3.3-0.7
			c-0.8-0.5-1.4-1.1-1.7-2s-0.5-2.1-0.5-3.7v-4.6c0-1.4,0.1-2.4,0.4-3.1c0.3-0.7,0.9-1.3,1.8-1.9c0.9-0.5,2-0.8,3.3-0.8
			c1.3,0,2.4,0.3,3.3,0.8c0.9,0.5,1.5,1.2,1.8,2.1C-72.4,168.5-72.3,169.7-72.3,171.2z"/>
		<path class="st1" d="M-65.9,165.1v6.3c1,0,1.5-0.5,1.5-1.6V167c0-1.1,0.2-1.7,0.5-1.9h4.7c-0.4,0.5-0.5,1.3-0.5,2.3v2.3
			c0,0.8-0.3,1.4-1,2c-0.2,0.2-0.7,0.5-1.5,0.8c-0.5,0.2-1,0.4-1.6,0.4c0.3,0,0.8,0.2,1.6,0.4c1.7,0.5,2.5,1.5,2.5,2.8v2.8
			c0,1,0.2,1.8,0.5,2.4h-4.7c-0.4-0.5-0.5-1.1-0.5-1.9V176c0-1.1-0.5-1.6-1.6-1.6v7h-4.9v-16.2H-65.9z"/>
		<path class="st1" d="M-43.1,161.5v4h-3.1v15.8h-5.1v-15.8h-3v-4H-43.1z"/>
		<path class="st1" d="M-42,161.5h5.1c1.6,0,2.8,0.1,3.7,0.4c0.8,0.3,1.5,0.8,2,1.5s0.8,2,0.8,3.7c0,1.2-0.2,2-0.5,2.4
			c-0.4,0.5-1.1,0.8-2.1,1c1.2,0.3,2,0.7,2.4,1.3c0.4,0.6,0.6,1.6,0.6,2.9v1.8c0,1.3-0.2,2.3-0.5,3c-0.3,0.6-0.8,1.1-1.5,1.3
			c-0.7,0.2-2,0.4-4.1,0.4H-42V161.5z M-36.8,164.9v4.4c0.2,0,0.4,0,0.5,0c0.5,0,0.8-0.1,1-0.4c0.1-0.2,0.2-1,0.2-2.1
			c0-0.6-0.1-1.1-0.2-1.3c-0.1-0.2-0.3-0.4-0.4-0.5S-36.3,164.9-36.8,164.9z M-36.8,172.4v5.5c0.7,0,1.2-0.1,1.4-0.3
			c0.2-0.2,0.3-0.7,0.3-1.5v-1.8c0-0.8-0.1-1.4-0.3-1.5C-35.6,172.5-36.1,172.4-36.8,172.4z"/>
	</g>
</g>
</svg>