<svg version="1.1" id="Слой_1" xmlns="http://www.w3.org/2000/svg" xmlns:xlink="http://www.w3.org/1999/xlink" x="0px" y="0px"
	 viewBox="0 0 263 113" style="enable-background:new 0 0 263 113;" xml:space="preserve">
<style type="text/css">
	.st0{enable-background:new    ;}
	.st1{fill:#3399D3;}
</style>
<g id="Слой_x0020_1">
	<g class="st0">
		<path d="M20.4,33.2v4.4h0.4l3.4-4.4h1.5l-3.7,4.5c1.6,0.2,2.2,1.2,2.8,2.5c0.4,1,0.6,1.9,1.1,2.8h-1.4c-0.4-0.7-0.6-1.5-0.9-2.3
			c-0.5-1.3-1.1-2.2-2.7-2.2h-0.4V43h-1.3v-9.8H20.4z"/>
		<path d="M35.1,38c0,3.4-2.1,5.2-4.6,5.2c-2.6,0-4.4-2-4.4-5c0-3.1,1.9-5.2,4.6-5.2C33.4,33,35.1,35.1,35.1,38z M27.5,38.1
			c0,2.1,1.1,4,3.1,4c2,0,3.2-1.9,3.2-4.1c0-2-1-4-3.1-4C28.6,34,27.5,36,27.5,38.1z"/>
		<path d="M38.1,33.2v4.1h4.8v-4.1h1.3V43h-1.3v-4.6h-4.8V43h-1.3v-9.8H38.1z"/>
		<path d="M48.2,34.2h-3v-1.1h7.3v1.1h-3V43h-1.3V34.2z"/>
		<path d="M53.9,39.9l-1,3.1h-1.3l3.3-9.8h1.5l3.4,9.8h-1.4l-1.1-3.1H53.9z M57.2,38.9l-1-2.8c-0.2-0.6-0.4-1.2-0.5-1.8h0
			c-0.1,0.6-0.3,1.2-0.5,1.8l-1,2.8H57.2z"/>
		<path d="M62.5,33.2v4.4h0.4l3.4-4.4h1.5l-3.7,4.5c1.6,0.2,2.2,1.2,2.8,2.5c0.4,1,0.6,1.9,1.1,2.8h-1.4c-0.4-0.7-0.6-1.5-0.9-2.3
			c-0.5-1.3-1.1-2.2-2.7-2.2h-0.4V43h-1.3v-9.8H62.5z"/>
		<path d="M71.5,34.2h-3v-1.1h7.3v1.1h-3V43h-1.3V34.2z"/>
		<path d="M78.1,33.2v3.7c0.3,0,0.8-0.1,1.2-0.1c2,0,3.8,0.9,3.8,3.1c0,0.9-0.3,1.6-0.8,2.1c-0.8,0.8-2.2,1.2-3.5,1.2
			c-0.9,0-1.5-0.1-2-0.1v-9.8H78.1z M78.1,42c0.3,0.1,0.6,0.1,1,0.1c1.4,0,2.6-0.7,2.6-2.2c0-1.5-1.3-2.1-2.6-2.1
			c-0.5,0-0.8,0-1,0.1V42z M85.5,33.2V43h-1.3v-9.8H85.5z"/>
	</g>
	<polygon points="19,44 85.5,44 85.5,45 19,45 	"/>
	<g class="st0">
		<path class="st1" d="M19,57.2h5.2l0,8.3c1,0,1.5-0.6,1.5-1.6l0.1-3.9c0-1.4,0.3-2.4,0.8-2.9h4.7c-0.5,0.5-0.7,1.5-0.7,3l0,3.4
			c0,2.1-1.1,3.2-3.5,3.5c2.3,0.3,3.5,1.5,3.5,3.6l0,3.1c0,1.5,0.2,2.6,0.7,3.2h-4.7c-0.6-0.5-0.8-1.5-0.8-2.9v-3.9
			c0-0.5-0.1-0.9-0.4-1.2s-0.7-0.4-1.2-0.5l0,8.4H19V57.2z"/>
		<path class="st1" d="M37.3,60.8l-0.1,1.4c0.4-0.6,0.9-1,1.5-1.3c0.5-0.3,1.1-0.4,1.7-0.4c0.8,0,1.4,0.2,2,0.6
			c0.6,0.4,0.9,0.9,1,1.4c0.1,0.5,0.2,1.4,0.2,2.7v6.8c0,1.5-0.1,2.5-0.3,3.1c-0.2,0.6-0.5,1.1-1.1,1.5c-0.5,0.4-1.2,0.6-2,0.6
			c-0.6,0-1.2-0.1-1.7-0.4c-0.5-0.3-1-0.7-1.4-1.3v3.7h-4.9V60.8H37.3z M38.7,65.5c0-1,0-1.6-0.1-1.8c-0.1-0.2-0.3-0.3-0.6-0.3
			c-0.3,0-0.5,0.1-0.6,0.4s-0.1,0.8-0.1,1.8v6.7c0,1,0,1.6,0.1,1.8s0.3,0.4,0.6,0.4c0.3,0,0.5-0.1,0.6-0.3s0.1-0.8,0.1-1.6V65.5z"/>
		<path class="st1" d="M49.7,67.1H45V66c0-1.3,0.1-2.2,0.4-2.9c0.3-0.7,0.9-1.3,1.7-1.8c0.9-0.5,2-0.8,3.4-0.8
			c1.7,0,2.9,0.3,3.8,0.9c0.8,0.6,1.4,1.3,1.5,2.2s0.3,2.6,0.3,5.3V77h-4.8v-1.4c-0.3,0.6-0.7,1-1.2,1.3c-0.5,0.3-1,0.4-1.7,0.4
			c-0.9,0-1.7-0.2-2.4-0.7C45.4,76.1,45,75,45,73.4v-1.3c0-1.2,0.2-2,0.6-2.5c0.4-0.4,1.3-1,2.8-1.5c1.6-0.6,2.5-1.1,2.6-1.3
			c0.1-0.2,0.2-0.7,0.2-1.3c0-0.8-0.1-1.4-0.2-1.7c-0.1-0.3-0.3-0.4-0.6-0.4c-0.3,0-0.5,0.1-0.6,0.3c-0.1,0.2-0.1,0.8-0.1,1.7V67.1z
			 M51.2,69.3c-0.8,0.6-1.2,1.1-1.4,1.5s-0.2,1-0.2,1.7c0,0.8,0.1,1.4,0.2,1.6s0.3,0.4,0.7,0.4c0.3,0,0.5-0.1,0.6-0.3
			s0.1-0.7,0.1-1.5V69.3z"/>
		<path class="st1" d="M68.8,66.9h-4.7V65c0-0.7-0.1-1.1-0.2-1.3c-0.1-0.2-0.3-0.3-0.6-0.3c-0.3,0-0.5,0.1-0.6,0.3s-0.1,0.7-0.1,1.4
			v7.6c0,0.6,0.1,1,0.2,1.3s0.4,0.4,0.6,0.4c0.3,0,0.6-0.2,0.7-0.5s0.2-0.9,0.2-1.7v-1.9h4.4c0,1.3-0.1,2.3-0.1,2.9
			c-0.1,0.6-0.4,1.3-0.8,2c-0.5,0.7-1.1,1.2-1.8,1.5c-0.7,0.3-1.7,0.5-2.7,0.5c-1.4,0-2.5-0.2-3.3-0.7c-0.8-0.5-1.4-1.1-1.7-2
			c-0.3-0.9-0.5-2.1-0.5-3.7v-4.6c0-1.4,0.1-2.4,0.4-3.1c0.3-0.7,0.9-1.3,1.8-1.9c0.9-0.5,2-0.8,3.3-0.8c1.3,0,2.4,0.3,3.3,0.8
			c0.9,0.5,1.5,1.2,1.8,2.1C68.6,64.2,68.8,65.4,68.8,66.9z"/>
		<path class="st1" d="M81.8,77h-4.9v-6h-1.8v6h-4.9V60.8h4.9v5.8h1.8v-5.8h4.9V77z"/>
		<path class="st1" d="M94.7,66.5v4c0,1.5-0.1,2.5-0.2,3.2c-0.1,0.7-0.5,1.3-0.9,1.9c-0.5,0.6-1.1,1-1.8,1.3
			c-0.8,0.3-1.6,0.4-2.6,0.4c-1.1,0-2-0.1-2.8-0.4c-0.8-0.2-1.3-0.6-1.8-1.1c-0.4-0.5-0.7-1.1-0.9-1.8c-0.2-0.7-0.3-1.7-0.3-3.1
			v-4.2c0-1.5,0.2-2.7,0.5-3.5c0.3-0.8,0.9-1.5,1.8-2c0.8-0.5,1.9-0.8,3.2-0.8c1.1,0,2.1,0.2,2.9,0.5c0.8,0.3,1.4,0.8,1.8,1.3
			c0.4,0.5,0.7,1.1,0.9,1.6S94.7,65.3,94.7,66.5z M89.8,65.3c0-0.8,0-1.4-0.1-1.6c-0.1-0.2-0.3-0.3-0.6-0.3s-0.5,0.1-0.6,0.3
			c-0.1,0.2-0.1,0.7-0.1,1.6v7.3c0,0.8,0,1.3,0.1,1.5c0.1,0.2,0.3,0.3,0.6,0.3c0.3,0,0.5-0.1,0.6-0.3c0.1-0.2,0.1-0.7,0.1-1.4V65.3z
			"/>
		<path class="st1" d="M106.7,60.8l-1.4,11.7c-0.2,1.9-0.4,3.1-0.6,3.8s-0.4,1.2-0.8,1.7c-0.4,0.4-0.8,0.8-1.5,1
			c-0.6,0.2-1.6,0.3-3,0.3h-3v-2.6c0.8,0,1.3,0,1.5-0.1c0.2-0.1,0.3-0.3,0.3-0.5c0-0.1-0.1-0.7-0.3-1.7l-2.7-13.5h4.5l1.6,10.9
			l0.8-10.9H106.7z"/>
		<path class="st1" d="M125.1,72.1c0,1.1-0.1,2-0.2,2.7s-0.4,1.2-0.9,1.6s-1.2,0.6-2.2,0.6c-1.3,0-2.3-0.5-3.1-1.5v3.7h-4.9v-3.7
			c-0.8,1-1.9,1.5-3.2,1.5c-0.9,0-1.6-0.2-2.1-0.5s-0.8-0.8-1-1.4c-0.1-0.6-0.2-1.5-0.2-2.6v-6.8c0-1.1,0.1-2,0.2-2.7
			c0.1-0.7,0.5-1.2,0.9-1.6s1.2-0.6,2.2-0.6c1.3,0,2.3,0.5,3.1,1.5v-4h4.9v4c0.8-1,1.9-1.5,3.2-1.5c0.9,0,1.6,0.2,2.1,0.5
			s0.8,0.8,1,1.4c0.1,0.6,0.2,1.5,0.2,2.6V72.1z M113.8,73.1v-8.4c0-0.8-0.3-1.2-0.8-1.2c-0.2,0-0.4,0.1-0.5,0.2
			c-0.1,0.2-0.2,0.5-0.2,1v7.7c0,0.8,0,1.3,0,1.4c0,0.2,0.1,0.3,0.2,0.5c0.1,0.1,0.3,0.2,0.5,0.2c0.3,0,0.5-0.1,0.6-0.3
			C113.8,74,113.8,73.6,113.8,73.1z M120.2,73.2v-7.7c0-0.8,0-1.3,0-1.4c0-0.2-0.1-0.3-0.2-0.5c-0.1-0.1-0.3-0.2-0.5-0.2
			c-0.3,0-0.5,0.1-0.6,0.3c-0.1,0.2-0.2,0.6-0.2,1.1v8.4c0,0.8,0.3,1.2,0.8,1.2c0.2,0,0.4-0.1,0.5-0.2
			C120.1,74,120.2,73.7,120.2,73.2z"/>
		<path class="st1" d="M139,77h-4.3v-8.8l-3.4,8.8h-4.5V60.8h4.3v8.7l3.4-8.7h4.6V77z"/>
		<path class="st1" d="M156.1,77h-4.2V65.8l-2,11.2h-2.7L145,65.8V77h-4.2V60.8h6.1l1.6,9l1.4-9h6.2V77z"/>
		<path class="st1" d="M168.7,66.9h-4.7V65c0-0.7-0.1-1.1-0.2-1.3c-0.1-0.2-0.3-0.3-0.6-0.3c-0.3,0-0.5,0.1-0.6,0.3
			s-0.1,0.7-0.1,1.4v7.6c0,0.6,0.1,1,0.2,1.3s0.4,0.4,0.6,0.4c0.3,0,0.6-0.2,0.7-0.5s0.2-0.9,0.2-1.7v-1.9h4.4
			c0,1.3-0.1,2.3-0.1,2.9c-0.1,0.6-0.4,1.3-0.8,2s-1.1,1.2-1.8,1.5s-1.7,0.5-2.7,0.5c-1.4,0-2.5-0.2-3.3-0.7c-0.8-0.5-1.4-1.1-1.7-2
			c-0.3-0.9-0.5-2.1-0.5-3.7v-4.6c0-1.4,0.1-2.4,0.4-3.1c0.3-0.7,0.9-1.3,1.8-1.9c0.9-0.5,2-0.8,3.3-0.8c1.3,0,2.4,0.3,3.3,0.8
			c0.9,0.5,1.5,1.2,1.8,2.1C168.6,64.2,168.7,65.4,168.7,66.9z"/>
		<path class="st1" d="M175.1,60.8v6.3c1,0,1.6-0.5,1.6-1.6v-2.7c0-1.1,0.2-1.7,0.5-1.9h4.7c-0.4,0.5-0.5,1.3-0.5,2.3v2.3
			c0,0.8-0.3,1.4-1,2c-0.2,0.2-0.7,0.5-1.5,0.8c-0.5,0.2-1,0.4-1.6,0.4c0.3,0,0.8,0.2,1.6,0.4c1.7,0.5,2.5,1.5,2.5,2.8v2.8
			c0,1,0.2,1.8,0.5,2.4h-4.7c-0.4-0.5-0.5-1.1-0.5-1.9v-3.4c0-1.1-0.5-1.6-1.6-1.6v7h-4.9V60.8H175.1z"/>
		<path class="st1" d="M194.1,66.5v4c0,1.5-0.1,2.5-0.2,3.2c-0.1,0.7-0.5,1.3-0.9,1.9c-0.5,0.6-1.1,1-1.8,1.3
			c-0.8,0.3-1.6,0.4-2.6,0.4c-1.1,0-2-0.1-2.8-0.4c-0.8-0.2-1.3-0.6-1.8-1.1c-0.4-0.5-0.7-1.1-0.9-1.8s-0.3-1.7-0.3-3.1v-4.2
			c0-1.5,0.2-2.7,0.5-3.5s0.9-1.5,1.8-2s1.9-0.8,3.2-0.8c1.1,0,2.1,0.2,2.9,0.5c0.8,0.3,1.4,0.8,1.8,1.3c0.4,0.5,0.7,1.1,0.9,1.6
			C194,64.5,194.1,65.3,194.1,66.5z M189.2,65.3c0-0.8,0-1.4-0.1-1.6c-0.1-0.2-0.3-0.3-0.6-0.3s-0.5,0.1-0.6,0.3
			c-0.1,0.2-0.1,0.7-0.1,1.6v7.3c0,0.8,0,1.3,0.1,1.5c0.1,0.2,0.3,0.3,0.6,0.3c0.3,0,0.5-0.1,0.6-0.3c0.1-0.2,0.1-0.7,0.1-1.4V65.3z
			"/>
		<path class="st1" d="M195.7,77V60.8h7.8v2.8h-2.8V77H195.7z"/>
		<path class="st1" d="M215.5,66.5v4c0,1.5-0.1,2.5-0.2,3.2c-0.1,0.7-0.5,1.3-0.9,1.9c-0.5,0.6-1.1,1-1.8,1.3
			c-0.8,0.3-1.6,0.4-2.6,0.4c-1.1,0-2-0.1-2.8-0.4c-0.8-0.2-1.3-0.6-1.8-1.1c-0.4-0.5-0.7-1.1-0.9-1.8s-0.3-1.7-0.3-3.1v-4.2
			c0-1.5,0.2-2.7,0.5-3.5s0.9-1.5,1.8-2s1.9-0.8,3.2-0.8c1.1,0,2.1,0.2,2.9,0.5c0.8,0.3,1.4,0.8,1.8,1.3c0.4,0.5,0.7,1.1,0.9,1.6
			C215.4,64.5,215.5,65.3,215.5,66.5z M210.6,65.3c0-0.8,0-1.4-0.1-1.6c-0.1-0.2-0.3-0.3-0.6-0.3s-0.5,0.1-0.6,0.3
			c-0.1,0.2-0.1,0.7-0.1,1.6v7.3c0,0.8,0,1.3,0.1,1.5c0.1,0.2,0.3,0.3,0.6,0.3c0.3,0,0.5-0.1,0.6-0.3c0.1-0.2,0.1-0.7,0.1-1.4V65.3z
			"/>
	</g>
	<g class="st0">
		<path class="st1" d="M232.4,57.2v4h-3.1V77h-5.1V61.2h-3v-4H232.4z"/>
		<path class="st1" d="M246.4,57.2L243.8,77H236l-3-19.8h5.4c0.6,5.4,1.1,10,1.3,13.8c0.3-3.8,0.5-7.2,0.8-10.1l0.4-3.7H246.4z"/>
	</g>
</g>
</svg>